<svg xmlns="http://www.w3.org/2000/svg" width="450" height="260.556" viewBox="0 0 450 260.556">
    <defs>
        <style>
            .prefix__cls-2{fill:#f1ebba}.prefix__cls-3{fill:none;stroke:#2e2f45;stroke-miterlimit:10;stroke-width:2px}.prefix__cls-4{fill:#f0f0f0}.prefix__cls-5{fill:#2e2f45}.prefix__cls-6{fill:#41a636}.prefix__cls-7{fill:#212332}.prefix__cls-8{fill:#f6afb1}.prefix__cls-9{fill:#f5a6a9}.prefix__cls-10{fill:#c3c2db}
        </style>
    </defs>
    <g id="prefix__Group_88" data-name="Group 88" transform="translate(0 -322.968)">
        <path id="prefix__Path_424" d="M58.128 581.785a160.543 160.543 0 0 1 321.086 0" data-name="Path 424" style="fill:#fffce5"/>
        <g id="prefix__Group_89" data-name="Group 89">
            <path id="prefix__Rectangle_230" d="M0 0H73.341V1.048H0z" class="prefix__cls-2" data-name="Rectangle 230" transform="translate(191.735 332.398)"/>
            <path id="prefix__Rectangle_231" d="M0 0H1.048V9.692H0z" class="prefix__cls-2" data-name="Rectangle 231" transform="translate(211.641 322.968)"/>
            <path id="prefix__Rectangle_232" d="M0 0H1.048V9.692H0z" class="prefix__cls-2" data-name="Rectangle 232" transform="translate(243.597 322.968)"/>
            <g id="prefix__Group_88-2" data-name="Group 88">
                <path id="prefix__Rectangle_233" d="M0 0H73.341V1.048H0z" class="prefix__cls-2" data-name="Rectangle 233" transform="translate(375.214 578.551)"/>
                <path id="prefix__Rectangle_234" d="M0 0H1.048V9.692H0z" class="prefix__cls-2" data-name="Rectangle 234" transform="translate(427.077 569.121)"/>
                <path id="prefix__Rectangle_235" d="M0 0H73.341V1.048H0z" class="prefix__cls-2" data-name="Rectangle 235" transform="translate(313.795 426.169)"/>
                <path id="prefix__Rectangle_236" d="M0 0H1.048V9.692H0z" class="prefix__cls-2" data-name="Rectangle 236" transform="translate(365.658 416.74)"/>
                <path id="prefix__Rectangle_237" d="M0 0H73.341V1.048H0z" class="prefix__cls-2" data-name="Rectangle 237" transform="translate(313.795 388.451)"/>
                <path id="prefix__Rectangle_238" d="M0 0H1.048V9.692H0z" class="prefix__cls-2" data-name="Rectangle 238" transform="translate(333.702 379.022)"/>
                <path id="prefix__Rectangle_239" d="M0 0H1.048V9.692H0z" class="prefix__cls-2" data-name="Rectangle 239" transform="translate(365.658 379.022)"/>
                <path id="prefix__Rectangle_240" d="M0 0H73.341V1.048H0z" class="prefix__cls-2" data-name="Rectangle 240" transform="translate(152.969 393.69)"/>
                <path id="prefix__Rectangle_241" d="M0 0H1.048V9.692H0z" class="prefix__cls-2" data-name="Rectangle 241" transform="translate(172.875 384.26)"/>
                <path id="prefix__Rectangle_242" d="M0 0H1.048V9.692H0z" class="prefix__cls-2" data-name="Rectangle 242" transform="translate(204.831 384.26)"/>
                <path id="prefix__Rectangle_243" d="M0 0H73.341V1.048H0z" class="prefix__cls-2" data-name="Rectangle 243" transform="translate(99.534 369.068)"/>
                <path id="prefix__Rectangle_244" d="M0 0H1.048V9.692H0z" class="prefix__cls-2" data-name="Rectangle 244" transform="translate(119.441 359.639)"/>
                <path id="prefix__Rectangle_245" d="M0 0H1.048V9.692H0z" class="prefix__cls-2" data-name="Rectangle 245" transform="translate(151.397 359.639)"/>
                <path id="prefix__Rectangle_246" d="M0 0H73.341V1.048H0z" class="prefix__cls-2" data-name="Rectangle 246" transform="translate(66.531 465.983)"/>
                <path id="prefix__Rectangle_247" d="M0 0H1.048V9.692H0z" class="prefix__cls-2" data-name="Rectangle 247" transform="translate(86.438 456.554)"/>
                <path id="prefix__Rectangle_248" d="M0 0H73.341V1.048H0z" class="prefix__cls-2" data-name="Rectangle 248" transform="translate(29.86 572.852)"/>
                <path id="prefix__Rectangle_249" d="M0 0H1.048V9.692H0z" class="prefix__cls-2" data-name="Rectangle 249" transform="translate(49.767 563.422)"/>
                <path id="prefix__Rectangle_250" d="M0 0H1.048V9.692H0z" class="prefix__cls-2" data-name="Rectangle 250" transform="translate(81.723 563.422)"/>
                <path id="prefix__Rectangle_251" d="M0 0H73.341V1.048H0z" class="prefix__cls-2" data-name="Rectangle 251" transform="translate(376.659 528.847)"/>
                <path id="prefix__Rectangle_252" d="M0 0H73.341V1.048H0z" class="prefix__cls-2" data-name="Rectangle 252" transform="translate(355.18 461.792)"/>
                <path id="prefix__Rectangle_253" d="M0 0H1.048V9.692H0z" class="prefix__cls-2" data-name="Rectangle 253" transform="translate(375.611 462.578)"/>
                <path id="prefix__Rectangle_254" d="M0 0H73.341V1.048H0z" class="prefix__cls-2" data-name="Rectangle 254" transform="translate(0 383.213)"/>
                <path id="prefix__Rectangle_255" d="M0 0H1.048V9.692H0z" class="prefix__cls-2" data-name="Rectangle 255" transform="translate(52.386 383.998)"/>
                <path id="prefix__Rectangle_256" d="M0 0H1.048V9.692H0z" class="prefix__cls-2" data-name="Rectangle 256" transform="translate(20.431 383.998)"/>
                <path id="prefix__Rectangle_257" d="M0 0H73.341V1.048H0z" class="prefix__cls-2" data-name="Rectangle 257" transform="translate(4.715 520.465)"/>
                <path id="prefix__Rectangle_258" d="M0 0H1.048V9.692H0z" class="prefix__cls-2" data-name="Rectangle 258" transform="translate(57.101 521.251)"/>
                <path id="prefix__Rectangle_259" d="M0 0H1.048V9.692H0z" class="prefix__cls-2" data-name="Rectangle 259" transform="translate(25.146 521.251)"/>
                <path id="prefix__Rectangle_260" d="M0 0H73.341V1.048H0z" class="prefix__cls-2" data-name="Rectangle 260" transform="translate(235.739 349.161)"/>
                <path id="prefix__Rectangle_261" d="M0 0H1.048V9.692H0z" class="prefix__cls-2" data-name="Rectangle 261" transform="translate(288.126 349.947)"/>
                <path id="prefix__Rectangle_262" d="M0 0H1.048V9.692H0z" class="prefix__cls-2" data-name="Rectangle 262" transform="translate(256.17 349.947)"/>
                <path id="prefix__Rectangle_263" d="M0 0H73.341V1.048H0z" class="prefix__cls-2" data-name="Rectangle 263" transform="translate(29.86 421.979)"/>
                <path id="prefix__Rectangle_264" d="M0 0H1.048V9.692H0z" class="prefix__cls-2" data-name="Rectangle 264" transform="translate(49.767 412.549)"/>
                <path id="prefix__Rectangle_265" d="M0 0H1.048V9.692H0z" class="prefix__cls-2" data-name="Rectangle 265" transform="translate(81.723 412.549)"/>
            </g>
        </g>
        <path id="prefix__Line_19" d="M0 0L354.291 0" class="prefix__cls-3" data-name="Line 19" transform="translate(70.786 582.524)"/>
        <path id="prefix__Line_20" d="M0 0L55.721 0" class="prefix__cls-3" data-name="Line 20" transform="translate(10.635 582.524)"/>
        <g id="prefix__Group_91" data-name="Group 91">
            <circle id="prefix__Ellipse_111" cx="8.932" cy="8.932" r="8.932" class="prefix__cls-4" data-name="Ellipse 111" transform="translate(119.454 419.135)"/>
            <circle id="prefix__Ellipse_112" cx="5.886" cy="5.886" r="5.886" class="prefix__cls-2" data-name="Ellipse 112" transform="translate(86.727 521.872)"/>
            <path id="prefix__Rectangle_266" d="M0 0H1.032V9.544H0z" class="prefix__cls-4" data-name="Rectangle 266" transform="translate(337.095 500.438)"/>
            <path id="prefix__Rectangle_267" d="M0 0H1.032V9.544H0z" class="prefix__cls-4" data-name="Rectangle 267" transform="translate(340.706 343.093)"/>
            <path id="prefix__Rectangle_268" d="M0 0H1.032V9.544H0z" class="prefix__cls-4" data-name="Rectangle 268" transform="translate(128.678 382.301)"/>
            <path id="prefix__Path_427" d="M128.585 352.637v228.537h211.554V352.637z" class="prefix__cls-5" data-name="Path 427"/>
            <path id="prefix__Path_428" d="M34.3 560.434c3.566 13.185 15.783 21.351 15.783 21.351s6.435-13.211 2.868-26.4-15.784-21.351-15.784-21.351-6.432 13.215-2.867 26.4z" class="prefix__cls-5" data-name="Path 428"/>
            <path id="prefix__Path_429" d="M39.543 557.6c9.787 9.527 10.983 24.174 10.983 24.174s-14.673-.8-24.461-10.329-10.983-24.174-10.983-24.174 14.673.802 24.461 10.329z" class="prefix__cls-6" data-name="Path 429"/>
            <path id="prefix__Path_430" d="M103.915 548.848a11.366 11.366 0 0 0-7.238-10.576 11.35 11.35 0 1 0-8.222 0 11.346 11.346 0 0 0 0 21.152 11.35 11.35 0 1 0 8.222 0 11.367 11.367 0 0 0 7.238-10.576zM82.248 527.7a10.318 10.318 0 1 1 12.646 10.04 11.343 11.343 0 0 0-4.656 0 10.329 10.329 0 0 1-7.99-10.04zm20.635 42.3a10.318 10.318 0 1 1-12.645-10.043 11.341 11.341 0 0 0 4.656 0A10.329 10.329 0 0 1 102.883 570zm-7.989-11.108a11.341 11.341 0 0 0-4.656 0 10.307 10.307 0 0 1 0-20.086 11.377 11.377 0 0 0 4.656 0 10.307 10.307 0 0 1 0 20.086z" class="prefix__cls-5" data-name="Path 430"/>
            <path id="prefix__Path_431" d="M263.232 400.431H152.118a3.4 3.4 0 1 1 0-6.793h111.114a3.4 3.4 0 1 1 0 6.793z" class="prefix__cls-4" data-name="Path 431"/>
            <path id="prefix__Path_432" d="M263.232 435.367H152.118a3.4 3.4 0 1 1 0-6.793h111.114a3.4 3.4 0 1 1 0 6.793z" class="prefix__cls-4" data-name="Path 432"/>
            <path id="prefix__Path_433" d="M263.232 470.3H152.118a3.4 3.4 0 1 1 0-6.793h111.114a3.4 3.4 0 1 1 0 6.793z" class="prefix__cls-4" data-name="Path 433"/>
            <path id="prefix__Path_434" d="M263.232 505.238H152.118a3.4 3.4 0 1 1 0-6.793h111.114a3.4 3.4 0 1 1 0 6.793z" class="prefix__cls-4" data-name="Path 434"/>
            <path id="prefix__Path_435" d="M263.232 540.173H152.118a3.4 3.4 0 1 1 0-6.793h111.114a3.4 3.4 0 1 1 0 6.793z" class="prefix__cls-4" data-name="Path 435"/>
            <path id="prefix__Path_436" d="M243.824 400.431h-92.191a3.4 3.4 0 1 1 0-6.793h92.191a3.4 3.4 0 0 1 0 6.793z" class="prefix__cls-6" data-name="Path 436"/>
            <path id="prefix__Path_437" d="M215.2 435.367h-63.567a3.4 3.4 0 1 1 0-6.793H215.2a3.4 3.4 0 1 1 0 6.793z" class="prefix__cls-6" data-name="Path 437"/>
            <path id="prefix__Path_438" d="M180.26 470.3h-28.627a3.4 3.4 0 1 1 0-6.793h28.627a3.4 3.4 0 1 1 0 6.793z" class="prefix__cls-6" data-name="Path 438"/>
            <path id="prefix__Path_439" d="M252.558 505.238H151.633a3.4 3.4 0 1 1 0-6.793h100.925a3.4 3.4 0 0 1 0 6.793z" class="prefix__cls-6" data-name="Path 439"/>
            <path id="prefix__Path_440" d="M230.238 540.173h-78.605a3.4 3.4 0 1 1 0-6.793h78.605a3.4 3.4 0 0 1 0 6.793z" class="prefix__cls-6" data-name="Path 440"/>
            <path id="prefix__Rectangle_269" d="M0 0H0.97V6.793H0z" class="prefix__cls-6" data-name="Rectangle 269" transform="translate(308.358 393.638)"/>
            <path id="prefix__Path_441" d="M316.606 400.916a3.881 3.881 0 1 1 3.882-3.881 3.881 3.881 0 0 1-3.882 3.881zm0-6.793a2.912 2.912 0 1 0 2.912 2.912 2.911 2.911 0 0 0-2.912-2.912z" class="prefix__cls-6" data-name="Path 441"/>
            <path id="prefix__Rectangle_270" d="M0 0H0.97V6.793H0z" class="prefix__cls-6" data-name="Rectangle 270" transform="translate(308.358 428.574)"/>
            <path id="prefix__Path_442" d="M316.606 435.852a3.882 3.882 0 1 1 3.882-3.882 3.881 3.881 0 0 1-3.882 3.882zm0-6.793a2.911 2.911 0 1 0 2.912 2.911 2.911 2.911 0 0 0-2.912-2.911z" class="prefix__cls-6" data-name="Path 442"/>
            <path id="prefix__Rectangle_271" d="M0 0H0.97V6.793H0z" class="prefix__cls-6" data-name="Rectangle 271" transform="translate(308.358 463.509)"/>
            <path id="prefix__Path_443" d="M316.606 470.787a3.882 3.882 0 1 1 3.882-3.881 3.88 3.88 0 0 1-3.882 3.881zm0-6.793a2.911 2.911 0 1 0 2.912 2.912 2.911 2.911 0 0 0-2.912-2.912z" class="prefix__cls-6" data-name="Path 443"/>
            <path id="prefix__Rectangle_272" d="M0 0H0.97V6.793H0z" class="prefix__cls-6" data-name="Rectangle 272" transform="translate(308.358 498.445)"/>
            <path id="prefix__Path_444" d="M316.606 505.723a3.882 3.882 0 1 1 3.882-3.882 3.881 3.881 0 0 1-3.882 3.882zm0-6.793a2.911 2.911 0 1 0 2.912 2.911 2.911 2.911 0 0 0-2.912-2.911z" class="prefix__cls-6" data-name="Path 444"/>
            <path id="prefix__Rectangle_273" d="M0 0H0.97V6.793H0z" class="prefix__cls-6" data-name="Rectangle 273" transform="translate(308.358 533.38)"/>
            <path id="prefix__Path_445" d="M316.606 540.659a3.882 3.882 0 1 1 3.882-3.882 3.881 3.881 0 0 1-3.882 3.882zm0-6.793a2.911 2.911 0 1 0 2.912 2.911 2.911 2.911 0 0 0-2.912-2.911z" class="prefix__cls-6" data-name="Path 445"/>
            <circle id="prefix__Ellipse_113" cx="1.941" cy="1.941" r="1.941" class="prefix__cls-6" data-name="Ellipse 113" transform="translate(314.665 395.094)"/>
            <circle id="prefix__Ellipse_114" cx="1.941" cy="1.941" r="1.941" class="prefix__cls-6" data-name="Ellipse 114" transform="translate(314.665 499.9)"/>
            <circle id="prefix__Ellipse_115" cx="1.941" cy="1.941" r="1.941" class="prefix__cls-6" data-name="Ellipse 115" transform="translate(314.665 534.836)"/>
            <g id="prefix__Group_90" data-name="Group 90">
                <path id="prefix__Path_446" d="M376.778 374.62l3.5 34.659h28.843L407.74 356.6c0-11.339-7.839-21.257-19.178-21.257s-18.716 9.456-18.716 20.8L368 409.279h4.7z" class="prefix__cls-7" data-name="Path 446"/>
                <path id="prefix__Path_447" d="M394.018 556.371s-1.245 7.884-3.32 9.129 10.789 4.15 10.789 4.15l2.075-12.449z" class="prefix__cls-8" data-name="Path 447"/>
                <path id="prefix__Path_448" d="M409.372 466.321l4.565 5.394-2.075 18.674-1.66 36.933s3.32 31.954 0 32.784-18.259.415-17.844-1.66.83-3.735 1.66-6.64-.83-13.279-.83-13.279l2.075-11.62-7.47-50.212z" class="prefix__cls-7" data-name="Path 448"/>
                <path id="prefix__Path_449" d="M394.433 564.255s-4.565-.829-4.98 0-8.3 9.545-9.545 9.545-10.374 8.3-.83 8.714 25.314-7.054 25.314-7.054-2.321-10.56-2.2-10.052-7.759.922-7.759-1.153z" class="prefix__cls-7" data-name="Path 449"/>
                <path id="prefix__Path_450" d="M389.453 545.166s11.619 12.865 12.034 14.11 6.64 0 6.64 0l2.49-8.3-2.075-2.905-11.619-9.544z" class="prefix__cls-8" data-name="Path 450"/>
                <path id="prefix__Path_451" d="M406.052 554.711l-6.017 5.664s7.677 11.765 7.677 13.01.415 11.619 4.565 9.959 4.564-18.259 4.564-18.259-.415-17.014-2.9-18.259-7.947-.851-7.947-.851 3.378 8.325.058 8.736z" class="prefix__cls-7" data-name="Path 451"/>
                <path id="prefix__Path_452" d="M371.609 429.388s-2.075 6.639-2.49 8.3-2.9 6.225-2.9 13.279.83 15.355 0 16.185-14.109 47.307-8.3 52.287 24.9 21.579 26.143 23.654 1.66 7.054 4.15 6.224 12.034-9.129 12.449-10.789-5.394-4.565-5.394-4.565-11.62-17.014-14.525-16.6-2.489-2.075-2.074-3.32 1.244-2.075 0-2.075-.415-3.32 0-4.98 9.959-24.068 9.959-24.068l25.314-11.205s-1.245-30.293-10.375-38.593l-2.075-4.979s-23.243-1.66-29.882 1.245z" class="prefix__cls-7" data-name="Path 452"/>
                <path id="prefix__Path_453" d="M381.983 363.821s2.075 14.524-2.9 15.354-9.129.415-9.129.83 12.449 13.28 12.449 13.28l11.62-.83 10.374-11.2s-9.544-1.66-9.544-7.469-.415-9.96-.415-9.96z" class="prefix__cls-9" data-name="Path 453"/>
                <circle id="prefix__Ellipse_116" cx="12.864" cy="12.864" r="12.864" class="prefix__cls-9" data-name="Ellipse 116" transform="translate(375.551 344.11)"/>
                <path id="prefix__Path_454" d="M380.908 378.119s-20.089 1.886-21.334 7.281 8.3 39.008 9.545 41.913a9.179 9.179 0 0 1 .83 4.98 16.414 16.414 0 0 1 13.279-2.9c7.885 1.66 19.089.83 19.089.83s3.735-15.355 4.565-17.014 4.15-10.79 4.15-13.28 4.979-12.864 4.979-12.864-2.489-7.47-11.619-7.055c0 0-3.982-1.782-5.1-.476s-7.346 7.116-15.231 4.626-3.153-6.041-3.153-6.041z" class="prefix__cls-10" data-name="Path 454"/>
                <path id="prefix__Path_455" d="M408.127 384.985l7.884 2.075s5.81 21.164 6.225 21.579a10.557 10.557 0 0 1 .83 2.9s0 .415.83 1.659 2.075.415 1.245 2.075-2.075.83-1.245 2.49.415 6.225.415 6.225-2.075-7.885-9.544-5.81l-4.98-22.409z" class="prefix__cls-10" data-name="Path 455"/>
                <path id="prefix__Path_456" d="M410.733 388.957l-.028.095-13.669 43.06-8.972-1.993-9.7-2.154 13.7-44.4z" class="prefix__cls-6" data-name="Path 456"/>
                <path id="prefix__Path_457" d="M367.6 384.985l-7.885 2.075s-5.81 21.164-6.225 21.579a10.549 10.549 0 0 0-.829 2.9s0 .415-.83 1.659-2.075.415-1.245 2.075 2.074.83 1.245 2.49-.415 6.225-.415 6.225 2.074-7.885 9.544-5.81l4.98-22.409z" class="prefix__cls-10" data-name="Path 457"/>
                <path id="prefix__Path_458" d="M353.908 416.938l-2.592 4.333s-1.142 8.117 4.667 8.117 14.11-7.885 14.11-7.885 4.149-1.66 6.639-1.245 16.184 0 10.375-7.055-15.77 0-15.77 0l-10.374 4.98-5.4-2.9z" class="prefix__cls-9" data-name="Path 458"/>
                <path id="prefix__Path_459" d="M357.436 411.336l4.15 6.64s-9.545 1.245-10.375 3.32 3.735-10.79 3.735-10.79z" data-name="Path 459" style="fill:#c3c2dc"/>
                <path id="prefix__Path_460" d="M377.7 352.438c8.357-4.5 11.79-4.315 22.182 0l2.773-6.755a4.8 4.8 0 0 0-4.8-4.8h-18.59a4.8 4.8 0 0 0-4.8 4.8z" class="prefix__cls-7" data-name="Path 460"/>
                <path id="prefix__Path_461" d="M410.7 389.052l-13.669 43.06-8.972-1.993 13.484-43.71z" data-name="Path 461" style="fill:#040505;opacity:.2;isolation:isolate"/>
                <path id="prefix__Path_462" d="M404.392 386.409l-13.694 44.4 18.674 4.149 13.694-43.158z" class="prefix__cls-6" data-name="Path 462"/>
                <path id="prefix__Path_463" d="M421.821 416.938l2.593 4.333s1.142 8.117-4.668 8.117-14.109-7.885-14.109-7.885-4.15-1.66-6.64-1.245-16.184 0-10.374-7.055 15.769 0 15.769 0l10.375 4.98 5.394-2.9z" class="prefix__cls-9" data-name="Path 463"/>
                <path id="prefix__Path_464" d="M418.294 411.336l-4.15 6.64s9.545 1.245 10.375 3.32-3.735-10.79-3.735-10.79z" class="prefix__cls-10" data-name="Path 464"/>
            </g>
        </g>
    </g>
</svg>
