<svg xmlns="http://www.w3.org/2000/svg" width="450" height="318.255" viewBox="0 0 450 318.255">
    <defs>
        <style>
            .prefix__cls-2{fill:#f5a6a9}.prefix__cls-3{fill:#f1ebba}.prefix__cls-4{fill:none;stroke-width:2px;stroke:#2e2f45;stroke-miterlimit:10}.prefix__cls-5{fill:#212332}.prefix__cls-6{fill:#c3c2db}.prefix__cls-7{fill:#fff}.prefix__cls-10{fill:#41a636}
        </style>
    </defs>
    <g id="prefix__Group_84" data-name="Group 84" transform="translate(0 57.699)">
        <path id="prefix__Path_381" d="M58.128 258.817a160.543 160.543 0 0 1 321.086 0" data-name="Path 381" style="fill:#fffce5"/>
        <path id="prefix__Path_382" d="M150.955 70.221l8.407 13.021 27.338-.218s11.493-6.49 13.8 2.067c.791 2.931-11.239 3.724-12.372 3.793-2.832.171-31.077 5.072-32.821 2.562S144.4 80.169 144.4 80.169z" class="prefix__cls-2" data-name="Path 382"/>
        <g id="prefix__Group_85" data-name="Group 85">
            <path id="prefix__Rectangle_192" d="M0 0H73.341V1.048H0z" class="prefix__cls-3" data-name="Rectangle 192" transform="translate(191.735 9.43)"/>
            <path id="prefix__Rectangle_193" d="M0 0H1.048V9.692H0z" class="prefix__cls-3" data-name="Rectangle 193" transform="translate(211.641)"/>
            <path id="prefix__Rectangle_194" d="M0 0H1.048V9.692H0z" class="prefix__cls-3" data-name="Rectangle 194" transform="translate(243.597)"/>
            <g id="prefix__Group_84-2" data-name="Group 84">
                <path id="prefix__Rectangle_195" d="M0 0H73.341V1.048H0z" class="prefix__cls-3" data-name="Rectangle 195" transform="translate(375.214 255.582)"/>
                <path id="prefix__Rectangle_196" d="M0 0H1.048V9.692H0z" class="prefix__cls-3" data-name="Rectangle 196" transform="translate(427.077 246.153)"/>
                <path id="prefix__Rectangle_197" d="M0 0H73.341V1.048H0z" class="prefix__cls-3" data-name="Rectangle 197" transform="translate(313.795 103.201)"/>
                <path id="prefix__Rectangle_198" d="M0 0H1.048V9.692H0z" class="prefix__cls-3" data-name="Rectangle 198" transform="translate(365.658 93.772)"/>
                <path id="prefix__Rectangle_199" d="M0 0H73.341V1.048H0z" class="prefix__cls-3" data-name="Rectangle 199" transform="translate(313.795 65.483)"/>
                <path id="prefix__Rectangle_200" d="M0 0H1.048V9.692H0z" class="prefix__cls-3" data-name="Rectangle 200" transform="translate(333.702 56.054)"/>
                <path id="prefix__Rectangle_201" d="M0 0H1.048V9.692H0z" class="prefix__cls-3" data-name="Rectangle 201" transform="translate(365.658 56.054)"/>
                <path id="prefix__Rectangle_202" d="M0 0H73.341V1.048H0z" class="prefix__cls-3" data-name="Rectangle 202" transform="translate(152.969 70.722)"/>
                <path id="prefix__Rectangle_203" d="M0 0H1.048V9.692H0z" class="prefix__cls-3" data-name="Rectangle 203" transform="translate(172.875 61.292)"/>
                <path id="prefix__Rectangle_204" d="M0 0H1.048V9.692H0z" class="prefix__cls-3" data-name="Rectangle 204" transform="translate(204.831 61.292)"/>
                <path id="prefix__Rectangle_205" d="M0 0H73.341V1.048H0z" class="prefix__cls-3" data-name="Rectangle 205" transform="translate(99.534 46.1)"/>
                <path id="prefix__Rectangle_206" d="M0 0H1.048V9.692H0z" class="prefix__cls-3" data-name="Rectangle 206" transform="translate(119.441 36.671)"/>
                <path id="prefix__Rectangle_207" d="M0 0H1.048V9.692H0z" class="prefix__cls-3" data-name="Rectangle 207" transform="translate(151.397 36.671)"/>
                <path id="prefix__Rectangle_208" d="M0 0H73.341V1.048H0z" class="prefix__cls-3" data-name="Rectangle 208" transform="translate(66.531 143.015)"/>
                <path id="prefix__Rectangle_209" d="M0 0H1.048V9.692H0z" class="prefix__cls-3" data-name="Rectangle 209" transform="translate(86.438 133.586)"/>
                <path id="prefix__Rectangle_210" d="M0 0H73.341V1.048H0z" class="prefix__cls-3" data-name="Rectangle 210" transform="translate(29.86 249.884)"/>
                <path id="prefix__Rectangle_211" d="M0 0H1.048V9.692H0z" class="prefix__cls-3" data-name="Rectangle 211" transform="translate(49.767 240.454)"/>
                <path id="prefix__Rectangle_212" d="M0 0H1.048V9.692H0z" class="prefix__cls-3" data-name="Rectangle 212" transform="translate(81.723 240.454)"/>
                <path id="prefix__Rectangle_213" d="M0 0H73.341V1.048H0z" class="prefix__cls-3" data-name="Rectangle 213" transform="translate(376.659 205.879)"/>
                <path id="prefix__Rectangle_214" d="M0 0H73.341V1.048H0z" class="prefix__cls-3" data-name="Rectangle 214" transform="translate(355.18 138.824)"/>
                <path id="prefix__Rectangle_215" d="M0 0H1.048V9.692H0z" class="prefix__cls-3" data-name="Rectangle 215" transform="translate(375.611 139.61)"/>
                <path id="prefix__Rectangle_216" d="M0 0H73.341V1.048H0z" class="prefix__cls-3" data-name="Rectangle 216" transform="translate(0 60.244)"/>
                <path id="prefix__Rectangle_217" d="M0 0H1.048V9.692H0z" class="prefix__cls-3" data-name="Rectangle 217" transform="translate(52.386 61.03)"/>
                <path id="prefix__Rectangle_218" d="M0 0H1.048V9.692H0z" class="prefix__cls-3" data-name="Rectangle 218" transform="translate(20.431 61.03)"/>
                <path id="prefix__Rectangle_219" d="M0 0H73.341V1.048H0z" class="prefix__cls-3" data-name="Rectangle 219" transform="translate(4.715 197.497)"/>
                <path id="prefix__Rectangle_220" d="M0 0H1.048V9.692H0z" class="prefix__cls-3" data-name="Rectangle 220" transform="translate(57.101 198.283)"/>
                <path id="prefix__Rectangle_221" d="M0 0H1.048V9.692H0z" class="prefix__cls-3" data-name="Rectangle 221" transform="translate(25.146 198.283)"/>
                <path id="prefix__Rectangle_222" d="M0 0H73.341V1.048H0z" class="prefix__cls-3" data-name="Rectangle 222" transform="translate(235.739 26.193)"/>
                <path id="prefix__Rectangle_223" d="M0 0H1.048V9.692H0z" class="prefix__cls-3" data-name="Rectangle 223" transform="translate(288.126 26.979)"/>
                <path id="prefix__Rectangle_224" d="M0 0H1.048V9.692H0z" class="prefix__cls-3" data-name="Rectangle 224" transform="translate(256.17 26.979)"/>
                <path id="prefix__Rectangle_225" d="M0 0H73.341V1.048H0z" class="prefix__cls-3" data-name="Rectangle 225" transform="translate(29.86 99.01)"/>
                <path id="prefix__Rectangle_226" d="M0 0H1.048V9.692H0z" class="prefix__cls-3" data-name="Rectangle 226" transform="translate(49.767 89.581)"/>
                <path id="prefix__Rectangle_227" d="M0 0H1.048V9.692H0z" class="prefix__cls-3" data-name="Rectangle 227" transform="translate(81.723 89.581)"/>
            </g>
        </g>
        <path id="prefix__Line_17" d="M0 0L354.291 0" class="prefix__cls-4" data-name="Line 17" transform="translate(70.786 259.556)"/>
        <path id="prefix__Line_18" d="M0 0L55.721 0" class="prefix__cls-4" data-name="Line 18" transform="translate(10.635 259.556)"/>
        <g id="prefix__Group_86" data-name="Group 86">
            <path id="prefix__Path_385" d="M154.355 22.771s6.841-2.444 11.24 7.33a192.667 192.667 0 0 0 11.24 20.525l-3.91.978s-.977-6.842-3.421-7.819l.978 8.8s-29.322 10.259-42.517-.985l.489-3.421s-1.955.489-1.955 3.421l-1.466-1.466s1.467-2.928 5.867-6.834c2.887-2.566 3.879-7.448 4.22-10.5a12.705 12.705 0 0 1 2.925-6.92c2.92-3.391 8.246-6.992 16.31-3.109z" class="prefix__cls-5" data-name="Path 385"/>
            <path id="prefix__Path_386" d="M114.767 211.182l-17.039 25.265 15.864 15.864 2.057-4.112-3.526-8.226s.588-7.638 2.644-9.7 11.164-14.4 11.164-14.4z" class="prefix__cls-2" data-name="Path 386"/>
            <path id="prefix__Path_387" d="M136.507 129.512s-3.231 5.114 3.526 27.147c0 0-31.517 53.193-26.523 56.718s18.509 11.328 22.034 8.977 29.166-81.972 29.166-81.972z" class="prefix__cls-5" data-name="Path 387"/>
            <path id="prefix__Path_388" d="M100.813 231.894l-5.141 5.141c-2.644 2.644-4.407 6.463.587 9.695s22.327 15.276 28.2 11.457-7.051-7.344-7.051-7.344-2.137-7.925-3.272-6.166-1.136 5.284-1.136 5.284z" class="prefix__cls-5" data-name="Path 388"/>
            <path id="prefix__Path_389" d="M162.947 224.99s9.4 17.333 9.4 19.389-.588 7.933-.588 7.933l17.921 4.406 6.169-2.938-2.056-5.288s-11.164-3.819-13.514-11.163-4.994-14.983-4.994-14.983z" class="prefix__cls-2" data-name="Path 389"/>
            <circle id="prefix__Ellipse_108" cx="12.339" cy="12.339" r="12.339" class="prefix__cls-2" data-name="Ellipse 108" transform="translate(139.738 27.864)"/>
            <path id="prefix__Path_390" d="M155.309 50.779l-5.891 16.926-12.911-5.762s8.813-13.514 8.813-15.277z" class="prefix__cls-2" data-name="Path 390"/>
            <path id="prefix__Path_391" d="M157.071 111H141.5s-11.164 17.039-4.7 34.959a93.021 93.021 0 0 1 2.952 11.134c2.256 10.452 4.5 24.61 6.8 37.62 3.232 18.274 6.574 34.283 10.208 34.574 7.344.588 21.626.49 21.626-2.448s-9.566-87.93-9.566-87.93l-2.057-3.526-.389-15.356a9.261 9.261 0 0 0-9.303-9.027z" class="prefix__cls-5" data-name="Path 391"/>
            <path id="prefix__Path_392" d="M172.495 244.233s-3.379 5.728-2.5 9.841 2.35 3.526 8.813 4.113 28.5.588 28.5-3.525-17.188-9.454-17.261-7.812-.66 4.874 1.1 5.461.147.147.147.147z" class="prefix__cls-5" data-name="Path 392"/>
            <path id="prefix__Path_393" d="M142.668 119.192c2.3 0 7.239-5.9 9.825-3.316 1.88 1.881 3.476 3.688 4.884 5.282 4.043 4.576 7.576 8.769 10.032 5.76.371-.454-.877.6.164-.112a2.517 2.517 0 0 0 1.014-2.732c-3.563-11.162-5.781-21.856-2.948-30.788a7.249 7.249 0 0 0 .3-2.186q0-.162.015-.324c.15-1.649.112-7.552-6.652-14.316-6.182-6.182-7.368-9.981-7.524-11.695-.037-.4-10-10.739-10-10.739a2.506 2.506 0 0 0-3 .842l-3.192 4.389a41.988 41.988 0 0 0-4.386 22.235c.865 9.959 2.365 29.654 3.6 36.759a2.6 2.6 0 0 0 .961 1.637 2.473 2.473 0 0 0 2.533.3 10.668 10.668 0 0 1 4.374-.996z" class="prefix__cls-6" data-name="Path 393"/>
            <path id="prefix__Path_394" d="M141.009 72.12s4.774-3.112 11.327 2.422 7.864 10.486 7.864 10.486L144.763 94.2s-15.081-16.055-3.754-22.08z" class="prefix__cls-6" data-name="Path 394"/>
            <path id="prefix__Path_395" d="M165.29 40.754a35.7 35.7 0 0 1-11.422-11.275s-8.939 9.02-14.4 9.471-.5-10.824-.5-10.824l9.933-2.255 9.435.9 7.45 4.51z" class="prefix__cls-5" data-name="Path 395"/>
            <ellipse id="prefix__Ellipse_109" cx="1.313" cy="2.364" class="prefix__cls-2" data-name="Ellipse 109" rx="1.313" ry="2.364" transform="translate(138.481 37.532)"/>
        </g>
        <path id="prefix__Path_396" d="M214.793-56.372a26.937 26.937 0 0 0-26.907 26.906V229.5a26.937 26.937 0 0 0 26.907 26.9H314.8a26.937 26.937 0 0 0 26.908-26.9V50.925h1.723V18.152h-1.723v-47.618A26.937 26.937 0 0 0 314.8-56.372z" class="prefix__cls-7" data-name="Path 396"/>
        <g id="prefix__Group_87" data-name="Group 87">
            <path id="prefix__Path_397" d="M315.9-49.678h-13.051a9.693 9.693 0 0 1-5.314 12.636 9.7 9.7 0 0 1-3.661.718h-57.293a9.692 9.692 0 0 1-9.692-9.694 9.69 9.69 0 0 1 .718-3.66h-12.193a20.4 20.4 0 0 0-20.4 20.4v258.586a20.4 20.4 0 0 0 20.4 20.4H315.9a20.4 20.4 0 0 0 20.4-20.4V-29.276a20.4 20.4 0 0 0-20.4-20.4z" data-name="Path 397" style="fill:#2e2f45"/>
            <path id="prefix__Path_398" d="M314.8 257.232H214.793a27.765 27.765 0 0 1-27.734-27.732V-29.466A27.765 27.765 0 0 1 214.793-57.2H314.8a27.764 27.764 0 0 1 27.733 27.733v46.792h1.724v34.427h-1.724V229.5a27.764 27.764 0 0 1-27.733 27.732zM214.793-56.372a26.937 26.937 0 0 0-26.907 26.906V229.5a26.937 26.937 0 0 0 26.907 26.9H314.8a26.937 26.937 0 0 0 26.908-26.9V50.925h1.723V18.152h-1.723v-47.618A26.937 26.937 0 0 0 314.8-56.372z" data-name="Path 398" style="fill:#a19528;stroke:#2e2f45;stroke-miterlimit:10"/>
            <path id="prefix__Path_399" d="M223.074-8.547a1.448 1.448 0 0 0-1.447 1.447v85.173a1.448 1.448 0 0 0 1.447 1.447h85.174a1.449 1.449 0 0 0 1.447-1.447V-7.1a1.449 1.449 0 0 0-1.447-1.447z" class="prefix__cls-7" data-name="Path 399"/>
            <path id="prefix__Path_400" d="M300.779 91.711h-15.668c-.98-8.716 1.182-15.212 0-18.8h15.668a98.089 98.089 0 0 0 0 18.8z" class="prefix__cls-10" data-name="Path 400"/>
            <path id="prefix__Rectangle_228" d="M0 0H131.895V59.539H0z" data-name="Rectangle 228" transform="translate(199.711 112.804)" style="fill:#c1c1c0"/>
            <path id="prefix__Path_401" d="M292.949 34.407a27.2 27.2 0 1 1 0-.025z" class="prefix__cls-10" data-name="Path 401"/>
            <path id="prefix__Path_402" d="M196.694 109.6a1.035 1.035 0 0 0-1.033 1.034v57.058a1.035 1.035 0 0 0 1.033 1.034h129.415a1.035 1.035 0 0 0 1.033-1.034v-57.059a1.035 1.035 0 0 0-1.033-1.034z" class="prefix__cls-7" data-name="Path 402"/>
            <path id="prefix__Path_403" d="M288.042 121.981a.621.621 0 0 0-.62.62v3.007a.621.621 0 0 0 .62.62h17.706a.62.62 0 0 0 .62-.62V122.6a.62.62 0 0 0-.62-.62z" class="prefix__cls-10" data-name="Path 403"/>
            <path id="prefix__Path_404" d="M221 121.981a.621.621 0 0 0-.62.62v3.007a.621.621 0 0 0 .62.62h5.158a.621.621 0 0 0 .621-.62V122.6a.621.621 0 0 0-.621-.62z" class="prefix__cls-10" data-name="Path 404"/>
            <path id="prefix__Path_405" d="M207.375 121.981a.621.621 0 0 0-.621.62v3.007a.621.621 0 0 0 .621.62h5.158a.621.621 0 0 0 .62-.62V122.6a.621.621 0 0 0-.62-.62z" class="prefix__cls-10" data-name="Path 405"/>
            <path id="prefix__Path_406" d="M234.981 121.981a.621.621 0 0 0-.621.62v3.007a.621.621 0 0 0 .621.62h44.595a.621.621 0 0 0 .62-.62V122.6a.621.621 0 0 0-.62-.62z" class="prefix__cls-10" data-name="Path 406"/>
            <path id="prefix__Path_407" d="M245.378 152.1a.621.621 0 0 0-.62.62v3.008a.62.62 0 0 0 .62.62h5.158a.621.621 0 0 0 .62-.62v-3.008a.621.621 0 0 0-.62-.62z" class="prefix__cls-10" data-name="Path 407"/>
            <path id="prefix__Path_408" d="M231.754 152.1a.621.621 0 0 0-.62.62v3.008a.621.621 0 0 0 .62.62h5.158a.62.62 0 0 0 .62-.62v-3.008a.621.621 0 0 0-.62-.62z" class="prefix__cls-10" data-name="Path 408"/>
            <path id="prefix__Path_409" d="M259.36 152.1a.621.621 0 0 0-.62.62v3.008a.621.621 0 0 0 .62.62h44.6a.621.621 0 0 0 .62-.62v-3.008a.622.622 0 0 0-.62-.62z" class="prefix__cls-10" data-name="Path 409"/>
            <path id="prefix__Path_410" d="M232.471 132.378a.62.62 0 0 0-.62.62v3.007a.621.621 0 0 0 .62.62h17.706a.622.622 0 0 0 .621-.62V133a.621.621 0 0 0-.621-.62z" class="prefix__cls-10" data-name="Path 410"/>
            <path id="prefix__Path_411" d="M206.3 132.378a.62.62 0 0 0-.62.62v3.007a.621.621 0 0 0 .62.62h17.706a.621.621 0 0 0 .62-.62V133a.619.619 0 0 0-.62-.62z" class="prefix__cls-10" data-name="Path 411"/>
            <path id="prefix__Path_412" d="M311.346 132.378a.619.619 0 0 0-.62.62v3.007a.621.621 0 0 0 .62.62h5.154a.621.621 0 0 0 .62-.62V133a.62.62 0 0 0-.62-.62z" class="prefix__cls-10" data-name="Path 412"/>
            <path id="prefix__Path_413" d="M258.285 132.378a.619.619 0 0 0-.62.62v3.007a.621.621 0 0 0 .62.62h44.6a.621.621 0 0 0 .62-.62V133a.62.62 0 0 0-.62-.62z" class="prefix__cls-10" data-name="Path 413"/>
            <path id="prefix__Path_414" d="M272.626 142.416a.622.622 0 0 0-.621.62v3.007a.621.621 0 0 0 .621.62h17.706a.62.62 0 0 0 .62-.62v-3.007a.621.621 0 0 0-.62-.62z" class="prefix__cls-10" data-name="Path 414"/>
            <path id="prefix__Path_415" d="M298.8 142.416a.621.621 0 0 0-.62.62v3.007a.619.619 0 0 0 .62.62h17.7a.62.62 0 0 0 .62-.62v-3.007a.621.621 0 0 0-.62-.62z" class="prefix__cls-10" data-name="Path 415"/>
            <path id="prefix__Path_416" d="M206.3 142.416a.621.621 0 0 0-.62.62v3.007a.62.62 0 0 0 .62.62h5.158a.62.62 0 0 0 .62-.62v-3.007a.621.621 0 0 0-.62-.62z" class="prefix__cls-10" data-name="Path 416"/>
            <path id="prefix__Path_417" d="M219.923 142.416a.621.621 0 0 0-.62.62v3.007a.619.619 0 0 0 .62.62h44.6a.619.619 0 0 0 .62-.62v-3.007a.621.621 0 0 0-.62-.62z" class="prefix__cls-10" data-name="Path 417"/>
            <path id="prefix__Path_418" d="M268.515 21.948s5.326-1.9 8.75 5.707a150.074 150.074 0 0 0 8.75 15.979l-3.043.761s-.761-5.327-2.663-6.088l.761 6.848s-22.827 7.99-33.1-.76l.38-2.664s-1.522.381-1.522 2.664l-1.141-1.142a20.45 20.45 0 0 1 4.565-5.326c2.248-2 3.02-5.8 3.285-8.174a9.89 9.89 0 0 1 2.278-5.387c2.276-2.637 6.422-5.44 12.7-2.418z" class="prefix__cls-5" data-name="Path 418"/>
            <circle id="prefix__Ellipse_110" cx="9.848" cy="9.848" r="9.848" class="prefix__cls-2" data-name="Ellipse 110" transform="translate(255.415 25.723)"/>
            <path id="prefix__Path_419" d="M277.028 36.766a27.786 27.786 0 0 1-8.892-8.778s-6.959 7.022-11.212 7.374-.386-8.427-.386-8.427l7.732-1.756 7.346.7 5.8 3.512z" class="prefix__cls-5" data-name="Path 419"/>
            <path id="prefix__Rectangle_229" d="M0 0H7.442V7.442H0z" class="prefix__cls-2" data-name="Rectangle 229" transform="translate(261.526 43.342)"/>
            <path id="prefix__Path_420" d="M279.859 57.673a27.227 27.227 0 0 1-29.662-.922 11.18 11.18 0 0 1 10.089-6.38h9.1a11.166 11.166 0 0 1 10.473 7.302z" class="prefix__cls-5" data-name="Path 420"/>
            <path id="prefix__Path_421" d="M303.854 183.924h15.667c.98-7.23-1.182-13.981 0-18.8h-15.667a21.077 21.077 0 0 0 0 18.8z" data-name="Path 421" style="fill:#e84c71"/>
            <path id="prefix__Path_422" d="M291.559 180.507h-15.667c.587-7.229 2.481-13.98 0-18.8h15.667a21.077 21.077 0 0 1 0 18.8z" class="prefix__cls-10" data-name="Path 422"/>
        </g>
        <path id="prefix__Path_423" d="M153.582 81.255l8.407 13.02 27.338-.218s11.493-6.49 13.8 2.067c.791 2.931-11.239 3.724-12.372 3.793-2.832.172-31.077 5.072-32.821 2.563S147.022 91.2 147.022 91.2z" class="prefix__cls-2" data-name="Path 423"/>
    </g>
</svg>
