<svg xmlns="http://www.w3.org/2000/svg" width="450" height="295.5" viewBox="0 0 450 295.5">
    <defs>
        <style>
            .prefix__cls-2{fill:#f1ebba}.prefix__cls-3{fill:none;stroke:#2e2f45;stroke-miterlimit:10;stroke-width:2px}.prefix__cls-12,.prefix__cls-4{fill:#41a636}.prefix__cls-20,.prefix__cls-5{fill:#040505}.prefix__cls-5{opacity:.1}.prefix__cls-11,.prefix__cls-12,.prefix__cls-5{isolation:isolate}.prefix__cls-6{fill:#ffc521}.prefix__cls-11,.prefix__cls-12{opacity:.2}.prefix__cls-9{fill:#2e2f45}.prefix__cls-13{fill:#e0e2e7}.prefix__cls-15{fill:#af5a5f}.prefix__cls-16{fill:#343a4d}.prefix__cls-18{fill:#c3c2db}
        </style>
    </defs>
    <g id="prefix__Group_476" data-name="Group 476" transform="translate(-655 -3207)">
        <g id="prefix__Group_92" data-name="Group 92" transform="translate(655 3240.723)">
            <path id="prefix__Path_530" d="M58.128 258.817a160.543 160.543 0 0 1 321.086 0" data-name="Path 530" style="fill:#fffce5"/>
            <g id="prefix__Group_136" data-name="Group 136">
                <path id="prefix__Rectangle_324" d="M0 0H73.341V1.048H0z" class="prefix__cls-2" data-name="Rectangle 324" transform="translate(191.735 9.43)"/>
                <path id="prefix__Rectangle_325" d="M0 0H1.048V9.692H0z" class="prefix__cls-2" data-name="Rectangle 325" transform="translate(211.641)"/>
                <path id="prefix__Rectangle_326" d="M0 0H1.048V9.692H0z" class="prefix__cls-2" data-name="Rectangle 326" transform="translate(243.597)"/>
                <g id="prefix__Group_135" data-name="Group 135">
                    <path id="prefix__Rectangle_327" d="M0 0H73.341V1.048H0z" class="prefix__cls-2" data-name="Rectangle 327" transform="translate(375.214 255.582)"/>
                    <path id="prefix__Rectangle_328" d="M0 0H1.048V9.692H0z" class="prefix__cls-2" data-name="Rectangle 328" transform="translate(427.077 246.153)"/>
                    <path id="prefix__Rectangle_329" d="M0 0H73.341V1.048H0z" class="prefix__cls-2" data-name="Rectangle 329" transform="translate(313.795 103.201)"/>
                    <path id="prefix__Rectangle_330" d="M0 0H1.048V9.692H0z" class="prefix__cls-2" data-name="Rectangle 330" transform="translate(365.658 93.772)"/>
                    <path id="prefix__Rectangle_331" d="M0 0H73.341V1.048H0z" class="prefix__cls-2" data-name="Rectangle 331" transform="translate(313.795 65.483)"/>
                    <path id="prefix__Rectangle_332" d="M0 0H1.048V9.692H0z" class="prefix__cls-2" data-name="Rectangle 332" transform="translate(333.702 56.054)"/>
                    <path id="prefix__Rectangle_333" d="M0 0H1.048V9.692H0z" class="prefix__cls-2" data-name="Rectangle 333" transform="translate(365.658 56.054)"/>
                    <path id="prefix__Rectangle_334" d="M0 0H73.341V1.048H0z" class="prefix__cls-2" data-name="Rectangle 334" transform="translate(152.969 70.722)"/>
                    <path id="prefix__Rectangle_335" d="M0 0H1.048V9.692H0z" class="prefix__cls-2" data-name="Rectangle 335" transform="translate(172.875 61.292)"/>
                    <path id="prefix__Rectangle_336" d="M0 0H1.048V9.692H0z" class="prefix__cls-2" data-name="Rectangle 336" transform="translate(204.831 61.292)"/>
                    <path id="prefix__Rectangle_337" d="M0 0H73.341V1.048H0z" class="prefix__cls-2" data-name="Rectangle 337" transform="translate(99.534 46.1)"/>
                    <path id="prefix__Rectangle_338" d="M0 0H1.048V9.692H0z" class="prefix__cls-2" data-name="Rectangle 338" transform="translate(119.441 36.671)"/>
                    <path id="prefix__Rectangle_339" d="M0 0H1.048V9.692H0z" class="prefix__cls-2" data-name="Rectangle 339" transform="translate(151.397 36.671)"/>
                    <path id="prefix__Rectangle_340" d="M0 0H73.341V1.048H0z" class="prefix__cls-2" data-name="Rectangle 340" transform="translate(66.531 143.015)"/>
                    <path id="prefix__Rectangle_341" d="M0 0H1.048V9.692H0z" class="prefix__cls-2" data-name="Rectangle 341" transform="translate(86.438 133.586)"/>
                    <path id="prefix__Rectangle_342" d="M0 0H73.341V1.048H0z" class="prefix__cls-2" data-name="Rectangle 342" transform="translate(29.86 249.884)"/>
                    <path id="prefix__Rectangle_343" d="M0 0H1.048V9.692H0z" class="prefix__cls-2" data-name="Rectangle 343" transform="translate(49.767 240.454)"/>
                    <path id="prefix__Rectangle_344" d="M0 0H1.048V9.692H0z" class="prefix__cls-2" data-name="Rectangle 344" transform="translate(81.723 240.454)"/>
                    <path id="prefix__Rectangle_345" d="M0 0H73.341V1.048H0z" class="prefix__cls-2" data-name="Rectangle 345" transform="translate(376.659 205.879)"/>
                    <path id="prefix__Rectangle_346" d="M0 0H73.341V1.048H0z" class="prefix__cls-2" data-name="Rectangle 346" transform="translate(355.18 138.824)"/>
                    <path id="prefix__Rectangle_347" d="M0 0H1.048V9.692H0z" class="prefix__cls-2" data-name="Rectangle 347" transform="translate(375.611 139.61)"/>
                    <path id="prefix__Rectangle_348" d="M0 0H73.341V1.048H0z" class="prefix__cls-2" data-name="Rectangle 348" transform="translate(0 60.244)"/>
                    <path id="prefix__Rectangle_349" d="M0 0H1.048V9.692H0z" class="prefix__cls-2" data-name="Rectangle 349" transform="translate(52.386 61.03)"/>
                    <path id="prefix__Rectangle_350" d="M0 0H1.048V9.692H0z" class="prefix__cls-2" data-name="Rectangle 350" transform="translate(20.431 61.03)"/>
                    <path id="prefix__Rectangle_351" d="M0 0H73.341V1.048H0z" class="prefix__cls-2" data-name="Rectangle 351" transform="translate(4.715 197.497)"/>
                    <path id="prefix__Rectangle_352" d="M0 0H1.048V9.692H0z" class="prefix__cls-2" data-name="Rectangle 352" transform="translate(57.101 198.283)"/>
                    <path id="prefix__Rectangle_353" d="M0 0H1.048V9.692H0z" class="prefix__cls-2" data-name="Rectangle 353" transform="translate(25.146 198.283)"/>
                    <path id="prefix__Rectangle_354" d="M0 0H73.341V1.048H0z" class="prefix__cls-2" data-name="Rectangle 354" transform="translate(235.739 26.193)"/>
                    <path id="prefix__Rectangle_355" d="M0 0H1.048V9.692H0z" class="prefix__cls-2" data-name="Rectangle 355" transform="translate(288.126 26.979)"/>
                    <path id="prefix__Rectangle_356" d="M0 0H1.048V9.692H0z" class="prefix__cls-2" data-name="Rectangle 356" transform="translate(256.17 26.979)"/>
                    <path id="prefix__Rectangle_357" d="M0 0H73.341V1.048H0z" class="prefix__cls-2" data-name="Rectangle 357" transform="translate(29.86 99.01)"/>
                    <path id="prefix__Rectangle_358" d="M0 0H1.048V9.692H0z" class="prefix__cls-2" data-name="Rectangle 358" transform="translate(49.767 89.581)"/>
                    <path id="prefix__Rectangle_359" d="M0 0H1.048V9.692H0z" class="prefix__cls-2" data-name="Rectangle 359" transform="translate(81.723 89.581)"/>
                </g>
            </g>
            <path id="prefix__Line_23" d="M0 0L354.291 0" class="prefix__cls-3" data-name="Line 23" transform="translate(70.786 259.556)"/>
            <path id="prefix__Line_24" d="M0 0L55.721 0" class="prefix__cls-3" data-name="Line 24" transform="translate(10.635 259.556)"/>
            <path id="prefix__Path_533" d="M30.443 222.619s3.208 4.179-1.479 10.522-8.553 11.677-6.99 15.622c0 0 7.074-11.755 12.826-11.923s2-7.152-4.357-14.221z" class="prefix__cls-4" data-name="Path 533"/>
            <path id="prefix__Path_534" d="M30.443 222.619a5.231 5.231 0 0 1 .658 1.316c5.611 6.6 8.605 12.754 3.208 12.9-5.031.147-11.061 9.133-12.5 11.406.047.172.1.345.168.522 0 0 7.074-11.755 12.826-11.922s1.997-7.153-4.36-14.222z" class="prefix__cls-5" data-name="Path 534"/>
            <path id="prefix__Path_535" d="M36.4 227.964c0 1.473-.167 2.669-.371 2.669s-.371-1.2-.371-2.669.209-.784.413-.784.329-.69.329.784z" class="prefix__cls-6" data-name="Path 535"/>
            <path id="prefix__Path_536" d="M38.447 229.724c-1.3.706-2.424 1.134-2.524.956s.878-.9 2.174-1.6.784-.193.883 0 .763-.061-.533.644z" class="prefix__cls-6" data-name="Path 536"/>
            <path id="prefix__Path_537" d="M13.51 222.619s-3.21 4.181 1.478 10.522 8.548 11.677 6.986 15.622c0 0-7.069-11.755-12.822-11.923s-1.975-7.152 4.358-14.221z" class="prefix__cls-4" data-name="Path 537"/>
            <path id="prefix__Path_538" d="M13.51 222.619a5.234 5.234 0 0 0-.659 1.316c-5.611 6.6-8.605 12.764-3.223 12.9 5.026.147 11.06 9.133 12.5 11.406a4.828 4.828 0 0 1-.172.522s-7.069-11.755-12.821-11.922-1.958-7.153 4.375-14.222z" class="prefix__cls-5" data-name="Path 538"/>
            <path id="prefix__Path_539" d="M7.538 227.964c0 1.473.167 2.669.371 2.669s.371-1.2.371-2.669-.209-.784-.413-.784-.329-.69-.329.784z" class="prefix__cls-6" data-name="Path 539"/>
            <path id="prefix__Path_540" d="M5.505 229.724c1.3.706 2.425 1.134 2.519.956s-.873-.9-2.168-1.6-.784-.193-.883 0-.763-.061.532.644z" class="prefix__cls-6" data-name="Path 540"/>
            <path id="prefix__Path_541" d="M8.583 248.194s8.965-.277 11.666-2.2 13.788-4.222 14.462-1.134 13.47 15.34 3.349 15.423-23.511-1.567-26.212-3.218-3.265-8.871-3.265-8.871z" data-name="Path 541" style="fill:#494c6d"/>
            <path id="prefix__Path_542" d="M38.228 259.233c-10.121.079-23.511-1.567-26.213-3.223-2.053-1.249-2.873-5.748-3.134-7.806h-.3s.569 7.231 3.265 8.882 16.092 3.3 26.212 3.218c2.921 0 3.929-1.045 3.877-2.612-.435.951-1.535 1.52-3.707 1.541z" data-name="Path 542" style="opacity:.2;isolation:isolate;fill:#040505"/>
            <g id="prefix__Group_137" data-name="Group 137">
                <circle id="prefix__Ellipse_120" cx="5.886" cy="5.886" r="5.886" class="prefix__cls-2" data-name="Ellipse 120" transform="translate(342.32 198.918)"/>
                <path id="prefix__Path_543" d="M403.649 211.084s-12.217 8.165-15.784 21.351 2.868 26.4 2.868 26.4 12.217-8.166 15.784-21.351-2.868-26.4-2.868-26.4z" class="prefix__cls-9" data-name="Path 543"/>
                <path id="prefix__Path_544" d="M425.736 224.318s-1.2 14.646-10.983 24.174-24.46 10.328-24.46 10.328 1.2-14.646 10.983-24.173 24.46-10.329 24.46-10.329z" class="prefix__cls-4" data-name="Path 544"/>
                <path id="prefix__Path_545" d="M344.141 236.469a11.35 11.35 0 1 0 8.222 0 11.344 11.344 0 0 0 0-21.151 11.349 11.349 0 1 0-8.222 0 11.345 11.345 0 0 0 0 21.151zm6.44-21.684a11.381 11.381 0 0 0-4.657 0 10.318 10.318 0 1 1 4.657 0zM345.924 237a11.346 11.346 0 0 0 4.657 0 10.318 10.318 0 1 1-4.657 0zm-7.725-8.791a10.306 10.306 0 0 1 7.725-12.36 11.381 11.381 0 0 0 4.657 0 10.307 10.307 0 0 1 0 20.086 11.346 11.346 0 0 0-4.657 0 10.306 10.306 0 0 1-7.724-7.724z" class="prefix__cls-9" data-name="Path 545"/>
            </g>
            <g id="prefix__Group_177" data-name="Group 177">
                <g id="prefix__Group_174" data-name="Group 174">
                    <rect id="prefix__Rectangle_360" width="308.442" height="239.488" class="prefix__cls-9" data-name="Rectangle 360" rx="9.978" transform="translate(85.623 -33.723)"/>
                    <path id="prefix__Rectangle_361" d="M0 0H259.256V195.362H0z" data-name="Rectangle 361" transform="translate(110.445 -12.119)" style="fill:#fff"/>
                    <g id="prefix__Group_146" class="prefix__cls-11" data-name="Group 146">
                        <g id="prefix__Group_139" data-name="Group 139">
                            <g id="prefix__Group_138" data-name="Group 138">
                                <path id="prefix__Path_546" d="M194.969 31.941h-21.4a3.188 3.188 0 0 0-3.21 3.158v8.422a3.188 3.188 0 0 0 3.21 3.159h1.07V53a1.053 1.053 0 0 0 .66.973 1.085 1.085 0 0 0 1.167-.229l7.177-7.061h11.328a3.188 3.188 0 0 0 3.21-3.159V35.1a3.188 3.188 0 0 0-3.212-3.159zm1.07 11.58a1.062 1.062 0 0 1-1.07 1.053H183.2a1.075 1.075 0 0 0-.757.309l-5.664 5.572v-4.828a1.061 1.061 0 0 0-1.07-1.053h-2.14a1.061 1.061 0 0 1-1.07-1.053V35.1a1.062 1.062 0 0 1 1.07-1.053h21.4a1.063 1.063 0 0 1 1.07 1.053z" class="prefix__cls-4" data-name="Path 546"/>
                            </g>
                        </g>
                        <g id="prefix__Group_141" data-name="Group 141">
                            <g id="prefix__Group_140" data-name="Group 140">
                                <path id="prefix__Rectangle_362" d="M0 0H6.42V2.106H0z" class="prefix__cls-4" data-name="Rectangle 362" transform="translate(174.637 36.152)"/>
                            </g>
                        </g>
                        <g id="prefix__Group_143" data-name="Group 143">
                            <g id="prefix__Group_142" data-name="Group 142">
                                <path id="prefix__Rectangle_363" d="M0 0H19.261V2.106H0z" class="prefix__cls-4" data-name="Rectangle 363" transform="translate(174.637 40.363)"/>
                            </g>
                        </g>
                        <g id="prefix__Group_145" data-name="Group 145">
                            <g id="prefix__Group_144" data-name="Group 144">
                                <path id="prefix__Rectangle_364" d="M0 0H10.701V2.106H0z" class="prefix__cls-4" data-name="Rectangle 364" transform="translate(183.198 36.152)"/>
                            </g>
                        </g>
                    </g>
                    <path id="prefix__Path_547" d="M198.512 120.982a14.856 14.856 0 0 0-25.339 10.418v.007a14.667 14.667 0 0 0 1.811 6.965l-1.77 8.046 8.138-1.851a14.894 14.894 0 0 0 6.681 1.587h.006a14.827 14.827 0 0 0 10.489-4.319 14.59 14.59 0 0 0-.016-20.856zm-3.694 15.032a3.43 3.43 0 0 1-2.295 1.611c-.624.057-1.208.281-4.081-.847-3.456-1.359-5.638-4.89-5.809-5.116a6.6 6.6 0 0 1-1.388-3.506 3.793 3.793 0 0 1 1.19-2.826 1.252 1.252 0 0 1 .907-.424h.652c.242.01.51.029.765.593.3.671.955 2.347 1.04 2.516a.624.624 0 0 1 .028.594 2.272 2.272 0 0 1-.332.565c-.17.2-.376.4-.529.557-.17.169-.348.353-.149.692a10.4 10.4 0 0 0 1.911 2.383 9.391 9.391 0 0 0 2.723 1.689c.34.169.539.141.737-.085s.866-1.01 1.093-1.349.453-.283.765-.17 1.978.947 2.319 1.117.566.254.651.4a2.824 2.824 0 0 1-.198 1.606z" class="prefix__cls-12" data-name="Path 547"/>
                    <g id="prefix__Group_155" data-name="Group 155">
                        <g id="prefix__Group_148" data-name="Group 148">
                            <g id="prefix__Group_147" data-name="Group 147">
                                <path id="prefix__Path_548" d="M254.229 66.1h-22.68a3.406 3.406 0 0 0-3.4 3.4v9.071a3.406 3.406 0 0 0 3.4 3.4h1.134v6.8a1.134 1.134 0 0 0 .7 1.048 1.12 1.12 0 0 0 .434.086 1.136 1.136 0 0 0 .8-.332l7.606-7.606h12a3.406 3.406 0 0 0 3.4-3.4V69.5a3.406 3.406 0 0 0-3.394-3.4zm1.134 12.473a1.134 1.134 0 0 1-1.134 1.134h-12.474a1.13 1.13 0 0 0-.8.333l-6 6v-5.2a1.133 1.133 0 0 0-1.134-1.134h-2.268a1.134 1.134 0 0 1-1.134-1.134V69.5a1.134 1.134 0 0 1 1.134-1.134h22.68a1.134 1.134 0 0 1 1.134 1.134z" class="prefix__cls-4" data-name="Path 548"/>
                            </g>
                        </g>
                        <g id="prefix__Group_150" data-name="Group 150">
                            <g id="prefix__Group_149" data-name="Group 149">
                                <path id="prefix__Rectangle_365" d="M0 0H6.804V2.268H0z" class="prefix__cls-4" data-name="Rectangle 365" transform="translate(232.683 70.631)"/>
                            </g>
                        </g>
                        <g id="prefix__Group_152" data-name="Group 152">
                            <g id="prefix__Group_151" data-name="Group 151">
                                <path id="prefix__Rectangle_366" d="M0 0H20.412V2.268H0z" class="prefix__cls-4" data-name="Rectangle 366" transform="translate(232.683 75.166)"/>
                            </g>
                        </g>
                        <g id="prefix__Group_154" data-name="Group 154">
                            <g id="prefix__Group_153" data-name="Group 153">
                                <path id="prefix__Rectangle_367" d="M0 0H11.34V2.268H0z" class="prefix__cls-4" data-name="Rectangle 367" transform="translate(241.755 70.631)"/>
                            </g>
                        </g>
                    </g>
                    <circle id="prefix__Ellipse_121" cx="7.009" cy="7.009" r="7.009" class="prefix__cls-13" data-name="Ellipse 121" transform="translate(374.183 79.012)"/>
                    <path id="prefix__Path_549" d="M302.784 32.293a14.874 14.874 0 0 0-20.962 0 14.6 14.6 0 0 0-4.377 10.425v.007a14.664 14.664 0 0 0 1.811 6.965l-1.77 8.046 8.138-1.851a14.9 14.9 0 0 0 6.681 1.588h.006A14.827 14.827 0 0 0 302.8 53.15a14.591 14.591 0 0 0-.016-20.857zm-3.694 15.033a3.437 3.437 0 0 1-2.295 1.611c-.624.056-1.208.281-4.081-.848-3.456-1.359-5.638-4.89-5.809-5.116a6.59 6.59 0 0 1-1.388-3.505 3.793 3.793 0 0 1 1.19-2.827 1.252 1.252 0 0 1 .907-.424h.652c.242.01.51.029.765.594.3.67.955 2.346 1.04 2.516a.622.622 0 0 1 .028.593 2.272 2.272 0 0 1-.332.565c-.17.2-.376.406-.529.557-.17.17-.348.353-.149.692A10.423 10.423 0 0 0 291 44.118a9.4 9.4 0 0 0 2.723 1.688c.34.17.539.141.737-.085s.866-1.01 1.093-1.349.453-.283.765-.17 1.978.947 2.319 1.117.566.254.651.4a2.828 2.828 0 0 1-.198 1.607z" class="prefix__cls-12" data-name="Path 549"/>
                    <path id="prefix__Path_550" d="M244.692 6.732a11.186 11.186 0 0 0-15.765 0 10.978 10.978 0 0 0-3.292 7.84v.005A11.034 11.034 0 0 0 227 19.814l-1.331 6.051 6.12-1.393a11.185 11.185 0 0 0 5.025 1.194 11.146 11.146 0 0 0 7.888-3.248 10.974 10.974 0 0 0-.011-15.686zm-2.778 11.306a2.589 2.589 0 0 1-1.727 1.212c-.468.042-.908.211-3.069-.638a10.487 10.487 0 0 1-4.368-3.847 4.952 4.952 0 0 1-1.044-2.637A2.849 2.849 0 0 1 232.6 10a.94.94 0 0 1 .682-.319h.49c.182.007.384.022.575.446.228.5.718 1.765.782 1.892a.469.469 0 0 1 .022.447 1.738 1.738 0 0 1-.25.425c-.128.149-.283.305-.4.419s-.261.265-.112.52a7.825 7.825 0 0 0 1.437 1.792 7.051 7.051 0 0 0 2.048 1.27c.256.128.4.107.554-.064s.652-.759.822-1.014.341-.213.576-.128 1.488.712 1.744.84.426.191.49.3a2.123 2.123 0 0 1-.146 1.212z" class="prefix__cls-12" data-name="Path 550"/>
                    <g id="prefix__Group_164" class="prefix__cls-11" data-name="Group 164">
                        <g id="prefix__Group_157" data-name="Group 157">
                            <g id="prefix__Group_156" data-name="Group 156">
                                <path id="prefix__Path_551" d="M323.271 77.006h-20.783a3.12 3.12 0 0 0-3.117 3.117v8.313a3.121 3.121 0 0 0 3.117 3.118h1.039v6.235a1.039 1.039 0 0 0 .641.96 1.039 1.039 0 0 0 1.133-.226l6.97-6.969h11a3.122 3.122 0 0 0 3.118-3.118v-8.313a3.121 3.121 0 0 0-3.118-3.117zm1.039 11.43a1.04 1.04 0 0 1-1.039 1.04H311.84a1.034 1.034 0 0 0-.734.3l-5.5 5.5v-4.761a1.038 1.038 0 0 0-1.04-1.039h-2.078a1.04 1.04 0 0 1-1.039-1.04v-8.313a1.04 1.04 0 0 1 1.039-1.039h20.783a1.039 1.039 0 0 1 1.039 1.039z" class="prefix__cls-4" data-name="Path 551"/>
                            </g>
                        </g>
                        <g id="prefix__Group_159" data-name="Group 159">
                            <g id="prefix__Group_158" data-name="Group 158">
                                <path id="prefix__Rectangle_368" d="M0 0H6.235V2.078H0z" class="prefix__cls-4" data-name="Rectangle 368" transform="translate(303.527 81.162)"/>
                            </g>
                        </g>
                        <g id="prefix__Group_161" data-name="Group 161">
                            <g id="prefix__Group_160" data-name="Group 160">
                                <path id="prefix__Rectangle_369" d="M0 0H18.705V2.078H0z" class="prefix__cls-4" data-name="Rectangle 369" transform="translate(303.527 85.319)"/>
                            </g>
                        </g>
                        <g id="prefix__Group_163" data-name="Group 163">
                            <g id="prefix__Group_162" data-name="Group 162">
                                <path id="prefix__Rectangle_370" d="M0 0H10.391V2.078H0z" class="prefix__cls-4" data-name="Rectangle 370" transform="translate(311.84 81.162)"/>
                            </g>
                        </g>
                    </g>
                    <g id="prefix__Group_173" class="prefix__cls-11" data-name="Group 173">
                        <g id="prefix__Group_166" data-name="Group 166">
                            <g id="prefix__Group_165" data-name="Group 165">
                                <path id="prefix__Path_552" d="M298.5 120.918h-20.786a3.122 3.122 0 0 0-3.118 3.117v8.314a3.122 3.122 0 0 0 3.118 3.117h1.039v6.234a1.039 1.039 0 0 0 1.774.735l6.969-6.97h11a3.121 3.121 0 0 0 3.117-3.117v-8.314a3.121 3.121 0 0 0-3.113-3.116zm1.039 11.431a1.04 1.04 0 0 1-1.039 1.039h-11.434a1.038 1.038 0 0 0-.735.3l-5.5 5.5v-4.766a1.037 1.037 0 0 0-1.039-1.039h-2.078a1.039 1.039 0 0 1-1.039-1.039v-8.314a1.039 1.039 0 0 1 1.039-1.03H298.5a1.04 1.04 0 0 1 1.039 1.039z" class="prefix__cls-4" data-name="Path 552"/>
                            </g>
                        </g>
                        <g id="prefix__Group_168" data-name="Group 168">
                            <g id="prefix__Group_167" data-name="Group 167">
                                <path id="prefix__Rectangle_371" d="M0 0H6.235V2.078H0z" class="prefix__cls-4" data-name="Rectangle 371" transform="translate(278.753 125.075)"/>
                            </g>
                        </g>
                        <g id="prefix__Group_170" data-name="Group 170">
                            <g id="prefix__Group_169" data-name="Group 169">
                                <path id="prefix__Rectangle_372" d="M0 0H18.705V2.078H0z" class="prefix__cls-4" data-name="Rectangle 372" transform="translate(278.753 129.231)"/>
                            </g>
                        </g>
                        <g id="prefix__Group_172" data-name="Group 172">
                            <g id="prefix__Group_171" data-name="Group 171">
                                <path id="prefix__Rectangle_373" d="M0 0H10.391V2.078H0z" class="prefix__cls-4" data-name="Rectangle 373" transform="translate(287.066 125.075)"/>
                            </g>
                        </g>
                    </g>
                    <path id="prefix__Path_553" d="M246.221 149.314a13.51 13.51 0 0 0-19.037 0 13.259 13.259 0 0 0-3.975 9.467v.007a13.336 13.336 0 0 0 1.644 6.326l-1.607 7.307 7.391-1.682a13.524 13.524 0 0 0 6.067 1.442h.006a13.464 13.464 0 0 0 9.525-3.922 13.252 13.252 0 0 0-.014-18.942zm-3.355 13.653a3.119 3.119 0 0 1-2.084 1.463c-.566.051-1.1.255-3.706-.77a12.658 12.658 0 0 1-5.275-4.646 5.974 5.974 0 0 1-1.261-3.184 3.443 3.443 0 0 1 1.081-2.567 1.135 1.135 0 0 1 .823-.385h.592c.22.009.463.027.7.539.274.609.867 2.131.944 2.285a.565.565 0 0 1 .026.539 2.08 2.08 0 0 1-.3.514c-.155.179-.342.368-.481.5-.155.154-.316.321-.136.629a9.5 9.5 0 0 0 1.736 2.164 8.544 8.544 0 0 0 2.473 1.534c.309.154.489.128.669-.078s.787-.917.993-1.224.412-.257.695-.155 1.8.86 2.1 1.014.515.231.592.359a2.552 2.552 0 0 1-.181 1.469z" class="prefix__cls-12" data-name="Path 553"/>
                </g>
                <g id="prefix__Group_176" data-name="Group 176">
                    <circle id="prefix__Ellipse_122" cx="4.25" cy="4.25" r="4.25" class="prefix__cls-13" data-name="Ellipse 122" transform="translate(96.082 81.312)"/>
                    <path id="prefix__Path_554" d="M174.13 78.36h-24.241a2.794 2.794 0 0 0-2.794 2.794v16.795a2.8 2.8 0 0 0 2.794 2.8h24.241a2.8 2.8 0 0 0 2.8-2.8V81.163a2.8 2.8 0 0 0-2.794-2.8zm0 2.8v2.378c-1.311 1.063-3.393 2.72-7.844 6.2-.984.774-2.925 2.623-4.281 2.623s-3.3-1.832-4.276-2.623c-4.455-3.5-6.559-5.142-7.848-6.2v-2.379zm-24.241 16.79V87.132c1.338 1.062 3.232 2.553 6.122 4.809 1.277 1.006 3.5 3.218 6.008 3.205s4.691-2.186 6.007-3.2c2.886-2.261 4.779-3.756 6.122-4.81v10.813z" data-name="Path 554" style="isolation:isolate;opacity:.1;fill:#41a636"/>
                    <path id="prefix__Path_555" d="M156.64 37.163a40.557 40.557 0 0 0 1.29 12.475S139 50.81 140.362 48.274a3.7 3.7 0 0 0 .31-1.312 27.852 27.852 0 0 0-.1-4.692c-.057-.669-.127-1.355-.2-2.055-.254-2.287-.59-4.639-.875-6.489-.048-.284-.091-.559-.131-.817-.266-1.631-.463-2.707-.463-2.707s14.556-4.28 18.959-2.82c1.242.411 1.679 1.272.756 2.82a15.518 15.518 0 0 0-1.911 6.314 3.082 3.082 0 0 0-.067.647z" class="prefix__cls-15" data-name="Path 555"/>
                    <path id="prefix__Path_556" d="M236.285 81.019c0 2.291-3.708 1.312-3.708 1.312s-.394 7.516-10.9-.162c-.266-.2-.542-.4-.826-.621l-.437-8.491v-.49s.743.293 1.911.765c4.222 1.727 13.96 5.903 13.96 7.687z" class="prefix__cls-15" data-name="Path 556"/>
                    <path id="prefix__Path_557" d="M139.667 250.88c-1.465.875-1.072 3.809-1.365 5.562s-7.433 2.247-9.274 2.151c-1.176-.065-2.238-3.388-2.855-5.806-.354-1.391-.564-2.484-.564-2.484s11.806-4.692 12.79-7.035c.62-1.5 2.365-1.837 3.537-1.885a7.418 7.418 0 0 1 1.145.031c3.127 6.051-1.954 8.586-3.414 9.466z" class="prefix__cls-16" data-name="Path 557"/>
                    <path id="prefix__Path_558" d="M189.731 255.371s-4.486 1.657-5.072 3.235-2.733 2.331-2.733 2.331c-7.175 2.234-9.116-.415-9.5-2.986a9.548 9.548 0 0 1 .227-3.555l10.542-4.408a9.012 9.012 0 0 1 3.358-3.025 3.206 3.206 0 0 1 3.669.7c3.458 3.187-.491 7.708-.491 7.708z" class="prefix__cls-16" data-name="Path 558"/>
                    <path id="prefix__Path_559" d="M141.936 241.383l-.223 4.915c-3.118 2.142-3.5 6.34-3.5 6.34a15.416 15.416 0 0 1-12.029.149c-.354-1.391-.564-2.484-.564-2.484s11.806-4.692 12.79-7.035c.609-1.496 2.354-1.815 3.526-1.885z" class="prefix__cls-5" data-name="Path 559"/>
                    <path id="prefix__Path_560" d="M186.705 248.248c-3.707 11.849-12.946 10.03-14.28 9.7a9.544 9.544 0 0 1 .227-3.554l10.542-4.408a9.02 9.02 0 0 1 3.358-3.026 6.051 6.051 0 0 0 .153 1.288z" class="prefix__cls-5" data-name="Path 560"/>
                    <path id="prefix__Path_561" d="M187.2 243.268a6.9 6.9 0 0 0-.49 4.394c-4 12.785-14.429 9.659-14.429 9.659l-1.368-5.562c-4.587-2.44-3.5-5.658-3.5-5.658s1.368-4.005.5-5.955-4.014-26.156-3.428-28.01 0-5.269 0-5.269l-.555-4.3s-.324-5.754-.031-6.734-1.657-5.951-1.657-5.951.586-2.343 0-3.5-.389-6.147-.389-6.147-1.076-4.294-.783-5.466-2.243-9.269-2.243-9.269l-1.464-8.2s-.586-3.026-1.566-3.9-1.46 3.318-1.167 5.955-2.357 5.933-2.357 5.933a28.894 28.894 0 0 1-.875 5.274c-.682 2.339-1.071 4.1-1.071 4.1a22.712 22.712 0 0 0-.686 4 32.86 32.86 0 0 1-1.071 5.273s.682 2.926-.49 3.7-.813 6.637-.813 6.637l-.551 5.274a3.936 3.936 0 0 1 .485 2.339c-.293.874-2.339 7.433-2.339 7.433l-2.362 19.018-.783 17.376c-3.118 2.142-3.5 6.34-3.5 6.34a15.3 15.3 0 0 1-12.361 0s-.525-5.247-1.692-6.34-3.9-6.734-2.44-6.734 4.294-3.616 4.294-3.616c-2.829-5.365-.49-27.616.389-29.081s-.389-8.4-.389-8.4.778-3.319.459-4.683 1.784-8.88 3.445-11.224-1.431-8.974-1.431-8.974c-3.477-7.709-1.6-23.52-.687-24.691s0-4.1 0-4.1.848-.875.258-1.268 0-3.8 0-3.8-.1-2.344 1.071-3.5a3.431 3.431 0 0 0 .669-1.889 22.28 22.28 0 0 0 0-4.259l13.467-7.905 16.883-1.369 20.69 6.441a24.556 24.556 0 0 0 0 4.372c.153 1.509.533 2.982 1.382 3.625 2.05 1.565.975 6.93.975 6.93s.975 3.809.586 5.955a29.008 29.008 0 0 0-.389 4.491c2.925 10.345-1.273 17.276-1.273 17.276s.394 21.079.2 22.347-.682 4.193-.682 4.193c2.051 4.1 2.829 13.861 2.829 13.861s.389 17.761.782 18.448a23.806 23.806 0 0 1 1.072 2.929s-1.561 3.607-.875 4.373 2.817 5.556 1.751 7.808z" data-name="Path 561" style="fill:#212332"/>
                    <path id="prefix__Path_562" d="M158.6 30.22a15.5 15.5 0 0 0-1.91 6.313c-.027.21-.044.438-.062.63-1.959 1.5-4.98.739-7.638.739-.936 0-.713-1.377-1.588-1.583-3.135-.756-6.344.14-7.922-2.575-.049-.284-.092-.56-.132-.818-.266-1.631-.463-2.706-.463-2.706s14.556-4.281 18.959-2.821c1.241.411 1.678 1.273.756 2.821z" class="prefix__cls-5" data-name="Path 562"/>
                    <path id="prefix__Path_563" d="M161.227 27.3a11.666 11.666 0 0 1-11.666 11.666 11.994 11.994 0 0 1-2.728-.32A11.67 11.67 0 1 1 161.227 27.3z" class="prefix__cls-15" data-name="Path 563"/>
                    <path id="prefix__Path_564" d="M155.215 44.2c-4.512-1.386-10.717.945-14.556 2.781a27.838 27.838 0 0 0-.1-4.691c2.58-2.156 6.65-3.748 12.335-.875.52.267 1.053.569 1.6.905z" class="prefix__cls-5" data-name="Path 564"/>
                    <path id="prefix__Path_565" d="M155.215 44.491c-6.051-1.862-15.151 2.974-17.49 4.32l-.437-1.486-.127-.416s4.972-10.664 15.767-5.2c.521.267 1.054.569 1.605.9z" class="prefix__cls-4" data-name="Path 565"/>
                    <path id="prefix__Path_566" d="M180.838 131.018a124.788 124.788 0 0 1-17.748 2.943c-.875-.1-8.688 1.661-8.688 1.661.293-.979-2.34-11.517-2.34-11.517l-1.858 12.1s-16.939-1.749-20.41-2.475a22.445 22.445 0 0 0 0-4.259l13.467-7.9 16.882-1.369 20.69 6.441a24.517 24.517 0 0 0 .005 4.375z" class="prefix__cls-5" data-name="Path 566"/>
                    <path id="prefix__Path_567" d="M185.73 128.106c-.669 2.724-21.766 5.347-22.64 5.269s-8.688 1.661-8.688 1.661c.293-.979-2.34-11.517-2.34-11.517L150.2 135.64s-19.908-2.051-20.988-2.624-3.222-1.46-3.222-1.46 1.364-7.224.874-8.2 1.854-3.712 1.854-3.712l1.19-3.786 3.592-11.438a5.461 5.461 0 0 1-.6-.4 12.163 12.163 0 0 1-2.322-2.431 33.128 33.128 0 0 0-4.98-9.108s-3.218-3.414-3.5-4.2a58.978 58.978 0 0 0-3.9-5.269L107.363 69.06l5.951-6.44s.586-1.561 1.749-1.658 1.368-2.623 1.368-2.623c0-5.466 5.855-5.173 5.855-5.173a7.173 7.173 0 0 0 3.314-.975c1.168-.879 11.522-2.737 11.522-2.737V47.8c8.684-11.517 19.676-4.031 19.676-4.031l2.287 3.935s7.315-1.072 8.093-.1 3.9 1.849 3.9 1.849c6.248-3.314 8.1 1.858 8.587 3.712s3.712 3.8 3.712 3.8-3.323 16.69-4.2 17.665.393 4.687.393 4.687-2.82 5.65-1.946 7.888-1.172 9.471-1.172 9.471l5.466 15.811s4.495 12.886 3.812 15.619z" class="prefix__cls-18" data-name="Path 567"/>
                    <path id="prefix__Path_568" d="M159.093 48.274c-5.461-8.4-21.962 1.749-21.962 1.749v-1.658c8.683-11.517 19.676-4.031 19.676-4.031z" class="prefix__cls-5" data-name="Path 568"/>
                    <path id="prefix__Path_569" d="M155.215 44.491c-6.051-1.862-15.151 2.974-17.49 4.32l-.577.337v-1.657l.127-.166c5.413-7.044 11.692-6.8 15.64-5.619q.78.4 1.605.9z" class="prefix__cls-5" data-name="Path 569"/>
                    <path id="prefix__Path_570" d="M159.093 47.688c-5.461-8.391-21.962 1.749-21.962 1.749v-1.658c8.683-11.517 19.676-4.031 19.676-4.031z" class="prefix__cls-18" data-name="Path 570"/>
                    <path id="prefix__Path_571" d="M154.988 110.83l-2.926 12.68.56 2.3s3.144-13.222 2.366-14.98z" class="prefix__cls-5" data-name="Path 571"/>
                    <path id="prefix__Path_572" d="M176.168 89.751s-1.465 11.805-11.032 15.225c0 0 7.906-7.123 11.032-15.225z" class="prefix__cls-5" data-name="Path 572"/>
                    <path id="prefix__Path_573" d="M136.527 100.293s11.613-4.981 11.613-2.93-11.613 2.93-11.613 2.93z" class="prefix__cls-5" data-name="Path 573"/>
                    <path id="prefix__Path_574" d="M161.332 90.24s8.1-5.758 9.856-4.293-9.856 4.293-9.856 4.293z" class="prefix__cls-5" data-name="Path 574"/>
                    <path id="prefix__Path_575" d="M221.676 82.173c-.266-.2-.542-.4-.826-.621l-.437-8.491v-.49s.743.293 1.911.765c1.338 1.986 2.737 5.464-.648 8.837z" class="prefix__cls-5" data-name="Path 575"/>
                    <path id="prefix__Path_576" d="M220.671 82.82l-12.982-1.657a13.653 13.653 0 0 0-2.1-.525 2.3 2.3 0 0 0-1.513.132c-.778.586-4.683.1-5.854-1.172a3.5 3.5 0 0 0-1.749-.708 34.555 34.555 0 0 0-6.065-.363s-3.765.293-4.617-.683-4.373-1.95-4.373-1.95l-3.708-2.737 2.34-16.978 3.323.778 4 3.026s1.955.49 2.344 1.076a10.28 10.28 0 0 0 2.733 1.561s1.95.778 3.025 1.171 3.319.875 3.319.875l4 .686a9.027 9.027 0 0 1 4.591 1.268c2.239 1.369 13.27 5.077 13.27 5.077s6.382 5.855.016 11.123z" class="prefix__cls-18" data-name="Path 576"/>
                    <path id="prefix__Path_577" d="M207.361 77.858a6.062 6.062 0 0 1-1.749 2.488 2.293 2.293 0 0 0-1.513.131c-.778.586-4.683.1-5.855-1.168a3.451 3.451 0 0 0-1.749-.712c-.3-2.187-1.1-11.128 6.441-10.547 8.548.656 4.425 9.808 4.425 9.808z" class="prefix__cls-5" data-name="Path 577"/>
                    <path id="prefix__Path_578" d="M187.842 61.242s.731.512-.621 2.086.621-2.086.621-2.086z" class="prefix__cls-5" data-name="Path 578"/>
                    <path id="prefix__Path_579" d="M194.834 65.086s1.976 7.205.293 8.452-.293-8.452-.293-8.452z" class="prefix__cls-5" data-name="Path 579"/>
                    <path id="prefix__Path_580" d="M160.221 22.559a2.786 2.786 0 0 1-.437.56c-.389.385-.874.651-1.242 1.067-.743.852-.677 2.037-.708 3.213a6.8 6.8 0 0 1-.144 1.408 3.937 3.937 0 0 1-2.8 2.856 5.717 5.717 0 0 0-2.4-2.453 1.015 1.015 0 0 0-.6-.167 1.05 1.05 0 0 0-.6.438 7.65 7.65 0 0 0-1.674 4 7.811 7.811 0 0 0 .052 2.143c.087.489.656 1.552.437 2.007-.341.682-2.042.874-3.27 1.023-.438.048-.792.092-1.024.144q-2.592.578-5.133 1.356l-.315.087c-.288-2.624-.7-5.365-1.014-7.306A11.666 11.666 0 1 1 159.74 21.6q.261.469.477.96z" class="prefix__cls-5" data-name="Path 580"/>
                    <path id="prefix__Path_581" d="M151.009 29.183a1.036 1.036 0 0 1 .6-.437 1.009 1.009 0 0 1 .6.162 5.781 5.781 0 0 1 2.4 2.453 3.937 3.937 0 0 0 2.786-2.855c.363-1.553-.193-3.415.852-4.626.354-.411.853-.678 1.242-1.063a3.562 3.562 0 0 0 .936-2.072 5.089 5.089 0 0 0-1.8-4.517 11.43 11.43 0 0 1-2.186-1.749c-.787-1.12-.577-2.707-1.312-3.857-.931-1.447-3-1.652-4.674-1.224s-3.209 1.312-4.914 1.552a20.685 20.685 0 0 1-4.089-.157 6.032 6.032 0 0 0-3.935.8c-1.382.97-1.941 2.754-3.148 3.935s-3.14 1.749-4.2 3.131a3.85 3.85 0 0 0-.511 3.629c.437 1.115 1.381 2.015 1.6 3.192.262 1.394-.564 2.968.148 4.2a2.156 2.156 0 0 1 2.112 1.644 6.878 6.878 0 0 1 0 2.882 5.951 5.951 0 0 0 .079 2.872 1.169 1.169 0 0 0 .337.512 1.7 1.7 0 0 0 .835.236 3.81 3.81 0 0 1 2.273 1.224 4.776 4.776 0 0 0 .792.84 3.081 3.081 0 0 0 2.562 0q2.541-.774 5.133-1.356c.9-.205 3.839-.253 4.3-1.167.227-.437-.342-1.517-.438-2.007a7.728 7.728 0 0 1 1.618-6.122z" class="prefix__cls-16" data-name="Path 581"/>
                    <path id="prefix__Path_582" d="M131.626 115.553a1.776 1.776 0 0 1-1.7.275l3.59-11.438a5.671 5.671 0 0 1-.6-.4 10.022 10.022 0 0 1 3.4-.04c1.129.55-3.335 10.177-4.69 11.603z" class="prefix__cls-5" data-name="Path 582"/>
                    <path id="prefix__Path_583" d="M131.337 115.26c-1.369 1.429-6.773-1.867-7.49-3.232a2.887 2.887 0 0 0-1.946-1.233 5.956 5.956 0 0 0-1.128-.153l3.809-6.261 1.224.105.9.079s8.2-1.465 9.335-.914-3.353 10.183-4.704 11.609z" class="prefix__cls-15" data-name="Path 583"/>
                    <path id="prefix__Path_584" d="M125.788 104.5l-3.9 6.309a5.967 5.967 0 0 0-1.128-.153l3.808-6.261z" class="prefix__cls-5" data-name="Path 584"/>
                    <path id="prefix__Path_585" d="M125.7 104.171l-6 9.7-1.508-1-.87-.573 5.343-9.549 2 .936z" class="prefix__cls-4" data-name="Path 585"/>
                    <path id="prefix__Path_586" d="M124.66 103.681l-6.476 9.187-.87-.573 5.343-9.549z" class="prefix__cls-5" data-name="Path 586"/>
                    <path id="prefix__Path_587" d="M124.831 103.021l-7.223 10.249-12.589-7.123-10.056-7.568-.363-.149c-11.526-4.923-1.01-16.681-1.01-16.681a1.187 1.187 0 0 1 .227-.511 50.708 50.708 0 0 1 4.849-5.151l8.688-7.027 3.5-1.071 8.1 14.346-4.976 3.371a6.624 6.624 0 0 1-2.624 1.216c-.962 0-4.346 4.1-4.346 4.1l2.881 2.54s2.536.293 3.122 1.557a3.778 3.778 0 0 0 1.566 1.749z" class="prefix__cls-18" data-name="Path 587"/>
                    <path id="prefix__Path_588" d="M101.211 86.432s7.516-1.255 7.9-.726-7.9.726-7.9.726z" class="prefix__cls-5" data-name="Path 588"/>
                    <path id="prefix__Path_589" d="M101.211 90.24a11.735 11.735 0 0 0 3.126.39c1.854 0-3.126-.39-3.126-.39z" class="prefix__cls-5" data-name="Path 589"/>
                    <path id="prefix__Path_590" d="M94.9 98.43c-11.525-4.923-1.01-16.681-1.01-16.681a1.177 1.177 0 0 1 .228-.511c2.129-.355 5.365.494 5.85 8.7.29 4.902-2.089 7.338-5.068 8.492z" class="prefix__cls-5" data-name="Path 590"/>
                    <g id="prefix__Group_175" data-name="Group 175" style="opacity:.1">
                        <path id="prefix__Path_591" d="M131.2 29.153a2.1 2.1 0 0 0 .21.516 1.55 1.55 0 0 1 .669.07 2.123 2.123 0 0 0-.879-.586z" class="prefix__cls-20" data-name="Path 591"/>
                        <path id="prefix__Path_592" d="M133.877 37.229l-.236-.031a.969.969 0 0 0 .28.38 1.705 1.705 0 0 0 .835.237 3.716 3.716 0 0 1 1.1.345 3.818 3.818 0 0 0-1.979-.931z" class="prefix__cls-20" data-name="Path 592"/>
                        <path id="prefix__Path_593" d="M158.634 16.237a11.43 11.43 0 0 1-2.186-1.749c-.787-1.12-.577-2.707-1.312-3.857a2.846 2.846 0 0 0-1.263-1.054 2.7 2.7 0 0 1 .384.468c.744 1.15.534 2.737 1.312 3.857a9.871 9.871 0 0 0 2.186 1.749 5.087 5.087 0 0 1 1.8 4.516 3.562 3.562 0 0 1-.936 2.073c-.389.385-.874.651-1.242 1.062-1.04 1.212-.489 3.061-.852 4.626a3.934 3.934 0 0 1-2.353 2.711 5.938 5.938 0 0 1 .438.731 3.937 3.937 0 0 0 2.785-2.856c.363-1.552-.193-3.414.852-4.626.355-.411.853-.677 1.242-1.062a3.561 3.561 0 0 0 .936-2.073 5.089 5.089 0 0 0-1.791-4.516z" class="prefix__cls-20" data-name="Path 593"/>
                        <path id="prefix__Path_594" d="M151.337 28.331a1 1 0 0 0-.6-.162 1.031 1.031 0 0 0-.6.437 7.728 7.728 0 0 0-1.618 6.122c.083.494.652 1.556.437 2.007-.459.913-3.393.962-4.3 1.167q-2.592.577-5.133 1.356a3.982 3.982 0 0 1-2.086.231 2.135 2.135 0 0 0 .4.368 3.085 3.085 0 0 0 2.562 0q2.539-.774 5.133-1.356c.9-.2 3.839-.254 4.3-1.167.228-.438-.341-1.518-.437-2.007a7.728 7.728 0 0 1 1.618-6.122 1.028 1.028 0 0 1 .6-.437.988.988 0 0 1 .6.157 5.822 5.822 0 0 0-.876-.594z" class="prefix__cls-20" data-name="Path 594"/>
                    </g>
                </g>
            </g>
        </g>
    </g>
</svg>
