<svg xmlns="http://www.w3.org/2000/svg" id="prefix__Group_204" width="450" height="260.556" data-name="Group 204" viewBox="0 0 450 260.556">
    <defs>
        <style>
            .prefix__cls-1{fill:#f1ebba}.prefix__cls-4{fill:#212332}.prefix__cls-5{fill:#f5a6a9}.prefix__cls-6{fill:#c3c2db}.prefix__cls-7{fill:#41a636}.prefix__cls-8{fill:#2e2f45}.prefix__cls-11{fill:none;stroke-miterlimit:10;stroke-width:2px}.prefix__cls-10{fill:#040505;opacity:.15;isolation:isolate}.prefix__cls-11{stroke:#2e2f45}
        </style>
    </defs>
    <g id="prefix__Group_205" data-name="Group 205">
        <path id="prefix__Rectangle_429" d="M0 0H73.341V1.048H0z" class="prefix__cls-1" data-name="Rectangle 429" transform="translate(191.735 9.43)"/>
        <path id="prefix__Rectangle_430" d="M0 0H1.048V9.692H0z" class="prefix__cls-1" data-name="Rectangle 430" transform="translate(211.641)"/>
        <path id="prefix__Rectangle_431" d="M0 0H1.048V9.692H0z" class="prefix__cls-1" data-name="Rectangle 431" transform="translate(243.597)"/>
        <g id="prefix__Group_204-2" data-name="Group 204">
            <path id="prefix__Rectangle_432" d="M0 0H73.341V1.048H0z" class="prefix__cls-1" data-name="Rectangle 432" transform="translate(375.214 255.582)"/>
            <path id="prefix__Rectangle_433" d="M0 0H1.048V9.692H0z" class="prefix__cls-1" data-name="Rectangle 433" transform="translate(427.077 246.153)"/>
            <path id="prefix__Rectangle_434" d="M0 0H73.341V1.048H0z" class="prefix__cls-1" data-name="Rectangle 434" transform="translate(313.795 103.201)"/>
            <path id="prefix__Rectangle_435" d="M0 0H1.048V9.692H0z" class="prefix__cls-1" data-name="Rectangle 435" transform="translate(365.658 93.772)"/>
            <path id="prefix__Rectangle_436" d="M0 0H73.341V1.048H0z" class="prefix__cls-1" data-name="Rectangle 436" transform="translate(313.795 65.483)"/>
            <path id="prefix__Rectangle_437" d="M0 0H1.048V9.692H0z" class="prefix__cls-1" data-name="Rectangle 437" transform="translate(333.702 56.054)"/>
            <path id="prefix__Rectangle_438" d="M0 0H1.048V9.692H0z" class="prefix__cls-1" data-name="Rectangle 438" transform="translate(365.658 56.054)"/>
            <path id="prefix__Rectangle_439" d="M0 0H73.341V1.048H0z" class="prefix__cls-1" data-name="Rectangle 439" transform="translate(152.969 70.722)"/>
            <path id="prefix__Rectangle_440" d="M0 0H1.048V9.692H0z" class="prefix__cls-1" data-name="Rectangle 440" transform="translate(172.875 61.292)"/>
            <path id="prefix__Rectangle_441" d="M0 0H1.048V9.692H0z" class="prefix__cls-1" data-name="Rectangle 441" transform="translate(204.831 61.292)"/>
            <path id="prefix__Rectangle_442" d="M0 0H73.341V1.048H0z" class="prefix__cls-1" data-name="Rectangle 442" transform="translate(99.534 46.1)"/>
            <path id="prefix__Rectangle_443" d="M0 0H1.048V9.692H0z" class="prefix__cls-1" data-name="Rectangle 443" transform="translate(119.441 36.671)"/>
            <path id="prefix__Rectangle_444" d="M0 0H1.048V9.692H0z" class="prefix__cls-1" data-name="Rectangle 444" transform="translate(151.397 36.671)"/>
            <path id="prefix__Rectangle_445" d="M0 0H73.341V1.048H0z" class="prefix__cls-1" data-name="Rectangle 445" transform="translate(66.531 143.015)"/>
            <path id="prefix__Rectangle_446" d="M0 0H1.048V9.692H0z" class="prefix__cls-1" data-name="Rectangle 446" transform="translate(86.438 133.586)"/>
            <path id="prefix__Rectangle_447" d="M0 0H73.341V1.048H0z" class="prefix__cls-1" data-name="Rectangle 447" transform="translate(29.86 249.884)"/>
            <path id="prefix__Rectangle_448" d="M0 0H1.048V9.692H0z" class="prefix__cls-1" data-name="Rectangle 448" transform="translate(49.767 240.454)"/>
            <path id="prefix__Rectangle_449" d="M0 0H1.048V9.692H0z" class="prefix__cls-1" data-name="Rectangle 449" transform="translate(81.723 240.454)"/>
            <path id="prefix__Rectangle_450" d="M0 0H73.341V1.048H0z" class="prefix__cls-1" data-name="Rectangle 450" transform="translate(376.659 205.879)"/>
            <path id="prefix__Rectangle_451" d="M0 0H73.341V1.048H0z" class="prefix__cls-1" data-name="Rectangle 451" transform="translate(355.18 138.824)"/>
            <path id="prefix__Rectangle_452" d="M0 0H1.048V9.692H0z" class="prefix__cls-1" data-name="Rectangle 452" transform="translate(375.611 139.61)"/>
            <path id="prefix__Rectangle_453" d="M0 0H73.341V1.048H0z" class="prefix__cls-1" data-name="Rectangle 453" transform="translate(0 60.244)"/>
            <path id="prefix__Rectangle_454" d="M0 0H1.048V9.692H0z" class="prefix__cls-1" data-name="Rectangle 454" transform="translate(52.386 61.03)"/>
            <path id="prefix__Rectangle_455" d="M0 0H1.048V9.692H0z" class="prefix__cls-1" data-name="Rectangle 455" transform="translate(20.431 61.03)"/>
            <path id="prefix__Rectangle_456" d="M0 0H73.341V1.048H0z" class="prefix__cls-1" data-name="Rectangle 456" transform="translate(4.715 197.497)"/>
            <path id="prefix__Rectangle_457" d="M0 0H1.048V9.692H0z" class="prefix__cls-1" data-name="Rectangle 457" transform="translate(57.101 198.283)"/>
            <path id="prefix__Rectangle_458" d="M0 0H1.048V9.692H0z" class="prefix__cls-1" data-name="Rectangle 458" transform="translate(25.146 198.283)"/>
            <path id="prefix__Rectangle_459" d="M0 0H73.341V1.048H0z" class="prefix__cls-1" data-name="Rectangle 459" transform="translate(235.739 26.193)"/>
            <path id="prefix__Rectangle_460" d="M0 0H1.048V9.692H0z" class="prefix__cls-1" data-name="Rectangle 460" transform="translate(288.126 26.979)"/>
            <path id="prefix__Rectangle_461" d="M0 0H1.048V9.692H0z" class="prefix__cls-1" data-name="Rectangle 461" transform="translate(256.17 26.979)"/>
            <path id="prefix__Rectangle_462" d="M0 0H73.341V1.048H0z" class="prefix__cls-1" data-name="Rectangle 462" transform="translate(29.86 99.01)"/>
            <path id="prefix__Rectangle_463" d="M0 0H1.048V9.692H0z" class="prefix__cls-1" data-name="Rectangle 463" transform="translate(49.767 89.581)"/>
            <path id="prefix__Rectangle_464" d="M0 0H1.048V9.692H0z" class="prefix__cls-1" data-name="Rectangle 464" transform="translate(81.723 89.581)"/>
        </g>
    </g>
    <g id="prefix__Group_210" data-name="Group 210">
        <path id="prefix__Path_669" d="M58.128 258.817a160.543 160.543 0 0 1 321.086 0" data-name="Path 669" style="fill:#fffce5"/>
        <path id="prefix__Path_670" d="M409.946 224.286a.41.41 0 0 1-.409.407h-2.044a1.224 1.224 0 0 0-1.226 1.22V259h-25.749v-33.087a1.224 1.224 0 0 0-1.227-1.22h-2.452a.409.409 0 0 1-.409-.407v-4.068a.408.408 0 0 1 .409-.407h2.044a1.224 1.224 0 0 0 1.226-1.22v-2.034a.408.408 0 0 1 .409-.407h3.682a1.224 1.224 0 0 0 1.226-1.22v-.407a.409.409 0 0 1 .409-.407h14.714a.408.408 0 0 1 .409.407v.407a1.224 1.224 0 0 0 1.226 1.22h3.678a.408.408 0 0 1 .409.407v2.034a1.224 1.224 0 0 0 1.226 1.22h2.044a.409.409 0 0 1 .409.407z" data-name="Path 670" style="fill:#fff"/>
        <g id="prefix__Group_209" data-name="Group 209">
            <circle id="prefix__Ellipse_156" cx="14.876" cy="14.876" r="14.876" class="prefix__cls-4" data-name="Ellipse 156" transform="translate(244.224 72.584)"/>
            <path id="prefix__Path_671" d="M263.244 72.994a14.878 14.878 0 0 1 13.1 21.935 14.872 14.872 0 1 0-24.714-16.341 14.837 14.837 0 0 1 11.614-5.594z" class="prefix__cls-4" data-name="Path 671"/>
            <circle id="prefix__Ellipse_157" cx="43.697" cy="43.697" r="43.697" class="prefix__cls-4" data-name="Ellipse 157" transform="translate(187.605 .034)"/>
            <path id="prefix__Path_672" d="M197.007 16.619a43.691 43.691 0 0 1 60.559-4.582c-.358-.339-.711-.682-1.083-1.012a43.7 43.7 0 0 0-58.065 65.317c.371.33.753.641 1.132.956a43.691 43.691 0 0 1-2.543-60.679z" class="prefix__cls-4" data-name="Path 672"/>
            <circle id="prefix__Ellipse_158" cx="28.144" cy="28.144" r="28.144" class="prefix__cls-5" data-name="Ellipse 158" transform="translate(202.788 30.77)"/>
            <path id="prefix__Path_673" d="M210.935 67.8s3.7 34.069-2.222 37.772 34.069 8.887 34.069 8.887-5.925-37.029 8.887-46.659z" class="prefix__cls-5" data-name="Path 673"/>
            <path id="prefix__Path_674" d="M246.485 99.649s11.028-5.15-4.855-3.316-29.586-5.2-29.586-5.2-4.813-4.814-5.553.37 2.222 14.813-14.072 16.294-31.107-2.963-37.032 8.147-2.962 59.25-2.962 59.25 11.109 39.994 20 45.919 86.654-2.222 86.654-2.222l22.215-39.991v-46.663s-2.962-16.294-23.7-11.85c0 0-13.331-2.963-12.59-9.629s1.481-11.109 1.481-11.109z" class="prefix__cls-6" data-name="Path 674"/>
            <path id="prefix__Path_675" d="M175.361 249.415c.458-1.994.764-3.122.764-3.122l-.237-1.623-2.44-16.569-1.026-6.989c8.886-3.7 11.109-20.739 11.109-20.739l.335-.2 1.517-.908 5.444-3.265.11-.066 2.2 1.464 4.468 2.979a52.529 52.529 0 0 0 41.366 9.478 45.5 45.5 0 0 0 9.736-2.812l10.774-3.592.335-.111.331.049 6.319.957.114.02.523.078-1.463 10.116-2.121 14.7c5.6 2.968 10.586 8.543 14.943 15.413q1.446 2.281 2.8 4.745c1.177 2.126 2.3 4.337 3.372 6.6.131.27.258.544.384.818.413.887.822 1.782 1.218 2.681H173.4c.147-.9.294-1.766.438-2.6a.8.8 0 0 0 .016-.085c.053-.278.1-.548.147-.818.499-2.695.98-4.947 1.36-6.599z" class="prefix__cls-4" data-name="Path 675"/>
            <path id="prefix__Path_676" d="M170.941 107.055a56.834 56.834 0 0 1 5.184 33.329c-2.963 18.515 8.888 64.434 8.888 64.434l8.887-2.218s-5.925-38.513-4.444-47.4 1.482-43.7-5.925-48.141-12.59-.004-12.59-.004z" class="prefix__cls-4" data-name="Path 676"/>
            <path id="prefix__Path_677" d="M257.073 122.448l3.114 82 5.925 3.7s8.517-89.986 4.073-89.986h-9.042a4.074 4.074 0 0 0-4.075 4.075c0 .072.002.142.005.211z" class="prefix__cls-4" data-name="Path 677"/>
            <circle id="prefix__Ellipse_159" cx="3.703" cy="3.703" r="3.703" class="prefix__cls-7" data-name="Ellipse 159" transform="translate(185.383 195.561)"/>
            <circle id="prefix__Ellipse_160" cx="3.703" cy="3.703" r="3.703" class="prefix__cls-7" data-name="Ellipse 160" transform="translate(259.446 199.264)"/>
            <path id="prefix__Path_678" d="M206.861 23.734v28.144h6.518l8.295-8.888-1.111 8.888h28.81L247.6 42.99l3.555 8.888h4.592V23.734z" class="prefix__cls-4" data-name="Path 678"/>
            <ellipse id="prefix__Ellipse_161" cx="2.222" cy="4.073" class="prefix__cls-5" data-name="Ellipse 161" rx="2.222" ry="4.073" transform="translate(200.195 48.916)"/>
            <ellipse id="prefix__Ellipse_162" cx="2.222" cy="4.073" class="prefix__cls-5" data-name="Ellipse 162" rx="2.222" ry="4.073" transform="translate(257.224 48.916)"/>
            <path id="prefix__Path_679" d="M274.629 202.6s-33.7-6.3-35.921 4.814 37.4 6.295 37.4 6.295z" class="prefix__cls-5" data-name="Path 679"/>
            <path id="prefix__Path_680" d="M273.888 126.312s80.729 64.434 65.912 79.988-71.1 11.109-71.1 11.109l3.7-18.516 32.588-3.7L288.7 178.9l-14.813 1.482z" class="prefix__cls-6" data-name="Path 680"/>
            <path id="prefix__Path_681" d="M154.647 233.7l10.368 8.147s7.407 22.959 18.516 16.294-10.369-30.366-10.369-30.366l-12.59-4.444z" class="prefix__cls-5" data-name="Path 681"/>
            <path id="prefix__Path_682" d="M165.015 114.461l-10.34 3.112s-71.87 53.176-74.832 67.989 14.072 22.96 14.072 22.96l64.435 30.365 6.665-17.775-30.365-15.553s2.222-4.444-6.666-5.184-10.369-10.369-10.369-10.369 17.775-27.4 27.4-21.479 12.594 10.373 12.594 10.373z" class="prefix__cls-6" data-name="Path 682"/>
            <path id="prefix__Path_683" d="M312.507 251.953v2.481a5.481 5.481 0 0 1-5.489 5.489H124.5a5.491 5.491 0 0 1-4.721-2.681 5.6 5.6 0 0 1-.4-.817 5.469 5.469 0 0 1-.372-1.991v-2.481a5.488 5.488 0 0 1 5.486-5.489h10.524v-1.156a.227.227 0 0 1 .228-.229h5.489a.228.228 0 0 1 .229.228v1.156h3.43v-1.156a.227.227 0 0 1 .228-.229h5.49a.228.228 0 0 1 .228.228v1.156h3.434v-1.156a.227.227 0 0 1 .228-.229h5.49a.228.228 0 0 1 .228.228v1.156h3.43v-1.156a.227.227 0 0 1 .228-.229h5.49a.229.229 0 0 1 .229.228v1.156h3.429v-1.156a.227.227 0 0 1 .228-.229h5.49a.229.229 0 0 1 .229.228v1.156h3.433v-1.156a.228.228 0 0 1 .228-.229h5.49a.229.229 0 0 1 .229.228v1.156h3.429v-1.156a.228.228 0 0 1 .228-.229h43a.229.229 0 0 1 .229.228v1.156h3.433v-1.156a.228.228 0 0 1 .228-.229h5.49a.231.231 0 0 1 .229.229v1.156h3.429v-1.156a.228.228 0 0 1 .228-.229h5.49a.229.229 0 0 1 .229.228v1.156h3.429V245.3a.228.228 0 0 1 .228-.229h5.49a.229.229 0 0 1 .229.228v1.156h3.433v-1.156a.228.228 0 0 1 .228-.229h5.49a.228.228 0 0 1 .225.229v1.156h3.433v-1.156a.228.228 0 0 1 .228-.229h5.49a.229.229 0 0 1 .229.228v1.156h3.429v-1.156a.228.228 0 0 1 .228-.229h5.49a.229.229 0 0 1 .229.228v1.156h16.01a5.489 5.489 0 0 1 5.489 5.486z" class="prefix__cls-8" data-name="Path 683"/>
            <path id="prefix__Path_684" d="M297.81 147.471h-68.028v-1.4h-30.847v1.4h-68.309a4.6 4.6 0 0 0-4.6 4.6v93.152a4.6 4.6 0 0 0 4.6 4.6H297.81a4.6 4.6 0 0 0 4.6-4.6v-93.151a4.6 4.6 0 0 0-4.6-4.6z" class="prefix__cls-8" data-name="Path 684"/>
            <circle id="prefix__Ellipse_163" cx="10.218" cy="10.218" r="10.218" data-name="Ellipse 163" transform="translate(204.134 169.774)" style="stroke:#c3c2db;fill:none;stroke-miterlimit:10;stroke-width:2px"/>
            <circle id="prefix__Ellipse_164" cx="10.218" cy="10.218" r="10.218" class="prefix__cls-6" data-name="Ellipse 164" transform="translate(200.864 173.453)"/>
            <path id="prefix__Path_685" d="M55.643 228.765c-8.138 13.286-5.338 29.813-5.338 29.813s15.994-5.015 24.132-18.3 5.338-29.812 5.338-29.812-15.994 5.013-24.132 18.299z" class="prefix__cls-8" data-name="Path 685"/>
            <path id="prefix__Path_686" d="M49.972 258.687l-.462-.073c-.168-.026-16.822-2.786-26.8-14.72s-9.734-28.814-9.731-28.984l.01-.468.463.073c.167.027 16.822 2.787 26.8 14.721 9.975 11.934 9.735 28.814 9.731 28.983z" class="prefix__cls-7" data-name="Path 686"/>
            <path id="prefix__Path_687" d="M50.63 259.108l-.447-.14c-.162-.051-16.235-5.214-24.359-18.477S20.4 210.563 20.431 210.4l.078-.462.447.14c.162.051 16.235 5.214 24.359 18.477 8.124 13.263 5.421 29.927 5.393 30.094zm-29.461-48.1c-.37 2.8-1.845 17.3 5.352 29.053s20.79 17.026 23.449 17.968c.37-2.8 1.845-17.3-5.352-29.053-7.2-11.75-20.79-17.027-23.449-17.968z" class="prefix__cls-8" data-name="Path 687"/>
            <circle id="prefix__Ellipse_165" cx="8.992" cy="8.992" r="8.992" class="prefix__cls-8" data-name="Ellipse 165" transform="translate(41.821 197.544)"/>
            <path id="prefix__Path_688" d="M163.4 105.539l-51.583-51.99H87.466v-.817h24.694l.12.121 51.7 52.112z" class="prefix__cls-8" data-name="Path 688"/>
            <path id="prefix__Path_689" d="M284.555 103.9l51.583-51.99h24.352v-.81H335.8l-.12.121-51.7 52.112z" class="prefix__cls-8" data-name="Path 689"/>
            <path id="prefix__Rectangle_465" d="M0 0H59.673V11.803H0z" class="prefix__cls-6" data-name="Rectangle 465" transform="translate(0 27.918)"/>
            <path id="prefix__Rectangle_466" d="M0 0H59.673V11.803H0z" class="prefix__cls-6" data-name="Rectangle 466" transform="translate(0 46.028)"/>
            <path id="prefix__Rectangle_467" d="M0 0H59.673V11.803H0z" class="prefix__cls-6" data-name="Rectangle 467" transform="translate(0 64.139)"/>
            <path id="prefix__Rectangle_468" d="M0 0H24.686V11.803H0z" class="prefix__cls-10" data-name="Rectangle 468" transform="translate(0 27.918)"/>
            <path id="prefix__Rectangle_469" d="M0 0H7.992V11.803H0z" class="prefix__cls-10" data-name="Rectangle 469" transform="translate(0 33.371)"/>
            <path id="prefix__Rectangle_470" d="M0 0H39.782V11.803H0z" class="prefix__cls-10" data-name="Rectangle 470" transform="translate(0 64.139)"/>
            <path id="prefix__Rectangle_471" d="M0 0H59.765V5.326H0z" class="prefix__cls-6" data-name="Rectangle 471" transform="translate(390.235 30.569)"/>
            <path id="prefix__Rectangle_472" d="M0 0H11.835V11.835H0z" class="prefix__cls-7" data-name="Rectangle 472" transform="translate(367.847 29.88)"/>
            <path id="prefix__Rectangle_473" d="M0 0H11.835V11.835H0z" class="prefix__cls-7" data-name="Rectangle 473" transform="translate(367.847 47.632)"/>
            <path id="prefix__Rectangle_474" d="M0 0H11.835V11.835H0z" class="prefix__cls-7" data-name="Rectangle 474" transform="translate(367.847 65.383)"/>
            <path id="prefix__Rectangle_475" d="M0 0H59.765V5.326H0z" class="prefix__cls-6" data-name="Rectangle 475" transform="translate(390.235 48.321)"/>
            <path id="prefix__Rectangle_476" d="M0 0H59.765V5.326H0z" class="prefix__cls-6" data-name="Rectangle 476" transform="translate(390.235 66.073)"/>
            <circle id="prefix__Ellipse_166" cx="6.54" cy="6.54" r="6.54" class="prefix__cls-7" data-name="Ellipse 166" transform="translate(70.708 27.391)"/>
            <circle id="prefix__Ellipse_167" cx="6.54" cy="6.54" r="6.54" class="prefix__cls-7" data-name="Ellipse 167" transform="translate(70.708 47.009)"/>
            <circle id="prefix__Ellipse_168" cx="6.54" cy="6.54" r="6.54" class="prefix__cls-7" data-name="Ellipse 168" transform="translate(70.708 64.584)"/>
            <path id="prefix__Path_690" d="M73.978 39.244a6.948 6.948 0 1 1 6.948-6.949 6.949 6.949 0 0 1-6.948 6.949zm0-13.079a6.13 6.13 0 1 0 6.131 6.13 6.13 6.13 0 0 0-6.131-6.13z" class="prefix__cls-8" data-name="Path 690"/>
            <path id="prefix__Path_691" d="M73.978 58.862a6.948 6.948 0 1 1 6.948-6.948 6.948 6.948 0 0 1-6.948 6.948zm0-13.079a6.131 6.131 0 1 0 6.131 6.131 6.131 6.131 0 0 0-6.131-6.131z" class="prefix__cls-8" data-name="Path 691"/>
            <path id="prefix__Path_692" d="M73.978 76.437a6.948 6.948 0 1 1 6.948-6.948 6.948 6.948 0 0 1-6.948 6.948zm0-13.079a6.131 6.131 0 1 0 6.131 6.131 6.131 6.131 0 0 0-6.131-6.131z" class="prefix__cls-8" data-name="Path 692"/>
            <path id="prefix__Path_693" d="M404.223 230.945h-.817v-6.13a1.228 1.228 0 0 1 1.226-1.227h2.044a.408.408 0 0 0 .408-.408v-4.087a.409.409 0 0 0-.408-.409h-2.044a1.227 1.227 0 0 1-1.226-1.226v-2.044a.409.409 0 0 0-.409-.409h-3.678a1.226 1.226 0 0 1-1.226-1.226v-.409a.409.409 0 0 0-.409-.408H382.97a.409.409 0 0 0-.409.408v.409a1.226 1.226 0 0 1-1.226 1.226h-3.678a.41.41 0 0 0-.409.409v2.044a1.227 1.227 0 0 1-1.226 1.226h-2.044a.41.41 0 0 0-.409.409v4.087a.41.41 0 0 0 .409.408h2.453a1.229 1.229 0 0 1 1.226 1.227v6.13h-.818v-6.13a.409.409 0 0 0-.408-.409h-2.453a1.227 1.227 0 0 1-1.226-1.226v-4.087a1.228 1.228 0 0 1 1.226-1.227h2.044a.41.41 0 0 0 .409-.408v-2.044a1.227 1.227 0 0 1 1.226-1.226h3.678a.409.409 0 0 0 .409-.409v-.409a1.228 1.228 0 0 1 1.226-1.226h14.714a1.228 1.228 0 0 1 1.226 1.226v.409a.409.409 0 0 0 .409.409H403a1.227 1.227 0 0 1 1.226 1.226v2.044a.409.409 0 0 0 .409.408h2.044a1.228 1.228 0 0 1 1.226 1.227v4.087a1.227 1.227 0 0 1-1.226 1.226h-2.044a.41.41 0 0 0-.409.409z" class="prefix__cls-8" data-name="Path 693"/>
            <path id="prefix__Path_694" d="M403 259.556h-24.935a1.227 1.227 0 0 1-1.226-1.226v-17.575h.818v17.575a.408.408 0 0 0 .408.408H403a.409.409 0 0 0 .409-.408v-17.575h.817v17.575a1.227 1.227 0 0 1-1.226 1.226z" class="prefix__cls-8" data-name="Path 694"/>
            <rect id="prefix__Rectangle_477" width="32.289" height="9.809" class="prefix__cls-7" data-name="Rectangle 477" rx=".817" transform="translate(376.839 233.806)"/>
            <path id="prefix__Path_695" d="M405.654 241.163H375a1.227 1.227 0 0 1-1.226-1.226v-8.174a1.227 1.227 0 0 1 1.226-1.226h30.654a1.227 1.227 0 0 1 1.226 1.226v8.174a1.227 1.227 0 0 1-1.226 1.226zM375 231.354a.409.409 0 0 0-.409.409v8.174a.409.409 0 0 0 .409.409h30.654a.409.409 0 0 0 .409-.409v-8.174a.409.409 0 0 0-.409-.409z" class="prefix__cls-8" data-name="Path 695"/>
            <path id="prefix__Path_696" d="M389.51 209.283a102.021 102.021 0 0 1-.857-22.116l.857-12.216c-4.718 9.386-3.652 21.741 0 34.332z" class="prefix__cls-6" data-name="Path 696"/>
            <path id="prefix__Path_697" d="M393.188 211.327a75.019 75.019 0 0 1-.412-13.165l.412-7.271c-2.27 5.587-1.757 12.941 0 20.436z" class="prefix__cls-6" data-name="Path 697"/>
            <g id="prefix__Group_206" data-name="Group 206">
                <path id="prefix__Path_698" d="M381.2 63.16h-1.125v-.587a.391.391 0 1 0-.782 0v.587h-5.473v-.587a.392.392 0 0 0-.783 0v.587h-1.124a1.614 1.614 0 0 0-1.613 1.613v8.311a1.615 1.615 0 0 0 1.613 1.613h9.287a1.615 1.615 0 0 0 1.613-1.613v-8.311a1.615 1.615 0 0 0-1.613-1.613zm-9.289.782h1.124v.391a.392.392 0 0 0 .783 0v-.391h5.482v.391a.391.391 0 1 0 .782 0v-.391h1.118a.832.832 0 0 1 .831.831v.927h-10.949v-.929a.832.832 0 0 1 .831-.829zm9.289 9.973h-9.289a.832.832 0 0 1-.831-.831v-6.6h10.951v6.6a.832.832 0 0 1-.831.831z" class="prefix__cls-8" data-name="Path 698"/>
            </g>
            <g id="prefix__Group_207" data-name="Group 207">
                <path id="prefix__Path_699" d="M381.2 45.476h-1.125v-.586a.391.391 0 1 0-.782 0v.586h-5.473v-.586a.392.392 0 1 0-.783 0v.586h-1.124a1.615 1.615 0 0 0-1.613 1.614v8.31a1.615 1.615 0 0 0 1.613 1.614h9.287a1.616 1.616 0 0 0 1.613-1.614v-8.31a1.616 1.616 0 0 0-1.613-1.614zm-9.289.782h1.124v.392a.392.392 0 0 0 .783 0v-.392h5.482v.392a.391.391 0 1 0 .782 0v-.392h1.118a.832.832 0 0 1 .831.832v.928h-10.949v-.928a.832.832 0 0 1 .831-.832zm9.289 9.974h-9.289a.832.832 0 0 1-.831-.832v-6.6h10.951v6.6a.832.832 0 0 1-.831.832z" class="prefix__cls-8" data-name="Path 699"/>
            </g>
            <g id="prefix__Group_208" data-name="Group 208">
                <path id="prefix__Path_700" d="M381.2 27.656h-1.125v-.587a.391.391 0 1 0-.782 0v.587h-5.473v-.587a.392.392 0 0 0-.783 0v.587h-1.124a1.615 1.615 0 0 0-1.613 1.613v8.311a1.615 1.615 0 0 0 1.613 1.614h9.287a1.616 1.616 0 0 0 1.613-1.614v-8.311a1.615 1.615 0 0 0-1.613-1.613zm-9.289.782h1.124v.391a.392.392 0 0 0 .783 0v-.391h5.482v.391a.391.391 0 1 0 .782 0v-.391h1.118a.832.832 0 0 1 .831.831v.931h-10.949v-.929a.832.832 0 0 1 .831-.833zm9.289 9.973h-9.289a.832.832 0 0 1-.831-.831v-6.6h10.951v6.6a.832.832 0 0 1-.831.831z" class="prefix__cls-8" data-name="Path 700"/>
            </g>
        </g>
        <path id="prefix__Line_27" d="M0 0L354.291 0" class="prefix__cls-11" data-name="Line 27" transform="translate(70.786 259.556)"/>
        <path id="prefix__Line_28" d="M0 0L55.721 0" class="prefix__cls-11" data-name="Line 28" transform="translate(10.635 259.556)"/>
    </g>
</svg>
