<svg xmlns="http://www.w3.org/2000/svg" width="464.168" height="263.556" viewBox="0 0 464.168 263.556">
    <defs>
        <style>
            .prefix__cls-2{fill:#f1ebba}.prefix__cls-3{fill:none;stroke:#2e2f45;stroke-miterlimit:10;stroke-width:2px}.prefix__cls-4{fill:#f0f0f0}.prefix__cls-5{fill:#2e2f45}.prefix__cls-6{fill:#fff}.prefix__cls-7{fill:#41a636}.prefix__cls-9{fill:#212332}.prefix__cls-10{fill:#f6afb1}.prefix__cls-11{fill:#f5a6a9}.prefix__cls-12{fill:#c3c2db}
        </style>
    </defs>
    <g id="prefix__Group_477" data-name="Group 477" transform="translate(-169.635 -4017)">
        <g id="prefix__Group_178" data-name="Group 178" transform="translate(159 4020)">
            <path id="prefix__Path_595" d="M58.128 258.817a160.543 160.543 0 0 1 321.086 0" data-name="Path 595" style="fill:#fffce5"/>
            <g id="prefix__Group_179" data-name="Group 179" transform="translate(15 -3)">
                <path id="prefix__Rectangle_374" d="M0 0H73.341V1.048H0z" class="prefix__cls-2" data-name="Rectangle 374" transform="translate(191.735 9.43)"/>
                <path id="prefix__Rectangle_375" d="M0 0H1.048V9.692H0z" class="prefix__cls-2" data-name="Rectangle 375" transform="translate(211.641)"/>
                <path id="prefix__Rectangle_376" d="M0 0H1.048V9.692H0z" class="prefix__cls-2" data-name="Rectangle 376" transform="translate(243.597)"/>
                <g id="prefix__Group_178-2" data-name="Group 178">
                    <path id="prefix__Rectangle_377" d="M0 0H73.341V1.048H0z" class="prefix__cls-2" data-name="Rectangle 377" transform="translate(375.214 255.582)"/>
                    <path id="prefix__Rectangle_378" d="M0 0H1.048V9.692H0z" class="prefix__cls-2" data-name="Rectangle 378" transform="translate(427.077 246.153)"/>
                    <path id="prefix__Rectangle_379" d="M0 0H73.341V1.048H0z" class="prefix__cls-2" data-name="Rectangle 379" transform="translate(313.795 103.201)"/>
                    <path id="prefix__Rectangle_380" d="M0 0H1.048V9.692H0z" class="prefix__cls-2" data-name="Rectangle 380" transform="translate(365.658 93.772)"/>
                    <path id="prefix__Rectangle_381" d="M0 0H73.341V1.048H0z" class="prefix__cls-2" data-name="Rectangle 381" transform="translate(313.795 65.483)"/>
                    <path id="prefix__Rectangle_382" d="M0 0H1.048V9.692H0z" class="prefix__cls-2" data-name="Rectangle 382" transform="translate(333.702 56.054)"/>
                    <path id="prefix__Rectangle_383" d="M0 0H1.048V9.692H0z" class="prefix__cls-2" data-name="Rectangle 383" transform="translate(365.658 56.054)"/>
                    <path id="prefix__Rectangle_384" d="M0 0H73.341V1.048H0z" class="prefix__cls-2" data-name="Rectangle 384" transform="translate(152.969 70.722)"/>
                    <path id="prefix__Rectangle_385" d="M0 0H1.048V9.692H0z" class="prefix__cls-2" data-name="Rectangle 385" transform="translate(172.875 61.292)"/>
                    <path id="prefix__Rectangle_386" d="M0 0H1.048V9.692H0z" class="prefix__cls-2" data-name="Rectangle 386" transform="translate(204.831 61.292)"/>
                    <path id="prefix__Rectangle_387" d="M0 0H73.341V1.048H0z" class="prefix__cls-2" data-name="Rectangle 387" transform="translate(99.534 46.1)"/>
                    <path id="prefix__Rectangle_388" d="M0 0H1.048V9.692H0z" class="prefix__cls-2" data-name="Rectangle 388" transform="translate(119.441 36.671)"/>
                    <path id="prefix__Rectangle_389" d="M0 0H1.048V9.692H0z" class="prefix__cls-2" data-name="Rectangle 389" transform="translate(151.397 36.671)"/>
                    <path id="prefix__Rectangle_390" d="M0 0H73.341V1.048H0z" class="prefix__cls-2" data-name="Rectangle 390" transform="translate(66.531 143.015)"/>
                    <path id="prefix__Rectangle_391" d="M0 0H1.048V9.692H0z" class="prefix__cls-2" data-name="Rectangle 391" transform="translate(86.438 133.586)"/>
                    <path id="prefix__Rectangle_392" d="M0 0H73.341V1.048H0z" class="prefix__cls-2" data-name="Rectangle 392" transform="translate(29.86 249.884)"/>
                    <path id="prefix__Rectangle_393" d="M0 0H1.048V9.692H0z" class="prefix__cls-2" data-name="Rectangle 393" transform="translate(49.767 240.454)"/>
                    <path id="prefix__Rectangle_394" d="M0 0H1.048V9.692H0z" class="prefix__cls-2" data-name="Rectangle 394" transform="translate(81.723 240.454)"/>
                    <path id="prefix__Rectangle_395" d="M0 0H73.341V1.048H0z" class="prefix__cls-2" data-name="Rectangle 395" transform="translate(376.659 205.879)"/>
                    <path id="prefix__Rectangle_396" d="M0 0H73.341V1.048H0z" class="prefix__cls-2" data-name="Rectangle 396" transform="translate(355.18 138.824)"/>
                    <path id="prefix__Rectangle_397" d="M0 0H1.048V9.692H0z" class="prefix__cls-2" data-name="Rectangle 397" transform="translate(375.611 139.61)"/>
                    <path id="prefix__Rectangle_398" d="M0 0H73.341V1.048H0z" class="prefix__cls-2" data-name="Rectangle 398" transform="translate(0 60.244)"/>
                    <path id="prefix__Rectangle_399" d="M0 0H1.048V9.692H0z" class="prefix__cls-2" data-name="Rectangle 399" transform="translate(52.386 61.03)"/>
                    <path id="prefix__Rectangle_400" d="M0 0H1.048V9.692H0z" class="prefix__cls-2" data-name="Rectangle 400" transform="translate(20.431 61.03)"/>
                    <path id="prefix__Rectangle_401" d="M0 0H73.341V1.048H0z" class="prefix__cls-2" data-name="Rectangle 401" transform="translate(4.715 197.497)"/>
                    <path id="prefix__Rectangle_402" d="M0 0H1.048V9.692H0z" class="prefix__cls-2" data-name="Rectangle 402" transform="translate(57.101 198.283)"/>
                    <path id="prefix__Rectangle_403" d="M0 0H1.048V9.692H0z" class="prefix__cls-2" data-name="Rectangle 403" transform="translate(25.146 198.283)"/>
                    <path id="prefix__Rectangle_404" d="M0 0H73.341V1.048H0z" class="prefix__cls-2" data-name="Rectangle 404" transform="translate(235.739 26.193)"/>
                    <path id="prefix__Rectangle_405" d="M0 0H1.048V9.692H0z" class="prefix__cls-2" data-name="Rectangle 405" transform="translate(288.126 26.979)"/>
                    <path id="prefix__Rectangle_406" d="M0 0H1.048V9.692H0z" class="prefix__cls-2" data-name="Rectangle 406" transform="translate(256.17 26.979)"/>
                    <path id="prefix__Rectangle_407" d="M0 0H73.341V1.048H0z" class="prefix__cls-2" data-name="Rectangle 407" transform="translate(29.86 99.01)"/>
                    <path id="prefix__Rectangle_408" d="M0 0H1.048V9.692H0z" class="prefix__cls-2" data-name="Rectangle 408" transform="translate(49.767 89.581)"/>
                    <path id="prefix__Rectangle_409" d="M0 0H1.048V9.692H0z" class="prefix__cls-2" data-name="Rectangle 409" transform="translate(81.723 89.581)"/>
                </g>
            </g>
            <path id="prefix__Line_25" d="M0 0L354.291 0" class="prefix__cls-3" data-name="Line 25" transform="translate(70.786 259.556)"/>
            <path id="prefix__Line_26" d="M0 0L55.721 0" class="prefix__cls-3" data-name="Line 26" transform="translate(140.635 259.556)"/>
            <circle id="prefix__Ellipse_123" cx="93.71" cy="93.71" r="93.71" class="prefix__cls-4" data-name="Ellipse 123" transform="translate(271.765 30.421)"/>
            <path id="prefix__Path_598" d="M242.112 219.012c-1.083 0-2.177-.018-3.252-.051l.025-.78c1.542.048 3.116.061 4.666.04l.011.781q-.725.009-1.45.01zm6.148-.181l-.046-.78c1.545-.091 3.109-.219 4.65-.38l.082.776c-1.553.163-3.129.292-4.686.384zm-14.094-.122c-1.557-.119-3.131-.276-4.678-.466l.095-.775c1.535.188 3.1.344 4.643.462zm23.443-.859l-.117-.772c1.535-.233 3.081-.5 4.6-.8l.153.766c-1.531.299-3.089.572-4.636.806zm-32.773-.285c-1.539-.261-3.092-.561-4.617-.892l.166-.763c1.513.328 3.054.626 4.581.884zm41.993-1.547l-.188-.758c1.507-.373 3.022-.785 4.5-1.224l.222.749c-1.49.443-3.016.857-4.534 1.233zm-51.18-.448c-1.509-.4-3.028-.843-4.514-1.313l.235-.745c1.475.467 2.982.905 4.48 1.3zm60.192-2.226l-.256-.738c1.462-.508 2.932-1.057 4.371-1.633l.29.725c-1.449.58-2.931 1.134-4.4 1.646zm-69.167-.612c-1.466-.538-2.941-1.12-4.384-1.728l.3-.72c1.432.6 2.9 1.18 4.35 1.715zm77.886-2.877l-.323-.71c1.4-.638 2.815-1.319 4.194-2.024l.355.695c-1.389.71-2.811 1.4-4.226 2.039zm-86.568-.778c-1.41-.672-2.824-1.386-4.2-2.123l.368-.689c1.37.732 2.773 1.441 4.171 2.107zm94.923-3.493l-.386-.678c1.346-.768 2.69-1.576 3.994-2.4l.417.659c-1.314.832-2.668 1.646-4.025 2.419zm-103.227-.944c-1.341-.8-2.683-1.638-3.989-2.5l.429-.653c1.3.855 2.629 1.689 3.959 2.48zm111.163-4.076l-.447-.64c1.267-.886 2.533-1.813 3.76-2.757l.476.62c-1.237.95-2.512 1.885-3.789 2.777zm-119.022-1.1c-1.26-.915-2.519-1.874-3.742-2.851l.487-.61c1.214.969 2.463 1.921 3.714 2.829zm126.47-4.625l-.5-.6c1.182-1 2.358-2.036 3.5-3.089l.53.574c-1.154 1.063-2.339 2.11-3.529 3.115zm-133.82-1.239c-1.174-1.028-2.34-2.1-3.466-3.178l.54-.563c1.118 1.073 2.275 2.134 3.44 3.154zm140.721-5.144l-.556-.548c1.089-1.1 2.167-2.246 3.2-3.4l.581.522c-1.044 1.158-2.129 2.309-3.227 3.421zm-147.5-1.371c-1.077-1.132-2.141-2.3-3.162-3.479l.59-.511c1.013 1.167 2.068 2.328 3.137 3.452zm153.8-5.614l-.6-.5c.984-1.2 1.953-2.434 2.881-3.674l.625.467c-.944 1.254-1.92 2.5-2.912 3.707zm-159.959-1.483c-.967-1.222-1.919-2.484-2.831-3.75l.634-.456c.9 1.256 1.849 2.508 2.809 3.722zm165.593-6.051l-.646-.438c.871-1.283 1.724-2.6 2.535-3.924l.666.409c-.824 1.331-1.684 2.661-2.561 3.953zm-171.079-1.573c-.851-1.3-1.684-2.647-2.476-3.991l.673-.4c.786 1.333 1.612 2.666 2.457 3.96zm176-6.447l-.684-.377c.75-1.357 1.478-2.75 2.166-4.142l.7.346c-.694 1.402-1.428 2.806-2.183 4.173zm-180.771-1.642c-.728-1.376-1.434-2.789-2.1-4.2l.707-.334c.659 1.4 1.36 2.8 2.082 4.166zm184.941-6.8l-.715-.313c.622-1.422 1.219-2.877 1.776-4.326l.729.28c-.561 1.46-1.163 2.927-1.79 4.359zm-188.944-1.685c-.6-1.437-1.172-2.907-1.7-4.369l.734-.267c.528 1.451 1.1 2.91 1.69 4.335zm192.32-7.113l-.741-.245c.487-1.469.947-2.969 1.366-4.461l.752.211c-.423 1.503-.886 3.018-1.378 4.495zm-195.528-1.711c-.465-1.488-.9-3.008-1.3-4.519l.755-.2c.394 1.5.827 3.008 1.288 4.485zm198.073-7.338l-.761-.177c.35-1.505.669-3.042.95-4.568l.768.141c-.282 1.538-.603 3.086-.957 4.604zm-200.458-1.755c-.326-1.525-.621-3.079-.876-4.619l.77-.129c.254 1.529.546 3.071.869 4.585zm202.16-7.491l-.774-.106c.21-1.529.387-3.089.527-4.635l.778.07c-.141 1.559-.32 3.13-.531 4.671zm-203.7-1.783c-.185-1.545-.336-3.12-.45-4.679l.779-.057c.113 1.548.263 3.11.446 4.644zm204.552-7.578l-.78-.035c.069-1.547.105-3.117.105-4.665h.781c-.006 1.56-.039 3.141-.106 4.7zm-205.235-1.8c-.026-.957-.04-1.934-.04-2.9q0-.9.015-1.8l.781.014q-.015.891-.015 1.785c0 .962.014 1.931.04 2.882zm204.554-3.992c-.016-1.548-.068-3.118-.154-4.665l.78-.043c.086 1.559.138 3.14.155 4.7zM140.4 109.874l-.78-.049c.1-1.56.232-3.136.4-4.684l.776.084c-.162 1.536-.296 3.1-.396 4.649zm203.1-3.958c-.156-1.539-.35-3.1-.577-4.63l.773-.114c.228 1.545.424 3.114.581 4.666zM141.408 100.6l-.772-.119c.24-1.545.518-3.1.827-4.629l.765.155c-.307 1.514-.582 3.059-.82 4.593zm200.724-3.911c-.3-1.523-.633-3.056-1-4.557l.759-.185c.368 1.513.707 3.058 1.007 4.593zm-198.874-5.233l-.758-.19c.38-1.513.8-3.038 1.249-4.533l.748.225c-.446 1.484-.863 2.997-1.239 4.498zm196.667-3.832c-.435-1.487-.911-2.983-1.414-4.446l.738-.254c.507 1.475.987 2.982 1.426 4.48zm-193.979-5.115l-.737-.259c.519-1.476 1.08-2.959 1.666-4.409l.724.293c-.582 1.438-1.138 2.91-1.653 4.375zM336.893 78.8c-.57-1.437-1.18-2.88-1.814-4.287l.713-.321c.638 1.419 1.253 2.872 1.827 4.32zm-187.442-4.96l-.71-.326c.653-1.42 1.347-2.845 2.064-4.234l.694.359c-.712 1.38-1.399 2.793-2.048 4.203zm183.62-3.528c-.7-1.379-1.44-2.76-2.2-4.106l.68-.384c.767 1.356 1.513 2.748 2.217 4.137zm-179.334-4.773l-.677-.39c.779-1.353 1.6-2.707 2.442-4.024l.658.42c-.835 1.308-1.65 2.655-2.423 3.994zm174.746-3.333c-.825-1.313-1.689-2.622-2.568-3.89l.641-.444c.886 1.277 1.757 2.595 2.588 3.919zm-169.719-4.538l-.639-.45c.9-1.277 1.842-2.55 2.8-3.783l.617.479c-.951 1.224-1.885 2.486-2.778 3.754zm164.407-3.121c-.941-1.232-1.921-2.458-2.913-3.642l.6-.5c1 1.193 1.988 2.427 2.936 3.669zm-158.686-4.255l-.594-.507c1.01-1.186 2.063-2.368 3.129-3.51l.571.532c-1.058 1.135-2.103 2.307-3.106 3.485zm152.7-2.893c-1.049-1.142-2.137-2.274-3.234-3.363l.551-.554c1.105 1.1 2.2 2.238 3.258 3.388zm-146.33-3.93l-.546-.558c1.117-1.092 2.272-2.172 3.435-3.21l.52.583c-1.158 1.029-2.304 2.101-3.413 3.185zm139.713-2.647c-1.15-1.042-2.337-2.071-3.528-3.056l.5-.6c1.2.993 2.4 2.029 3.555 3.08zm-132.759-3.565l-.493-.606c1.207-.983 2.456-1.954 3.71-2.883l.465.627c-1.245.923-2.484 1.885-3.682 2.862zm125.564-2.385c-1.241-.934-2.517-1.85-3.794-2.724l.441-.644c1.287.88 2.572 1.8 3.822 2.744zM185.3 31.7l-.435-.648c1.292-.869 2.623-1.721 3.955-2.531l.406.667c-1.326.812-2.645 1.654-3.926 2.512zm110.367-2.1c-1.32-.816-2.675-1.613-4.028-2.366l.38-.683c1.363.76 2.729 1.562 4.059 2.385zm-102.408-2.737l-.375-.685c1.368-.748 2.77-1.474 4.168-2.158l.343.7c-1.387.679-2.779 1.4-4.136 2.142zm94.241-1.809c-1.39-.692-2.813-1.361-4.231-1.988l.316-.714c1.429.631 2.863 1.305 4.263 2zm-85.881-2.282l-.31-.717c1.429-.619 2.891-1.213 4.345-1.765l.277.73c-1.443.548-2.893 1.137-4.312 1.752zm77.331-1.5c-1.446-.561-2.926-1.1-4.4-1.59l.249-.741c1.484.5 2.975 1.037 4.432 1.6zm-68.62-1.811l-.243-.742c1.484-.486 3-.944 4.5-1.361l.209.752c-1.491.414-2.994.868-4.466 1.351zM270.1 18.3c-1.49-.424-3.009-.82-4.515-1.175l.179-.76c1.518.358 3.049.756 4.55 1.184zm-50.777-1.33l-.174-.762c1.521-.347 3.071-.664 4.606-.941l.139.769c-1.523.274-3.061.589-4.571.934zm41.7-.807c-1.521-.286-3.07-.54-4.6-.755l.108-.774c1.547.218 3.108.473 4.64.761zm-32.516-.85l-.1-.774c1.546-.207 3.118-.38 4.673-.515l.068.777c-1.548.135-3.11.307-4.648.512zm23.278-.448c-1.538-.145-3.1-.257-4.654-.332l.038-.78c1.562.076 3.139.188 4.689.334zM237.8 14.5l-.033-.78c1.435-.06 2.9-.091 4.348-.091h.354v.781h-.351c-1.445.002-2.897.033-4.318.09z" class="prefix__cls-5" data-name="Path 598" transform="translate(130)"/>
            <path id="prefix__Rectangle_410" d="M0 0H249.615V122.698H0z" class="prefix__cls-5" data-name="Rectangle 410" transform="translate(152.373 135.971)"/>
            <path id="prefix__Rectangle_411" d="M0 0H2.343V0.781H0z" class="prefix__cls-6" data-name="Rectangle 411" transform="translate(183.131 164.738)"/>
            <path id="prefix__Path_603" d="M235.044 165.519h-4.726v-.781h4.726zm-9.451 0h-4.726v-.781h4.726zm-9.451 0h-4.726v-.781h4.726zm-9.451 0h-4.726v-.781h4.726zm-9.451 0h-4.726v-.781h4.726zm-9.451 0h-4.726v-.781h4.726zm-9.451 0h-4.726v-.781h4.726zm-9.452 0h-4.725v-.781h4.725zm-9.451 0h-4.725v-.781h4.725zm-9.451 0h-4.725v-.781h4.725zm-9.451 0h-4.725v-.781h4.725zm-9.451 0h-4.725v-.781h4.725zm-9.451 0h-4.725v-.781h4.725zm-9.451 0h-4.725v-.781h4.725zm-9.451 0H98v-.781h4.726zm-9.451 0h-4.726v-.781h4.726zm-9.451 0H79.1v-.781h4.726zm-9.451 0H69.65v-.781h4.726zm-9.451 0H60.2v-.781h4.726z" class="prefix__cls-6" data-name="Path 603" transform="translate(130)"/>
            <path id="prefix__Rectangle_412" d="M0 0H2.343V0.781H0z" class="prefix__cls-6" data-name="Rectangle 412" transform="translate(369.77 164.738)"/>
            <path id="prefix__Rectangle_413" d="M0 0H2.343V0.781H0z" class="prefix__cls-6" data-name="Rectangle 413" transform="translate(183.131 181.137)"/>
            <path id="prefix__Path_604" d="M235.044 181.918h-4.726v-.781h4.726zm-9.451 0h-4.726v-.781h4.726zm-9.451 0h-4.726v-.781h4.726zm-9.451 0h-4.726v-.781h4.726zm-9.451 0h-4.726v-.781h4.726zm-9.451 0h-4.726v-.781h4.726zm-9.451 0h-4.726v-.781h4.726zm-9.452 0h-4.725v-.781h4.725zm-9.451 0h-4.725v-.781h4.725zm-9.451 0h-4.725v-.781h4.725zm-9.451 0h-4.725v-.781h4.725zm-9.451 0h-4.725v-.781h4.725zm-9.451 0h-4.725v-.781h4.725zm-9.451 0h-4.725v-.781h4.725zm-9.451 0H98v-.781h4.726zm-9.451 0h-4.726v-.781h4.726zm-9.451 0H79.1v-.781h4.726zm-9.451 0H69.65v-.781h4.726zm-9.451 0H60.2v-.781h4.726z" class="prefix__cls-6" data-name="Path 604" transform="translate(130)"/>
            <path id="prefix__Rectangle_414" d="M0 0H2.343V0.781H0z" class="prefix__cls-6" data-name="Rectangle 414" transform="translate(369.77 181.137)"/>
            <path id="prefix__Rectangle_415" d="M0 0H2.343V0.781H0z" class="prefix__cls-6" data-name="Rectangle 415" transform="translate(183.131 197.536)"/>
            <path id="prefix__Path_605" d="M235.044 198.317h-4.726v-.781h4.726zm-9.451 0h-4.726v-.781h4.726zm-9.451 0h-4.726v-.781h4.726zm-9.451 0h-4.726v-.781h4.726zm-9.451 0h-4.726v-.781h4.726zm-9.451 0h-4.726v-.781h4.726zm-9.451 0h-4.726v-.781h4.726zm-9.452 0h-4.725v-.781h4.725zm-9.451 0h-4.725v-.781h4.725zm-9.451 0h-4.725v-.781h4.725zm-9.451 0h-4.725v-.781h4.725zm-9.451 0h-4.725v-.781h4.725zm-9.451 0h-4.725v-.781h4.725zm-9.451 0h-4.725v-.781h4.725zm-9.451 0H98v-.781h4.726zm-9.451 0h-4.726v-.781h4.726zm-9.451 0H79.1v-.781h4.726zm-9.451 0H69.65v-.781h4.726zm-9.451 0H60.2v-.781h4.726z" class="prefix__cls-6" data-name="Path 605" transform="translate(130)"/>
            <path id="prefix__Rectangle_416" d="M0 0H2.343V0.781H0z" class="prefix__cls-6" data-name="Rectangle 416" transform="translate(369.77 197.536)"/>
            <path id="prefix__Rectangle_417" d="M0 0H2.343V0.781H0z" class="prefix__cls-6" data-name="Rectangle 417" transform="translate(183.131 213.936)"/>
            <path id="prefix__Path_606" d="M235.044 214.717h-4.726v-.781h4.726zm-9.451 0h-4.726v-.781h4.726zm-9.451 0h-4.726v-.781h4.726zm-9.451 0h-4.726v-.781h4.726zm-9.451 0h-4.726v-.781h4.726zm-9.451 0h-4.726v-.781h4.726zm-9.451 0h-4.726v-.781h4.726zm-9.452 0h-4.725v-.781h4.725zm-9.451 0h-4.725v-.781h4.725zm-9.451 0h-4.725v-.781h4.725zm-9.451 0h-4.725v-.781h4.725zm-9.451 0h-4.725v-.781h4.725zm-9.451 0h-4.725v-.781h4.725zm-9.451 0h-4.725v-.781h4.725zm-9.451 0H98v-.781h4.726zm-9.451 0h-4.726v-.781h4.726zm-9.451 0H79.1v-.781h4.726zm-9.451 0H69.65v-.781h4.726zm-9.451 0H60.2v-.781h4.726z" class="prefix__cls-6" data-name="Path 606" transform="translate(130)"/>
            <path id="prefix__Rectangle_418" d="M0 0H2.343V0.781H0z" class="prefix__cls-6" data-name="Rectangle 418" transform="translate(369.77 213.936)"/>
            <path id="prefix__Rectangle_419" d="M0 0H2.343V0.781H0z" class="prefix__cls-6" data-name="Rectangle 419" transform="translate(183.131 230.335)"/>
            <path id="prefix__Path_607" d="M235.044 231.116h-4.726v-.781h4.726zm-9.451 0h-4.726v-.781h4.726zm-9.451 0h-4.726v-.781h4.726zm-9.451 0h-4.726v-.781h4.726zm-9.451 0h-4.726v-.781h4.726zm-9.451 0h-4.726v-.781h4.726zm-9.451 0h-4.726v-.781h4.726zm-9.452 0h-4.725v-.781h4.725zm-9.451 0h-4.725v-.781h4.725zm-9.451 0h-4.725v-.781h4.725zm-9.451 0h-4.725v-.781h4.725zm-9.451 0h-4.725v-.781h4.725zm-9.451 0h-4.725v-.781h4.725zm-9.451 0h-4.725v-.781h4.725zm-9.451 0H98v-.781h4.726zm-9.451 0h-4.726v-.781h4.726zm-9.451 0H79.1v-.781h4.726zm-9.451 0H69.65v-.781h4.726zm-9.451 0H60.2v-.781h4.726z" class="prefix__cls-6" data-name="Path 607" transform="translate(130)"/>
            <path id="prefix__Rectangle_420" d="M0 0H2.343V0.781H0z" class="prefix__cls-6" data-name="Rectangle 420" transform="translate(369.77 230.335)"/>
            <circle id="prefix__Ellipse_124" cx="5.466" cy="5.466" r="5.466" class="prefix__cls-7" data-name="Ellipse 124" transform="translate(178.445 225.259)"/>
            <circle id="prefix__Ellipse_125" cx="5.466" cy="5.466" r="5.466" class="prefix__cls-7" data-name="Ellipse 125" transform="translate(215.148 208.86)"/>
            <circle id="prefix__Ellipse_126" cx="5.466" cy="5.466" r="5.466" class="prefix__cls-7" data-name="Ellipse 126" transform="translate(253.023 192.461)"/>
            <circle id="prefix__Ellipse_127" cx="5.466" cy="5.466" r="5.466" class="prefix__cls-7" data-name="Ellipse 127" transform="translate(290.507 176.061)"/>
            <circle id="prefix__Ellipse_128" cx="5.466" cy="5.466" r="5.466" class="prefix__cls-7" data-name="Ellipse 128" transform="translate(319.01 191.68)"/>
            <circle id="prefix__Ellipse_129" cx="5.466" cy="5.466" r="5.466" class="prefix__cls-7" data-name="Ellipse 129" transform="translate(347.904 159.662)"/>
            <circle id="prefix__Ellipse_130" cx="3.514" cy="3.514" r="3.514" class="prefix__cls-6" data-name="Ellipse 130" transform="translate(161.656 161.614)"/>
            <circle id="prefix__Ellipse_131" cx="3.514" cy="3.514" r="3.514" class="prefix__cls-6" data-name="Ellipse 131" transform="translate(161.656 178.014)"/>
            <circle id="prefix__Ellipse_132" cx="3.514" cy="3.514" r="3.514" class="prefix__cls-6" data-name="Ellipse 132" transform="translate(161.656 194.413)"/>
            <circle id="prefix__Ellipse_133" cx="3.514" cy="3.514" r="3.514" class="prefix__cls-6" data-name="Ellipse 133" transform="translate(161.656 210.812)"/>
            <circle id="prefix__Ellipse_134" cx="3.514" cy="3.514" r="3.514" class="prefix__cls-6" data-name="Ellipse 134" transform="translate(161.656 227.211)"/>
            <path id="prefix__Path_608" d="M223.761 156.148h-.781V85.866h32.408v.781h-31.627z" class="prefix__cls-7" data-name="Path 608" transform="translate(130)"/>
            <circle id="prefix__Ellipse_135" cx="10.152" cy="10.152" r="10.152" class="prefix__cls-6" data-name="Ellipse 135" transform="translate(360.789 95.237)"/>
            <path id="prefix__Path_609" d="M242.112 116.321A12.885 12.885 0 1 1 255 103.436a12.9 12.9 0 0 1-12.888 12.885zm0-24.989a12.1 12.1 0 1 0 12.1 12.1 12.1 12.1 0 0 0-12.1-12.1z" class="prefix__cls-5" data-name="Path 609" transform="translate(130)"/>
            <path id="prefix__Path_610" d="M91.005 203.393h-.781V84.3h32.408v.781H91.005z" class="prefix__cls-7" data-name="Path 610" transform="translate(130)"/>
            <circle id="prefix__Ellipse_136" cx="10.152" cy="10.152" r="10.152" class="prefix__cls-4" data-name="Ellipse 136" transform="translate(228.033 93.675)"/>
            <path id="prefix__Path_611" d="M109.357 114.76a12.886 12.886 0 1 1 12.885-12.886 12.885 12.885 0 0 1-12.885 12.886zm0-24.99a12.1 12.1 0 1 0 12.1 12.1 12.1 12.1 0 0 0-12.1-12.1z" class="prefix__cls-5" data-name="Path 611" transform="translate(130)"/>
            <path id="prefix__Path_612" d="M57.231 216.083h-.781V97.775H24.823v-.781h32.408z" class="prefix__cls-7" data-name="Path 612" transform="translate(130)"/>
            <circle id="prefix__Ellipse_137" cx="10.152" cy="10.152" r="10.152" class="prefix__cls-4" data-name="Ellipse 137" transform="translate(159.118 106.365)"/>
            <path id="prefix__Path_613" d="M38.1 127.449a12.885 12.885 0 1 1 12.885-12.885A12.885 12.885 0 0 1 38.1 127.449zm0-24.989a12.1 12.1 0 1 0 12.1 12.1 12.1 12.1 0 0 0-12.1-12.1z" class="prefix__cls-5" data-name="Path 613" transform="translate(130)"/>
            <path id="prefix__Path_614" d="M115.261 123.663H99.134a56.385 56.385 0 0 1 0-19.229h16.127a34.6 34.6 0 0 0 0 19.229z" data-name="Path 614" transform="translate(130)" style="fill:#e84c71"/>
            <path id="prefix__Path_615" d="M30.047 134.2h16.127a56.436 56.436 0 0 0 0-19.229H30.047a34.616 34.616 0 0 1 0 19.229z" class="prefix__cls-7" data-name="Path 615" transform="translate(130)"/>
            <path id="prefix__Path_616" d="M233.084 122.483h16.128a56.436 56.436 0 0 0 0-19.229h-16.128a34.6 34.6 0 0 1 0 19.229z" class="prefix__cls-7" data-name="Path 616" transform="translate(130)"/>
            <g id="prefix__Group_180" data-name="Group 180" transform="translate(69.809 12.372)">
                <path id="prefix__Path_617" d="M359.84 51.652l-3.505 34.658h-28.843l1.386-52.681c0-11.339 7.839-21.257 19.178-21.257s18.716 9.456 18.716 20.8l1.848 53.138h-4.7z" class="prefix__cls-9" data-name="Path 617" transform="translate(-311.203 -12.372)"/>
                <path id="prefix__Path_618" d="M359.509 233.4s1.245 7.884 3.32 9.129-10.789 4.15-10.789 4.15l-2.075-12.449z" class="prefix__cls-10" data-name="Path 618" transform="translate(-328.113 -12.372)"/>
                <path id="prefix__Path_619" d="M351.852 143.353l-4.565 5.394 2.075 18.674 1.66 36.933s-3.32 31.954 0 32.784 18.259.415 17.844-1.66-.83-3.735-1.66-6.64.83-13.279.83-13.279l-2.075-11.62 7.47-50.212z" class="prefix__cls-9" data-name="Path 619" transform="translate(-335.809 -12.372)"/>
                <path id="prefix__Path_620" d="M344.228 241.287s4.565-.83 4.98 0 8.3 9.545 9.545 9.545 10.374 8.3.83 8.714-25.314-7.054-25.314-7.054 2.321-10.56 2.2-10.052 7.759.922 7.759-1.153z" class="prefix__cls-9" data-name="Path 620" transform="translate(-313.246 -12.372)"/>
                <path id="prefix__Path_621" d="M370.111 222.2s-11.619 12.865-12.034 14.11-6.64 0-6.64 0l-2.49-8.3 2.075-2.9 11.619-9.544z" class="prefix__cls-10" data-name="Path 621" transform="translate(-334.149 -12.372)"/>
                <path id="prefix__Path_622" d="M370.319 231.743l6.017 5.664s-7.677 11.765-7.677 13.01-.415 11.619-4.565 9.959-4.565-18.259-4.565-18.259.415-17.014 2.9-18.259 7.947-.851 7.947-.851-3.376 8.321-.057 8.736z" class="prefix__cls-9" data-name="Path 622" transform="translate(-350.956 -12.372)"/>
                <path id="prefix__Path_623" d="M358.271 106.42s2.075 6.639 2.49 8.3 2.9 6.225 2.9 13.279-.83 15.355 0 16.185 14.109 47.307 8.3 52.287-24.9 21.579-26.143 23.654-1.66 7.054-4.15 6.224-12.034-9.129-12.449-10.789 5.394-4.565 5.394-4.565 11.62-17.014 14.525-16.6 2.489-2.075 2.074-3.32-1.245-2.075 0-2.075.415-3.32 0-4.98-9.959-24.068-9.959-24.068l-25.314-11.205s1.245-30.293 10.375-38.593l2.075-4.979s23.242-1.66 29.882 1.245z" class="prefix__cls-9" data-name="Path 623" transform="translate(-304.465 -12.372)"/>
                <path id="prefix__Path_624" d="M351.852 40.853s-2.075 14.524 2.9 15.354 9.13.415 9.13.83-12.449 13.279-12.449 13.279l-11.62-.829-10.374-11.2s9.544-1.66 9.544-7.47.415-9.959.415-9.959z" class="prefix__cls-11" data-name="Path 624" transform="translate(-308.42 -12.372)"/>
                <circle id="prefix__Ellipse_138" cx="12.864" cy="12.864" r="12.864" class="prefix__cls-11" data-name="Ellipse 138" transform="translate(24.135 8.77)"/>
                <path id="prefix__Path_625" d="M354.06 55.151s20.089 1.886 21.333 7.281-8.3 39.008-9.544 41.913a9.176 9.176 0 0 0-.83 4.979 16.417 16.417 0 0 0-13.279-2.9c-7.885 1.66-19.089.83-19.089.83s-3.735-15.355-4.565-17.015-4.15-10.789-4.15-13.279-4.979-12.864-4.979-12.864 2.489-7.47 11.619-7.055c0 0 3.982-1.782 5.1-.476s7.346 7.116 15.231 4.626 3.153-6.04 3.153-6.04z" class="prefix__cls-12" data-name="Path 625" transform="translate(-309.554 -12.372)"/>
                <path id="prefix__Path_626" d="M384.909 62.017l-7.885 2.075s-5.809 21.164-6.224 21.579a10.558 10.558 0 0 0-.83 2.9s0 .414-.83 1.659-2.075.415-1.245 2.075 2.075.83 1.245 2.49-.415 6.225-.415 6.225 2.075-7.885 9.544-5.81l4.98-22.409z" class="prefix__cls-12" data-name="Path 626" transform="translate(-367.621 -12.372)"/>
                <path id="prefix__Path_627" d="M337.856 65.989l.028.095 13.669 43.06 8.972-1.993 9.7-2.153-13.7-44.4z" class="prefix__cls-7" data-name="Path 627" transform="translate(-323.174 -12.372)"/>
                <path id="prefix__Path_628" d="M309.809 62.017l7.885 2.075s5.809 21.164 6.224 21.579a10.557 10.557 0 0 1 .83 2.9s0 .414.83 1.659 2.075.415 1.245 2.075-2.075.83-1.245 2.49.415 6.225.415 6.225-2.075-7.885-9.544-5.81l-4.98-22.409z" class="prefix__cls-12" data-name="Path 628" transform="translate(-251.998 -12.372)"/>
                <path id="prefix__Path_629" d="M345.341 93.97l2.592 4.333s1.142 8.117-4.667 8.117-14.11-7.885-14.11-7.885-4.149-1.66-6.639-1.245-16.184 0-10.375-7.055 15.769 0 15.769 0l10.375 4.98 5.395-2.9z" class="prefix__cls-11" data-name="Path 629" transform="translate(-273.834 -12.372)"/>
                <path id="prefix__Path_630" d="M314.754 88.368l-4.15 6.64s9.545 1.245 10.375 3.32-3.735-10.79-3.735-10.79z" class="prefix__cls-12" data-name="Path 630" transform="translate(-246.775 -12.372)"/>
                <path id="prefix__Path_631" d="M358.917 29.47c-8.357-4.505-11.79-4.315-22.182 0l-2.773-6.755a4.8 4.8 0 0 1 4.8-4.8h18.594a4.8 4.8 0 0 1 4.8 4.8z" class="prefix__cls-9" data-name="Path 631" transform="translate(-311.204 -12.372)"/>
                <path id="prefix__Path_632" d="M347.558 66.084l13.669 43.06 8.972-1.993-13.484-43.71z" data-name="Path 632" transform="translate(-332.848 -12.372)" style="fill:#040505;opacity:.2;isolation:isolate"/>
                <path id="prefix__Path_633" d="M368.866 63.44l13.694 44.4-18.674 4.149-13.694-43.154z" class="prefix__cls-7" data-name="Path 633" transform="translate(-347.843 -12.372)"/>
                <path id="prefix__Path_634" d="M349.378 93.97l-2.593 4.33s-1.142 8.117 4.668 8.117 14.109-7.885 14.109-7.885 4.15-1.66 6.64-1.245 16.184 0 10.374-7.055-15.769 0-15.769 0l-10.375 4.98-5.394-2.9z" class="prefix__cls-11" data-name="Path 634" transform="translate(-345.784 -12.372)"/>
                <path id="prefix__Path_635" d="M379.964 88.368l4.15 6.64s-9.545 1.245-10.375 3.32 3.735-10.79 3.735-10.79z" class="prefix__cls-12" data-name="Path 635" transform="translate(-372.843 -12.372)"/>
            </g>
            <g id="prefix__Group_181" data-name="Group 181">
                <path id="prefix__Path_636" d="M418.615 258.1c-.068-.111-1.674-2.793-2.231-8.362-.511-5.109-.182-13.721 4.284-25.733a51.9 51.9 0 0 0-2.056-41.3l.513-.3a45.543 45.543 0 0 1 4.3 12.182 53.155 53.155 0 0 1-2.2 29.625c-8.446 22.718-2.167 33.473-2.1 33.579z" class="prefix__cls-5" data-name="Path 636"/>
                <circle id="prefix__Ellipse_139" cx="3.859" cy="3.859" r="3.859" class="prefix__cls-5" data-name="Ellipse 139" transform="translate(411.448 173.653)"/>
                <circle id="prefix__Ellipse_140" cx="3.859" cy="3.859" r="3.859" class="prefix__cls-5" data-name="Ellipse 140" transform="translate(423.617 187.9)"/>
                <circle id="prefix__Ellipse_141" cx="3.859" cy="3.859" r="3.859" class="prefix__cls-7" data-name="Ellipse 141" transform="translate(415.307 197.398)"/>
                <circle id="prefix__Ellipse_142" cx="3.859" cy="3.859" r="3.859" class="prefix__cls-7" data-name="Ellipse 142" transform="translate(425.398 205.413)"/>
                <circle id="prefix__Ellipse_143" cx="3.859" cy="3.859" r="3.859" class="prefix__cls-5" data-name="Ellipse 143" transform="translate(412.338 217.879)"/>
                <path id="prefix__Path_637" d="M420.946 258.246s-3.859-9.5 7.717-16.622z" class="prefix__cls-5" data-name="Path 637"/>
                <path id="prefix__Path_638" d="M416.2 258.074s-1.757-10.1-15.349-10.014z" class="prefix__cls-5" data-name="Path 638"/>
            </g>
        </g>
    </g>
</svg>
