<svg id="Group_26" data-name="Group 26" xmlns="http://www.w3.org/2000/svg" width="1004" height="252" viewBox="0 0 1004 252">
  <rect id="Rectangle" width="1004" height="252" fill="#f0f0f0" opacity="0.3"/>
  <rect id="Rectangle-2" data-name="Rectangle" width="985" height="235.2" transform="translate(9.4 8.8)" fill="#fff"/>
  <path id="Path_Copy_25" data-name="Path Copy 25" d="M0,0,7.153-4.8,13.2,0l7.276-4.8L27.2,0" transform="matrix(0.788, -0.616, 0.616, 0.788, 150.755, 142.128)" fill="none" stroke="#000" stroke-linecap="round" stroke-miterlimit="10" stroke-width="3.456"/>
  <path id="Path_Copy_28" data-name="Path Copy 28" d="M0,0,7.153-4.8,13.2,0l7.276-4.8L27.2,0" transform="matrix(0.788, -0.616, 0.616, 0.788, 783.955, 77.328)" fill="none" stroke="#000" stroke-linecap="round" stroke-miterlimit="10" stroke-width="3.456"/>
  <path id="Path_Copy_27" data-name="Path Copy 27" d="M0,0,7.153-4.8,13.2,0l7.276-4.8L27.2,0" transform="matrix(0.788, -0.616, 0.616, 0.788, 225.955, 226.128)" fill="none" stroke="#01be3f" stroke-linecap="round" stroke-miterlimit="10" stroke-width="3.456"/>
  <path id="Path_Copy_26" data-name="Path Copy 26" d="M0,0,7.153-4.8,13.2,0l7.276-4.8L27.2,0" transform="matrix(0.788, -0.616, 0.616, 0.788, 714.355, 66.928)" fill="none" stroke="#d6e602" stroke-linecap="round" stroke-miterlimit="10" stroke-width="3.456"/>
  <rect id="Rectangle_Copy_33" data-name="Rectangle Copy 33" width="24" height="4.8" rx="1.728" transform="translate(569 179.2)" fill="#01be3f"/>
  <path id="Combined_Shape_Copy_12" data-name="Combined Shape Copy 12" d="M12.8,25.6A12.8,12.8,0,0,1,3.749,3.749a12.8,12.8,0,0,1,18.1,18.1A12.716,12.716,0,0,1,12.8,25.6Zm.114-22.074a9.309,9.309,0,1,0,9.309,9.31A9.32,9.32,0,0,0,12.914,3.525Z" transform="matrix(-0.848, 0.53, -0.53, -0.848, 864.276, 134.71)" fill="#01be3f"/>
  <g id="Group_25" data-name="Group 25" transform="translate(309.4 52)" opacity="0.3">
    <path id="Combined_Shape" data-name="Combined Shape" d="M48,91.2H2.4A2.4,2.4,0,0,1,0,88.8V2.4A2.4,2.4,0,0,1,2.4,0H48a2.4,2.4,0,0,1,2.4,2.4V88.8A2.4,2.4,0,0,1,48,91.2Zm-15.2-24V76h8.8V67.2ZM20,67.2V76h8.8V67.2Zm-12,0V76h8.8V67.2Zm24.8-12h0V64h8.8V55.2ZM20,55.2h0V64h8.8V55.2Zm-12,0H8V64h8.8V55.2Zm24.8-12V52h8.8V43.2ZM20,43.2V52h8.8V43.2Zm-12,0V52h8.8V43.2Zm24.8-12V40h8.8V31.2ZM20,31.2V40h8.8V31.2Zm-12,0V40h8.8V31.2Zm24.8-12V28h8.8V19.2ZM20,19.2V28h8.8V19.2Zm-12,0V28h8.8V19.2Zm24.8-12V16h8.8V7.2ZM20,7.2V16h8.8V7.2ZM8,7.2V16h8.8V7.2Z" transform="translate(0 101.6)" fill="#efefef"/>
    <path id="Combined_Shape-2" data-name="Combined Shape" d="M5.6,177.6H2.4A2.4,2.4,0,0,1,0,175.2V2.4A2.4,2.4,0,0,1,2.4,0H48a2.4,2.4,0,0,1,2.4,2.4V175.2a2.4,2.4,0,0,1-2.4,2.4H14.4V152H5.6v25.6Zm0-55.2v26.4h8.8V122.4Zm0-28.8V120h8.8V93.6ZM5.6,64V90.4h8.8V64Zm0-28.8V61.6h8.8V35.2Zm0-29.6V32h8.8V5.6Z" transform="translate(50.4 15.2)" fill="#d1d1d1"/>
    <path id="Combined_Shape-3" data-name="Combined Shape" d="M63.2,192.8H2.4A2.4,2.4,0,0,1,0,190.4V2.4A2.4,2.4,0,0,1,2.4,0H63.2a2.4,2.4,0,0,1,2.4,2.4v188A2.4,2.4,0,0,1,63.2,192.8ZM48.8,171.2V180h8.8v-8.8Zm-10.4,0V180h8.8v-8.8Zm-10.4,0V180h8.8v-8.8Zm-10.4,0V180h8.8v-8.8Zm-10.4,0V180H16v-8.8ZM48.8,156v8.8h8.8V156Zm-10.4,0v8.8h8.8V156ZM28,156v8.8h8.8V156Zm-10.4,0v8.8h8.8V156ZM7.2,156v8.8H16V156Zm41.6-14.4v8.8h8.8v-8.8Zm-10.4,0v8.8h8.8v-8.8Zm-10.4,0v8.8h8.8v-8.8Zm-10.4,0v8.8h8.8v-8.8Zm-10.4,0v8.8H16v-8.8Zm41.6-15.2v8.8h8.8v-8.8Zm-10.4,0v8.8h8.8v-8.8Zm-10.4,0v8.8h8.8v-8.8Zm-10.4,0v8.8h8.8v-8.8Zm-10.4,0v8.8H16v-8.8ZM48.8,112v8.8h8.8V112Zm-10.4,0v8.8h8.8V112ZM28,112v8.8h8.8V112Zm-10.4,0v8.8h8.8V112ZM7.2,112v8.8H16V112ZM48.8,96.8v8.8h8.8V96.8Zm-10.4,0v8.8h8.8V96.8ZM28,96.8v8.8h8.8V96.8Zm-10.4,0v8.8h8.8V96.8Zm-10.4,0v8.8H16V96.8ZM48.8,82.4v8.8h8.8V82.4Zm-10.4,0v8.8h8.8V82.4ZM28,82.4v8.8h8.8V82.4Zm-10.4,0v8.8h8.8V82.4Zm-10.4,0v8.8H16V82.4ZM48.8,67.2V76h8.8V67.2Zm-10.4,0V76h8.8V67.2ZM28,67.2V76h8.8V67.2Zm-10.4,0V76h8.8V67.2Zm-10.4,0V76H16V67.2ZM48.8,52v8.8h8.8V52ZM38.4,52v8.8h8.8V52ZM28,52v8.8h8.8V52ZM17.6,52v8.8h8.8V52ZM7.2,52v8.8H16V52ZM48.8,36.8v8.8h8.8V36.8Zm-10.4,0v8.8h8.8V36.8ZM28,36.8v8.8h8.8V36.8Zm-10.4,0v8.8h8.8V36.8Zm-10.4,0v8.8H16V36.8ZM48.8,21.6v8.8h8.8V21.6Zm-10.4,0v8.8h8.8V21.6ZM28,21.6v8.8h8.8V21.6Zm-10.4,0v8.8h8.8V21.6Zm-10.4,0v8.8H16V21.6ZM48.8,6.4v8.8h8.8V6.4Zm-10.4,0v8.8h8.8V6.4ZM28,6.4v8.8h8.8V6.4Zm-10.4,0v8.8h8.8V6.4ZM7.2,6.4v8.8H16V6.4Z" transform="translate(68.8)" fill="#e4e4e4"/>
    <path id="Combined_Shape-4" data-name="Combined Shape" d="M48,116H2.4A2.4,2.4,0,0,1,0,113.6V2.4A2.4,2.4,0,0,1,2.4,0H48a2.4,2.4,0,0,1,2.4,2.4V113.6A2.4,2.4,0,0,1,48,116ZM4,99.2V104H45.6V99.2ZM4,92v4.8H45.6V92Zm0-7.2v4.8H45.6V84.8Zm0-7.2v4.8H45.6V77.6Zm0-7.2v4.8H45.6V70.4Zm0-7.2V68H45.6V63.2ZM4,56v4.8H45.6V56Zm0-7.2H4v4.8H45.6V48.8Zm0-7.2v4.8H45.6V41.6Zm0-7.2v4.8H45.6V34.4Zm0-7.2V32H45.6V27.2ZM4,20v4.8H45.6V20Zm0-7.2v4.8H45.6V12.8ZM4,5.6v4.8H45.6V5.6Z" transform="translate(141.6 76.8)" fill="#e5e5e5"/>
    <path id="Combined_Shape-5" data-name="Combined Shape" d="M36,88.8H2.4A2.4,2.4,0,0,1,0,86.4V2.4A2.4,2.4,0,0,1,2.4,0H36a2.4,2.4,0,0,1,2.4,2.4v84A2.4,2.4,0,0,1,36,88.8ZM28.8,57.6V79.2h6.4V57.6Zm-9.6,0V79.2h6.4V57.6Zm-8.8,0V79.2h6.4V57.6Zm-8.8,0V79.2H8V57.6ZM28.8,31.2V52.8h6.4V31.2Zm-9.6,0V52.8h6.4V31.2Zm-8.8,0V52.8h6.4V31.2Zm-8.8,0V52.8H8V31.2ZM28.8,4.8V26.4h6.4V4.8Zm-9.6,0V26.4h6.4V4.8Zm-8.8,0V26.4h6.4V4.8Zm-8.8,0V26.4H8V4.8Z" transform="translate(192 104)" fill="#efefef"/>
  </g>
  <rect id="Rectangle-3" data-name="Rectangle" width="5.6" height="234" transform="translate(406.2 9.6)" fill="#f8e71c"/>
  <rect id="Rectangle_Copy_166" data-name="Rectangle Copy 166" width="5.6" height="234" transform="translate(660.6 9.6)" fill="#f8e71c"/>
  <g id="Group_30" data-name="Group 30" transform="translate(398 35)">
    <rect id="Rectangle_Copy_43" data-name="Rectangle Copy 43" width="90.4" height="53.6" rx="4.8" transform="translate(0 0)" fill="#b8e986"/>
    <rect id="Rectangle-4" data-name="Rectangle" width="43.2" height="4" transform="translate(6.4 8.8)" fill="#f9f9f9"/>
    <rect id="Rectangle-5" data-name="Rectangle" width="43.2" height="4" transform="translate(6.4 16.8)" fill="#f9f9f9"/>
    <rect id="Rectangle-6" data-name="Rectangle" width="43.2" height="4" transform="translate(6.4 25.6)" fill="#f9f9f9"/>
    <g id="Group_20" data-name="Group 20" transform="translate(11.2 73.989)">
      <path id="Path_39" data-name="Path 39" d="M13.687.011S.025-.389.025,13.211c0,6.557-1.239,42.821,13.662,71.812,5.7,11.093,10.973,19.158,30.988,19.718s29.692-9.557,33.189-26.261-2.9-9.552-20.8-15.269-32.15-51.6-32.15-51.6Z" transform="translate(0 0)" fill="#01be3f"/>
      <rect id="Rectangle-7" data-name="Rectangle" width="3.2" height="29.6" transform="translate(42.665 104.411)"/>
      <rect id="Rectangle-8" data-name="Rectangle" width="53.6" height="4" transform="translate(13.865 130.011)"/>
    </g>
    <path id="Path_44" data-name="Path 44" d="M0,2.042,1.675,0S2.7,11.471,3.29,11.471s16.581,1.65,16.581,2.344-10.7,3.736-12.983,2.8c-1.11-.455-3.893.6-5.821-4.337C.347,10.43,0,2.042,0,2.042Z" transform="translate(56.335 113.227)" fill="#fab7ad"/>
    <path id="Path_42" data-name="Path 42" d="M3.7,4.922s2.557-.483,3.6,0A35.806,35.806,0,0,1,20.712,15.5c3.8,4.964-1.761,7.374-2.8,7.374s-1.455,8.565,0,9.7a14.4,14.4,0,0,1,2.8,3.466L5.921,41.243S4.158,31.03,2.748,30.229,0,20.678,0,19.1,1.26,0,1.26,0Z" transform="translate(38.4 91.699)" fill="#fff"/>
    <path id="Path_41" data-name="Path 41" d="M7.133,23.876V17.7H0L3.567,1.261,18.424,0,22.71,2.4l-1.1,3.353L20.8,10.771s-.613,4.958-2.375,6.927a5.059,5.059,0,0,1-4.178,1.636v5.6a25.352,25.352,0,0,1-4.1,0A11.52,11.52,0,0,1,7.133,23.876Z" transform="translate(38.889 78.245)" fill="#fab7ad"/>
    <path id="Path_43" data-name="Path 43" d="M17.89,2.223s.26,8.051-1.336,9.033-6.738,8.807-6.738,8.807L22.227,9.734l9.98-.824s3.536,2.7-5.06,6.309S3.958,32.64,2.776,31.877-.911,31.867.342,21.561,7.5,0,7.5,0Z" transform="translate(23.097 101.065)" fill="#fab7ad"/>
    <path id="Path_40" data-name="Path 40" d="M7.373,58.529s-14.746-4.8,0-28c4.516-7.106,2.39-15.01,4.463-18.811C16.531,3.107,21.9,4.5,26.369,5.329c6.445,1.2,4.168-6.4,9.862-5.2s13.14.166,17.231,9.6-.275,20-2.376,13.6-2.538.607-5.969-1.6-11.341-5.107-8.886,1.6c3,8.188-3.669,8.188-4.857,12.413-1.125,4,.279,7.815-1.45,8.787-3.554,2-9,3.6-9,6,0,1.2-1.776,5.5-6.885,7.905C12.354,59.229,7.373,58.529,7.373,58.529Z" transform="translate(11.314 62.271)"/>
    <path id="Path_46" data-name="Path 46" d="M0,20.688,15.456,0,30.189,3.628a1.6,1.6,0,0,1,.951,2.438L19.992,22.871a1.6,1.6,0,0,1-1.581.7Z" transform="translate(59.625 104.009)" fill="#d8d8d8"/>
    <path id="Path_45" data-name="Path 45" d="M0,0,6.259.617S4.508,3.655,3.526,3.655A1.659,1.659,0,0,1,1.75,3.114,25.507,25.507,0,0,1,0,0Z" transform="translate(79.051 120.51)" fill="#fab7ad"/>
    <path id="Path_47" data-name="Path 47" d="M.947,20.688,17.145,0H15.993a2.4,2.4,0,0,0-1.905.94L1.007,18.016A2.289,2.289,0,0,0,.947,20.688Z" transform="translate(58.679 104.009)" fill="#c6c6c6"/>
    <path id="Path_51_Copy" data-name="Path 51 Copy" d="M6.068,10.482,7.087,5.491V0L0,5.491Z" transform="translate(98.967 197.911) rotate(-45)" fill="#fea7b0"/>
    <path id="Path_48" data-name="Path 48" d="M0,4.99,14.358,0s7.9,4.366,23.5,4.4,19.483.875,21.473,1.863,6.879,8.82,6.879,16.266-.783,48.788-.783,48.788H58.217L51.129,26.307s6.02-3.016-.68-3.016-15.72.647-15.72.647S28.809,23.8,20.072,19.2c-4.8-2.53-11.175-4.561-17.153-9.354C1.644,8.819,0,4.99,0,4.99Z" transform="translate(44.321 127.953)" fill="#b8e986"/>
    <path id="Path_51" data-name="Path 51" d="M6.068,10.482,7.087,5.491V0L0,5.491Z" transform="translate(54.357 180.82)" fill="#fea7b0"/>
    <path id="Path_49" data-name="Path 49" d="M.807,35.091,25.692,0,42.92,1.843,37.382,9.794,6.652,42.344s-4.231,2-5.845,0S.807,35.091.807,35.091Z" transform="translate(59.618 144.8)" fill="#b8e986"/>
    <path id="Path_50" data-name="Path 50" d="M3.711,0,9.779,4.991l.612,3.537S16.6,13.7,14.849,14.474,6.475,8.528,6.475,8.528L0,2.443Z" transform="translate(50.646 186.311)"/>
    <path id="Path_50_Copy" data-name="Path 50 Copy" d="M3.711,0,9.779,4.991l.612,3.537S16.6,13.7,14.849,14.474,6.475,8.528,6.475,8.528L0,2.443Z" transform="translate(100 204.374) rotate(-45)"/>
    <rect id="Rectangle-9" data-name="Rectangle" width="27.2" height="17.6" transform="translate(86.4 86.4)" fill="#f8e71c"/>
    <circle id="Oval" cx="2.4" cy="2.4" r="2.4" transform="translate(106.4 90.4)" fill="#8e8e8e"/>
    <rect id="Rectangle-10" data-name="Rectangle" width="14.4" height="1.6" transform="translate(89.6 90.4)" fill="#8e8e8e"/>
    <rect id="Rectangle_Copy_40" data-name="Rectangle Copy 40" width="14.4" height="1.6" transform="translate(89.6 92.8)" fill="#8e8e8e"/>
    <rect id="Rectangle_Copy_41" data-name="Rectangle Copy 41" width="14.4" height="1.6" transform="translate(89.6 95.2)" fill="#8e8e8e"/>
    <rect id="Rectangle_Copy_42" data-name="Rectangle Copy 42" width="14.4" height="1.6" transform="translate(89.6 97.6)" fill="#8e8e8e"/>
    <path id="Path_54" data-name="Path 54" d="M9.67,0,0,11.635,11.3,20.8" transform="translate(125.13 32.8)" fill="none" stroke="#01be3f" stroke-miterlimit="10" stroke-width="0.8"/>
    <circle id="Oval_Copy_6" data-name="Oval Copy 6" cx="2.4" cy="2.4" r="2.4" transform="translate(132.8 51.2)" fill="#01be3f"/>
    <circle id="Oval_Copy_5" data-name="Oval Copy 5" cx="1.2" cy="1.2" r="1.2" transform="translate(124 43.2)" fill="#01be3f"/>
    <circle id="Oval-2" data-name="Oval" cx="9.6" cy="9.6" r="9.6" transform="translate(59.2 13.6)" fill="#7ed321"/>
    <path id="Path_52" data-name="Path 52" d="M0,9.6V0S4.1.1,6.713,2.609,9.6,9.2,9.6,9.2Z" transform="translate(68.8 13.6)" fill="#01be3f"/>
    <g id="Rectangle-11" data-name="Rectangle" transform="translate(96 18.4)" fill="none" stroke="#01be3f" stroke-miterlimit="10" stroke-width="0.8">
      <rect width="24" height="14.4" stroke="none"/>
      <rect x="0.4" y="0.4" width="23.2" height="13.6" fill="none"/>
    </g>
    <g id="Rectangle_Copy_46" data-name="Rectangle Copy 46" transform="translate(107.2 2.4)" fill="none" stroke="#01be3f" stroke-miterlimit="10" stroke-width="0.5">
      <rect width="12" height="7.2" stroke="none"/>
      <rect x="0.25" y="0.25" width="11.5" height="6.7" fill="none"/>
    </g>
    <g id="Rectangle_Copy_47" data-name="Rectangle Copy 47" transform="translate(127.2 6.4)" fill="none" stroke="#01be3f" stroke-miterlimit="10" stroke-width="0.5">
      <rect width="13.6" height="8" stroke="none"/>
      <rect x="0.25" y="0.25" width="13.1" height="7.5" fill="none"/>
    </g>
    <path id="Path_53" data-name="Path 53" d="M0,0,10.07,8.4,20.8,0Z" transform="translate(97.538 19.2)" fill="none" stroke="#01be3f" stroke-miterlimit="10" stroke-width="0.8"/>
    <path id="Path_53_Copy" data-name="Path 53 Copy" d="M0,0,5.035,4,10.4,0Z" transform="translate(108 2.4)" fill="none" stroke="#01be3f" stroke-miterlimit="10" stroke-width="0.5"/>
    <path id="Path_53_Copy_2" data-name="Path 53 Copy 2" d="M0,0,5.81,4.8,12,0Z" transform="translate(128 6.4)" fill="none" stroke="#01be3f" stroke-miterlimit="10" stroke-width="0.5"/>
    <circle id="Oval-3" data-name="Oval" cx="2.4" cy="2.4" r="2.4" transform="translate(132 30.4)" fill="#01be3f"/>
  </g>
  <g id="Group_29" data-name="Group 29" transform="translate(107 85)">
    <rect id="Rectangle-12" data-name="Rectangle" width="71.2" height="48" rx="1.6" transform="translate(61.6 25.6)" fill="#c5f400"/>
    <rect id="Rectangle-13" data-name="Rectangle" width="53.6" height="30.4" rx="3.2" transform="translate(111.2 0)" fill="#c5f400"/>
    <rect id="Rectangle-14" data-name="Rectangle" width="41.6" height="2.4" rx="1.2" transform="translate(117.6 6.4)" fill="#fff"/>
    <rect id="Rectangle_Copy_36" data-name="Rectangle Copy 36" width="41.6" height="2.4" rx="1.2" transform="translate(117.6 12.8)" fill="#fff"/>
    <rect id="Rectangle_Copy_38" data-name="Rectangle Copy 38" width="41.6" height="2.4" rx="1.2" transform="translate(117.6 19.2)" fill="#fff"/>
    <rect id="Rectangle_Copy_35" data-name="Rectangle Copy 35" width="41.6" height="2.4" rx="1.2" transform="translate(117.6 9.6)" fill="#fff"/>
    <rect id="Rectangle_Copy_37" data-name="Rectangle Copy 37" width="41.6" height="2.4" rx="1.2" transform="translate(117.6 16)" fill="#fff"/>
    <rect id="Rectangle_Copy_39" data-name="Rectangle Copy 39" width="27.2" height="2.4" rx="1.2" transform="translate(117.6 22.4)" fill="#fff"/>
    <rect id="Rectangle-15" data-name="Rectangle" width="152" height="4" transform="translate(28 81.6)" fill="#c5f400"/>
    <rect id="Rectangle-16" data-name="Rectangle" width="71.2" height="48" rx="1.6" transform="translate(60 24)" fill="#f1ffe2" stroke="#e6e6e6" stroke-miterlimit="10" stroke-width="0.8"/>
    <path id="Path_29_Copy" data-name="Path 29 Copy" d="M1.323,8.011,0,1.243,8.786,0V4.055Z" transform="translate(48 146.4)" fill="#d1a29c"/>
    <path id="Path_27_Copy" data-name="Path 27 Copy" d="M0,16.7,5.944,0H36.838s7.316,1.074,3.719,15.669S33.469,50.26,33.469,50.26H22.4l4.024-34.78Z" transform="translate(24.8 100)"/>
    <path id="Path_28_Copy" data-name="Path 28 Copy" d="M0,2.5,9.479,0l2.929,4.064s9.506,0,9.506,2.472S7.692,7.789,7.692,7.789H0Z" transform="translate(48 150.4)"/>
    <path id="Path_32" data-name="Path 32" d="M0,22.216l6.434-7.038L8.678,0,22.652,1.315V7.928a14.776,14.776,0,0,1-1.052,3.18s-.378,7.024-1.6,7.024-2.629,1.188-4.3-1.16-1.668,3.168-1.668,3.168-5.1,2.809-7.606,3.179S0,22.216,0,22.216Z" transform="translate(26.664 27.322)" fill="#f5b6af"/>
    <path id="Path_24" data-name="Path 24" d="M1.863,57.949l24.146-5.26.654-4.212V33.525c0-5.557,2.966-14.518,2.966-14.518L40.119,31.173s5.631,4.546,14.408-1.836S65.055,18.682,65.055,18.682s-1.2-5.667-5.863-2.834-12.129,7.309-12.129,7.309S31.075,0,26.663,0c-1.85,0-6.135,2.787-11.079,2.787C12.67,2.787,6.118,0,6.118,0S0,3.74,0,13.664,1.863,57.949,1.863,57.949Z" transform="translate(15.737 47.463)" fill="#01be3f"/>
    <path id="Path_23" data-name="Path 23" d="M5.9,59.447S1.038,47.578,3.015,40.336,0,19.062,0,12.885,17.444-6.767,32.138,4.1,27.031,31.239,35.33,36.37s3.692,23.076-3.193,23.076Z" transform="translate(1.962 56.37)" fill="#c5f400"/>
    <path id="Path_25" data-name="Path 25" d="M0,2.384,54.639,0V2.384L0,4.472Z" transform="translate(7.866 113.433)" fill="#c5f400"/>
    <path id="Path_26_Copy_3" data-name="Path 26 Copy 3" d="M0,0-10.508,44h-2.849L-3.6,0Z" transform="translate(36.557 115.48)" fill="#01be3f"/>
    <path id="Path_26" data-name="Path 26" d="M0,0,7.308,44h2.849L3.6,0Z" transform="translate(31.589 115.48)" fill="#c5f400"/>
    <path id="Path_26_Copy_2" data-name="Path 26 Copy 2" d="M0,0-10.508,44h-2.849L-3.6,0Z" transform="translate(13.357 115.48)" fill="#c5f400"/>
    <path id="Path_26_Copy" data-name="Path 26 Copy" d="M0,0,7.308,44h2.849L3.6,0Z" transform="translate(55.2 115.48)" fill="#c5f400"/>
    <path id="Path_29" data-name="Path 29" d="M1.323,8.011,0,1.243,8.786,0V4.055Z" transform="translate(64.034 146.345)" fill="#d1a29c"/>
    <path id="Path_27" data-name="Path 27" d="M0,17.493,5.732,0h29.79S46.4.535,42.93,15.827s-7.408,37.1-7.408,37.1L23.611,54.32l3.664-38.493Z" transform="translate(36.668 95.94)"/>
    <path id="Path_28" data-name="Path 28" d="M0,2.5,9.479,0l2.929,4.064s9.506,0,9.506,2.472S7.692,7.789,7.692,7.789H0Z" transform="translate(64.034 150.26)"/>
    <path id="Path_30" data-name="Path 30" d="M0,12.081s3.536-4.237,3.536-5.3S3.4,1.038,4,2.25A25.266,25.266,0,0,1,5.211,5.727s3.9-4.384,3.9-5.567,2.014,4.509,2.014,5.567S2.34,14.69,2.34,14.69Z" transform="translate(78.452 50.642)" fill="#f5b6af"/>
    <path id="Path_31" data-name="Path 31" d="M2.076,23.106s5.715-3.439,5.146-6.05a24.982,24.982,0,0,1,0-6.805s1.329,2.841,2.261,2.841,2.75-1.347,2.75-2.094,8.143-.4,8.143.848,2,.848,2,0v-7.5c0-1.192-3.49-1.247-4.421-2.218A7.712,7.712,0,0,0,13.091.051c-1.823,0-3.819.586-5.869,0S2.076,4.069,2.076,5.626,0,7.575,0,8.606s1.408,1.993,1.408,3.24S.181,16.12.794,17.056,2.076,23.106,2.076,23.106Z" transform="translate(29.514 19.395)"/>
    <path id="Path_33" data-name="Path 33" d="M0,8.565A31.4,31.4,0,0,0,4.464,4.283,11.141,11.141,0,0,0,5.563,0H24.387a13.724,13.724,0,0,1,1.3,4.283,13.724,13.724,0,0,1-1.3,4.283Z" transform="translate(84.015 73.6)" fill="#01be3f"/>
    <path id="Path_34" data-name="Path 34" d="M20.609,73.88h3.172L7.009,0H0Z" transform="translate(74.991 85.6)" fill="#c5f400"/>
    <path id="Path_34_Copy" data-name="Path 34 Copy" d="M20.609,73.88h3.172L7.009,0H0Z" transform="translate(168 85.6)" fill="#c5f400"/>
    <path id="Path_34_Copy_2" data-name="Path 34 Copy 2" d="M-20.609,73.88h-3.172L-7.009,0H0Z" transform="translate(146.181 85.6)" fill="#c5f400"/>
    <rect id="Rectangle-17" data-name="Rectangle" width="1.6" height="12" transform="translate(88 44.8)" fill="#01be3f"/>
    <rect id="Rectangle_Copy_5" data-name="Rectangle Copy 5" width="1.6" height="8.8" transform="translate(89.6 48)" fill="#01be3f"/>
    <rect id="Rectangle_Copy_15" data-name="Rectangle Copy 15" width="1.6" height="3.2" transform="translate(92 53.6)" fill="#01be3f"/>
    <rect id="Rectangle_Copy_16" data-name="Rectangle Copy 16" width="1.6" height="7.2" transform="translate(93.6 49.6)" fill="#01be3f"/>
    <rect id="Rectangle_Copy_17" data-name="Rectangle Copy 17" width="1.6" height="9.6" transform="translate(97.6 47.2)" fill="#01be3f"/>
    <rect id="Rectangle_Copy_18" data-name="Rectangle Copy 18" width="1.6" height="7.2" transform="translate(99.2 49.6)" fill="#01be3f"/>
    <rect id="Rectangle_Copy_19" data-name="Rectangle Copy 19" width="1.6" height="12" transform="translate(103.2 44.8)" fill="#01be3f"/>
    <rect id="Rectangle_Copy_23" data-name="Rectangle Copy 23" width="1.6" height="12" transform="translate(103.2 56.8)"/>
    <rect id="Rectangle_Copy_25" data-name="Rectangle Copy 25" width="1.6" height="12" transform="translate(107.2 56.8)"/>
    <rect id="Rectangle_Copy_24" data-name="Rectangle Copy 24" width="1.6" height="4.8" transform="translate(104.8 56.8)"/>
    <rect id="Rectangle_Copy_27" data-name="Rectangle Copy 27" width="1.6" height="4.8" transform="translate(99.2 56.8)"/>
    <rect id="Rectangle_Copy_29" data-name="Rectangle Copy 29" width="1.6" height="4.8" transform="translate(96 56.8)"/>
    <rect id="Rectangle_Copy_28" data-name="Rectangle Copy 28" width="1.6" height="5.6" transform="translate(97.6 56.8)"/>
    <rect id="Rectangle_Copy_30" data-name="Rectangle Copy 30" width="1.6" height="5.6" transform="translate(94.4 56.8)"/>
    <rect id="Rectangle_Copy_34" data-name="Rectangle Copy 34" width="1.6" height="5.6" transform="translate(91.2 56.8)"/>
    <rect id="Rectangle_Copy_32" data-name="Rectangle Copy 32" width="1.6" height="2.4" transform="translate(89.6 56.8)"/>
    <rect id="Rectangle_Copy_26" data-name="Rectangle Copy 26" width="1.6" height="4.8" transform="translate(108.8 56.8)"/>
    <rect id="Rectangle_Copy_21" data-name="Rectangle Copy 21" width="1.6" height="12" transform="translate(111.2 44.8)" fill="#01be3f"/>
    <rect id="Rectangle_Copy_20" data-name="Rectangle Copy 20" width="1.6" height="8" transform="translate(104.8 48.8)" fill="#01be3f"/>
    <rect id="Rectangle_Copy_22" data-name="Rectangle Copy 22" width="1.6" height="8" transform="translate(112.8 48.8)" fill="#01be3f"/>
    <path id="Combined_Shape-6" data-name="Combined Shape" d="M8.8,17.6a8.8,8.8,0,1,1,8.8-8.8A8.81,8.81,0,0,1,8.8,17.6Zm0-16A7.2,7.2,0,1,0,16,8.8,7.208,7.208,0,0,0,8.8,1.6Z" transform="translate(66.4 30.4)" fill="#01be3f"/>
    <path id="Combined_Shape-7" data-name="Combined Shape" d="M5.6,11.2a5.6,5.6,0,1,1,5.6-5.6A5.606,5.606,0,0,1,5.6,11.2Zm0-9.6a4,4,0,1,0,4,4A4,4,0,0,0,5.6,1.6Z" transform="translate(69.6 33.6)"/>
    <path id="Path_35" data-name="Path 35" d="M0,0H11.226L9.872,14.495H1.028Z" transform="translate(117.42 67.105)" fill="#01be3f"/>
    <rect id="Rectangle-18" data-name="Rectangle" width="13.6" height="0.8" transform="translate(116 66.4)"/>
    <rect id="Rectangle-19" data-name="Rectangle" width="11.2" height="1.6" transform="translate(117.6 64.8)"/>
    <g id="Group_17" data-name="Group 17" transform="translate(151.815 64.195)">
      <g id="Group_12" data-name="Group 12" transform="translate(9.5)">
        <path id="Path_37" data-name="Path 37" d="M.312,56.51S-1.1,33.79,3.912,28.378s5-13.143,5-17.477S13.521-2.868,15.8.849s5.28,13.369-2.178,20.387S15.8,34.015,15.8,36.4s-10.911,5.17-8.9,9.667,0,14.38,0,14.38Z" transform="translate(14.664 12.839)" fill="#01be3f"/>
        <path id="Path_37_Copy" data-name="Path 37 Copy" d="M.312,56.51S-1.1,33.79,3.912,28.378s5-13.143,5-17.477S13.521-2.868,15.8.849s5.28,13.369-2.178,20.387S15.8,34.015,15.8,36.4s-10.911,5.17-8.9,9.667,0,14.38,0,14.38Z" transform="translate(0.471 12.815) rotate(-9)" fill="#01be3f"/>
        <path id="Path_38" data-name="Path 38" d="M0,69.349s2.859-6.369,2.859-11-4.973-19.107-1.773-26.6S2.171,16.1,1.086,14.9,7.163-3.395,13.729.605,5.786,14.536,6.864,17.971s4.006,10.578,0,17.835-1.31,13.433.856,13.433,0,20.111,0,20.111Z" transform="translate(2.4)" fill="#c5f400"/>
      </g>
      <path id="Path_37_Copy_2" data-name="Path 37 Copy 2" d="M.312,56.51S-1.1,33.79,3.912,28.378s5-13.143,5-17.477S13.521-2.868,15.8.849s5.28,13.369-2.178,20.387S15.8,34.015,15.8,36.4s-10.911,5.17-8.9,9.667,0,14.38,0,14.38Z" transform="translate(0.185 13.88) rotate(-9)" fill="#09f055"/>
      <path id="Path_36" data-name="Path 36" d="M0,0H32L26.509,30.961H4.709Z" transform="translate(5.785 69.349)"/>
    </g>
  </g>
  <g id="Group_32" data-name="Group 32" transform="translate(630 24)">
    <g id="Group_17_Copy" data-name="Group 17 Copy" transform="translate(66.4 140.995)">
      <g id="Group_12-2" data-name="Group 12" transform="translate(3.9)">
        <path id="Path_37-2" data-name="Path 37" d="M.353,39.639S-1.251,23.7,4.429,19.906s5.663-9.219,5.663-12.26S15.308-2.012,17.891.6s5.978,9.378-2.465,14.3,2.465,8.964,2.465,10.636S5.538,29.158,7.815,32.313s0,10.087,0,10.087Z" transform="translate(16.1 9.405)" fill="#01be3f"/>
        <path id="Path_37_Copy-2" data-name="Path 37 Copy" d="M1.107,39.591s-3.02-16.372,2.2-19.931,4.709-9.1,4.433-12.206,4.232-9.573,7-6.764,6.707,9.917-1.115,14.471,3.229,9.3,3.381,11S5.232,29.176,7.75,32.527s.917,10.305.917,10.305Z" transform="translate(3.478 9.523) rotate(-9)" fill="#01be3f"/>
        <path id="Path_38-2" data-name="Path 38" d="M0,48.8s3.11-4.481,3.11-7.743S-2.3,27.611,1.181,22.339s1.181-11.006,0-11.856S7.793-2.389,14.937.426s-8.641,9.8-7.468,12.22,4.358,7.444,0,12.55-1.426,9.452.932,9.452S8.4,48.8,8.4,48.8Z" transform="translate(3.3 -0.195)" fill="#c5f400"/>
      </g>
      <path id="Path_37_Copy_2-2" data-name="Path 37 Copy 2" d="M3.059,41.174s-5.6-15.757-.955-20.1S5.363,11.308,4.6,8.273,7.3-1.883,10.506.468,18.76,9.246,11.68,14.99s4.688,8.709,5.109,10.379S5.528,30.2,8.567,33.127,11.108,43.2,11.108,43.2Z" transform="translate(0.7 8)" fill="#09f055"/>
      <path id="Path_36-2" data-name="Path 36" d="M0,0H32L26.509,30.961H4.709Z" transform="translate(4.185 47.749)"/>
    </g>
    <g id="Group_22" data-name="Group 22">
      <rect id="Rectangle-20" data-name="Rectangle" width="147.2" height="112" fill="#d8d8d8"/>
      <rect id="Rectangle-21" data-name="Rectangle" width="140.8" height="102.4" transform="translate(4 4.8)" fill="#fff"/>
      <circle id="Oval-4" data-name="Oval" cx="10.4" cy="10.4" r="10.4" transform="translate(18.4 16.8)" fill="#01be3f"/>
      <circle id="Oval_Copy_7" data-name="Oval Copy 7" cx="10.4" cy="10.4" r="10.4" transform="translate(63.2 16.8)" fill="#c5f400"/>
      <circle id="Oval_Copy_8" data-name="Oval Copy 8" cx="15.2" cy="15.2" r="15.2" transform="translate(103.2 16)" fill="#01be3f"/>
      <path id="Path_65" data-name="Path 65" d="M4,0,0,13.6,15.2,16s-.85-7.438-2.933-10.414S4,0,4,0Z" transform="translate(118.4 16.8)" fill="#c5f400"/>
      <text id="_10_" data-name="10%" transform="translate(24.8 31.2)" fill="#fff" font-size="7.2" font-family="SegoeUI, Segoe UI"><tspan x="0" y="0">10%</tspan></text>
      <text id="_15_" data-name="15%" transform="translate(69.6 31.2)" font-size="7.2" font-family="SegoeUI, Segoe UI"><tspan x="0" y="0">15%</tspan></text>
      <rect id="Rectangle-22" data-name="Rectangle" width="90.4" height="0.8" transform="translate(24 92)"/>
      <rect id="Rectangle-23" data-name="Rectangle" width="45.6" height="0.8" transform="translate(28 47.2) rotate(90)"/>
      <rect id="Rectangle-24" data-name="Rectangle" width="5.6" height="30.4" transform="translate(31.2 61.6)" fill="#01be3f"/>
      <rect id="Rectangle_Copy_50" data-name="Rectangle Copy 50" width="5.6" height="19.2" transform="translate(50.4 72.8)" fill="#01be3f"/>
      <rect id="Rectangle_Copy_48" data-name="Rectangle Copy 48" width="5.6" height="22.4" transform="translate(37.6 69.6)" fill="#01be3f"/>
      <rect id="Rectangle_Copy_51" data-name="Rectangle Copy 51" width="5.6" height="36" transform="translate(56.8 56)" fill="#01be3f"/>
      <rect id="Rectangle_Copy_55" data-name="Rectangle Copy 55" width="5.6" height="36" transform="translate(82.4 56)" fill="#c5f400"/>
      <rect id="Rectangle_Copy_49" data-name="Rectangle Copy 49" width="5.6" height="16" transform="translate(44 76)" fill="#01be3f"/>
      <rect id="Rectangle_Copy_52" data-name="Rectangle Copy 52" width="5.6" height="11.2" transform="translate(63.2 80.8)" fill="#01be3f"/>
      <rect id="Rectangle_Copy_54" data-name="Rectangle Copy 54" width="5.6" height="19.2" transform="translate(76 72.8)" fill="#c5f400"/>
      <rect id="Rectangle_Copy_53" data-name="Rectangle Copy 53" width="5.6" height="27.2" transform="translate(69.6 64.8)" fill="#c5f400"/>
      <rect id="Rectangle_Copy_56" data-name="Rectangle Copy 56" width="5.6" height="27.2" transform="translate(88.8 64.8)" fill="#01be3f"/>
      <rect id="Rectangle_Copy_57" data-name="Rectangle Copy 57" width="5.6" height="27.2" transform="translate(95.2 64.8)" fill="#01be3f"/>
    </g>
    <g id="Group_21" data-name="Group 21" transform="translate(97.987 42.681)">
      <path id="Path_62" data-name="Path 62" d="M9.784,10.335S-2.25,4.183.517,3.008a7.543,7.543,0,0,1,5.464,0S6.335-.925,7,.2s5.4,8.1,5.4,8.1Z" transform="translate(0 40.573)" fill="#f8b7b1"/>
      <path id="Path_62_Copy" data-name="Path 62 Copy" d="M9.784,10.335S-2.25,4.183.517,3.008a7.543,7.543,0,0,1,5.464,0S6.335-.925,7,.2s5.4,8.1,5.4,8.1Z" transform="translate(12.413 66.722) rotate(-39)" fill="#f8b7b1"/>
      <path id="Path_61" data-name="Path 61" d="M3.047,17.394,0,21.633,25.123,32.2,41.541,2.129,28,0s-3.679,5.486-3.679,7.593-1.2,14.04-1.2,14.04Z" transform="translate(8.89 30.166)" fill="#01be3f"/>
      <path id="Path_63" data-name="Path 63" d="M5.409,17.372S1.06,17.308,1.06,14.14A48.885,48.885,0,0,0,0,6.081L2.7,0H12.847l.632,4.05L14.74,6.081l-1.893,5.952,3.625,7.237L14.74,23.36H5.409Z" transform="translate(32.413 7.469)" fill="#f8b7b1"/>
      <path id="Path_55" data-name="Path 55" d="M3.623,3.38S0,12.98,0,16.98,0,60.617,0,60.617s29.214,4.859,29.214.6S26.061,5.78,26.061,5.78,14.607-1.02,14.607.18a4.213,4.213,0,0,1-3.48,3.395C9.409,4,3.623,3.38,3.623,3.38Z" transform="translate(33.213 26.739)" fill="#c5f400"/>
      <path id="Path_57" data-name="Path 57" d="M0,0,2.626,81.819h8.482L13.5.973Z" transform="translate(34.013 87.357)" fill="#3d3d3d"/>
      <path id="Path_56" data-name="Path 56" d="M0,0,29.214.6s-1.758,16.3-4.5,23.816,0,57.407,0,57.407H12.287Z" transform="translate(33.213 87.357)"/>
      <path id="Path_59" data-name="Path 59" d="M1.361.631,0,3.331,6.27,4.488V0Z" transform="translate(36.472 168.545)" fill="#ecbbb7"/>
      <path id="Path_59_Copy" data-name="Path 59 Copy" d="M1.361.631,0,3.331,6.27,4.488V0Z" transform="translate(48.413 168.519)" fill="#ecbbb7"/>
      <path id="Path_58" data-name="Path 58" d="M10.1,0,17.44,1.414V5.707L13.77,6.2v-.49H10.1S-.735,6.925.053,4.517s6.464-.7,6.464-.7Z" transform="translate(25.916 171.317)"/>
      <path id="Path_58_Copy" data-name="Path 58 Copy" d="M8.72,0l8.72,1.414V5.707L13.77,6.2v-.49H10.1S-.735,6.925.053,4.517s6.464-.7,6.464-.7Z" transform="translate(38.813 171.317)"/>
      <path id="Path_60" data-name="Path 60" d="M0,34.353v5.121l36.144-2.56L32.991,2.353s-5.752-4.1-5.752-1.056V30.441Z" transform="translate(26.284 30.166)" fill="#01be3f"/>
      <path id="Path_64" data-name="Path 64" d="M3.66,13.962S6.748,9.717,8.686,9.717s1.766,1.052,3.467,2.123c1.293.814,4.433,1.843,5.358.953.283-.272.492,1.422.492,1.169,0-.59-1.047,1.283-1.047,5.54A8.62,8.62,0,0,0,18,22.119h.541V19.687s.383-5.941.972-6.894,3.449-6.011,1.725-7.95-5.812-1.2-8.007-2.455S0-1.343,0,.915.826,7.469,1.358,7.469s-.178,6.493.583,6.493Z" transform="translate(28.303 0)"/>
    </g>
  </g>
</svg>
