<svg xmlns="http://www.w3.org/2000/svg" width="150.292" height="96.208" viewBox="0 0 150.292 96.208">
    <defs>
        <style>
            .prefix__cls-1{fill:#f0f0c8}
        </style>
    </defs>
    <g id="prefix__Group_59" data-name="Group 59" transform="translate(-601.813 -137.167)">
        <circle id="prefix__Ellipse_6" cx="2.688" cy="2.688" r="2.688" class="prefix__cls-1" data-name="Ellipse 6" transform="translate(601.813 137.167)"/>
        <circle id="prefix__Ellipse_7" cx="2.688" cy="2.688" r="2.688" class="prefix__cls-1" data-name="Ellipse 7" transform="translate(622.229 137.167)"/>
        <circle id="prefix__Ellipse_8" cx="2.688" cy="2.688" r="2.688" class="prefix__cls-1" data-name="Ellipse 8" transform="translate(643.813 137.167)"/>
        <circle id="prefix__Ellipse_9" cx="2.688" cy="2.688" r="2.688" class="prefix__cls-1" data-name="Ellipse 9" transform="translate(664.229 137.167)"/>
        <circle id="prefix__Ellipse_10" cx="2.688" cy="2.688" r="2.688" class="prefix__cls-1" data-name="Ellipse 10" transform="translate(684.313 137.167)"/>
        <circle id="prefix__Ellipse_11" cx="2.688" cy="2.688" r="2.688" class="prefix__cls-1" data-name="Ellipse 11" transform="translate(704.729 137.167)"/>
        <circle id="prefix__Ellipse_12" cx="2.688" cy="2.688" r="2.688" class="prefix__cls-1" data-name="Ellipse 12" transform="translate(726.313 137.167)"/>
        <circle id="prefix__Ellipse_13" cx="2.688" cy="2.688" r="2.688" class="prefix__cls-1" data-name="Ellipse 13" transform="translate(746.729 137.167)"/>
        <circle id="prefix__Ellipse_14" cx="2.688" cy="2.688" r="2.688" class="prefix__cls-1" data-name="Ellipse 14" transform="translate(601.813 155.333)"/>
        <circle id="prefix__Ellipse_15" cx="2.688" cy="2.688" r="2.688" class="prefix__cls-1" data-name="Ellipse 15" transform="translate(622.229 155.333)"/>
        <circle id="prefix__Ellipse_16" cx="2.688" cy="2.688" r="2.688" class="prefix__cls-1" data-name="Ellipse 16" transform="translate(643.813 155.333)"/>
        <circle id="prefix__Ellipse_17" cx="2.688" cy="2.688" r="2.688" class="prefix__cls-1" data-name="Ellipse 17" transform="translate(664.229 155.333)"/>
        <circle id="prefix__Ellipse_18" cx="2.688" cy="2.688" r="2.688" class="prefix__cls-1" data-name="Ellipse 18" transform="translate(684.313 155.333)"/>
        <circle id="prefix__Ellipse_19" cx="2.688" cy="2.688" r="2.688" class="prefix__cls-1" data-name="Ellipse 19" transform="translate(704.729 155.333)"/>
        <circle id="prefix__Ellipse_20" cx="2.688" cy="2.688" r="2.688" class="prefix__cls-1" data-name="Ellipse 20" transform="translate(726.313 155.333)"/>
        <circle id="prefix__Ellipse_21" cx="2.688" cy="2.688" r="2.688" class="prefix__cls-1" data-name="Ellipse 21" transform="translate(746.729 155.333)"/>
        <circle id="prefix__Ellipse_22" cx="2.688" cy="2.688" r="2.688" class="prefix__cls-1" data-name="Ellipse 22" transform="translate(601.813 173.5)"/>
        <circle id="prefix__Ellipse_23" cx="2.688" cy="2.688" r="2.688" class="prefix__cls-1" data-name="Ellipse 23" transform="translate(622.229 173.5)"/>
        <circle id="prefix__Ellipse_24" cx="2.688" cy="2.688" r="2.688" class="prefix__cls-1" data-name="Ellipse 24" transform="translate(643.813 173.5)"/>
        <circle id="prefix__Ellipse_25" cx="2.688" cy="2.688" r="2.688" class="prefix__cls-1" data-name="Ellipse 25" transform="translate(664.229 173.5)"/>
        <circle id="prefix__Ellipse_26" cx="2.688" cy="2.688" r="2.688" class="prefix__cls-1" data-name="Ellipse 26" transform="translate(684.313 173.5)"/>
        <circle id="prefix__Ellipse_27" cx="2.688" cy="2.688" r="2.688" class="prefix__cls-1" data-name="Ellipse 27" transform="translate(704.729 173.5)"/>
        <circle id="prefix__Ellipse_28" cx="2.688" cy="2.688" r="2.688" class="prefix__cls-1" data-name="Ellipse 28" transform="translate(726.313 173.5)"/>
        <circle id="prefix__Ellipse_29" cx="2.688" cy="2.688" r="2.688" class="prefix__cls-1" data-name="Ellipse 29" transform="translate(746.729 173.5)"/>
        <circle id="prefix__Ellipse_30" cx="2.688" cy="2.688" r="2.688" class="prefix__cls-1" data-name="Ellipse 30" transform="translate(601.813 191.667)"/>
        <circle id="prefix__Ellipse_31" cx="2.688" cy="2.688" r="2.688" class="prefix__cls-1" data-name="Ellipse 31" transform="translate(622.229 191.667)"/>
        <circle id="prefix__Ellipse_32" cx="2.688" cy="2.688" r="2.688" class="prefix__cls-1" data-name="Ellipse 32" transform="translate(643.813 191.667)"/>
        <circle id="prefix__Ellipse_33" cx="2.688" cy="2.688" r="2.688" class="prefix__cls-1" data-name="Ellipse 33" transform="translate(664.229 191.667)"/>
        <circle id="prefix__Ellipse_34" cx="2.688" cy="2.688" r="2.688" class="prefix__cls-1" data-name="Ellipse 34" transform="translate(684.313 191.667)"/>
        <circle id="prefix__Ellipse_35" cx="2.688" cy="2.688" r="2.688" class="prefix__cls-1" data-name="Ellipse 35" transform="translate(704.729 191.667)"/>
        <circle id="prefix__Ellipse_36" cx="2.688" cy="2.688" r="2.688" class="prefix__cls-1" data-name="Ellipse 36" transform="translate(726.313 191.667)"/>
        <circle id="prefix__Ellipse_37" cx="2.688" cy="2.688" r="2.688" class="prefix__cls-1" data-name="Ellipse 37" transform="translate(746.729 191.667)"/>
        <circle id="prefix__Ellipse_38" cx="2.688" cy="2.688" r="2.688" class="prefix__cls-1" data-name="Ellipse 38" transform="translate(601.813 209.833)"/>
        <circle id="prefix__Ellipse_39" cx="2.688" cy="2.688" r="2.688" class="prefix__cls-1" data-name="Ellipse 39" transform="translate(622.229 209.833)"/>
        <circle id="prefix__Ellipse_40" cx="2.688" cy="2.688" r="2.688" class="prefix__cls-1" data-name="Ellipse 40" transform="translate(643.813 209.833)"/>
        <circle id="prefix__Ellipse_41" cx="2.688" cy="2.688" r="2.688" class="prefix__cls-1" data-name="Ellipse 41" transform="translate(664.229 209.833)"/>
        <circle id="prefix__Ellipse_42" cx="2.688" cy="2.688" r="2.688" class="prefix__cls-1" data-name="Ellipse 42" transform="translate(684.313 209.833)"/>
        <circle id="prefix__Ellipse_43" cx="2.688" cy="2.688" r="2.688" class="prefix__cls-1" data-name="Ellipse 43" transform="translate(704.729 209.833)"/>
        <circle id="prefix__Ellipse_44" cx="2.688" cy="2.688" r="2.688" class="prefix__cls-1" data-name="Ellipse 44" transform="translate(726.313 209.833)"/>
        <circle id="prefix__Ellipse_45" cx="2.688" cy="2.688" r="2.688" class="prefix__cls-1" data-name="Ellipse 45" transform="translate(746.729 209.833)"/>
        <circle id="prefix__Ellipse_46" cx="2.688" cy="2.688" r="2.688" class="prefix__cls-1" data-name="Ellipse 46" transform="translate(601.813 228)"/>
        <circle id="prefix__Ellipse_47" cx="2.688" cy="2.688" r="2.688" class="prefix__cls-1" data-name="Ellipse 47" transform="translate(622.229 228)"/>
        <circle id="prefix__Ellipse_48" cx="2.688" cy="2.688" r="2.688" class="prefix__cls-1" data-name="Ellipse 48" transform="translate(643.813 228)"/>
        <circle id="prefix__Ellipse_49" cx="2.688" cy="2.688" r="2.688" class="prefix__cls-1" data-name="Ellipse 49" transform="translate(664.229 228)"/>
        <circle id="prefix__Ellipse_50" cx="2.688" cy="2.688" r="2.688" class="prefix__cls-1" data-name="Ellipse 50" transform="translate(684.313 228)"/>
        <circle id="prefix__Ellipse_51" cx="2.688" cy="2.688" r="2.688" class="prefix__cls-1" data-name="Ellipse 51" transform="translate(704.729 228)"/>
        <circle id="prefix__Ellipse_52" cx="2.688" cy="2.688" r="2.688" class="prefix__cls-1" data-name="Ellipse 52" transform="translate(726.313 228)"/>
        <circle id="prefix__Ellipse_53" cx="2.688" cy="2.688" r="2.688" class="prefix__cls-1" data-name="Ellipse 53" transform="translate(746.729 228)"/>
    </g>
</svg>
