<?xml version="1.0" encoding="UTF-8"?>
<svg width="248px" height="43px" viewBox="0 0 248 43" version="1.1" xmlns="http://www.w3.org/2000/svg" xmlns:xlink="http://www.w3.org/1999/xlink">
    <!-- Generator: Sketch 53.1 (72631) - https://sketchapp.com -->
    <title>Group</title>
    <desc>Created with Sketch.</desc>
    <g id="Page-1" stroke="none" stroke-width="1" fill="none" fill-rule="evenodd">
        <g id="1" transform="translate(-46.000000, -161.000000)">
            <g id="Group" transform="translate(46.000000, 151.000000)">
                <text id="FreJun" font-family="NHaasGroteskTXPro-Bd, Neue Haas Grotesk Text Pro" font-size="47.9232" font-weight="bold">
                    <tspan x="86" y="48" fill="#000000">Fre</tspan>
                    <tspan x="164.881587" y="48" fill="#01BE3F">Jun</tspan>
                </text>
                <path d="M18.20873,11.8703892 C20.7202046,9.37653693 24.7921094,9.37653693 27.3035841,11.8703892 C29.8150587,14.3642415 29.8150587,18.407575 27.3035841,20.9014272 C24.7921094,23.3952795 20.7202046,23.3952795 18.20873,20.9014272 C15.6972553,18.407575 15.6972553,14.3642415 18.20873,11.8703892 Z M41.9543648,11.8703892 C44.4658395,9.37653693 48.5377443,9.37653693 51.049219,11.8703892 C53.5606936,14.3642415 53.5606936,18.407575 51.049219,20.9014272 C48.5377443,23.3952795 44.4658395,23.3952795 41.9543648,20.9014272 C39.4428902,18.407575 39.4428902,14.3642415 41.9543648,11.8703892 Z M1.88360596,24.7651649 C4.39508057,22.2713126 8.46698546,22.2713126 10.9784601,24.7651649 C13.4899347,27.2590172 13.4899347,31.3023506 10.9784601,33.7962029 C8.46698546,36.2900552 4.39508057,36.2900552 1.88360596,33.7962029 C-0.627868654,31.3023506 -0.627868654,27.2590172 1.88360596,24.7651649 Z M59.0215399,24.7651649 C61.5330145,22.2713126 65.6049194,22.2713126 68.116394,24.7651649 C70.6278687,27.2590172 70.6278687,31.3023506 68.116394,33.7962029 C65.6049194,36.2900552 61.5330145,36.2900552 59.0215399,33.7962029 C56.5100653,31.3023506 56.5100653,27.2590172 59.0215399,24.7651649 Z M27.6982946,35.359585 C31.7622996,31.3240961 38.3513535,31.3240961 42.4153584,35.359585 C46.4793634,39.395074 46.4793634,45.9378943 42.4153584,49.9733833 C38.3513535,54.0088722 31.7622996,54.0088722 27.6982946,49.9733833 C23.6342897,45.9378943 23.6342897,39.395074 27.6982946,35.359585 Z" id="Combined-Shape" fill="#01BE3F" fill-rule="nonzero"></path>
            </g>
        </g>
    </g>
</svg>