<?xml version="1.0" encoding="utf-8"?>
<!-- Generator: Adobe Illustrator 22.0.0, SVG Export Plug-In . SVG Version: 6.00 Build 0)  -->
<svg version="1.1" id="Layer_1" xmlns="http://www.w3.org/2000/svg" xmlns:xlink="http://www.w3.org/1999/xlink" x="0px" y="0px"
	 viewBox="0 0 120 40.6" style="enable-background:new 0 0 120 40.6;" xml:space="preserve">
<g>
	<path d="M51.4,21.3c0,5.7-4.4,9.9-9.9,9.9s-9.9-4.2-9.9-9.9c0-5.7,4.4-9.9,9.9-9.9S51.4,15.6,51.4,21.3z M47,21.3
		c0-3.6-2.6-6-5.6-6c-3,0-5.6,2.4-5.6,6c0,3.5,2.6,6,5.6,6C44.4,27.3,47,24.8,47,21.3z"/>
	<path d="M72.7,21.3c0,5.7-4.4,9.9-9.9,9.9s-9.9-4.2-9.9-9.9c0-5.7,4.4-9.9,9.9-9.9S72.7,15.6,72.7,21.3z M68.4,21.3
		c0-3.6-2.6-6-5.6-6s-5.6,2.4-5.6,6c0,3.5,2.6,6,5.6,6S68.4,24.8,68.4,21.3z"/>
	<path d="M93.2,12.1v17.7c0,7.3-4.3,10.3-9.4,10.3c-4.8,0-7.7-3.2-8.7-5.8l3.8-1.6c0.7,1.6,2.3,3.5,5,3.5c3.3,0,5.3-2,5.3-5.8V29
		h-0.2c-1,1.2-2.8,2.2-5.2,2.2c-4.9,0-9.5-4.3-9.5-9.8c0-5.6,4.5-9.9,9.5-9.9c2.4,0,4.2,1,5.2,2.2h0.2v-1.6L93.2,12.1L93.2,12.1z
		 M89.4,21.4c0-3.5-2.3-6-5.3-6c-3,0-5.5,2.5-5.5,6c0,3.4,2.5,5.9,5.5,5.9C87.1,27.3,89.4,24.8,89.4,21.4z"/>
	<path d="M100,1.7v28.9h-4.2V1.7H100z"/>
	<path d="M116.4,24.6l3.4,2.2c-1.1,1.6-3.7,4.4-8.2,4.4c-5.6,0-9.8-4.3-9.8-9.9c0-5.9,4.2-9.9,9.3-9.9c5.1,0,7.6,4.1,8.4,6.3
		l0.4,1.1l-13.2,5.5c1,2,2.6,3,4.8,3C113.8,27.3,115.3,26.2,116.4,24.6L116.4,24.6z M106.1,21l8.8-3.7c-0.5-1.2-1.9-2.1-3.7-2.1
		C109,15.3,106,17.2,106.1,21z"/>
	<path d="M15.5,18.8v-4.2h14.1c0.1,0.7,0.2,1.6,0.2,2.5c0,3.1-0.9,7-3.6,9.8c-2.7,2.8-6.1,4.3-10.7,4.3C7.1,31.2,0,24.3,0,15.9
		S7.1,0.5,15.5,0.5c4.7,0,8,1.8,10.5,4.2l-3,3c-1.8-1.7-4.2-3-7.6-3c-6.2,0-11,5-11,11.1S9.4,27,15.5,27c4,0,6.3-1.6,7.7-3.1
		c1.2-1.2,2-2.9,2.3-5.2L15.5,18.8z"/>
</g>
</svg>
