<svg xmlns="http://www.w3.org/2000/svg" xmlns:xlink="http://www.w3.org/1999/xlink" width="739.531" height="522.152"><style><![CDATA[.B{fill:none}.C{fill:#ffdba0}.D{stroke-miterlimit:10}.E{fill:#dceeed}.F{fill:#01be3f}.G{stroke-linecap:round}]]></style><defs><clipPath id="A"><path d="M690.225 485.8S75.336 594.38 22.472 436.234c-36.2-108.292-39.455-294.736 72.8-259.8 102.482 31.884 234.466 22.958 333.413-40.64C462.346 114.147 648.04-46.867 698.24 13.43c97.368 116.95-8.014 472.37-8.014 472.37z" fill="#f9ffd9"/></clipPath><clipPath id="B"><path d="M0,0H518.763V140.176H0Z" transform="translate(.159 .671)" class="B"/></clipPath><clipPath id="C"><path d="M0,0H216.457V126.912H0Z" transform="translate(.311 .682)" class="B"/></clipPath><clipPath id="D"><path d="M0,0H161.343V64.175H0Z" transform="translate(.013 .707)" class="B"/></clipPath><clipPath id="E"><path d="M0,0H241.285V153H0Z" transform="translate(.403 .281)" class="B"/></clipPath><clipPath id="F"><path d="M0,0H202.308V109.026H0Z" transform="translate(.775 .779)" class="B"/></clipPath><path id="G" d="M490.567 123.482a16 16 0 0 1 24.071 17.166c-1.987 8.61-10.578 13.98-19.19 11.993s-13.98-10.578-11.993-19.19a15.9 15.9 0 0 1 7.111-9.97zm14.504 23.474a11.64 11.64 0 0 0 3.699-16.034 11.64 11.64 0 0 0-16.034-3.7 11.64 11.64 0 0 0-3.7 16.034 11.65 11.65 0 0 0 16.035 3.7z"/></defs><path d="M690.225 485.8S75.336 594.38 22.472 436.234c-36.2-108.292-39.455-294.736 72.8-259.8 102.482 31.884 234.466 22.958 333.413-40.64C462.346 114.147 648.04-46.867 698.24 13.43c97.368 116.95-8.014 472.37-8.014 472.37z" fill="#f9ffd9"/><g clip-path="url(#A)"><path d="M357.758 260.33l2.72-7.907 7.578-.034 2.815-7.98 8.094-.43" stroke="#000" stroke-width="3.601" class="B D G"/><path d="M261.183 305.157l5.158 105.738 41.242-5.127-5.89-106.377-20.623-5.768z" class="E"/><path d="M274.175 302.006l8.168 8.81-3.715 40.627 9.654 12.727 8.165-15.173-11.134-38.18 5.2-11.745-9.656-6.366z" class="F"/><path d="M269.64 273.347s-4.44 3-4.883 4.285-5.325 11.14-5.325 11.14l11.984 16.707 10.208-12.424 12.875 10.713 1.333-17.994-6.216-12.854z" class="E"/><path d="M265.334 260.925s1.737 12.128 3.034 16.893 9.1 14.293 13.006 15.59 8.67-14.29 8.67-14.29l.867-12.56s-19.94 2.597-25.577-5.63" class="C"/><path d="M298.705 245.06a14.66 14.66 0 0 0 4.994-11.133c0-7.28-5.903-14.13-19.978-14.13s-27.24 3.853-27.24 10.7 4.086 23.556 4.086 23.556 6.814 5.564 9.99 5.134 4.086-10.274 4.086-12.414 6.808 2.14 13.622 2.14a14.91 14.91 0 0 0 10.442-3.853"/><path d="M264.727 254.96s-4.437-5.15-6.655-1.72 2.218 10.737 3.992 11.59c1.005.493 2.04.923 3.1 1.287 0 0 9.314 10.3 14.2 14.162s6.212 1.29 8.427.43 7.542-11.16 9.317-17.6-.444-22.31-.444-22.31-3.1 2.573-11.087 2.573-14.2-7.294-16.413-7.294-3.992 2.145-.442 5.58 3.1 5.15.887 6.438-3.1 3.862-1.775 4.72-.887 3-3.1 2.145" class="C"/><path d="M280.498 256.603c-1.003.23-2.016-.343-2.333-1.322a1.73 1.73 0 0 1 1.515-2.03 1.98 1.98 0 0 1 2.333 1.32 1.73 1.73 0 0 1-1.515 2.032zm13.322-3.746a1.73 1.73 0 0 1-1.515 2.033c-1.003.232-2.016-.343-2.333-1.322a1.73 1.73 0 0 1 1.515-2.03 1.98 1.98 0 0 1 2.333 1.32"/><path d="M293.86 248.93l-6.393.7 1.5 18.14-4.944-.375m1.59.385l.378 4.88s-3.027 1.044-4.92-1.046" stroke="#000" stroke-width="1.2" class="B D"/><path d="M263.208 282.345s8.03 33.946 8.03 59.406l-.73 69.3-36.5 4.95-2.2-51.625s-7.306 32.53-13.875 32.53-17.525-57.994-17.525-57.994l9.493-2.83 9.493 16.268 9.493-49.506zm29.67 1.715l10.23 123.383 19.733-5.67.73-44.676s13.884 12.763 18.267 12.763 27.77-54.6 27.77-54.6l-8.04-3.546-23.38 25.528-20.464-47.5z"/><path d="M208.187 336.08l4.025-11.5-2.92-12c-.585-2.638-2.334-2.342-3.2-.584s.877 5.85.877 5.85-6.715-4.68-9.05-5.557-8.464-7.6-9.923-6.73 1.75 7.9 4.085 14.044 4.96 11.414 5.838 12.582 1.156 6.7 1.156 6.7zM361.5 312.188s-1.73-11.942-1.73-13.43 3.965-6.54 5.188-8.028 2.442-3.566 3.05-2.376.916 2.08 0 3.27c-.667 1.2-1.082 2.506-1.22 3.864 0 0 3.356-4.46 4.272-5.053s4.88-9.512 7.32-8.92 0 11.9-.6 15.457-.3 6.542-3.356 10.4c-1.965 2.58-3.594 5.397-4.846 8.388zM514.805 286.1s-5.012 17.195-3.135 19.655 4.387 3.073 1.882 11.055-8.77 15.965-8.145 17.805 5 5.528 5 5.528-.625 26.407 4.387 29.48 28.2-1.845 32.578-3.685 15.036-23.952 15.036-36.235-4.386-28.862-12.53-36.847-19.426-9.825-24.434-10.44-10.65 3.685-10.65 3.685" class="C"/><g clip-path="url(#B)" transform="translate(123.677 393.733)"><path d="M30.415 43.992L220.145-.246l298.777 68-133 86.84H.16z" fill="#fff"/></g><g clip-path="url(#C)" transform="translate(444.372 393.733)"><path d="M88.287 12.976S47.778 33.26 44.61 38.182.31 119.935.31 119.935h216.457s-4.43-87.288-12.657-98.353-27.217-20.9-27.217-20.9L90.82 12.36z" fill="#d3f431"/></g><path d="M547.042 254.15c-8.813-4.905-28.327-8.585-43.432 3.067s-8.814 29.432.632 31.886 20.77-.614 20.77-.614c-3.762 4.42-4.735 10.575-2.52 15.94 3.777 9.2 6.926 17.17 13.22 18.4s2.52-7.973 8.18-3.068 3.777 15.943 2.52 25.755-27.068 31.88-28.323 49.05 18.884 33.11 32.1 35.565 22.028.612 25.8 15.943 14.86 19.166 40.284 14.1c27.7-5.516 25.8-35.565 22.028-47.828s5.035-10.42 8.184-30.043-8.184-33.11-20.77-42.31-10.7-19.622-3.777-34.337 6.923-38.63-11.96-49.054-30.84-9.2-42.8-2.454c.005.001-11.323 4.905-20.133.001z"/><g clip-path="url(#D)" transform="translate(523.998 447.713)"><path d="M2.773 86.86l.464-31.043c.133-8.843 5.332-16.476 12.666-18.59L140.735 1.286c11.848-3.412 22.7 8.78 20.282 22.786l-9.982 57.94L.013 88.476" fill="#464757"/></g><g clip-path="url(#E)" transform="translate(4.646 374.883)" class="F"><path d="M182.175 59.175c8.4 12.1 60.44 108.768 60.44 108.768l-234.88-29.95S35.47 85.768 39.35 71.743c2.086-7.54-8.05 1.265-8.282-13.48-.2-12.67 9.626-49.663 9.626-49.663S54.912-.32 60.726.313s28.436 10.84 38.778 17.21 48.467 19.124 48.467 19.124 25.804 10.416 34.204 22.53z"/></g><g class="C"><path d="M145.32 369.436s-15.783 14.662-18.303 19.547-5.052 11.6-5.052 11.6l-52.392-24.426s11.363-6.72 11.995-11-1.264-13.437-1.264-13.437 18.938-15.876 23.355-18.322 21.46 4.274 30.928 15.27 10.733 20.768 10.733 20.768"/><path d="M157.815 291.157s6.906 17.7 3.768 22.58-5.65 6.1-3.768 9.155 8.16 12.205 8.16 14.648-4.394 2.44-5.023 4.27 1.884 31.123-2.513 32.954-16.95 1.83-25.738-6.713-8.8-21.36-8.8-21.36-1.258 4.882-10.048.61-13.184-29.293-6.9-37.227 18.83-23.8 23.223-25.023 27.628 6.1 27.628 6.1"/></g><path d="M135.746 299.81s26.683-4.3 32.4-11.665-3.808-22.713-9.53-26.394-6.986 6.137-12.068 6.137-11.436-7.364-36.85-3.683-47.014 22.1-47.014 34.99 12.706 50.337 15.882 54.628 16.518 10.443 26.686 5.533 10.8-11.05 10.8-11.05-8.894-14.734-5.082-23.328 13.343 7.98 13.343 7.98 10.16-3.683 10.16-6.75-5.085-6.755 0-7.982 6.988-2.457 6.988-7.367-5.718-11.048-5.718-11.048"/><path d="M64.653 375.276s7.58-9.17 12.635-9.783 27.165 6.726 37.905 15.286 18.32 23.235 18.32 23.235-30.96-8.557-41.06-14.057l-27.8-14.68" class="E"/><path d="M59.847 373.703s6.975-7.216 27.9 4.2 61.505 31.266 61.505 31.266-15.217 4.8-34.874-1.8-41.214-21.05-51.36-22.852c-6.284-1.098-12.644-1.702-19.022-1.804z" fill="#00d245"/><g clip-path="url(#F)" transform="translate(-34.703 424.775)"><path d="M30.094 56.63S36.92 7.93 45.537 7.192c3.957-.338 39.605.61 58.738 4.607 22.547 4.7 29.84 12.7 47.21 13.894 32.108 2.207 52.526 80.446 52.526 80.446z"/></g><path d="M425.572 346.493l-23.537 7.8-1.93 58.685 64.056 8.17 5.79-61.657-19.683-13.743z" fill="#d3f431"/><path d="M429.117 359.22l8.094 7.95 15.03-21.2-5.4-9.843-12.328-1.516-11.176 6.816-8.478 17.792zm20.81 13.88l6.16 33.413-39.26 11.262 2.3 9.384 59.664-7.508-6.928-60.44s-4.618-3.755-8.082-4.883m-60.726-.008l-5.5 33.125-14.165 27.48 11.018 4.513 6.687-5.647z" fill="#bce200"/><g class="C"><path d="M387.456 410.012c-1.872 1.778-3.552 3.748-5.013 5.877-1.543 2.57-2.7 8.445-1.543 9.915s-.772 2.2 3.473 2.2 9.256-5.875 10.8-7.7 2.695-7.712-7.717-10.282"/><path d="M415.5 418.43s-6.586 0-9.683-1.106-10.458 0-13.17 1.106-5.8 1.476-3.485 2.95a11.54 11.54 0 0 0 5.425 1.476s-7.75 2.2-9.298 3.322-5.8 1.474-4.647 3.7 8.522 4.058 17.043 2.95 13.555-5.9 15.107-5.9c1.693.128 3.374.374 5.033.736zm5.93-85.887l4.3 10.2c1.956 4.535 1.17 15.86 4.292 15.86s14.842-18.508 14.842-18.508-2.736-9.817-2.736-10.952 9.373-6.8 13.28-14.73 4.293-18.88-3.122-24.168-10.938-2.27-18.356-6.8-10.93-8.684-18.746-4.533-11.325 12.1-4.688 18.128 10.546 7.553 13.28 7.932 4.3 8.308 8.984 12.084a42.83 42.83 0 0 0 6.248 4.533s-1.563 3.4-6.637 4.907-10.94 6.045-10.94 6.045"/></g><path d="M452.274 290.104c-7.42-5.23-10.938-2.24-18.354-6.72s-10.936-8.595-18.747-4.487-11.325 11.95-4.683 17.923 10.544 7.47 13.28 7.843 4.293 8.215 8.98 11.948c1.94 1.678 4.03 3.178 6.24 4.483-1.078 1.847-2.728 3.292-4.7 4.118l.8.362s3.818 1.217 7.625 2.184c2.1-2.046 9.36-7.086 12.68-13.76 3.9-7.84 4.3-18.67-3.123-23.9"/><path d="M414.535 294.34l-4.3 30.005c-.782 6.84 0 13.295 2.348 13.672s19.54-4.557 23.835-5.7 6.254-9.116 6.254-9.116 3.514-4.557 4.3-6.457.392-4.935-2.343-4.935-5.476 2.66-5.476 2.66-1.564-.38-4.688-3.418-4.69-6.457-3.91-7.975a2.42 2.42 0 0 0-2.345-3.421c-1.953 0-1.17.38-4.686 0s-8.99-5.316-8.99-5.316" class="C"/><path d="M421.702 310.265a1.73 1.73 0 0 1-1.515 2.033 1.99 1.99 0 0 1-2.333-1.324 1.73 1.73 0 0 1 1.515-2.029 1.98 1.98 0 0 1 2.333 1.32"/><path d="M412.892 310.62l-3.934 7.374 5.9 2.05" class="C"/><path d="M411.9 325.152l4.92.4s3.687.4 4.918-1.643m-2.953-18.396s3.937-.772 5.9 4.24" stroke="#000" stroke-width="1.2" class="B D"/><path d="M311.578 417.724L259.43 434.66l64.867 24.193 61.05-20.564z" fill="#f8e71c"/><path d="M240.74 429.886l38.706 25.538 58.683-14.592-48.69-23.108z" fill="#a9a9a9"/></g><path d="M212.694 467.66l3.35-10.236 9.657.068 3.47-10.33 10.315-.446" stroke="#01be3f" stroke-width="4.321" class="B D G"/><rect width="30" height="6" rx="2.16" fill="#d6e602" x="80" y="247"/><use xlink:href="#G" class="F"/><use xlink:href="#G" x="100" y="88" fill="#d6e602"/></svg>