<svg xmlns="http://www.w3.org/2000/svg" width="740.292" height="528.209" viewBox="0 0 740.292 528.209">
  <g id="home-banner-2" transform="translate(-2134 -294)">
    <g id="Group_45" data-name="Group 45" transform="translate(2122.187 588.833)">
      <circle id="Ellipse_6" data-name="Ellipse 6" cx="2.688" cy="2.688" r="2.688" transform="translate(601.813 137.167)" fill="#f0f0c8"/>
      <circle id="Ellipse_7" data-name="Ellipse 7" cx="2.688" cy="2.688" r="2.688" transform="translate(622.229 137.167)" fill="#f0f0c8"/>
      <circle id="Ellipse_8" data-name="Ellipse 8" cx="2.688" cy="2.688" r="2.688" transform="translate(643.813 137.167)" fill="#f0f0c8"/>
      <circle id="Ellipse_9" data-name="Ellipse 9" cx="2.688" cy="2.688" r="2.688" transform="translate(664.229 137.167)" fill="#f0f0c8"/>
      <circle id="Ellipse_10" data-name="Ellipse 10" cx="2.688" cy="2.688" r="2.688" transform="translate(684.313 137.167)" fill="#f0f0c8"/>
      <circle id="Ellipse_11" data-name="Ellipse 11" cx="2.688" cy="2.688" r="2.688" transform="translate(704.729 137.167)" fill="#f0f0c8"/>
      <circle id="Ellipse_12" data-name="Ellipse 12" cx="2.688" cy="2.688" r="2.688" transform="translate(726.313 137.167)" fill="#f0f0c8"/>
      <circle id="Ellipse_13" data-name="Ellipse 13" cx="2.688" cy="2.688" r="2.688" transform="translate(746.729 137.167)" fill="#f0f0c8"/>
      <circle id="Ellipse_14" data-name="Ellipse 14" cx="2.688" cy="2.688" r="2.688" transform="translate(601.813 155.333)" fill="#f0f0c8"/>
      <circle id="Ellipse_15" data-name="Ellipse 15" cx="2.688" cy="2.688" r="2.688" transform="translate(622.229 155.333)" fill="#f0f0c8"/>
      <circle id="Ellipse_16" data-name="Ellipse 16" cx="2.688" cy="2.688" r="2.688" transform="translate(643.813 155.333)" fill="#f0f0c8"/>
      <circle id="Ellipse_17" data-name="Ellipse 17" cx="2.688" cy="2.688" r="2.688" transform="translate(664.229 155.333)" fill="#f0f0c8"/>
      <circle id="Ellipse_18" data-name="Ellipse 18" cx="2.688" cy="2.688" r="2.688" transform="translate(684.313 155.333)" fill="#f0f0c8"/>
      <circle id="Ellipse_19" data-name="Ellipse 19" cx="2.688" cy="2.688" r="2.688" transform="translate(704.729 155.333)" fill="#f0f0c8"/>
      <circle id="Ellipse_20" data-name="Ellipse 20" cx="2.688" cy="2.688" r="2.688" transform="translate(726.313 155.333)" fill="#f0f0c8"/>
      <circle id="Ellipse_21" data-name="Ellipse 21" cx="2.688" cy="2.688" r="2.688" transform="translate(746.729 155.333)" fill="#f0f0c8"/>
      <circle id="Ellipse_22" data-name="Ellipse 22" cx="2.688" cy="2.688" r="2.688" transform="translate(601.813 173.5)" fill="#f0f0c8"/>
      <circle id="Ellipse_23" data-name="Ellipse 23" cx="2.688" cy="2.688" r="2.688" transform="translate(622.229 173.5)" fill="#f0f0c8"/>
      <circle id="Ellipse_24" data-name="Ellipse 24" cx="2.688" cy="2.688" r="2.688" transform="translate(643.813 173.5)" fill="#f0f0c8"/>
      <circle id="Ellipse_25" data-name="Ellipse 25" cx="2.688" cy="2.688" r="2.688" transform="translate(664.229 173.5)" fill="#f0f0c8"/>
      <circle id="Ellipse_26" data-name="Ellipse 26" cx="2.688" cy="2.688" r="2.688" transform="translate(684.313 173.5)" fill="#f0f0c8"/>
      <circle id="Ellipse_27" data-name="Ellipse 27" cx="2.688" cy="2.688" r="2.688" transform="translate(704.729 173.5)" fill="#f0f0c8"/>
      <circle id="Ellipse_28" data-name="Ellipse 28" cx="2.688" cy="2.688" r="2.688" transform="translate(726.313 173.5)" fill="#f0f0c8"/>
      <circle id="Ellipse_29" data-name="Ellipse 29" cx="2.688" cy="2.688" r="2.688" transform="translate(746.729 173.5)" fill="#f0f0c8"/>
      <circle id="Ellipse_30" data-name="Ellipse 30" cx="2.688" cy="2.688" r="2.688" transform="translate(601.813 191.667)" fill="#f0f0c8"/>
      <circle id="Ellipse_31" data-name="Ellipse 31" cx="2.688" cy="2.688" r="2.688" transform="translate(622.229 191.667)" fill="#f0f0c8"/>
      <circle id="Ellipse_32" data-name="Ellipse 32" cx="2.688" cy="2.688" r="2.688" transform="translate(643.813 191.667)" fill="#f0f0c8"/>
      <circle id="Ellipse_33" data-name="Ellipse 33" cx="2.688" cy="2.688" r="2.688" transform="translate(664.229 191.667)" fill="#f0f0c8"/>
      <circle id="Ellipse_34" data-name="Ellipse 34" cx="2.688" cy="2.688" r="2.688" transform="translate(684.313 191.667)" fill="#f0f0c8"/>
      <circle id="Ellipse_35" data-name="Ellipse 35" cx="2.688" cy="2.688" r="2.688" transform="translate(704.729 191.667)" fill="#f0f0c8"/>
      <circle id="Ellipse_36" data-name="Ellipse 36" cx="2.688" cy="2.688" r="2.688" transform="translate(726.313 191.667)" fill="#f0f0c8"/>
      <circle id="Ellipse_37" data-name="Ellipse 37" cx="2.688" cy="2.688" r="2.688" transform="translate(746.729 191.667)" fill="#f0f0c8"/>
      <circle id="Ellipse_38" data-name="Ellipse 38" cx="2.688" cy="2.688" r="2.688" transform="translate(601.813 209.833)" fill="#f0f0c8"/>
      <circle id="Ellipse_39" data-name="Ellipse 39" cx="2.688" cy="2.688" r="2.688" transform="translate(622.229 209.833)" fill="#f0f0c8"/>
      <circle id="Ellipse_40" data-name="Ellipse 40" cx="2.688" cy="2.688" r="2.688" transform="translate(643.813 209.833)" fill="#f0f0c8"/>
      <circle id="Ellipse_41" data-name="Ellipse 41" cx="2.688" cy="2.688" r="2.688" transform="translate(664.229 209.833)" fill="#f0f0c8"/>
      <circle id="Ellipse_42" data-name="Ellipse 42" cx="2.688" cy="2.688" r="2.688" transform="translate(684.313 209.833)" fill="#f0f0c8"/>
      <circle id="Ellipse_43" data-name="Ellipse 43" cx="2.688" cy="2.688" r="2.688" transform="translate(704.729 209.833)" fill="#f0f0c8"/>
      <circle id="Ellipse_44" data-name="Ellipse 44" cx="2.688" cy="2.688" r="2.688" transform="translate(726.313 209.833)" fill="#f0f0c8"/>
      <circle id="Ellipse_45" data-name="Ellipse 45" cx="2.688" cy="2.688" r="2.688" transform="translate(746.729 209.833)" fill="#f0f0c8"/>
      <circle id="Ellipse_46" data-name="Ellipse 46" cx="2.688" cy="2.688" r="2.688" transform="translate(601.813 228)" fill="#f0f0c8"/>
      <circle id="Ellipse_47" data-name="Ellipse 47" cx="2.688" cy="2.688" r="2.688" transform="translate(622.229 228)" fill="#f0f0c8"/>
      <circle id="Ellipse_48" data-name="Ellipse 48" cx="2.688" cy="2.688" r="2.688" transform="translate(643.813 228)" fill="#f0f0c8"/>
      <circle id="Ellipse_49" data-name="Ellipse 49" cx="2.688" cy="2.688" r="2.688" transform="translate(664.229 228)" fill="#f0f0c8"/>
      <circle id="Ellipse_50" data-name="Ellipse 50" cx="2.688" cy="2.688" r="2.688" transform="translate(684.313 228)" fill="#f0f0c8"/>
      <circle id="Ellipse_51" data-name="Ellipse 51" cx="2.688" cy="2.688" r="2.688" transform="translate(704.729 228)" fill="#f0f0c8"/>
      <circle id="Ellipse_52" data-name="Ellipse 52" cx="2.688" cy="2.688" r="2.688" transform="translate(726.313 228)" fill="#f0f0c8"/>
      <circle id="Ellipse_53" data-name="Ellipse 53" cx="2.688" cy="2.688" r="2.688" transform="translate(746.729 228)" fill="#f0f0c8"/>
    </g>
    <g id="Group_45-2" data-name="Group 45" transform="translate(1666.187 156.833)">
      <circle id="Ellipse_6-2" data-name="Ellipse 6" cx="2.688" cy="2.688" r="2.688" transform="translate(601.813 137.167)" fill="#f0f0c8"/>
      <circle id="Ellipse_7-2" data-name="Ellipse 7" cx="2.688" cy="2.688" r="2.688" transform="translate(622.229 137.167)" fill="#f0f0c8"/>
      <circle id="Ellipse_8-2" data-name="Ellipse 8" cx="2.688" cy="2.688" r="2.688" transform="translate(643.813 137.167)" fill="#f0f0c8"/>
      <circle id="Ellipse_9-2" data-name="Ellipse 9" cx="2.688" cy="2.688" r="2.688" transform="translate(664.229 137.167)" fill="#f0f0c8"/>
      <circle id="Ellipse_10-2" data-name="Ellipse 10" cx="2.688" cy="2.688" r="2.688" transform="translate(684.313 137.167)" fill="#f0f0c8"/>
      <circle id="Ellipse_11-2" data-name="Ellipse 11" cx="2.688" cy="2.688" r="2.688" transform="translate(704.729 137.167)" fill="#f0f0c8"/>
      <circle id="Ellipse_12-2" data-name="Ellipse 12" cx="2.688" cy="2.688" r="2.688" transform="translate(726.313 137.167)" fill="#f0f0c8"/>
      <circle id="Ellipse_13-2" data-name="Ellipse 13" cx="2.688" cy="2.688" r="2.688" transform="translate(746.729 137.167)" fill="#f0f0c8"/>
      <circle id="Ellipse_14-2" data-name="Ellipse 14" cx="2.688" cy="2.688" r="2.688" transform="translate(601.813 155.333)" fill="#f0f0c8"/>
      <circle id="Ellipse_15-2" data-name="Ellipse 15" cx="2.688" cy="2.688" r="2.688" transform="translate(622.229 155.333)" fill="#f0f0c8"/>
      <circle id="Ellipse_16-2" data-name="Ellipse 16" cx="2.688" cy="2.688" r="2.688" transform="translate(643.813 155.333)" fill="#f0f0c8"/>
      <circle id="Ellipse_17-2" data-name="Ellipse 17" cx="2.688" cy="2.688" r="2.688" transform="translate(664.229 155.333)" fill="#f0f0c8"/>
      <circle id="Ellipse_18-2" data-name="Ellipse 18" cx="2.688" cy="2.688" r="2.688" transform="translate(684.313 155.333)" fill="#f0f0c8"/>
      <circle id="Ellipse_19-2" data-name="Ellipse 19" cx="2.688" cy="2.688" r="2.688" transform="translate(704.729 155.333)" fill="#f0f0c8"/>
      <circle id="Ellipse_20-2" data-name="Ellipse 20" cx="2.688" cy="2.688" r="2.688" transform="translate(726.313 155.333)" fill="#f0f0c8"/>
      <circle id="Ellipse_21-2" data-name="Ellipse 21" cx="2.688" cy="2.688" r="2.688" transform="translate(746.729 155.333)" fill="#f0f0c8"/>
      <circle id="Ellipse_22-2" data-name="Ellipse 22" cx="2.688" cy="2.688" r="2.688" transform="translate(601.813 173.5)" fill="#f0f0c8"/>
      <circle id="Ellipse_23-2" data-name="Ellipse 23" cx="2.688" cy="2.688" r="2.688" transform="translate(622.229 173.5)" fill="#f0f0c8"/>
      <circle id="Ellipse_24-2" data-name="Ellipse 24" cx="2.688" cy="2.688" r="2.688" transform="translate(643.813 173.5)" fill="#f0f0c8"/>
      <circle id="Ellipse_25-2" data-name="Ellipse 25" cx="2.688" cy="2.688" r="2.688" transform="translate(664.229 173.5)" fill="#f0f0c8"/>
      <circle id="Ellipse_26-2" data-name="Ellipse 26" cx="2.688" cy="2.688" r="2.688" transform="translate(684.313 173.5)" fill="#f0f0c8"/>
      <circle id="Ellipse_27-2" data-name="Ellipse 27" cx="2.688" cy="2.688" r="2.688" transform="translate(704.729 173.5)" fill="#f0f0c8"/>
      <circle id="Ellipse_28-2" data-name="Ellipse 28" cx="2.688" cy="2.688" r="2.688" transform="translate(726.313 173.5)" fill="#f0f0c8"/>
      <circle id="Ellipse_29-2" data-name="Ellipse 29" cx="2.688" cy="2.688" r="2.688" transform="translate(746.729 173.5)" fill="#f0f0c8"/>
      <circle id="Ellipse_30-2" data-name="Ellipse 30" cx="2.688" cy="2.688" r="2.688" transform="translate(601.813 191.667)" fill="#f0f0c8"/>
      <circle id="Ellipse_31-2" data-name="Ellipse 31" cx="2.688" cy="2.688" r="2.688" transform="translate(622.229 191.667)" fill="#f0f0c8"/>
      <circle id="Ellipse_32-2" data-name="Ellipse 32" cx="2.688" cy="2.688" r="2.688" transform="translate(643.813 191.667)" fill="#f0f0c8"/>
      <circle id="Ellipse_33-2" data-name="Ellipse 33" cx="2.688" cy="2.688" r="2.688" transform="translate(664.229 191.667)" fill="#f0f0c8"/>
      <circle id="Ellipse_34-2" data-name="Ellipse 34" cx="2.688" cy="2.688" r="2.688" transform="translate(684.313 191.667)" fill="#f0f0c8"/>
      <circle id="Ellipse_35-2" data-name="Ellipse 35" cx="2.688" cy="2.688" r="2.688" transform="translate(704.729 191.667)" fill="#f0f0c8"/>
      <circle id="Ellipse_36-2" data-name="Ellipse 36" cx="2.688" cy="2.688" r="2.688" transform="translate(726.313 191.667)" fill="#f0f0c8"/>
      <circle id="Ellipse_37-2" data-name="Ellipse 37" cx="2.688" cy="2.688" r="2.688" transform="translate(746.729 191.667)" fill="#f0f0c8"/>
      <circle id="Ellipse_38-2" data-name="Ellipse 38" cx="2.688" cy="2.688" r="2.688" transform="translate(601.813 209.833)" fill="#f0f0c8"/>
      <circle id="Ellipse_39-2" data-name="Ellipse 39" cx="2.688" cy="2.688" r="2.688" transform="translate(622.229 209.833)" fill="#f0f0c8"/>
      <circle id="Ellipse_40-2" data-name="Ellipse 40" cx="2.688" cy="2.688" r="2.688" transform="translate(643.813 209.833)" fill="#f0f0c8"/>
      <circle id="Ellipse_41-2" data-name="Ellipse 41" cx="2.688" cy="2.688" r="2.688" transform="translate(664.229 209.833)" fill="#f0f0c8"/>
      <circle id="Ellipse_42-2" data-name="Ellipse 42" cx="2.688" cy="2.688" r="2.688" transform="translate(684.313 209.833)" fill="#f0f0c8"/>
      <circle id="Ellipse_43-2" data-name="Ellipse 43" cx="2.688" cy="2.688" r="2.688" transform="translate(704.729 209.833)" fill="#f0f0c8"/>
      <circle id="Ellipse_44-2" data-name="Ellipse 44" cx="2.688" cy="2.688" r="2.688" transform="translate(726.313 209.833)" fill="#f0f0c8"/>
      <circle id="Ellipse_45-2" data-name="Ellipse 45" cx="2.688" cy="2.688" r="2.688" transform="translate(746.729 209.833)" fill="#f0f0c8"/>
      <circle id="Ellipse_46-2" data-name="Ellipse 46" cx="2.688" cy="2.688" r="2.688" transform="translate(601.813 228)" fill="#f0f0c8"/>
      <circle id="Ellipse_47-2" data-name="Ellipse 47" cx="2.688" cy="2.688" r="2.688" transform="translate(622.229 228)" fill="#f0f0c8"/>
      <circle id="Ellipse_48-2" data-name="Ellipse 48" cx="2.688" cy="2.688" r="2.688" transform="translate(643.813 228)" fill="#f0f0c8"/>
      <circle id="Ellipse_49-2" data-name="Ellipse 49" cx="2.688" cy="2.688" r="2.688" transform="translate(664.229 228)" fill="#f0f0c8"/>
      <circle id="Ellipse_50-2" data-name="Ellipse 50" cx="2.688" cy="2.688" r="2.688" transform="translate(684.313 228)" fill="#f0f0c8"/>
      <circle id="Ellipse_51-2" data-name="Ellipse 51" cx="2.688" cy="2.688" r="2.688" transform="translate(704.729 228)" fill="#f0f0c8"/>
      <circle id="Ellipse_52-2" data-name="Ellipse 52" cx="2.688" cy="2.688" r="2.688" transform="translate(726.313 228)" fill="#f0f0c8"/>
      <circle id="Ellipse_53-2" data-name="Ellipse 53" cx="2.688" cy="2.688" r="2.688" transform="translate(746.729 228)" fill="#f0f0c8"/>
    </g>
    <g id="Group_5" data-name="Group 5" transform="translate(2074.052 333.388)">
      <g id="Group_35" data-name="Group 35" transform="translate(59.948 27.612)">
        <g id="Group_10" data-name="Group 10" transform="translate(46.769)">
          <g id="Group_5-2" data-name="Group 5" transform="translate(202.543)">
            <path id="Path_2" data-name="Path 2" d="M360.3,114.719a80.813,80.813,0,0,0,.5-8.955c0-1.6-.052-3.183-.145-4.758l-14.8-4.787a64.973,64.973,0,0,0-5.239-17.728l9.811-12.073a79.875,79.875,0,0,0-7.771-11.3l-14.8,4.828A65.736,65.736,0,0,0,313.21,48.689l.843-15.547a79.254,79.254,0,0,0-12.919-4.579L292,41.173a65.807,65.807,0,0,0-18.473-.484l-8.459-13.077A79.278,79.278,0,0,0,251.92,31.5l.02,15.57a65.658,65.658,0,0,0-15.225,10.473l-14.519-5.6a80.036,80.036,0,0,0-8.36,10.869L223,75.386a64.961,64.961,0,0,0-6.177,17.424l-15.027,4a80.783,80.783,0,0,0-.5,8.955c0,1.6.054,3.183.145,4.756l14.8,4.787a64.965,64.965,0,0,0,5.239,17.729l-9.811,12.073a79.831,79.831,0,0,0,7.771,11.3l14.8-4.828a65.746,65.746,0,0,0,14.649,11.261l-.843,15.547a79.1,79.1,0,0,0,12.919,4.577l9.138-12.609a65.806,65.806,0,0,0,18.473.484l8.459,13.076a78.968,78.968,0,0,0,13.144-3.884l-.02-15.57a65.6,65.6,0,0,0,15.225-10.472l14.519,5.6a80.038,80.038,0,0,0,8.36-10.871L339.1,136.144a65.019,65.019,0,0,0,6.177-17.424Zm-79.25,22.326a31.281,31.281,0,1,1,31.281-31.281,31.281,31.281,0,0,1-31.281,31.281Z" transform="translate(-201.291 -27.612)" fill="#d8ce95"/>
            <g id="Group_2" data-name="Group 2" transform="translate(121.25 59.388)">
              <path id="Path_3" data-name="Path 3" d="M276.82,118.472a1.168,1.168,0,0,1-.9-1.916,52.925,52.925,0,0,0,9.325-50.973,1.169,1.169,0,1,1,2.211-.761,55.267,55.267,0,0,1-9.738,53.23,1.169,1.169,0,0,1-.9.42Z" transform="translate(-275.652 -64.034)" fill="#fff"/>
            </g>
            <g id="Group_3" data-name="Group 3" transform="translate(98.129 26.203)">
              <path id="Path_4" data-name="Path 4" d="M281.233,57.475a1.162,1.162,0,0,1-.8-.318,52.5,52.5,0,0,0-18.187-11.205,1.17,1.17,0,1,1,.8-2.2,54.858,54.858,0,0,1,18.993,11.7,1.168,1.168,0,0,1-.8,2.02Z" transform="translate(-261.472 -43.682)" fill="#fff"/>
            </g>
            <g id="Group_4" data-name="Group 4" transform="translate(66.452 22.981)">
              <path id="Path_5" data-name="Path 5" d="M243.214,45.685a1.17,1.17,0,0,1-.285-2.3,55.437,55.437,0,0,1,13.543-1.675,1.169,1.169,0,1,1,0,2.338,53.018,53.018,0,0,0-12.971,1.6,1.163,1.163,0,0,1-.287.037Z" transform="translate(-242.045 -41.706)" fill="#fff"/>
            </g>
          </g>
          <g id="Group_9" data-name="Group 9" transform="translate(0 224.837)">
            <path id="Path_6" data-name="Path 6" d="M187.207,225.834a55.611,55.611,0,0,0,.349-6.2c0-1.107-.036-2.2-.1-3.3l-10.248-3.317a45.091,45.091,0,0,0-3.628-12.278l6.795-8.363a55.474,55.474,0,0,0-5.382-7.825l-10.25,3.346a45.574,45.574,0,0,0-10.147-7.8l.584-10.768a55.008,55.008,0,0,0-8.949-3.171l-6.328,8.735a45.654,45.654,0,0,0-12.8-.336l-5.86-9.058a54.94,54.94,0,0,0-9.1,2.69l.013,10.785a45.471,45.471,0,0,0-10.545,7.254l-10.056-3.879a55.521,55.521,0,0,0-5.79,7.528l6.345,8.712a45.054,45.054,0,0,0-4.277,12.068l-10.408,2.77a55.66,55.66,0,0,0-.349,6.2c0,1.106.036,2.2.1,3.3l10.25,3.315a44.973,44.973,0,0,0,3.628,12.28l-6.8,8.362a55.39,55.39,0,0,0,5.384,7.825l10.25-3.344a45.517,45.517,0,0,0,10.147,7.8l-.584,10.77a54.78,54.78,0,0,0,8.947,3.17l6.33-8.733a45.554,45.554,0,0,0,12.8.334l5.86,9.058a54.781,54.781,0,0,0,9.1-2.69l-.015-10.785a45.449,45.449,0,0,0,10.547-7.254l10.056,3.881a55.437,55.437,0,0,0,5.79-7.53l-6.346-8.71A45.009,45.009,0,0,0,176.8,228.6ZM132.315,241.3a21.667,21.667,0,1,1,21.667-21.667A21.667,21.667,0,0,1,132.315,241.3Z" transform="translate(-77.075 -165.501)" fill="#d8ce95"/>
            <g id="Group_6" data-name="Group 6" transform="translate(83.622 40.775)">
              <path id="Path_7" data-name="Path 7" d="M129.528,228.934a1.17,1.17,0,0,1-.9-1.918,36.293,36.293,0,0,0,6.4-34.958,1.169,1.169,0,1,1,2.211-.762,38.634,38.634,0,0,1-6.808,37.214,1.166,1.166,0,0,1-.9.424Z" transform="translate(-128.359 -190.508)" fill="#d8ce95"/>
            </g>
            <g id="Group_7" data-name="Group 7" transform="translate(67.608 17.791)">
              <path id="Path_8" data-name="Path 8" d="M132.584,186.685a1.166,1.166,0,0,1-.8-.318,35.991,35.991,0,0,0-12.474-7.687,1.17,1.17,0,0,1,.8-2.2,38.327,38.327,0,0,1,13.279,8.182,1.17,1.17,0,0,1-.8,2.02Z" transform="translate(-118.538 -176.412)" fill="#fff"/>
            </g>
            <g id="Group_8" data-name="Group 8" transform="translate(45.667 15.559)">
              <path id="Path_9" data-name="Path 9" d="M106.251,178.518a1.17,1.17,0,0,1-.285-2.3,38.755,38.755,0,0,1,9.469-1.171,1.169,1.169,0,0,1,0,2.338,36.345,36.345,0,0,0-8.9,1.1A1.246,1.246,0,0,1,106.251,178.518Z" transform="translate(-105.082 -175.043)" fill="#fff"/>
            </g>
          </g>
          <path id="Path_10" data-name="Path 10" d="M356.706,133c0-.6-.018-1.2-.05-1.8l7.678-6.165a40.853,40.853,0,0,0-2.79-8.821l-9.916-.75a32.974,32.974,0,0,0-8.582-9.107l-.033-9.88a40.948,40.948,0,0,0-8.792-3.392l-6.775,7.292a33.287,33.287,0,0,0-3.558-.192,32.811,32.811,0,0,0-8.627,1.15l-7.77-6.155a41.188,41.188,0,0,0-8.218,4.768l1.469,9.795a32.883,32.883,0,0,0-6.922,10.1l-9.666,2.24a41.216,41.216,0,0,0-1.428,9.319l8.513,4.923a32.6,32.6,0,0,0,3.643,12.03l-4.262,8.929a41.455,41.455,0,0,0,6.263,6.816l9.13-3.576A32.638,32.638,0,0,0,318.05,165.3l4.3,8.859c.512.02,1.026.033,1.544.033a41.445,41.445,0,0,0,7.554-.694l2.9-9.383a32.766,32.766,0,0,0,11.328-6.576l9.6,2.156a41.268,41.268,0,0,0,5.112-7.549l-5.562-8.168A32.75,32.75,0,0,0,356.706,133ZM323.53,147.461a13.821,13.821,0,1,1,13.821-13.821,13.821,13.821,0,0,1-13.821,13.821Z" transform="translate(52.602 13.675)" fill="#d8ce95"/>
        </g>
        <g id="Group_14" data-name="Group 14" transform="translate(507.481 35.059)">
          <g id="Group_11" data-name="Group 11" transform="translate(55.894 3.478)" opacity="0.8">
            <path id="Path_11" data-name="Path 11" d="M414.263,79.763h-11.88a8.328,8.328,0,0,1-8.318-8.319V59.565a8.328,8.328,0,0,1,8.318-8.319h11.88a8.328,8.328,0,0,1,8.318,8.319V71.444A8.328,8.328,0,0,1,414.263,79.763ZM402.383,54.52a5.051,5.051,0,0,0-5.045,5.045V71.444a5.051,5.051,0,0,0,5.045,5.045h11.88a5.051,5.051,0,0,0,5.045-5.045V59.565a5.051,5.051,0,0,0-5.045-5.045Z" transform="translate(-394.065 -51.246)" fill="#d8ce95"/>
          </g>
          <g id="Group_12" data-name="Group 12" transform="translate(0 3.478)" opacity="0.8">
            <path id="Path_12" data-name="Path 12" d="M379.982,79.763H368.1a8.328,8.328,0,0,1-8.317-8.319V59.565a8.328,8.328,0,0,1,8.317-8.319h11.879a8.329,8.329,0,0,1,8.319,8.319V71.444a8.329,8.329,0,0,1-8.316,8.319ZM368.1,54.52a5.051,5.051,0,0,0-5.045,5.045V71.444a5.051,5.051,0,0,0,5.045,5.045h11.879a5.051,5.051,0,0,0,5.045-5.045V59.565a5.051,5.051,0,0,0-5.045-5.045Z" transform="translate(-359.786 -51.246)" fill="#d8ce95"/>
          </g>
          <g id="Group_13" data-name="Group 13" transform="translate(5.059)">
            <path id="Path_13" data-name="Path 13" d="M372.829,74.193h-.067a1.413,1.413,0,0,1-1.047-.548l-8.538-11.137A1.4,1.4,0,0,1,365.4,60.8l7.53,9.821L392.591,49.56a1.4,1.4,0,0,1,2.051,1.914L373.855,73.746a1.4,1.4,0,0,1-1.026.447Z" transform="translate(-362.888 -49.113)" fill="#41a954"/>
          </g>
        </g>
        <path id="Path_14" data-name="Path 14" d="M662.859,259.26c-48.611-2.376-213.974,1.652-264.265,3.222s-108.67-2.072-138.994-7.427-205.608.455-197.654,14.854,78.1,6.441,157.639,12.228,258.438-.722,298.791,0,77.357-1.446,129.359-4.341,43.3-17.158,15.124-18.536Z" transform="translate(-40.011 114.48)" fill="#d8ce95"/>
        <g id="Group_18" data-name="Group 18" transform="translate(24.379 72.703)">
          <path id="Rectangle_1" data-name="Rectangle 1" d="M0,0H101.657V166.622H0Z" fill="#bbcc1a"/>
          <path id="Rectangle_2" data-name="Rectangle 2" d="M0,0H94.909V159.753H0Z" transform="translate(3.406 3.395)" fill="#fff"/>
          <g id="Group_17" data-name="Group 17" transform="translate(20.537 9.771)">
            <g id="Group_15" data-name="Group 15" transform="translate(12.601 9.632)">
              <path id="Path_15" data-name="Path 15" d="M83.667,116.724c3.5-7.53,9.423-9.942,19.151-9.942,11.584,0,17.6,4.2,19.3,10.305-20.74.284-38.451-.363-38.451-.363Z" transform="translate(-83.667 -69.824)" fill="#88cde2"/>
              <path id="Path_16" data-name="Path 16" d="M98.593,84.453c-4.9,1.376-4.69,4.132-6.323,6.689s-5.185,4.262-5.611,5.966,1.094,5.257-.711,7.246-2.415,2.982-1.7,4.972,2.273,5.115,2.415,5.541,2.131,3.41,4.546,3.837,6.961,1.136,9.234,2.131,9.583-1.273,13.64-1.132,6.819-2.847,6.534-4.836,2.992-5.966,2.984-9.376c-.008-3.662-4.262-6.393-5.4-8.808s.142-6.677-4.119-9.2c-2.694-1.6-4.548-1.454-6.677-2.164s-5.688-1.743-8.812-.866Z" transform="translate(-83.486 -84.116)" fill="#2a2b3d"/>
              <path id="Path_17" data-name="Path 17" d="M98.9,119.918c-1.109,1.637-1.922,1.706-3.126,0-.957-1.355-2.84-4.435-2.84-6v-15.6a2.849,2.849,0,0,1,2.84-2.842H98.9a2.851,2.851,0,0,1,2.842,2.842v15.6C101.74,115.483,99.893,118.45,98.9,119.918Z" transform="translate(-77.825 -76.949)" fill="#ee8545"/>
              <path id="Path_18" data-name="Path 18" d="M98.9,95.482H95.772a2.849,2.849,0,0,0-2.84,2.842v13.915c3.509,1.117,6.711-1.1,8.808-3.607V98.324a2.851,2.851,0,0,0-2.84-2.842Z" transform="translate(-77.825 -76.949)" fill="#dd6e2c"/>
              <ellipse id="Ellipse_1" data-name="Ellipse 1" cx="9.448" cy="12.873" rx="9.448" ry="12.873" transform="translate(10.063 5.818)" fill="#ee8545"/>
              <path id="Path_19" data-name="Path 19" d="M104.048,91.261c-5.968,10.087-14.776,9.092-14.776,9.092S89.486,87,96.482,86.289s11.117,2.1,12.537,6.731a11.437,11.437,0,0,1,0,7.688,12.263,12.263,0,0,1-3.41-4.618,33.073,33.073,0,0,1-1.561-4.829Z" transform="translate(-80.133 -82.815)" fill="#2a2b3d"/>
              <ellipse id="Ellipse_2" data-name="Ellipse 2" cx="2.486" cy="3.729" rx="2.486" ry="3.729" transform="translate(4.939 17.257) rotate(-25.405)" fill="#ee8545"/>
              <path id="Path_20" data-name="Path 20" d="M100.77,96.411c-.884,1.861-.6,3.847.646,4.437s2.963-.442,3.847-2.3.594-3.847-.646-4.435-2.963.438-3.847,2.3Z" transform="translate(-73.205 -77.919)" fill="#ee8545"/>
              <path id="Path_21" data-name="Path 21" d="M100.558,99.861s-1.59,2.061-3.551,2.061-3.553-2.061-3.553-2.061Z" transform="translate(-77.496 -74.188)" fill="#fff"/>
            </g>
            <path id="Path_22" data-name="Path 22" d="M112.83,127.549H88.971a2.775,2.775,0,0,1,0-5.549H112.83a2.774,2.774,0,0,1,0,5.549Z" transform="translate(-69.471 -50.596)" fill="#bbcc1a"/>
            <path id="Path_23" data-name="Path 23" d="M118.887,132.775h-32.6a2.774,2.774,0,1,1,0-5.548h32.6a2.774,2.774,0,1,1,0,5.548Z" transform="translate(-71.161 -47.299)" fill="#bbcc1a"/>
            <g id="Group_16" data-name="Group 16">
              <path id="Path_24" data-name="Path 24" d="M135.923,136.591H78.814a2.878,2.878,0,0,1-2.875-2.875V81.084a2.878,2.878,0,0,1,2.875-2.875h57.109a2.878,2.878,0,0,1,2.873,2.875v52.633a2.878,2.878,0,0,1-2.873,2.874ZM78.814,80.547a.544.544,0,0,0-.536.536v52.633a.544.544,0,0,0,.536.536h57.109a.543.543,0,0,0,.535-.536V81.084a.543.543,0,0,0-.535-.536Z" transform="translate(-75.939 -78.209)" fill="#84addc"/>
            </g>
          </g>
        </g>
        <g id="Group_22" data-name="Group 22" transform="translate(250.891 72.703)">
          <path id="Rectangle_3" data-name="Rectangle 3" d="M0,0H101.657V166.622H0Z" fill="#bbcc1a"/>
          <path id="Rectangle_4" data-name="Rectangle 4" d="M0,0H92.992V159.753H0Z" transform="translate(5.324 3.395)" fill="#fff"/>
          <g id="Group_21" data-name="Group 21" transform="translate(20.538 9.771)">
            <g id="Group_19" data-name="Group 19" transform="translate(12.601 10.633)">
              <path id="Path_25" data-name="Path 25" d="M225.367,95.058c0,7.463,4.492,19.5,15.093,19.118s12.945-11.864,13.356-15.1S225.367,95.058,225.367,95.058Z" transform="translate(-220.95 -78.218)" fill="#673c27"/>
              <path id="Path_26" data-name="Path 26" d="M222.658,116.724c3.5-7.53,9.423-9.942,19.151-9.942,11.582,0,17.6,4.2,19.3,10.305C240.369,117.371,222.658,116.724,222.658,116.724Z" transform="translate(-222.658 -70.825)" fill="#c93431"/>
              <path id="Path_27" data-name="Path 27" d="M237.89,119.918c-1.109,1.637-1.922,1.706-3.126,0-.957-1.355-2.842-4.435-2.842-6v-15.6a2.85,2.85,0,0,1,2.842-2.842h3.126a2.849,2.849,0,0,1,2.84,2.842v15.6C240.73,115.483,238.885,118.45,237.89,119.918Z" transform="translate(-216.816 -77.95)" fill="#ee8545"/>
              <path id="Path_28" data-name="Path 28" d="M237.89,95.482h-3.126a2.85,2.85,0,0,0-2.842,2.842v13.915c3.511,1.117,6.713-1.1,8.808-3.607V98.324a2.849,2.849,0,0,0-2.84-2.842Z" transform="translate(-216.816 -77.95)" fill="#dd6e2c"/>
              <ellipse id="Ellipse_3" data-name="Ellipse 3" cx="9.448" cy="12.873" rx="9.448" ry="12.873" transform="translate(10.063 4.817)" fill="#ee8545"/>
              <path id="Path_29" data-name="Path 29" d="M245.665,92.635c-1.123,3.959-3.582,3.913-7.013,5.213s-5.071,2.609-6.193,5.141c-1.432,3.23.651,12.645.651,12.645s-8.688-6.5-7.682-16.721,7.031-14.183,12.7-14.183,7.828,3.457,7.828,3.457,3.023.013,5.88,3.4c3.842,4.549,2.659,15.6,0,19.559s-4.432,5.2-4.372,5.022,2.482-9.268,1.181-14.89a35.937,35.937,0,0,0-2.98-8.643Z" transform="translate(-220.962 -84.73)" fill="#673c27"/>
              <path id="Path_30" data-name="Path 30" d="M239.548,99.861s-1.59,2.061-3.551,2.061-3.551-2.061-3.551-2.061Z" transform="translate(-216.487 -75.189)" fill="#fff"/>
            </g>
            <path id="Path_31" data-name="Path 31" d="M251.819,127.549H227.961a2.775,2.775,0,0,1,0-5.549h23.858a2.774,2.774,0,0,1,0,5.549Z" transform="translate(-208.462 -50.596)" fill="#bbcc1a"/>
            <path id="Path_32" data-name="Path 32" d="M257.877,132.775h-32.6a2.774,2.774,0,1,1,0-5.548h32.6a2.774,2.774,0,1,1,0,5.548Z" transform="translate(-210.152 -47.299)" fill="#bbcc1a"/>
            <g id="Group_20" data-name="Group 20">
              <path id="Path_33" data-name="Path 33" d="M274.912,136.591H217.8a2.878,2.878,0,0,1-2.875-2.875V81.084a2.878,2.878,0,0,1,2.875-2.875h57.107a2.878,2.878,0,0,1,2.875,2.875v52.633a2.878,2.878,0,0,1-2.87,2.874ZM217.8,80.547a.544.544,0,0,0-.536.536v52.633a.544.544,0,0,0,.536.536h57.107a.544.544,0,0,0,.536-.536V81.084a.544.544,0,0,0-.536-.536Z" transform="translate(-214.93 -78.209)" fill="#84addc"/>
            </g>
          </g>
        </g>
        <path id="Path_34" data-name="Path 34" d="M271.384,236.932H110.953L122.3,72.6H277.169Z" transform="translate(-9.007 0.726)" fill="#84addc" opacity="0.2"/>
        <g id="Group_26" data-name="Group 26" transform="translate(118.793 42.251)">
          <path id="Rectangle_5" data-name="Rectangle 5" d="M0,0H138.848V227.581H0Z" fill="#bbcc1a"/>
          <path id="Rectangle_6" data-name="Rectangle 6" d="M0,0H129.889V218.1H0Z" transform="translate(4.395 4.637)" fill="#fff"/>
          <g id="Group_25" data-name="Group 25" transform="translate(28.479 13.775)">
            <g id="Group_23" data-name="Group 23" transform="translate(15.178 9.9)">
              <path id="Path_35" data-name="Path 35" d="M158.435,94.011c-.09-.266-2.312-13.028-2.578-17.992s7.977-5.673,7.977-5.673,6.736-3.635,11.611-1.772a19.65,19.65,0,0,1,10.408,8.893c2.216,3.9-1.95,16.053-1.95,16.053Z" transform="translate(-143.151 -68.043)" fill="#21222f"/>
              <path id="Path_36" data-name="Path 36" d="M148.063,116.462c-.031-.21.569-5.232.592-5.436,1.122-10.578,14.16-13.552,27.17-13.552,15.285,0,25.655,2.8,27.31,13.788.047.321.929,5.358.885,5.7-28.328.385-55.957-.5-55.957-.5Z" transform="translate(-148.062 -49.485)" fill="#ccdae2"/>
              <path id="Path_37" data-name="Path 37" d="M170.544,115.416c-1.515,2.236-2.625,2.328-4.269,0-1.308-1.852-5.673-6.076-5.673-8.21l1.79-21.285a3.892,3.892,0,0,1,3.882-3.881h4.269a3.892,3.892,0,0,1,3.881,3.881l.832,21.285c0,2.135-3.356,6.2-4.712,8.21Z" transform="translate(-140.155 -59.218)" fill="#ee8545"/>
              <path id="Path_38" data-name="Path 38" d="M170.452,82.04h-4.269a3.893,3.893,0,0,0-3.882,3.881L160.747,104.8c4.792,1.526,11.266-1.577,14.129-4.994l-.543-13.889a3.892,3.892,0,0,0-3.881-3.877Z" transform="translate(-140.064 -59.218)" fill="#dd6e2c"/>
              <path id="Path_39" data-name="Path 39" d="M156.4,98.584l6.843,12.65s3.664-3.015,4.018-2.423-.651,8.047-.651,8.047,8.154.111,8.51-.243-1.655-8.1-.828-8.1,3.317,2.245,3.317,2.245l7.641-12.177-1.68-.409-12.52,6.736-13.392-6.588Z" transform="translate(-142.802 -49.043)" fill="#aec1ca"/>
              <path id="Path_40" data-name="Path 40" d="M161.2,102.722l5.083,3.411-1.575,9.052,6.854-.383-1.712-8.234,4.213-3.847-1.979-1.865h-8.9Z" transform="translate(-139.775 -47.353)" fill="#c93431"/>
              <path id="Path_41" data-name="Path 41" d="M163.25,94.853l-6.286,5.981s6.4,11.391,6.759,11.391,5.435-6.281,5.435-6.281l3.253-.057,5.14,5.392,5.971-10.563-6.089-6.455s-5.2,10.046-6.146,10.282-.952.354-1.717-.236S163.25,94.853,163.25,94.853Z" transform="translate(-142.449 -51.511)" fill="#ccdae2"/>
              <ellipse id="Ellipse_4" data-name="Ellipse 4" cx="12.904" cy="17.583" rx="12.904" ry="17.583" transform="translate(15.349 5.456)" fill="#ee8545"/>
              <path id="Path_42" data-name="Path 42" d="M160.929,83.309c1.207,2.542.812,5.254-.882,6.058s-4.045-.6-5.252-3.144-.812-5.254.882-6.058S159.722,80.769,160.929,83.309Z" transform="translate(-144.258 -60.542)" fill="#ee8545"/>
              <path id="Path_43" data-name="Path 43" d="M172.406,83.309c-1.207,2.542-.812,5.254.882,6.058s4.045-.6,5.254-3.144.81-5.254-.882-6.058S173.613,80.769,172.406,83.309Z" transform="translate(-133.153 -60.542)" fill="#ee8545"/>
              <path id="Path_44" data-name="Path 44" d="M173.327,86.6s-2.562,4.151-5.723,4.151-5.725-4.151-5.725-4.151Z" transform="translate(-139.35 -56.344)" fill="#fff"/>
              <path id="Path_45" data-name="Path 45" d="M162.835,77.631c5.317-3.723,7.711-3.1,11.7,3.013s8.774,6.224,8.774,6.224l.621-6.341s-5.942-11.492-13.917-9.986S157.5,79.228,157.5,79.228s-.388,13.455.724,13.915,1.241-4.344,2.038-5.319-.8-5.583.266-7.711S162.835,77.631,162.835,77.631Z" transform="translate(-142.152 -66.554)" fill="#21222f"/>
              <path id="Path_46" data-name="Path 46" d="M171.238,79.077c1.856,2.033,1.153,10.1,2.126,10.017s1.331-7.713,1.065-8.51-3.191-1.507-3.191-1.507Z" transform="translate(-133.448 -61.086)" fill="#21222f"/>
            </g>
            <path id="Path_47" data-name="Path 47" d="M207.38,129.1H148.107a3.79,3.79,0,1,1,0-7.579H207.38a3.79,3.79,0,1,1,0,7.579Z" transform="translate(-135.246 -24.422)" fill="#bbcc1a"/>
            <path id="Path_48" data-name="Path 48" d="M197.151,136.238h-44.52a3.789,3.789,0,1,1,0-7.577H197.15a3.789,3.789,0,1,1,0,7.577Z" transform="translate(-132.393 -19.92)" fill="#bbcc1a"/>
            <g id="Group_24" data-name="Group 24">
              <path id="Path_49" data-name="Path 49" d="M220.253,140.857h-78a3.5,3.5,0,0,1-3.5-3.5V65.47a3.5,3.5,0,0,1,3.5-3.5h78a3.5,3.5,0,0,1,3.5,3.5v71.888A3.5,3.5,0,0,1,220.253,140.857Zm-78-76.547a1.161,1.161,0,0,0-1.159,1.159v71.888a1.16,1.16,0,0,0,1.159,1.159h78a1.16,1.16,0,0,0,1.159-1.159V65.47a1.161,1.161,0,0,0-1.159-1.159Z" transform="translate(-138.754 -61.972)" fill="#84addc"/>
            </g>
          </g>
        </g>
        <rect id="Rectangle_7" data-name="Rectangle 7" width="182.05" height="6.784" rx="1.189" transform="translate(300.429 255.676)" fill="#0d4a8a"/>
        <g id="Group_31" data-name="Group 31" transform="translate(372.245 139.733)">
          <path id="Path_50" data-name="Path 50" d="M380.739,133.5c2.413,8.512-3.483,17.281-9.977,19.123s-11.13-3.939-13.545-12.451.9-16.9,7.39-18.747S378.324,124.988,380.739,133.5Z" transform="translate(-226.668 -108.504)" fill="#ee8545"/>
          <path id="Path_51" data-name="Path 51" d="M351.912,229.835s16.646,25.854,18.9,26.979,7.869,1.4,5.761,5.621-2.951,20.8-4.918,21.639-18.83,2.809-16.3,0,4.085-1.406,5.361-6.464,3.069-14.615.68-16.581-17-19.673-17-19.673Z" transform="translate(-234.258 -39.917)" fill="#ee8545"/>
          <path id="Path_52" data-name="Path 52" d="M310.72,236.645s-20.235,33.35-23.982,36.347-16.113,7.5-6,8.244,14.99-3.372,21.359-5.246,14.24-3,11.243-7.869-1.753-15.507,4.709-22.251-7.329-9.225-7.329-9.225Z" transform="translate(-276.848 -35.623)" fill="#ee8545"/>
          <path id="Path_53" data-name="Path 53" d="M404.206,189.226s-50.091-1.309-69.951,14.99c-11.618,17.612-39.719,69.576-41.9,75.3,1.5,1.5,9.93,4.2,13.677,3.829,11.055-13.181,25.667-24.576,31.478-34.915,7.16-12.74,9.368-19.11,20.984-20.235s37.847-4.87,45.716-4.87,0-34.1,0-34.1Z" transform="translate(-267.072 -65.54)" fill="#030404"/>
          <path id="Path_54" data-name="Path 54" d="M396.036,294.427H393.41L374.581,215.87h5.777Z" transform="translate(-215.22 -48.723)" fill="#0d4a8a"/>
          <path id="Path_55" data-name="Path 55" d="M339.5,295.5h2.626l21.606-81.335h-5.776Z" transform="translate(-237.341 -49.797)" fill="#0d4a8a"/>
          <path id="Path_56" data-name="Path 56" d="M416.54,187.112l-29.124,5.027s-38.7.355-56.392,3.651c-16.094,3-18.466,21.284,0,46.465,10.489,14.305,19.36,25.716,37.5,38.581,4.614-3.388,6.379-4.668,7.654-12.82-1.313-1.8-4.711-13.064-5.766-15.269-10.031-20.971-23.422-28.6-23.607-30.66,2.249-3.654,59.553,19.043,70.946,5.692,10.876-12.747-1.211-40.667-1.211-40.667Z" transform="translate(-250.868 -66.857)" fill="#030404"/>
          <path id="Path_57" data-name="Path 57" d="M393.563,146.8a30.474,30.474,0,0,0-22.787,5.671c-6.384,6.508-13.607,17.238-13.165,34.941.563,22.482-3.48,23.925.737,30.108,17.581,7.261,47.65,38.455,40.57,5.012-5.128-24.216,11.244-42.264-1.963-69.125C395.88,151.227,394.537,149.107,393.563,146.8Z" transform="translate(-226.683 -92.482)" fill="#d3d61e"/>
          <path id="Path_58" data-name="Path 58" d="M357.606,193.707c-.342,11.72-2,15.172-.732,18.848,7.168.732,20.279,3.6,23.555,8.187,3.747,5.246,7.5,6,5.746,2.123s-6.371-9.368.75-28.23,10.491-31.6,3.5-44.717Z" transform="translate(-226.683 -90.31)" fill="#bbcc1a"/>
          <path id="Path_59" data-name="Path 59" d="M388.005,155.859a91.52,91.52,0,0,1-5.883-23.743l-12.365,3.652s7.026,15.738.28,21.359a64.417,64.417,0,0,0-4.82,4.4,30.474,30.474,0,0,1,22.788-5.668Z" transform="translate(-221.125 -101.536)" fill="#ee8545"/>
          <path id="Path_60" data-name="Path 60" d="M380.732,134.838c-.732-.652-1.648-1.466-2.612-2.317L368.035,135.5l-.021.055a41.231,41.231,0,0,1,3.15,12.317c3.005-1.823,6.3-4.8,10.059-9.99-.2-1.151-.365-2.182-.491-3.044Z" transform="translate(-219.362 -101.28)" fill="#dd6e2c"/>
          <path id="Path_61" data-name="Path 61" d="M402.913,148.971c-12.736,4.453-11.323,17.871-23.045,37.658-6.066,10.24-11.7,10.087-11.7,10.087a271.439,271.439,0,0,1-31.434-1.989c-10.775-1.317-11.458,1.89-3.964,4.569,15.114,5.4,30.8,11.22,43.445,9.816s34.276-33.673,35.39-42.072c1.543-11.617-2.279-20.313-8.692-18.069Z" transform="translate(-244.725 -91.131)" fill="#ee8545"/>
          <g id="Group_27" data-name="Group 27" transform="translate(106.857 85.558)">
            <path id="Path_62" data-name="Path 62" d="M387.154,250.694c-.792,0-1.6-.01-2.436-.031a121.043,121.043,0,0,1-23.121-2.845c-6.628-1.347-10.279-2.089-14.528-.059a3.274,3.274,0,1,1-2.824-5.908c6.229-2.976,11.442-1.916,18.657-.45a115.355,115.355,0,0,0,21.98,2.717c10.971.274,17.661-1.353,21.051-5.113,3.02-3.349,3.9-8.978,2.782-17.713-.385-2.99-.77-5.477-1.109-7.67-.957-6.19-1.59-10.277-.8-16.6.726-5.868,2.671-13.687,7.171-28.848a3.275,3.275,0,1,1,6.278,1.865c-8.389,28.25-7.964,31-6.173,42.581.346,2.232.737,4.763,1.132,7.837,1.386,10.772-.016,18.059-4.412,22.932C406.268,248.408,398.92,250.694,387.154,250.694Z" transform="translate(-342.382 -165.833)" fill="#0d4a8a"/>
          </g>
          <path id="Path_63" data-name="Path 63" d="M312.1,253.883c-13.428,6.566-20.654,10.33-24.957,9.971-1.016-.085-1.859-.189-2.565-.3-4.789,2.831-12.431,6.175-3.832,6.811,10.118.75,14.99-3.372,21.359-5.246s14.24-3,11.243-7.869a10.274,10.274,0,0,1-1.248-3.367Z" transform="translate(-276.848 -24.753)" fill="#c93431"/>
          <path id="Path_64" data-name="Path 64" d="M368.132,246.717c-.329,10.631-1.79,21.165-8.291,23.154a10.931,10.931,0,0,1-4.685.419c-1.022,1.264-2.27,1.278-3.944,3.139-2.531,2.809,14.333.843,16.3,0s2.811-17.424,4.918-21.639c1.73-3.464-1.753-4.271-4.3-5.073Z" transform="translate(-230.119 -29.272)" fill="#c93431"/>
          <g id="Group_28" data-name="Group 28" transform="translate(23.129 73.196)">
            <path id="Path_65" data-name="Path 65" d="M354.2,201.9H311.544a3.275,3.275,0,0,1-2.969-1.9l-17.237-37.1a3.273,3.273,0,0,1,5.937-2.759l16.358,35.2H354.2a3.274,3.274,0,0,1,0,6.548Z" transform="translate(-291.033 -158.252)" fill="#5c90cc"/>
          </g>
          <path id="Path_66" data-name="Path 66" d="M349.911,178.9c-8.619-.124-17.167-5.262-21.413-4.512s-18.112,10.367-16.363,10.742,12.74-5.322,13.115-5.41,2.747,3.946,8.619,5.428.041-4.4,18.24,1.1c11.831,3.566-2.2-7.348-2.2-7.348Z" transform="translate(-254.693 -74.93)" fill="#ee8545"/>
          <path id="Path_67" data-name="Path 67" d="M389.7,140.419l1.267,10.2s-11.151.664-16.7,3.786-13.741,12.144-13.741,12.144l6.692-11.52.964-7.37Z" transform="translate(-224.085 -96.3)" fill="#bbcc1a"/>
          <path id="Path_68" data-name="Path 68" d="M400.628,148.159c-8.285-1.552-12.117,5.87-17.488,17.987s-14.54,26.831-16.363,28.729-30.726,0-30.726,0-.876,8.368,0,9.368,5.87.874,5.87.874,2,1.6,3.873,2.858,17.736,3.638,25.106,3.263,14.114-1,15.114-2.123,21.109-32.1,22.358-43.218-3.515-16.946-7.744-17.738Z" transform="translate(-239.762 -91.548)" fill="#d3d61e"/>
          <path id="Path_69" data-name="Path 69" d="M365.685,119.009c-15.666.75-13.209,24.32-13.209,24.32s4.068,1.256,12.594-.15c-.655-2.529-.375-8.993-.375-8.993a58.807,58.807,0,0,0,2.249,8.432c1.8.825,3.84.093,7.307-.745,1.781,7.489,6.809,10.654,10.253,11.737,3.806,1.2,7.833,2.622,12.33.375s2.023-25.233-.364-29.854c-3.584-6.936-9.542-13.146-19.846-9.868a76.643,76.643,0,0,0-10.939,4.746Z" transform="translate(-229.248 -113.362)" fill="#202f4e"/>
          <path id="Path_70" data-name="Path 70" d="M377.232,134.644,383.638,144s-7.1,17.737,13.547,25.773c16.17,6.294,14.266,17.382,6.958,28.535s4.373,20.889,4.373,20.889,1.781-12.353,17.491-14.685c21.421-3.18,27.487-31.94,11.487-46.321-13.24-11.9-17.269-2.045-26.231-12.723S385.382,142,385.382,142l-6.2-9.043Z" transform="translate(-213.549 -101.005)" fill="#202f4e"/>
          <g id="Group_29" data-name="Group 29" transform="translate(171.264 36.921)">
            <path id="Path_71" data-name="Path 71" d="M441.931,185.242a.562.562,0,0,1-.272-.068.57.57,0,0,1-.227-.775c5.386-9.844.991-21.77-1.22-25-.235-.342-.457-.69-.691-1.057-2.173-3.39-4.875-7.61-19.3-10.207-3.473-.624-6.286-2.689-9.265-4.875-6.15-4.515-13.121-9.633-28.268-2.661a.57.57,0,0,1-.478-1.035c15.756-7.253,23.015-1.924,29.42,2.778,2.868,2.1,5.578,4.094,8.792,4.673,14.913,2.684,17.765,7.135,20.056,10.713.23.36.448.7.673,1.027,2.315,3.385,6.92,15.88,1.278,26.192a.569.569,0,0,1-.5.295Z" transform="translate(-381.881 -136.005)" fill="#202f4e"/>
          </g>
          <g id="Group_30" data-name="Group 30" transform="translate(143.524 20.942)">
            <path id="Path_72" data-name="Path 72" d="M381.607,148.49a22.476,22.476,0,0,1-3.326-.269c-5.482-.82-12.834-3.936-13.411-21.427a.569.569,0,1,1,1.138-.038c.238,7.21,1.668,12.544,4.253,15.856a11.942,11.942,0,0,0,8.19,4.482c5.071.76,8.435-.176,9.992-2.783a.57.57,0,1,1,.978.585c-1.429,2.391-4.051,3.594-7.814,3.594Z" transform="translate(-364.869 -126.205)" fill="#202f4e"/>
          </g>
        </g>
        <path id="Path_73" data-name="Path 73" d="M244.455,312.453h4.209l16.375-125.171h-9.261Z" transform="translate(75.104 72.984)" fill="#0d4a8a"/>
        <path id="Path_74" data-name="Path 74" d="M340.015,312.453h-4.209L319.43,187.282h9.261Z" transform="translate(122.334 72.984)" fill="#0d4a8a"/>
        <g id="Group_32" data-name="Group 32" transform="translate(576.464 250.622)">
          <path id="Path_75" data-name="Path 75" d="M436.231,199.25c7.282,6.649,4.116,13.3-1.267,25.647s-6.333,57.946-6.333,57.946l4.434-.633s-.633-46.863,5.382-59.529,8.549-19,13.933-14.882-16.149-8.549-16.149-8.549Z" transform="translate(-385.357 -170.091)" fill="#6ca75a"/>
          <path id="Path_76" data-name="Path 76" d="M430.99,201.917c.885-3.941,6.137-8.205,13.162-11.822-1.045,5.813-4.393,15.314-.928,17.264,4.673,2.628.455-10.639,2.258-17.933a86.774,86.774,0,0,1,21.835-7.161l-.029.08c-4.116,10.449-9.5,14.566-7.282,16.149,1.668,1.19,7.1-10.879,14.271-17.067,5.384-.287,9.938.443,12.632,2.576,4.165,3.3,6.961,6.222,2.772,16.26a18.818,18.818,0,0,1-9.094,3.3c-9.5.949-13.932,1.265-7.282,4.432,3.256,1.551,8.714-.086,13.139-1.084-1.435,2.645-3.2,5.638-5.345,9.05a33.613,33.613,0,0,1-4.45,5.663c-3.062.587-5.73.594-7.143-.011-4.434-1.9-15.833-7.916-18.683-5.384-2.788,2.48,21.113,4.05,19.456,10.351-11.585,6.674-24.842,3.5-27.185-2.63-3.147-8.235-14.767-10.171-12.1-22.033Z" transform="translate(-384.118 -181.367)" fill="#95c885"/>
          <path id="Path_77" data-name="Path 77" d="M459.386,223.149c-12.666-9.5-25.647-.634-32.3,9.5s-1.9,32.931-1.9,32.931,2.534,0,2.534-.949-6.966-26.914,9.5-38.631c10.3-7.328,17.731-3.8,18.681-.316s-4.117,9.816-4.117,9.816Z" transform="translate(-388.564 -157.577)" fill="#6ca75a"/>
          <path id="Path_78" data-name="Path 78" d="M427.877,209.606c12.666,0,16.783,19.632,13.3,31.031s-8.233,32.615-8.233,32.615l-3.165-3.167s12.032-29.764,9.182-43.063-9.816-15.515-11.083-15.515,0-1.9,0-1.9Z" transform="translate(-386.187 -163.561)" fill="#95c885"/>
          <path id="Path_79" data-name="Path 79" d="M435.4,229.774a9.208,9.208,0,0,1,3.335-2.8,24.7,24.7,0,0,1-.659,2.713c-1.587,5.193-3.436,12.425-4.98,18.76l-.69-3.99c-.08-.455-.142-.951-.184-1.474a123,123,0,0,0,3.178-13.209Z" transform="translate(-383.09 -152.61)" fill="#6ca75a"/>
          <path id="Path_80" data-name="Path 80" d="M438.832,235.654c24.066-10.132,11.386-24.038,32.6-14.854a15.754,15.754,0,0,1,5.138,4.526,15.782,15.782,0,0,1-6.721.54c-6.333-.951-4.117,4.116,6.333,5.383a23.462,23.462,0,0,1,4.9,1.034c4.976,9.56,7.22,22.141-3.313,26.515a23.891,23.891,0,0,1-7.5,1.538c-3.25-2.583.794-17.533-4.217-15.471-4.812,1.981,1.507,12.818.641,15.548a69.378,69.378,0,0,1-15.032-2.108,7.481,7.481,0,0,1-3.975-4.572c-1.582-6.649,8.867-10.767,9.183-16.465.292-5.241-3.83,11.526-14.747,14-9.875-4.619-14.54-10.877-3.29-15.614Z" transform="translate(-383.055 -158.394)" fill="#95c885"/>
          <path id="Path_81" data-name="Path 81" d="M440.722,226.64c2.534-5.384-4.116-6.649-3.8-2.534.28,3.648.311,12.515-3.429,14.928a58.7,58.7,0,0,1-21.864-7.261,2.679,2.679,0,0,1,.279-1.65c2.849-5.7,21.215-10.45,15.515-12.35-4.54-1.513-12.493,7.419-18.9,11.916-3.85-2.92-6.429-6.4-6.429-10.289,0-5.26,6.392-11.215,14.657-14.06,3.721.375,7.176,2.408,12.573,5.467,7.974,4.518,6.131-2.787-1.409-7.122a22.707,22.707,0,0,1,17.783,9.761s-.453,2.84,2.552,7.232c8.2,11.983-1.262,18.978-12.573,18.523.639-3.159,3.3-8.842,5.045-12.561Z" transform="translate(-402.092 -167.295)" fill="#95c885"/>
          <path id="Path_82" data-name="Path 82" d="M446.154,221.283c6.191,4.786,13.071,10.38,21.515,14.179s6.754,16.185,6.754,16.185,1.267-10.7-5.769-14.355-11.681-8.021-17.03-8.865a77.363,77.363,0,0,1-8.3-1.689s1.688-3.377.7-4.644,2.13-.811,2.13-.811Z" transform="translate(-376.094 -156.248)" fill="#6ca75a"/>
          <path id="Path_83" data-name="Path 83" d="M481.356,186.793C458.7,192.844,442.092,207.34,439,210.859s-3.1,4.5-3.1,4.5l2.392,4.5,1.127-.563s-1.83-3.8,2.955-8.727c8.252-8.494,18.3-15.2,25.192-18.155s13.79-5.621,13.79-5.621Z" transform="translate(-380.774 -177.946)" fill="#6ca75a"/>
          <path id="Rectangle_8" data-name="Rectangle 8" d="M6.836,0H24.113a6.836,6.836,0,0,1,6.836,6.836v24.2H0V6.836A6.836,6.836,0,0,1,6.836,0Z" transform="translate(57.84 134.266) rotate(180)" fill="#5c90cc"/>
          <path id="Rectangle_9" data-name="Rectangle 9" d="M0,0H30.949V2.179H0Z" transform="translate(26.891 106.786)" fill="#fff"/>
          <path id="Rectangle_10" data-name="Rectangle 10" d="M0,0H30.949V1.282H0Z" transform="translate(26.891 110.759)" fill="#fff"/>
        </g>
        <g id="Group_33" data-name="Group 33" transform="translate(0 346.082)">
          <rect id="Rectangle_11" data-name="Rectangle 11" width="13.032" height="11.729" rx="1.732" transform="translate(60.42 11.73) rotate(180)" fill="#d8ce95"/>
          <rect id="Rectangle_12" data-name="Rectangle 12" width="13.032" height="11.729" rx="1.732" transform="translate(36.726 11.73) rotate(180)" fill="#d8ce95"/>
          <rect id="Rectangle_13" data-name="Rectangle 13" width="13.032" height="11.729" rx="1.732" transform="translate(13.032 11.728) rotate(180)" fill="#d8ce95"/>
        </g>
        <g id="Group_34" data-name="Group 34" transform="translate(665.131 129.09)">
          <rect id="Rectangle_14" data-name="Rectangle 14" width="13.032" height="11.729" rx="1.732" transform="translate(11.729 0.001) rotate(90)" fill="#d8ce95"/>
          <rect id="Rectangle_15" data-name="Rectangle 15" width="13.032" height="11.729" rx="1.732" transform="translate(11.729 23.695) rotate(90)" fill="#d8ce95"/>
          <rect id="Rectangle_16" data-name="Rectangle 16" width="13.032" height="11.729" rx="1.732" transform="translate(11.729 47.389) rotate(90)" fill="#d8ce95"/>
        </g>
      </g>
      <g id="Group_38" data-name="Group 38" transform="translate(216.477 205.645)">
        <g id="Group_36" data-name="Group 36" transform="translate(0 9.931)">
          <path id="Rectangle_17" data-name="Rectangle 17" d="M0,0H8.337V51.931H0Z" transform="translate(0 14.475)" fill="#95bae3"/>
          <path id="Rectangle_18" data-name="Rectangle 18" d="M0,0H8.337V66.407H0Z" transform="translate(13.658)" fill="#95bae3"/>
          <path id="Rectangle_19" data-name="Rectangle 19" d="M0,0H8.337V39.373H0Z" transform="translate(28.56 27.034)" fill="#95bae3"/>
          <path id="Rectangle_20" data-name="Rectangle 20" d="M0,0H8.337V57.541H0Z" transform="translate(43.061 8.866)" fill="#95bae3"/>
          <path id="Rectangle_21" data-name="Rectangle 21" d="M0,0H8.337V31.667H0Z" transform="translate(57.638 34.74)" fill="#95bae3"/>
        </g>
        <g id="Group_37" data-name="Group 37" transform="translate(14.121)">
          <path id="Path_84" data-name="Path 84" d="M178.728,143.763h-7.06a.73.73,0,0,0,0,1.461h7.06a.73.73,0,0,0,0-1.461Z" transform="translate(-141.846 -132.452)" fill="#95bae3"/>
          <path id="Path_85" data-name="Path 85" d="M173.275,145.393h-1.608a.73.73,0,1,0,0,1.459h1.608a.73.73,0,1,0,0-1.459Z" transform="translate(-141.846 -131.424)" fill="#95bae3"/>
          <path id="Path_86" data-name="Path 86" d="M160.885,136.826h-7.06a.73.73,0,1,0,0,1.461h7.06a.73.73,0,1,0,0-1.461Z" transform="translate(-153.096 -136.826)" fill="#95bae3"/>
          <path id="Path_87" data-name="Path 87" d="M155.434,138.456h-1.609a.731.731,0,0,0,0,1.461h1.609a.731.731,0,0,0,0-1.461Z" transform="translate(-153.096 -135.798)" fill="#95bae3"/>
          <path id="Path_88" data-name="Path 88" d="M169.686,154.743h-7.06a.731.731,0,0,0,0,1.461h7.06a.731.731,0,1,0,0-1.461Z" transform="translate(-147.548 -125.528)" fill="#95bae3"/>
          <path id="Path_89" data-name="Path 89" d="M164.233,156.373h-1.608a.73.73,0,1,0,0,1.459h1.608a.729.729,0,1,0,0-1.459Z" transform="translate(-147.548 -124.5)" fill="#95bae3"/>
          <path id="Path_90" data-name="Path 90" d="M187.519,159.5h-7.06a.73.73,0,0,0,0,1.461h7.06a.73.73,0,1,0,0-1.461Z" transform="translate(-136.303 -122.531)" fill="#95bae3"/>
          <path id="Path_91" data-name="Path 91" d="M182.066,161.126h-1.608a.73.73,0,0,0,0,1.461h1.608a.73.73,0,1,0,0-1.461Z" transform="translate(-136.303 -121.503)" fill="#95bae3"/>
        </g>
      </g>
      <g id="Group_39" data-name="Group 39" transform="translate(321.822 205.802)">
        <path id="Path_92" data-name="Path 92" d="M209.071,149.977s15.306-1.906,24.657,6.71,26.776.763,33.792,0c12.2-1.327,21.758,2.663,24.594,7.049V176.9H209.071Z" transform="translate(-209.071 -128.8)" fill="#ec8436"/>
        <path id="Rectangle_22" data-name="Rectangle 22" d="M0,0H3.257V20.548H0Z" transform="translate(9.248 0.001)" fill="#95bae3"/>
        <path id="Rectangle_23" data-name="Rectangle 23" d="M0,0H3.259V20.548H0Z" transform="translate(34.415 8.818)" fill="#95bae3"/>
        <path id="Rectangle_24" data-name="Rectangle 24" d="M0,0H3.261V20.548H0Z" transform="translate(64.386 24.718) rotate(180)" fill="#95bae3"/>
        <path id="Path_93" data-name="Path 93" d="M227.036,138.733H218.7a.907.907,0,0,1,0-1.814h8.34a.907.907,0,0,1,0,1.814Z" transform="translate(-203.574 -136.92)" fill="#95bae3"/>
        <path id="Path_94" data-name="Path 94" d="M227.036,140.735H218.7a.907.907,0,1,1,0-1.814h8.34a.907.907,0,0,1,0,1.814Z" transform="translate(-203.574 -135.658)" fill="#95bae3"/>
      </g>
      <path id="Path_95" data-name="Path 95" d="M242.042,146.034H233.7a.907.907,0,1,1,0-1.814h8.34a.907.907,0,0,1,0,1.814Z" transform="translate(127.708 73.488)" fill="#95bae3"/>
      <path id="Path_96" data-name="Path 96" d="M242.042,148.035H233.7a.907.907,0,1,1,0-1.814h8.34a.907.907,0,0,1,0,1.814Z" transform="translate(127.708 74.749)" fill="#95bae3"/>
      <path id="Path_97" data-name="Path 97" d="M258.229,144.477h-8.34a.907.907,0,1,1,0-1.814h8.34a.907.907,0,1,1,0,1.814Z" transform="translate(137.905 72.507)" fill="#95bae3"/>
      <path id="Path_98" data-name="Path 98" d="M258.229,146.479h-8.34a.907.907,0,0,1,0-1.814h8.34a.907.907,0,1,1,0,1.814Z" transform="translate(137.905 73.769)" fill="#95bae3"/>
      <g id="Group_43" data-name="Group 43" transform="translate(96.169 211.824)">
        <circle id="Ellipse_5" data-name="Ellipse 5" cx="15.613" cy="15.613" r="15.613" transform="translate(0 29.46) rotate(-70.645)" fill="#84addc" opacity="0.2"/>
        <g id="Group_40" data-name="Group 40" transform="translate(45.363 11.184)">
          <path id="Path_99" data-name="Path 99" d="M126,147.472H100.131a1.7,1.7,0,1,0,0,3.4H126a1.7,1.7,0,0,0,0-3.4Z" transform="translate(-98.427 -147.472)" fill="#95bae3"/>
          <path id="Path_100" data-name="Path 100" d="M126,151.776H100.131a1.7,1.7,0,1,0,0,3.4H126a1.7,1.7,0,1,0,0-3.4Z" transform="translate(-98.427 -144.758)" fill="#95bae3"/>
          <path id="Path_101" data-name="Path 101" d="M126,156.079H100.131a1.705,1.705,0,0,0,0,3.41H126a1.7,1.7,0,1,0,0-3.41Z" transform="translate(-98.427 -142.045)" fill="#95bae3"/>
        </g>
        <path id="Path_102" data-name="Path 102" d="M74.047,158.21h14.3v-14.3A14.3,14.3,0,0,0,74.047,158.21Z" transform="translate(-68.437 -138.531)" fill="#a0c88c"/>
        <path id="Path_103" data-name="Path 103" d="M102.637,152.964H74.047a14.295,14.295,0,1,0,28.59,0Z" transform="translate(-68.437 -132.825)" fill="#ef903b"/>
        <g id="Group_41" data-name="Group 41" transform="translate(8.876 12.33)">
          <path id="Path_104" data-name="Path 104" d="M84.61,148.175H76.852a.8.8,0,1,0,0,1.6H84.61a.8.8,0,1,0,0-1.6Z" transform="translate(-76.05 -148.175)" fill="#78a564"/>
          <path id="Path_105" data-name="Path 105" d="M78.62,149.966H76.852a.8.8,0,1,0,0,1.6H78.62a.8.8,0,1,0,0-1.6Z" transform="translate(-76.05 -147.046)" fill="#78a564"/>
        </g>
        <g id="Group_42" data-name="Group 42" transform="translate(20.394 23.633)">
          <path id="Path_106" data-name="Path 106" d="M91.674,155.107H83.916a.8.8,0,1,0,0,1.606h7.758a.8.8,0,1,0,0-1.606Z" transform="translate(-83.114 -155.107)" fill="#d67325"/>
          <path id="Path_107" data-name="Path 107" d="M85.682,156.9H83.916a.8.8,0,0,0,0,1.6h1.766a.8.8,0,0,0,0-1.6Z" transform="translate(-83.114 -153.978)" fill="#d67325"/>
        </g>
      </g>
    </g>
  </g>
</svg>
