<svg id="Group_18" data-name="Group 18" xmlns="http://www.w3.org/2000/svg" xmlns:xlink="http://www.w3.org/1999/xlink" width="76.188" height="30.499" viewBox="0 0 76.188 30.499">
  <defs>
    <style>
      .cls-1 {
        fill: none;
      }

      .cls-2 {
        clip-path: url(#clip-path);
      }

      .cls-3 {
        fill: #fff;
      }

      .cls-4 {
        fill: #1a1818;
      }

      .cls-5 {
        clip-path: url(#clip-path-2);
      }

      .cls-6 {
        clip-path: url(#clip-path-3);
      }
    </style>
    <clipPath id="clip-path">
      <path id="Path_20" data-name="Path 20" class="cls-1" d="M201.7,361.655c4.7-4.311,4.117-6.978,4.117-6.978-.274-8.114-8.447-8.18-8.447-8.18H182v6.312l4.062.066v17.758h-4.116v6.351h15.642a7.865,7.865,0,0,0,8.114-7.214C206.132,364.987,201.7,361.655,201.7,361.655Zm-8.977-8.35H198.8v4.547h-6.076Zm6.194,17.132h-6.194v-5.018h6.194Z" transform="translate(-181.944 -346.497)"/>
    </clipPath>
    <clipPath id="clip-path-2">
      <path id="Path_21" data-name="Path 21" class="cls-1" d="M307.5,352.785v-6.351h11.722l5.1,13.721,4.9-13.643h11.8v6.193H336.98v17.876h4.038v6.272H330.511V359.332l-6.193,17.484-6.273-17.523v17.562H307.421V370.5h4.195V352.825Z" transform="translate(-307.421 -346.435)"/>
    </clipPath>
    <clipPath id="clip-path-3">
      <path id="Path_22" data-name="Path 22" class="cls-1" d="M97.1,377.264v-6.322h4.245V353.18h-4.3v-6.232h14.993v6.141h-4.094v17.884h4.155v6.261Z" transform="translate(-97.04 -346.947)"/>
    </clipPath>
  </defs>
  <g id="Group_15" data-name="Group 15">
    <g id="Group_8" data-name="Group 8" transform="translate(17.189 0.013)">
      <g id="Group_7" data-name="Group 7" class="cls-2" transform="translate(0 0)">
        <g id="Group_6" data-name="Group 6" transform="translate(-20.74 -0.11)">
          <rect id="Rectangle_9" data-name="Rectangle 9" class="cls-3" width="84.405" height="1.829" transform="translate(0 26.459)"/>
          <rect id="Rectangle_10" data-name="Rectangle 10" class="cls-4" width="84.405" height="2.362" transform="translate(0 28.202)"/>
          <rect id="Rectangle_11" data-name="Rectangle 11" class="cls-3" width="84.405" height="1.829" transform="translate(0 22.657)"/>
          <rect id="Rectangle_12" data-name="Rectangle 12" class="cls-4" width="84.405" height="2.362" transform="translate(0 24.399)"/>
          <rect id="Rectangle_13" data-name="Rectangle 13" class="cls-3" width="84.405" height="1.829" transform="translate(0 18.538)"/>
          <rect id="Rectangle_14" data-name="Rectangle 14" class="cls-4" width="84.405" height="2.362" transform="translate(0 20.28)"/>
          <rect id="Rectangle_15" data-name="Rectangle 15" class="cls-3" width="84.405" height="1.829" transform="translate(0 14.418)"/>
          <rect id="Rectangle_16" data-name="Rectangle 16" class="cls-4" width="84.405" height="2.362" transform="translate(0 16.161)"/>
          <rect id="Rectangle_17" data-name="Rectangle 17" class="cls-3" width="84.405" height="1.83" transform="translate(0 10.298)"/>
          <rect id="Rectangle_18" data-name="Rectangle 18" class="cls-4" width="84.405" height="2.362" transform="translate(0 12.041)"/>
          <rect id="Rectangle_19" data-name="Rectangle 19" class="cls-3" width="84.405" height="1.828" transform="translate(0 6.496)"/>
          <rect id="Rectangle_20" data-name="Rectangle 20" class="cls-4" width="84.405" height="2.362" transform="translate(0 8.239)"/>
          <rect id="Rectangle_21" data-name="Rectangle 21" class="cls-3" width="84.405" height="1.83" transform="translate(0 2.377)"/>
          <rect id="Rectangle_22" data-name="Rectangle 22" class="cls-4" width="84.405" height="2.363" transform="translate(0 4.119)"/>
          <rect id="Rectangle_23" data-name="Rectangle 23" class="cls-4" width="84.405" height="2.363"/>
        </g>
      </g>
    </g>
    <g id="Group_11" data-name="Group 11" transform="translate(42.592 0)">
      <g id="Group_10" data-name="Group 10" class="cls-5">
        <g id="Group_9" data-name="Group 9" transform="translate(-46.143 -0.098)">
          <rect id="Rectangle_24" data-name="Rectangle 24" class="cls-3" width="84.405" height="1.829" transform="translate(0 26.459)"/>
          <rect id="Rectangle_25" data-name="Rectangle 25" class="cls-4" width="84.405" height="2.362" transform="translate(0 28.202)"/>
          <rect id="Rectangle_26" data-name="Rectangle 26" class="cls-3" width="84.405" height="1.829" transform="translate(0 22.657)"/>
          <rect id="Rectangle_27" data-name="Rectangle 27" class="cls-4" width="84.405" height="2.362" transform="translate(0 24.399)"/>
          <rect id="Rectangle_28" data-name="Rectangle 28" class="cls-3" width="84.405" height="1.829" transform="translate(0 18.538)"/>
          <rect id="Rectangle_29" data-name="Rectangle 29" class="cls-4" width="84.405" height="2.362" transform="translate(0 20.28)"/>
          <rect id="Rectangle_30" data-name="Rectangle 30" class="cls-3" width="84.405" height="1.829" transform="translate(0 14.418)"/>
          <rect id="Rectangle_31" data-name="Rectangle 31" class="cls-4" width="84.405" height="2.362" transform="translate(0 16.161)"/>
          <rect id="Rectangle_32" data-name="Rectangle 32" class="cls-3" width="84.405" height="1.83" transform="translate(0 10.298)"/>
          <rect id="Rectangle_33" data-name="Rectangle 33" class="cls-4" width="84.405" height="2.362" transform="translate(0 12.041)"/>
          <rect id="Rectangle_34" data-name="Rectangle 34" class="cls-3" width="84.405" height="1.828" transform="translate(0 6.496)"/>
          <rect id="Rectangle_35" data-name="Rectangle 35" class="cls-4" width="84.405" height="2.362" transform="translate(0 8.239)"/>
          <rect id="Rectangle_36" data-name="Rectangle 36" class="cls-3" width="84.405" height="1.83" transform="translate(0 2.377)"/>
          <rect id="Rectangle_37" data-name="Rectangle 37" class="cls-4" width="84.405" height="2.363" transform="translate(0 4.119)"/>
          <rect id="Rectangle_38" data-name="Rectangle 38" class="cls-4" width="84.405" height="2.363" transform="translate(0)"/>
        </g>
      </g>
    </g>
    <g id="Group_14" data-name="Group 14" transform="translate(0 0.104)">
      <g id="Group_13" data-name="Group 13" class="cls-6" transform="translate(0 0)">
        <g id="Group_12" data-name="Group 12" transform="translate(-3.551 -0.201)">
          <rect id="Rectangle_39" data-name="Rectangle 39" class="cls-3" width="84.405" height="1.829" transform="translate(0 26.459)"/>
          <rect id="Rectangle_40" data-name="Rectangle 40" class="cls-4" width="84.405" height="2.362" transform="translate(0 28.202)"/>
          <rect id="Rectangle_41" data-name="Rectangle 41" class="cls-3" width="84.405" height="1.829" transform="translate(0 22.657)"/>
          <rect id="Rectangle_42" data-name="Rectangle 42" class="cls-4" width="84.405" height="2.362" transform="translate(0 24.399)"/>
          <rect id="Rectangle_43" data-name="Rectangle 43" class="cls-3" width="84.405" height="1.829" transform="translate(0 18.538)"/>
          <rect id="Rectangle_44" data-name="Rectangle 44" class="cls-4" width="84.405" height="2.362" transform="translate(0 20.28)"/>
          <rect id="Rectangle_45" data-name="Rectangle 45" class="cls-3" width="84.405" height="1.829" transform="translate(0 14.418)"/>
          <rect id="Rectangle_46" data-name="Rectangle 46" class="cls-4" width="84.405" height="2.362" transform="translate(0 16.161)"/>
          <rect id="Rectangle_47" data-name="Rectangle 47" class="cls-3" width="84.405" height="1.83" transform="translate(0 10.298)"/>
          <rect id="Rectangle_48" data-name="Rectangle 48" class="cls-4" width="84.405" height="2.362" transform="translate(0 12.041)"/>
          <rect id="Rectangle_49" data-name="Rectangle 49" class="cls-3" width="84.405" height="1.828" transform="translate(0 6.496)"/>
          <rect id="Rectangle_50" data-name="Rectangle 50" class="cls-4" width="84.405" height="2.362" transform="translate(0 8.239)"/>
          <rect id="Rectangle_51" data-name="Rectangle 51" class="cls-3" width="84.405" height="1.83" transform="translate(0 2.377)"/>
          <rect id="Rectangle_52" data-name="Rectangle 52" class="cls-4" width="84.405" height="2.363" transform="translate(0 4.119)"/>
          <rect id="Rectangle_53" data-name="Rectangle 53" class="cls-4" width="84.405" height="2.363"/>
        </g>
      </g>
    </g>
  </g>
</svg>
