<svg xmlns="http://www.w3.org/2000/svg" viewBox="0 0 26 26" fill="#01be3f"><path d="M2.5 11v-1c0-.2-.1-.3-.3-.3H1.1C.7 9.6.5 9.4.5 9s.2-.6.6-.6h1.1c.2 0 .3-.1.3-.3V5.9c0-.2-.1-.3-.3-.3H1.1C.7 5.6.4 5.4.4 5s.2-.6.7-.6h1c.2 0 .3-.1.3-.3v-1c0-.4.2-.6.7-.6h1c.3 0 .3-.1.3-.3v-1c0-.4.2-.7.6-.7s.6.2.6.7v1.1c0 .2.1.3.3.3h2.2c.2 0 .3-.1.3-.3V1.2c0-.4.2-.6.6-.6s.6.2.6.6v1.1c0 .2.1.3.3.3h2.2c.2 0 .3-.1.3-.3V1.2c0-.4.2-.6.6-.6s.6.2.6.6v1.1c0 .2.1.3.3.3h2.2c.2 0 .3-.1.3-.3V1.2c0-.4.3-.6.6-.6.4 0 .6.2.6.6v1.1c0 .2 0 .3.3.3h2.2c.2 0 .3-.1.3-.3v-1c0-.4.2-.7.6-.7s.6.2.6.7v1c0 .2.1.3.3.3h1c.4 0 .7.2.7.7v1c0 .2.1.3.3.3h1c.4 0 .7.2.7.6s-.2.6-.7.6h-1c-.2 0-.3.1-.3.3v2.2c0 .2.1.3.3.3H25c.4 0 .6.2.6.6s-.2.6-.6.6h-1.1c-.2 0-.3.1-.3.3v2.2c0 .2.1.3.3.3H25c.4 0 .6.2.6.6s-.2.6-.6.6h-1.1c-.2 0-.3.1-.3.3v2.2c0 .2.1.3.3.3H25c.4 0 .6.2.6.6s-.2.6-.6.6h-1.1c-.2 0-.3.1-.3.3v2.2c0 .2.1.3.3.3h1c.4 0 .7.2.7.6s-.2.6-.7.6h-1c-.2 0-.3.1-.3.3v1c0 .5-.2.7-.7.7h-1c-.3 0-.3.1-.3.3v.9c0 .5-.2.7-.6.7s-.6-.3-.6-.7v-1c0-.2-.1-.3-.3-.3h-2.2c-.2 0-.3.1-.3.3v1.1c0 .4-.2.6-.6.6s-.6-.2-.6-.6V24c0-.2-.1-.3-.3-.3h-2.2c-.2 0-.3.1-.3.3v1.1c0 .4-.3.6-.6.6-.4 0-.6-.2-.6-.6V24c0-.2-.1-.3-.3-.3H10c-.2 0-.3.1-.3.3v1.1c0 .4-.3.6-.6.6-.4 0-.6-.2-.6-.6V24c0-.2-.1-.3-.3-.3H6.1c-.2 0-.3.1-.3.3v1.1c0 .4-.3.6-.6.6-.4 0-.6-.2-.6-.6v-1c0-.3-.1-.4-.4-.3h-.9c-.5 0-.7-.2-.7-.7v-.9c0-.3-.1-.4-.4-.3h-1c-.4 0-.6-.2-.6-.6s.2-.6.6-.6h1.1c.2 0 .3-.1.3-.3v-2.2c0-.2-.1-.3-.3-.3H1.2c-.4 0-.6-.2-.6-.6s.2-.6.6-.6h1.1c.2 0 .3-.1.3-.3v-2.2c0-.2-.1-.3-.3-.3h-1c-.4 0-.7-.2-.7-.6s.2-.6.7-.6h1.1c.2 0 .3-.1.3-.3-.2-.7-.2-1-.2-1.4zm1.2 2v8.9c0 .3.1.4.4.4h17.8c.4 0 .4 0 .4-.4V4.2c0-.4 0-.4-.4-.4H4.2c-.4 0-.4 0-.4.4L3.7 13zm9.3 7.9H6c-.6 0-.9-.2-.9-.8V6c0-.7.2-.9.9-.9h14c.6 0 .9.2.9.8V20c0 .6-.2.8-.9.8l-7 .1zM6.4 13v6.3c0 .3.1.4.4.4h12.5c.3 0 .4-.1.4-.4V6.8c0-.3-.1-.4-.4-.4H6.8c-.3 0-.4.1-.4.4V13zm2.7.6v-2.5c0-1.1.7-1.9 1.8-2.1.9 0 2 .6 2.1 2v5.2a.68.68 0 0 1-.7.7c-.4 0-.6-.3-.6-.7v-1.6c0-.3-.1-.4-.4-.4h-.7c-.2 0-.3.1-.3.3v1.6c0 .4-.3.7-.6.7-.4 0-.6-.3-.6-.7v-2.5zm2.6-1.7V11a.68.68 0 0 0-.7-.7.68.68 0 0 0-.7.7v1.8c0 .2.1.2.2.2h.9c.2 0 .2-.1.2-.2.1-.3.1-.6.1-.9zm3.3-1.5c-.3-.1-.6-.2-.6-.6s.2-.6.6-.7h1.4a.65.65 0 0 1 .6.6c0 .3-.2.6-.5.7-.2.1-.2.2-.2.3v4.8c0 .2 0 .2.2.3.3.1.5.4.4.7a.65.65 0 0 1-.6.6h-1.4c-.3 0-.5-.2-.6-.5 0-.3.1-.6.4-.7.1 0 .2-.1.2-.2v-5l.1-.3z"/></svg>