<svg xmlns="http://www.w3.org/2000/svg" width="26" height="26" viewBox="0 0 26 26">
  <path id="Shape" d="M13,26h-.081a13.078,13.078,0,0,1-3.543-.5l-.781-.219.062-.781A2.281,2.281,0,0,0,7.5,22.375l-.094-.031a2.324,2.324,0,0,0-2.344.125l-.656.437-.594-.562a12.792,12.792,0,0,1-2.25-2.812A13.038,13.038,0,0,1,.187,16.156L0,15.375l.719-.344A2.258,2.258,0,0,0,2,13,2.268,2.268,0,0,0,.719,10.968L0,10.625l.187-.782A12.925,12.925,0,0,1,3.812,3.656l.594-.562.656.438a2.4,2.4,0,0,0,1.31.394,2.239,2.239,0,0,0,1.128-.3A2.278,2.278,0,0,0,8.656,1.5L8.594.719,9.375.5A13.424,13.424,0,0,1,13.031,0a13.227,13.227,0,0,1,3.594.5l.781.219-.062.781A2.27,2.27,0,0,0,18.5,3.625a2.239,2.239,0,0,0,1.128.3,2.4,2.4,0,0,0,1.309-.394l.656-.438.594.563a13.015,13.015,0,0,1,3.625,6.188l.187.782-.719.343a2.251,2.251,0,0,0,0,4.063l.719.344-.187.781a2.826,2.826,0,0,1-.094.313c0,.006-.008.022-.014.04l-.007.022a.32.32,0,0,1-.01.032v.031h-.063A12.825,12.825,0,0,1,24.438,19.5a13.079,13.079,0,0,1-2.25,2.843l-.594.532-.656-.437a2.334,2.334,0,0,0-1.269-.377,2.386,2.386,0,0,0-1.168.314,2.243,2.243,0,0,0-1.156,2.093l.062.813-.781.219A13.468,13.468,0,0,1,13,26ZM6.615,20.167a3.792,3.792,0,0,1,1.885.489,4.07,4.07,0,0,1,1.938,3A11.491,11.491,0,0,0,12.943,24H13a11.413,11.413,0,0,0,2.563-.375,4.166,4.166,0,0,1,1.937-3,3.65,3.65,0,0,1,1.834-.474,5.168,5.168,0,0,1,1.791.349,10.571,10.571,0,0,0,1.594-2,10.624,10.624,0,0,0,.938-2.344A4.146,4.146,0,0,1,22,13a4.149,4.149,0,0,1,1.657-3.156A10.751,10.751,0,0,0,22.719,7.5a10.807,10.807,0,0,0-1.594-2,4.965,4.965,0,0,1-1.739.333,3.773,3.773,0,0,1-1.886-.49,4.065,4.065,0,0,1-1.937-3A11.618,11.618,0,0,0,13.031,2a11.082,11.082,0,0,0-2.594.344,4.082,4.082,0,0,1-1.938,3,3.738,3.738,0,0,1-1.866.482A5.014,5.014,0,0,1,4.906,5.5,10.841,10.841,0,0,0,2.312,9.843,4.034,4.034,0,0,1,4,13a4.148,4.148,0,0,1-1.687,3.188A10.434,10.434,0,0,0,3.281,18.5a10.807,10.807,0,0,0,1.594,2A4.974,4.974,0,0,1,6.615,20.167ZM7,17H5V15.844l.062-.156L7,9.688,7.219,9H8.781L9,9.688l1.938,6,.062.156V17H9v-.875L8.969,16H7.031L7,16.125V17Zm1-3.938H8L7.688,14h.625L8,13.063ZM20,17H18V9h2v8Zm-6,0H12V9h2a3,3,0,0,1,0,6v2Zm0-6v2a1,1,0,0,0,0-2Z" fill="#01be3f"/>
</svg>
