<svg xmlns="http://www.w3.org/2000/svg" width="24.031" height="24"><path d="M21.03 24h-2L19 12h-.968A2.06 2.06 0 0 1 16 9.968v-.03L16.03 9a2.02 2.02 0 0 1 2.031-2h.97V0h2v7H22a2.02 2.02 0 0 1 2.031 2v.03l-.03.937V10c-.013 1.1-.9 1.987-2 2h-1l.03 12zm-3-15.01v.042l-.03.937V10h4c.004-.014.001-.023 0-.032v-.03l.03-.95c-.01.007-.02.01-.03.01h-3.938c-.008 0-.017-.003-.023-.008zM5.03 24h-2L3 8h-.97A2.06 2.06 0 0 1 0 5.969v-.032L.032 5a2.02 2.02 0 0 1 2.031-2h.968V0h2v3H6a2.02 2.02 0 0 1 2.032 2v.03L8 5.97V6a2.02 2.02 0 0 1-2 2H5l.03 16zm-3-19.01v.042L2 5.97V6h4c.004-.014.001-.022 0-.03v-.032L6.03 5l-.005-.01C6.02 4.996 6 5 6 5H2.063c-.008 0-.016-.002-.023-.007zm9 19.01L11 20h-.968A2.06 2.06 0 0 1 8 17.969v-.03L8.032 17a2.02 2.02 0 0 1 2.031-2h.968V0h2v15H14a2.02 2.02 0 0 1 2.03 2v.03l-.03.938V18c-.012 1.1-.9 1.988-2 2h-1l.03 3.97zm-1-7.01v.04l-.03.94V18h4c.004-.014.001-.022 0-.03v-.03l.03-.938h-.005A.04.04 0 0 1 14 17h-3.937c-.008 0-.016-.003-.023-.008z" fill="#01be3f"/></svg>