<svg xmlns="http://www.w3.org/2000/svg" width="41" height="44" viewBox="0 0 41 44">
  <path id="Path" d="M36.408,30.625c-2.655-2.274-5.358-3.655-7.98-1.382l-1.569,1.368c-1.147,1-3.279,5.654-11.52-3.836C7.1,17.3,12,15.829,13.153,14.843l1.576-1.375c2.609-2.274,1.623-5.138-.262-8.089L13.334,3.6C11.443.658,9.378-1.274,6.762.993L5.348,2.234A13.251,13.251,0,0,0,.171,11.02c-.946,6.244,2.039,13.4,8.858,21.248S22.521,44.066,28.838,44a13.341,13.341,0,0,0,9.421-3.9l1.415-1.241c2.615-2.267.992-4.581-1.67-6.855Z" fill="#01be3f"/>
</svg>
