<svg xmlns="http://www.w3.org/2000/svg" width="16" height="16"><path d="M15.844,6.433H15.2V6.4H8V9.6h4.522a4.8,4.8,0,1,1-1.338-5.184l2.263-2.262a7.982,7.982,0,1,0,2.4,4.28Z" fill="#ffc107"/><path d="M.922 4.277L3.552 6.2a4.79 4.79 0 0 1 7.633-1.789l2.262-2.262C11.626.447 9.115-.307 6.657.1S2.08 2.07.922 4.277z" fill="#ff3d00"/><path d="M8 16c1.984 0 3.897-.74 5.364-2.078l-2.477-2.1c-.83.63-1.844.972-2.887.972a4.8 4.8 0 0 1-4.513-3.172l-2.61 2.01C2.24 14.31 4.993 16 8 16z" fill="#4caf50"/><path d="M15.844 6.433H15.2V6.4H8v3.2h4.522a4.82 4.82 0 0 1-1.636 2.228l2.477 2.1C15.067 12.433 16.03 10.267 16 8a7.98 7.98 0 0 0-.156-1.567z" fill="#1976d2"/></svg>