<svg xmlns="http://www.w3.org/2000/svg" width="38" height="38"><defs><clipPath id="A"><circle cx="19" cy="19" r="19" fill="#d3f431"/></clipPath></defs><circle cx="19" cy="19" r="19" fill="#d3f431"/><g clip-path="url(#A)"><path d="M13.115 31.632c-1.714 1.84-2.66 4.266-2.638 6.78a2.74 2.74 0 0 1-2.739 2.687A2.74 2.74 0 0 1 5 38.412c0-8.183 6.28-14.84 14-14.84s14 6.658 14 14.84v.3c-.03 1.5-1.247 2.68-2.737 2.68h-.05c-.726-.01-1.417-.31-1.922-.832s-.78-1.223-.77-1.95v-.2a9.96 9.96 0 0 0-1.723-5.65V43c-5.682 0-11.776-5.655-12.683-11.368zM13 15.88a6.8 6.8 0 1 1 13.6 0 6.8 6.8 0 1 1-13.6 0z" fill="#01be3f"/></g></svg>