<svg xmlns="http://www.w3.org/2000/svg" width="26" height="26"><path d="M13 26a13 13 0 1 1 13-13 13.015 13.015 0 0 1-13 13zm0-24a11 11 0 1 0 11 11A11.012 11.012 0 0 0 13 2zm-1 20v-5l-2 1-1.968-2 1-2h-5c1.035-2.07 4.132-3 6-3 .822-.822 5.168-4.927 9.937-4.97H20l-.032.032C19.926 10.835 15.822 15.178 15 16c0 1.867-.93 4.964-3 6zm4-13a1 1 0 1 0 1 1 1 1 0 0 0-1-1zM6 20h.007c0-2.757 1.57-3.4 1.586-3.4l.188.188A3.412 3.412 0 0 0 7.2 18.8v.012h.008a3.363 3.363 0 0 0 2.011-.586l.187.188C9.38 18.477 8.7 20 6 20z" fill="#01be3f"/></svg>