<svg xmlns="http://www.w3.org/2000/svg" width="24" height="23"><path d="M12 23a9.934 9.934 0 0 1-6.375-2.344A3.988 3.988 0 0 1 2 13.562V13a9.918 9.918 0 0 1 6.032-9.155 3.971 3.971 0 0 1 7.937 0A9.917 9.917 0 0 1 22 13a5.21 5.21 0 0 1-.031.532 3.995 3.995 0 0 1-3.594 7.124A9.936 9.936 0 0 1 12 23zM8.47 5.844A7.891 7.891 0 0 0 4 13a4.006 4.006 0 0 1 4 4 3.922 3.922 0 0 1-.813 2.375 7.941 7.941 0 0 0 9.625 0A3.923 3.923 0 0 1 16 17a4 4 0 0 1 4-4 7.892 7.892 0 0 0-4.468-7.156 3.969 3.969 0 0 1-7.062 0zM20 15a2 2 0 1 0 2 2 1.979 1.979 0 0 0-2-2zM4 15a2 2 0 0 0 0 4 2 2 0 1 0 0-4zm8-13a1.979 1.979 0 0 0-2 2 2 2 0 1 0 4 0 1.979 1.979 0 0 0-2-2z" fill="#01be3f"/></svg>