<svg xmlns="http://www.w3.org/2000/svg" width="146.688" height="155.825"><ellipse cx="82.041" cy="93.914" rx="62.076" ry="61.91" fill="#f8e71c"/><g fill="#01be3f"><path d="M72.672 7.178h22.445v34.278H72.672z"/><path d="M71.97 34.843L51.53 63.902s22.916 28.62 28.476 18.828 12.908-38.906 12.908-38.906z"/><rect width="7.716" height="6.296" rx="1.4" x="65.658" y="13.474"/></g><path d="M76.873 9.515c-2.82 4.13-4.47 25.328 2.777 25.328 5.04 0 13.57-2.21 16.87 0 1.444.966.97 5.265 0 6.56-4.943 6.6-22.97 6.6-24.95 0S69.516 3.486 69.516 3.486s12.02-5.7 22.06-2.515 6.945 8.544 6.945 8.544-18.828-4.13-21.65 0z"/><path d="M26.255 58.112l36.34-10.368s9.453 28.332 12.782 22.036 10.185-17.24 10.185-17.24l7.35-8.24s39.81 2.666 39.81 8.24-10.082 90.6-10.082 90.6h-72.3s-24.086-38.867-24.086-56.777c0-.87-6.16-7-6.29-7.837-1.56-10.035 6.29-20.413 6.29-20.413z" fill="#00cd00"/><path fill="#00a937" d="M92.913 73.278h23.848v2.798H92.913z"/><path fill="#5e5e5e" d="M109.378 53.01l2 .65-13.186 40.582-2-.65z"/><g transform="matrix(.951 .309 -.309 .951 111.495 26.402)"><rect width="14.73" height="23.785" rx="7.35"/><path d="M7.716 7.695h7.014v2.1H7.716zm0 3.498h7.014v2.1H7.716zm0 3.497h7.014v2.1H7.716z" fill="#fff"/></g><g fill="#c5f400"><path d="M26.256 58.117c-15.773 6.426-13.432 28.956-6.938 35.6s13.75 44.7 30.057 38.808 53.29-20.794 59.596-17.508 13.032 7.883 10.438 2.67 3.6.537 5.27-1.32c.618-.686-2.634-2.68-1.96-3.785.847-1.39 5.008-1.39 5.38-2.588s-2.122-2.428-4.97-2.428c-5.732 0-3.717-1.1-3.717-1.1s5.5-3.632 3.717-4.9-9.51 1.38-9.51 1.38-56.05-.606-58.727-5.866-12.86-45.387-28.633-38.953z"/><path d="M125.533 97.063L98.56 84.8s-5.646-2.182-6.3 0 4.652 2.3 4.333 3.008a8.5 8.5 0 0 0-.87 4.3c0 1.606-1.67 2.14-1.928 2.914-.534 1.6 1.058 3.3.942 4.543-.284 3.064-1.226 4.7.986 4.94 3.886.4 15.443 9.967 32.408 12.727 4.768.776 10.9 6.87 15.983-7.137s1.262-27.026 0-36.82-11.39-20.736-11.39-20.736-5.274 4.065-8.617 15.025 1.426 29.5 1.426 29.5z"/></g><path d="M42.486 98.41a3.5 3.5 0 0 1 3.439-4.145h83.084a3.5 3.5 0 0 1 3.481 3.865l-4.618 44.1a3.5 3.5 0 0 1-3.447 3.135l-70.08.644a3.5 3.5 0 0 1-3.472-2.855z" fill="#fff"/><ellipse cx="86.6" cy="120.847" rx="6.313" ry="6.296" fill="#d8d8d8" opacity=".4"/><g fill="none" stroke-linecap="round" stroke-miterlimit="10"><path d="M105.195 38.73s-3.07 12.272 5.143 14.787c7.643 2.34 12.79-7.687 12.79-7.687" stroke="#5e5e5e" stroke-width="1.4"/><path d="M24.318 142.996l2.35-7.16 6.774.047 2.434-7.226 7.235-.312" stroke="#000" stroke-width="3.025"/></g><path d="M9.514 46.332c4.3-2.676 9.858-2.132 13.558 1.325s4.617 8.968 2.237 13.437-7.463 6.785-12.397 5.647c-4.414-1.02-7.78-4.6-8.523-9.068s1.28-8.946 5.125-11.34zM19.66 62.75a8.14 8.14 0 1 0-8.653-13.79 8.14 8.14 0 0 0-2.582 11.213 8.16 8.16 0 0 0 11.237 2.579z" fill="#01be3f"/></svg>