<svg xmlns="http://www.w3.org/2000/svg" width="70" height="70.004" viewBox="0 0 70 70.004">
    <defs>
        <style>
            .prefix__cls-1{fill:#01be3f}.prefix__cls-3{fill:#fffeea}
        </style>
    </defs>
    <g id="prefix__Group_4223" data-name="Group 4223" transform="translate(-220.985 -220.998)">
        <g id="prefix__Group_4226" data-name="Group 4226">
            <g id="prefix__Group_4225" data-name="Group 4225">
                <path id="prefix__Path_1691" d="M287.6 248.1h-42.441a2.258 2.258 0 0 0-1.6 3.855l4.516 4.516v31.148a3.387 3.387 0 0 0 3.392 3.381H287.6a3.386 3.386 0 0 0 3.387-3.387v-36.129a3.387 3.387 0 0 0-3.387-3.384zm0 36.132a3.388 3.388 0 0 1-3.387 3.387h-29.359a3.387 3.387 0 0 1-3.387-3.387v-29.361a3.386 3.386 0 0 1 3.387-3.387h29.357a3.387 3.387 0 0 1 3.387 3.387z" class="prefix__cls-1" data-name="Path 1691"/>
                <path id="prefix__Path_1692" d="M284.211 253.742h-29.357a1.128 1.128 0 0 0-1.129 1.129v29.357a1.129 1.129 0 0 0 1.129 1.129h29.357a1.13 1.13 0 0 0 1.129-1.129v-29.357a1.129 1.129 0 0 0-1.129-1.129zm-18.071 8.244a1.252 1.252 0 0 1 .844-.495c.935-.034 1.886-.029 2.806-.024h1a.105.105 0 0 1 .069.026h1.04c.8 0 1.636 0 2.453.005a3.776 3.776 0 0 1 3.889 3.934c0 2.311 0 4.576-.04 6.872a1.336 1.336 0 0 1-.479.914.6.6 0 0 1-.356.092.792.792 0 0 1-.54-.174 1.554 1.554 0 0 1-.36-.974c-.011-1.465 0-2.955 0-4.4q0-1.092.009-2.184a2.054 2.054 0 0 0-2.307-2.32l-1.852-.006c-1.688 0-3.434-.008-5.151-.035a1.568 1.568 0 0 1-.956-.39.808.808 0 0 1-.069-.841zm-6.235 3.027l-.342.333a1.119 1.119 0 0 1-.809.36.771.771 0 0 1-.559-.282.873.873 0 0 1 .11-1.314c.217-.214.432-.431.646-.648.485-.49.986-1 1.512-1.462a1.588 1.588 0 0 1 .184-.141 2.053 2.053 0 0 1 2.27.018 1.85 1.85 0 0 1 .207.161c.592.529 1.152 1.112 1.694 1.675l.4.415a1.121 1.121 0 0 1 .36.811.773.773 0 0 1-.284.558.908.908 0 0 1-.588.245 1.038 1.038 0 0 1-.726-.364q-.293-.3-.588-.589c-.409-.407-.832-.829-1.23-1.26-.162-.176-.284-.255-.393-.255-.107 0-.225.075-.371.235-.478.521-.998 1.02-1.498 1.504zM273 277.02a.937.937 0 0 1-.995.6h-.02c-.9-.007-1.813-.006-2.7 0h-1.045a.108.108 0 0 1-.07-.026h-1.022c-.79 0-1.606.005-2.41-.005a3.8 3.8 0 0 1-3.91-3.977c0-2.417.011-4.649.026-6.822a1.1 1.1 0 0 1 .4-.919.8.8 0 0 1 .748-.083.967.967 0 0 1 .615 1.068q-.015 2.226-.021 4.452l-.008 1.936a2.7 2.7 0 0 0 .574 2 2.762 2.762 0 0 0 2.016.586l2.36.008q2.23.008 4.462.019a1.084 1.084 0 0 1 .908.41.808.808 0 0 1 .092.753zm7.73-2.006c-.149.15-.3.3-.446.453-.519.53-1.057 1.078-1.623 1.577l-.024.02a2.067 2.067 0 0 1-1.341.492 2.027 2.027 0 0 1-1.248-.424c-.032-.025-.063-.051-.093-.077-.6-.534-1.163-1.121-1.709-1.689l-.387-.4a1.117 1.117 0 0 1-.359-.786.815.815 0 0 1 .269-.584c.4-.379.882-.325 1.362.151l.366.361c.473.465.961.945 1.411 1.449.155.173.278.254.39.255.115 0 .242-.084.413-.271.427-.465.887-.911 1.332-1.342.14-.136.28-.271.419-.408a1.223 1.223 0 0 1 .836-.4.805.805 0 0 1 .576.266c.373.389.32.885-.148 1.357z" class="prefix__cls-1" data-name="Path 1692"/>
            </g>
            <path id="prefix__Path_1693" d="M276.311 254.871a5.652 5.652 0 0 1-5.645-5.646v-22.017a6.21 6.21 0 0 0-12.421 0v42.341a5.652 5.652 0 0 1-5.645 5.651h-9.241a3.352 3.352 0 0 0 .208-1.129v-12.42a3.387 3.387 0 0 0-3.387-3.388h-5.646a1.129 1.129 0 0 1-1.129-1.129v-15.812a1.129 1.129 0 0 1 1.129-1.129h5.646a3.387 3.387 0 0 0 3.387-3.388v-12.42A3.386 3.386 0 0 0 240.18 221h-9.033a10.173 10.173 0 0 0-10.162 10.162v36.131a10.173 10.173 0 0 0 10.162 10.162H252.6a7.913 7.913 0 0 0 7.9-7.9v-42.347a3.952 3.952 0 1 1 7.9 0v22.017a7.913 7.913 0 0 0 7.9 7.9 1.129 1.129 0 1 0 0-2.258zm-35 6.775v12.42a1.13 1.13 0 0 1-1.129 1.129h-2.258v-14.679h2.258a1.13 1.13 0 0 1 1.127 1.13zm0-37.261V236.8a1.129 1.129 0 0 1-1.129 1.129h-2.258v-14.673h2.258a1.13 1.13 0 0 1 1.127 1.129zm-18.066 42.906V231.16a7.913 7.913 0 0 1 7.9-7.9h4.516v14.678h-1.129a3.388 3.388 0 0 0-3.387 3.388v15.807a3.387 3.387 0 0 0 3.387 3.387h1.129v14.68h-4.516a7.913 7.913 0 0 1-7.902-7.909z" data-name="Path 1693" style="fill:#151a6a"/>
        </g>
        <path id="prefix__Path_1694" d="M241.309 224.385V236.8a1.129 1.129 0 0 1-1.129 1.129h-2.258v-14.673h2.258a1.13 1.13 0 0 1 1.129 1.129z" class="prefix__cls-3" data-name="Path 1694"/>
        <path id="prefix__Path_1695" d="M241.309 261.646v12.42a1.13 1.13 0 0 1-1.129 1.129h-2.258v-14.679h2.258a1.13 1.13 0 0 1 1.129 1.13z" class="prefix__cls-3" data-name="Path 1695"/>
        <path id="prefix__Path_1696" d="M223.243 267.291V231.16a7.913 7.913 0 0 1 7.9-7.9h4.516v14.678h-1.129a3.388 3.388 0 0 0-3.387 3.388v15.807a3.387 3.387 0 0 0 3.387 3.387h1.129v14.68h-4.516a7.913 7.913 0 0 1-7.9-7.909z" class="prefix__cls-3" data-name="Path 1696"/>
    </g>
</svg>
