<svg xmlns="http://www.w3.org/2000/svg" width="70" height="68.862" viewBox="0 0 70 68.862">
    <defs>
        <style>
            .prefix__cls-1{fill:#01be3f}.prefix__cls-3{fill:#fffeea}
        </style>
    </defs>
    <g id="prefix__Group_4227" data-name="Group 4227" transform="translate(-107.859 -221.569)">
        <path id="prefix__Path_1697" d="M174.472 242.514H167.7v35.5a5.652 5.652 0 0 1-5.645 5.645h-22.58v3.387a3.386 3.386 0 0 0 3.387 3.387h31.613a3.387 3.387 0 0 0 3.387-3.387V245.9a3.388 3.388 0 0 0-3.39-3.386z" class="prefix__cls-1" data-name="Path 1697"/>
        <path id="prefix__Path_1698" d="M165.439 278.012v-41.143a3.386 3.386 0 0 0-3.387-3.387h-31.613a3.387 3.387 0 0 0-3.387 3.387v41.143a3.387 3.387 0 0 0 3.387 3.387h31.613a3.386 3.386 0 0 0 3.387-3.387zm-12.419-8.4h-11.29a1.129 1.129 0 1 1 0-2.258h11.29a1.129 1.129 0 1 1 0 2.258zm0-6.774h-11.29a1.129 1.129 0 0 1 0-2.258h11.29a1.129 1.129 0 1 1 0 2.258z" class="prefix__cls-1" data-name="Path 1698"/>
        <path id="prefix__Path_1699" d="M164.253 261.849l-2.238-6.727a3.369 3.369 0 0 0 1.082-4.274l-6.143-12.274a3.412 3.412 0 0 0-1.286-1.39l-13.422-8.059a3.427 3.427 0 0 0-3.259-.122l-1.72.865-6.992-6.995a4.539 4.539 0 0 0-6.415 6.424l4.844 4.843-6.2 3.1a1.1 1.1 0 0 1-.5.113h-2.881a3.387 3.387 0 0 0-3.362-3.132h-4.516a3.386 3.386 0 0 0-3.387 3.387v22.335a3.387 3.387 0 0 0 3.387 3.387h4.516a3.388 3.388 0 0 0 3.323-2.756h16.951a1.366 1.366 0 0 0 .551-.13l5.783-2.885h9.754l3.033 3.035a1.563 1.563 0 0 0 .442.273l7.226 2.4a1.129 1.129 0 0 0 1.428-1.428zm-47.362-1.9a1.13 1.13 0 0 1-1.129 1.129h-4.516a1.129 1.129 0 0 1-1.129-1.129v-22.336a1.128 1.128 0 0 1 1.129-1.129h4.516a1.129 1.129 0 0 1 1.129 1.129zm23.1-28.924a1.144 1.144 0 0 1 1.088.034l13.421 8.06a1.137 1.137 0 0 1 .433.466l6.141 12.269a1.131 1.131 0 0 1 .044.918 1.1 1.1 0 0 1-.44.513l-21.731-21.735zm-14.528-3.317a2.281 2.281 0 1 1 3.177-3.273l.038.038 1.61 1.618-3.22 3.221zm3.2 3.2l3.22-3.221c20.067 20.059-13.941-13.951 20.092 20.086h-6.45zm13.669 16.865h-2.491a1.129 1.129 0 0 1-1.129-1.129v-2.492zm9.556 7.532H142.1a1.127 1.127 0 0 0-.5.119l-5.805 2.9h-16.646v-18.7H122a3.342 3.342 0 0 0 1.511-.357l6.87-3.44 6.071 6.072v4.75a3.388 3.388 0 0 0 3.387 3.387h12.047a2.638 2.638 0 0 1 0 5.274zm2.65 1.48a4.938 4.938 0 0 0 2.238-4.211l2.4 2.4-3.225 3.224zm3.5 2.519l2.238-2.237 1.115 3.354z" data-name="Path 1699" style="fill:#151a6a"/>
        <path id="prefix__Path_1700" d="M153.02 269.611h-11.29a1.129 1.129 0 1 1 0-2.258h11.29a1.129 1.129 0 1 1 0 2.258z" class="prefix__cls-3" data-name="Path 1700"/>
        <path id="prefix__Path_1701" d="M153.02 262.837h-11.29a1.129 1.129 0 0 1 0-2.258h11.29a1.129 1.129 0 1 1 0 2.258z" class="prefix__cls-3" data-name="Path 1701"/>
        <rect id="prefix__Rectangle_1564" width="6.774" height="24.593" class="prefix__cls-3" data-name="Rectangle 1564" rx="1.129" transform="translate(110.117 236.484)"/>
        <path id="prefix__Path_1702" d="M151.891 255.306H142.1a1.127 1.127 0 0 0-.5.119l-5.805 2.9h-16.646v-18.7H122a3.342 3.342 0 0 0 1.511-.357l6.87-3.44 6.071 6.072v4.75a3.388 3.388 0 0 0 3.387 3.387h12.047a2.638 2.638 0 0 1 0 5.274z" class="prefix__cls-3" data-name="Path 1702"/>
        <path id="prefix__Path_1703" d="M139.992 231.024a1.144 1.144 0 0 1 1.088.034l13.421 8.06a1.137 1.137 0 0 1 .433.466l6.141 12.269a1.131 1.131 0 0 1 .044.918 1.1 1.1 0 0 1-.44.513l-21.731-21.735z" class="prefix__cls-3" data-name="Path 1703"/>
        <path id="prefix__Path_1704" d="M128.666 230.909l3.22-3.221c20.067 20.059-13.941-13.951 20.092 20.086h-6.45z" class="prefix__cls-3" data-name="Path 1704"/>
        <path id="prefix__Path_1705" d="M154.541 256.786a4.938 4.938 0 0 0 2.238-4.211l2.4 2.4-3.225 3.224z" class="prefix__cls-3" data-name="Path 1705"/>
        <path id="prefix__Path_1706" d="M125.464 227.707a2.281 2.281 0 1 1 3.177-3.273l.038.038 1.61 1.618-3.22 3.221z" class="prefix__cls-3" data-name="Path 1706"/>
    </g>
</svg>
