<svg xmlns="http://www.w3.org/2000/svg" width="69.096" height="70" viewBox="0 0 69.096 70">
    <defs>
        <style>
            .prefix__cls-1{fill:#01be3f}.prefix__cls-3{fill:#fffeea}
        </style>
    </defs>
    <g id="prefix__Group_4229" data-name="Group 4229" transform="translate(-325.65 -269.129)">
        <g id="prefix__Group_4228" data-name="Group 4228">
            <path id="prefix__Path_1707" d="M393.337 312.9l.005.006a4.949 4.949 0 0 1-1.073-4.036c.136-3.385-.4-4.448-3.529-6.072a4.949 4.949 0 0 1-2.956-2.957c-1.62-3.106-2.676-3.667-6.072-3.528a4.953 4.953 0 0 1-4.027-1.068c-2.924-1.863-4.18-1.9-7.163 0a4.955 4.955 0 0 1-4.034 1.069c-3.39-.131-4.444.4-6.072 3.527a4.959 4.959 0 0 1-2.959 2.957c-3.135 1.634-3.662 2.706-3.528 6.072a4.951 4.951 0 0 1-1.068 4.028c-1.852 2.912-1.906 4.168 0 7.163a4.941 4.941 0 0 1 1.071 4.028c-.135 3.361.385 4.437 3.527 6.072a4.958 4.958 0 0 1 2.957 2.962c1.614 3.1 2.667 3.667 6.072 3.528a4.952 4.952 0 0 1 4.028 1.068c2.912 1.852 4.167 1.906 7.162 0a4.942 4.942 0 0 1 4.027-1.068c3.388.138 4.45-.411 6.072-3.528a4.956 4.956 0 0 1 2.958-2.958c3.135-1.633 3.663-2.706 3.528-6.072a4.948 4.948 0 0 1 1.067-4.028c1.86-2.914 1.913-4.17.007-7.165zM372.1 332.955a16.467 16.467 0 1 1 16.467-16.468 16.467 16.467 0 0 1-16.467 16.468z" class="prefix__cls-1" data-name="Path 1707"/>
            <path id="prefix__Path_1708" d="M372.1 302.078a14.409 14.409 0 1 0 14.409 14.409 14.409 14.409 0 0 0-14.409-14.409zm2.9 22.163a2.381 2.381 0 0 1-2.381-2.381 2.331 2.331 0 0 1 .03-.356l-4.449-3.254a2.382 2.382 0 1 1 0-3.575l4.443-3.25a2.423 2.423 0 0 1-.024-.321 2.386 2.386 0 1 1 1.3 2.118l-4.43 3.241 4.462 3.264a2.355 2.355 0 0 1 1.052-.248 2.381 2.381 0 1 1 0 4.762z" class="prefix__cls-1" data-name="Path 1708"/>
        </g>
        <path id="prefix__Path_1709" d="M351.381 269.129a25.721 25.721 0 0 0-12.781 48.045c.015.007.027.018.043.025a25.644 25.644 0 0 0 25.485 0c.016-.008.028-.019.043-.026a25.721 25.721 0 0 0-12.785-48.044zm-17.5 25.731a17.5 17.5 0 1 1 30.374 11.84 13.414 13.414 0 0 0-8.372-8.988 8.748 8.748 0 1 0-9.005 0 13.414 13.414 0 0 0-8.372 8.988 17.507 17.507 0 0 1-4.622-11.84zm17.5 2.058a6.69 6.69 0 1 1 6.689-6.69 6.69 6.69 0 0 1-6.689 6.69zm-11.322 18.725V310.3a11.322 11.322 0 1 1 22.643 0v5.345a23.634 23.634 0 0 1-22.643-.002zm24.7-1.269V310.3c0-.389-.025-.771-.058-1.151a19.555 19.555 0 1 0-27.637-.995q.479.516.994.995c-.032.38-.058.762-.058 1.151v4.076a23.671 23.671 0 1 1 26.759 0z" data-name="Path 1709" style="fill:#151a6a"/>
        <path id="prefix__Path_1710" d="M351.381 296.918a6.69 6.69 0 1 1 6.689-6.69 6.69 6.69 0 0 1-6.689 6.69z" class="prefix__cls-3" data-name="Path 1710"/>
        <path id="prefix__Path_1711" d="M333.884 294.86a17.5 17.5 0 1 1 30.371 11.84 13.414 13.414 0 0 0-8.372-8.988 8.748 8.748 0 1 0-9.005 0 13.414 13.414 0 0 0-8.372 8.988 17.507 17.507 0 0 1-4.622-11.84z" class="prefix__cls-3" data-name="Path 1711"/>
        <path id="prefix__Path_1712" d="M340.059 315.643V310.3a11.322 11.322 0 1 1 22.643 0v5.345a23.634 23.634 0 0 1-22.643-.002z" class="prefix__cls-3" data-name="Path 1712"/>
        <path id="prefix__Path_1713" d="M364.76 314.374V310.3c0-.389-.025-.771-.058-1.151a19.555 19.555 0 1 0-27.637-.995q.479.516.994.995c-.032.38-.058.762-.058 1.151v4.076a23.671 23.671 0 1 1 26.759 0z" class="prefix__cls-3" data-name="Path 1713"/>
    </g>
</svg>
