<svg xmlns="http://www.w3.org/2000/svg" width="63.887" height="24.816" viewBox="0 0 63.887 24.816">
  <g id="Group_2" data-name="Group 2" transform="translate(-902.069 -727.434)">
    <path id="Path_5" data-name="Path 5" d="M981.968,733.558c-.583,0-1.112-.009-1.641,0-.222.006-.306-.06-.294-.29.017-.311.013-.625,0-.937-.007-.2.059-.269.26-.265.463.011.927,0,1.391,0h.241c.173-.641.283-1.254.5-1.825a4.013,4.013,0,0,1,3.429-2.763,13.408,13.408,0,0,1,2.338,0,8.608,8.608,0,0,1,1.428.275.307.307,0,0,1,.179.227c.014.653.008,1.306.006,1.959a.711.711,0,0,1-.041.151c-.337-.244-.649-.479-.97-.7a3.447,3.447,0,0,0-1.668-.541,5.082,5.082,0,0,0-1.37.017,1.874,1.874,0,0,0-1.554,1.586,12.681,12.681,0,0,0-.126,1.617h.419q3.989,0,7.978,0c.414,0,.828-.053,1.241-.051a6.248,6.248,0,0,1,3.259.956,7.964,7.964,0,0,1,1.468,1.13,7.32,7.32,0,0,1,1.527,2.149.719.719,0,0,0,.2.274c.007-.092.021-.185.02-.277a3.539,3.539,0,0,1,2.088-3.346,7.536,7.536,0,0,1,3.2-.786,13.38,13.38,0,0,1,3.945.464.5.5,0,0,1,.389.345c.822,2.037,1.663,4.067,2.5,6.1q.828,2.019,1.648,4.042c.1.256.165.529.266.858.066-.127.109-.194.137-.267q.846-2.148,1.691-4.3c.6-1.528,1.2-3.057,1.818-4.579a3.819,3.819,0,0,1,2.223-2.085,8.037,8.037,0,0,1,2.464-.526,10.125,10.125,0,0,1,3.641.409.356.356,0,0,1,.3.418c-.018.659-.006,1.319-.006,2.034-.155-.092-.263-.157-.373-.22a14.373,14.373,0,0,0-1.837-1.026,4.224,4.224,0,0,0-3.4.037,2.437,2.437,0,0,0-1.339,2.7,2.149,2.149,0,0,0,1.367,1.6c1.084.563,2.2,1.055,3.294,1.608a6.059,6.059,0,0,1,2.55,1.985,3.739,3.739,0,0,1,.551,2.527,4.33,4.33,0,0,1-.8,2.163,4.532,4.532,0,0,1-2.068,1.508,8.408,8.408,0,0,1-2.38.524,8.185,8.185,0,0,1-4.384-.751c-.051-.025-.1-.053-.15-.078a.683.683,0,0,1-.417-.736c.038-.641.011-1.287.011-1.93v-.326c.357.3.667.567.982.827a6.269,6.269,0,0,0,3.2,1.494,4.534,4.534,0,0,0,3.042-.54,2.184,2.184,0,0,0,1.074-1.6,2.263,2.263,0,0,0-1.086-2.272,13.262,13.262,0,0,0-2.647-1.368,10.739,10.739,0,0,1-2.852-1.568,5.949,5.949,0,0,1-.739-.917,2.946,2.946,0,0,1-.2-.366c-.12.246-.22.428-.3.618-.724,1.762-1.441,3.528-2.168,5.289q-1.258,3.046-2.531,6.085c-.228.546-.473,1.085-.7,1.632a.419.419,0,0,1-.46.312c-.6-.022-1.208-.007-1.867-.007.246-.467.48-.891.7-1.324q.726-1.451,1.437-2.91c.254-.524.479-1.062.728-1.589a.778.778,0,0,0,.023-.695c-.542-1.269-1.066-2.546-1.6-3.821-.59-1.422-1.175-2.846-1.771-4.265-.385-.918-.77-1.836-1.181-2.742a2.364,2.364,0,0,0-2-1.4,4.4,4.4,0,0,0-2.695.346,2.3,2.3,0,0,0-1.273,1.844,1.833,1.833,0,0,0,.417,1.648,4.809,4.809,0,0,0,1.164.818c1.223.626,2.474,1.2,3.7,1.816a5.114,5.114,0,0,1,1.92,1.537,3.684,3.684,0,0,1,.661,2.722,4.419,4.419,0,0,1-.634,1.9,4.65,4.65,0,0,1-2.389,1.8,8.572,8.572,0,0,1-3.578.494,7.2,7.2,0,0,1-3-.772.38.38,0,0,1-.247-.388c.012-.775,0-1.551,0-2.38.329.261.62.5.921.731a6.2,6.2,0,0,0,2.437,1.19,4.843,4.843,0,0,0,3.3-.314,2.292,2.292,0,0,0,1.343-2.008,2.062,2.062,0,0,0-.735-1.669,10.1,10.1,0,0,0-2.956-1.662,13.534,13.534,0,0,1-3.012-1.583c-.241-.189-.445-.424-.7-.673a2.563,2.563,0,0,0-.014.372,8.7,8.7,0,0,1-1.05,5.332,10.375,10.375,0,0,1-1.184,1.6,6.788,6.788,0,0,1-7.632,1.786,7.623,7.623,0,0,1-4.224-4.456,9.094,9.094,0,0,1,1.367-8.889c.3-.369.644-.7.984-1.067h-4.9v13.913c0,.375,0,.375-.37.376-.5,0-1-.014-1.5.006-.27.011-.355-.068-.354-.346q.014-4.926.006-9.852v-4.118Zm6.414,7.142a7.721,7.721,0,0,0,.545,2.605,6.016,6.016,0,0,0,2.469,3.149,3.8,3.8,0,0,0,2.78.545,4.569,4.569,0,0,0,2.688-1.7,7.787,7.787,0,0,0,1.617-4.877,7.927,7.927,0,0,0-.164-1.591,6.775,6.775,0,0,0-2.313-4.2,3.9,3.9,0,0,0-3.215-.946,4.493,4.493,0,0,0-2.916,1.867A8.224,8.224,0,0,0,988.382,740.7Z" transform="translate(-61.381)"/>
    <path id="Path_6" data-name="Path 6" d="M927.017,751.032c.146-.138.265-.239.372-.352a5.119,5.119,0,0,1,3.176-1.548,5.648,5.648,0,0,1,2.4.062,4.287,4.287,0,0,1,3.21,3.357,1.221,1.221,0,0,1,.01.254q0,5.863.006,11.725c0,.272-.072.363-.349.351-.51-.021-1.022-.021-1.532,0-.274.011-.352-.073-.351-.349q.013-5.365.006-10.731a3.072,3.072,0,0,0-2.271-2.972,4.076,4.076,0,0,0-4.348,1.648,2.116,2.116,0,0,0-.361,1.226c0,3.605,0,7.211.009,10.816,0,.291-.079.376-.367.363-.519-.023-1.041-.017-1.561,0-.239.007-.306-.074-.3-.308.009-1.457,0-2.915,0-4.372q0-5.294-.006-10.589c0-.287.073-.379.364-.366.519.024,1.041.012,1.561,0,.184,0,.244.061.25.246C926.948,749.99,926.985,750.483,927.017,751.032Z" transform="translate(-17.863 -17.007)"/>
    <path id="Path_7" data-name="Path 7" d="M904.522,737.835q0,4.912.006,9.824c0,.274-.075.359-.35.35-.6-.02-1.193-.017-1.788,0-.251.007-.322-.073-.32-.322.009-1.874.005-3.748.005-5.622V727.982c0-.372,0-.372.373-.372.587,0,1.174.011,1.76-.005.251-.007.321.073.32.322Q904.516,732.881,904.522,737.835Z" transform="translate(0 -0.134)"/>
  </g>
</svg>
