<svg xmlns="http://www.w3.org/2000/svg" width="123.99" height="21.5" viewBox="0 0 123.99 21.5">
  <g id="FreJun_new" transform="translate(0 -5)">
    <g id="FreJun" transform="translate(43)">
      <g id="Fre">
        <path id="Fre-2" data-name="Fre" d="M30.191,18.211a7.31,7.31,0,0,1-2.8-.515,6.2,6.2,0,0,1-2.12-1.426,6.307,6.307,0,0,1-1.342-2.133,7.429,7.429,0,0,1-.467-2.66,7.352,7.352,0,0,1,.479-2.672,6.543,6.543,0,0,1,1.342-2.145A6.205,6.205,0,0,1,27.34,5.235a7.167,7.167,0,0,1,5.116-.084,6.264,6.264,0,0,1,1.929,1.2,6.32,6.32,0,0,1,1.582,2.612,10.8,10.8,0,0,1,.479,3.451h-9.3a3.973,3.973,0,0,0,.958,2.253,2.8,2.8,0,0,0,2.132.814,2.908,2.908,0,0,0,1.45-.323,2.237,2.237,0,0,0,.875-.922h3.642a5.224,5.224,0,0,1-.755,1.57,5.348,5.348,0,0,1-1.27,1.27,5.906,5.906,0,0,1-1.761.838A7.824,7.824,0,0,1,30.191,18.211ZM30,7.38a2.481,2.481,0,0,0-1.965.767,3.974,3.974,0,0,0-.862,2.084h5.439a3.366,3.366,0,0,0-.79-2.1A2.371,2.371,0,0,0,30,7.38ZM18.235,17.827H14.473V5.08h3.618V7.357h.072A4.515,4.515,0,0,1,19.649,5.44a3.644,3.644,0,0,1,2.06-.575,2.238,2.238,0,0,1,.791.1V8.243h-.1a4.514,4.514,0,0,0-.79-.072h-.076a3.184,3.184,0,0,0-2.38.923,3.9,3.9,0,0,0-.922,2.815v5.917Zm-14.162,0H0V0H13.083V3.474H4.073V7.357H11.6v3.33H4.073v7.14Z" transform="translate(1.51 6.173)" fill="#fff"/>
        <path id="Fre-3" data-name="Fre" d="M30.191,18.211a7.31,7.31,0,0,1-2.8-.515,6.2,6.2,0,0,1-2.12-1.426,6.307,6.307,0,0,1-1.342-2.133,7.429,7.429,0,0,1-.467-2.66,7.352,7.352,0,0,1,.479-2.672,6.543,6.543,0,0,1,1.342-2.145A6.205,6.205,0,0,1,27.34,5.235a7.167,7.167,0,0,1,5.116-.084,6.264,6.264,0,0,1,1.929,1.2,6.32,6.32,0,0,1,1.582,2.612,10.8,10.8,0,0,1,.479,3.451h-9.3a3.973,3.973,0,0,0,.958,2.253,2.8,2.8,0,0,0,2.132.814,2.908,2.908,0,0,0,1.45-.323,2.237,2.237,0,0,0,.875-.922h3.642a5.224,5.224,0,0,1-.755,1.57,5.348,5.348,0,0,1-1.27,1.27,5.906,5.906,0,0,1-1.761.838A7.824,7.824,0,0,1,30.191,18.211ZM30,7.38a2.481,2.481,0,0,0-1.965.767,3.974,3.974,0,0,0-.862,2.084h5.439a3.366,3.366,0,0,0-.79-2.1A2.371,2.371,0,0,0,30,7.38ZM18.235,17.827H14.473V5.08h3.618V7.357h.072A4.515,4.515,0,0,1,19.649,5.44a3.644,3.644,0,0,1,2.06-.575,2.238,2.238,0,0,1,.791.1V8.243h-.1a4.514,4.514,0,0,0-.79-.072h-.076a3.184,3.184,0,0,0-2.38.923,3.9,3.9,0,0,0-.922,2.815v5.917Zm-14.162,0H0V0H13.083V3.474H4.073V7.357H11.6v3.33H4.073v7.14Z" transform="translate(1.51 6.173)" fill="#fff"/>
      </g>
      <g id="Jun">
        <path id="Jun-2" data-name="Jun" d="M18.905,18.187a4.258,4.258,0,0,1-3.33-1.282,4.906,4.906,0,0,1-1.15-3.39V5.08h3.762V12.8a2.4,2.4,0,0,0,.515,1.653,1.947,1.947,0,0,0,1.522.575,2.233,2.233,0,0,0,1.8-.767,2.954,2.954,0,0,0,.647-1.965V5.08h3.714V17.827h-3.57V16.007h-.072a4.733,4.733,0,0,1-1.606,1.653A4.4,4.4,0,0,1,18.905,18.187Zm-12.8-.024a6.232,6.232,0,0,1-4.588-1.534A5.717,5.717,0,0,1,0,12.436V11.07H3.762v1.27a2.644,2.644,0,0,0,.551,1.894,2.119,2.119,0,0,0,1.558.551A1.842,1.842,0,0,0,7.38,14.2a2.579,2.579,0,0,0,.48-1.666V0h4.1V12.628a5.434,5.434,0,0,1-1.126,3.594,4.839,4.839,0,0,1-1.905,1.426A7.065,7.065,0,0,1,6.11,18.163Zm26.526-.335H28.874V5.08h3.642V7.021h.072A4.149,4.149,0,0,1,34.181,5.3a4.608,4.608,0,0,1,2.336-.575A4.209,4.209,0,0,1,39.788,6,4.948,4.948,0,0,1,40.95,9.441v8.385H37.212V10.16a2.534,2.534,0,0,0-.539-1.689,1.979,1.979,0,0,0-1.593-.635,2.22,2.22,0,0,0-1.774.791,3.013,3.013,0,0,0-.671,2.012v7.188Z" transform="translate(40.04 6.173)"/>
        <path id="Jun-3" data-name="Jun" d="M18.905,18.187a4.258,4.258,0,0,1-3.33-1.282,4.906,4.906,0,0,1-1.15-3.39V5.08h3.762V12.8a2.4,2.4,0,0,0,.515,1.653,1.947,1.947,0,0,0,1.522.575,2.233,2.233,0,0,0,1.8-.767,2.954,2.954,0,0,0,.647-1.965V5.08h3.714V17.827h-3.57V16.007h-.072a4.733,4.733,0,0,1-1.606,1.653A4.4,4.4,0,0,1,18.905,18.187Zm-12.8-.024a6.232,6.232,0,0,1-4.588-1.534A5.717,5.717,0,0,1,0,12.436V11.07H3.762v1.27a2.644,2.644,0,0,0,.551,1.894,2.119,2.119,0,0,0,1.558.551A1.842,1.842,0,0,0,7.38,14.2a2.579,2.579,0,0,0,.48-1.666V0h4.1V12.628a5.434,5.434,0,0,1-1.126,3.594,4.839,4.839,0,0,1-1.905,1.426A7.065,7.065,0,0,1,6.11,18.163Zm26.526-.335H28.874V5.08h3.642V7.021h.072A4.149,4.149,0,0,1,34.181,5.3a4.608,4.608,0,0,1,2.336-.575A4.209,4.209,0,0,1,39.788,6,4.948,4.948,0,0,1,40.95,9.441v8.385H37.212V10.16a2.534,2.534,0,0,0-.539-1.689,1.979,1.979,0,0,0-1.593-.635,2.22,2.22,0,0,0-1.774.791,3.013,3.013,0,0,0-.671,2.012v7.188Z" transform="translate(40.04 6.173)" fill="#01be3f"/>
      </g>
    </g>
    <path id="Combined-Shape" d="M17.528,21.5a5.188,5.188,0,0,1-3.679-1.513,5.14,5.14,0,0,1,0-7.306,5.229,5.229,0,0,1,7.358,0,5.14,5.14,0,0,1,0,7.306A5.188,5.188,0,0,1,17.528,21.5Zm14.256-8.666a3.207,3.207,0,0,1-2.273-.936,3.176,3.176,0,0,1,0-4.515,3.231,3.231,0,0,1,4.547,0,3.176,3.176,0,0,1,0,4.515A3.207,3.207,0,0,1,31.784,12.834Zm-28.569,0A3.208,3.208,0,0,1,.941,11.9a3.178,3.178,0,0,1,0-4.515,3.232,3.232,0,0,1,4.548,0,3.178,3.178,0,0,1,0,4.515A3.207,3.207,0,0,1,3.216,12.834ZM23.251,6.386a3.207,3.207,0,0,1-2.273-.936,3.178,3.178,0,0,1,0-4.515,3.232,3.232,0,0,1,4.548,0,3.178,3.178,0,0,1,0,4.515A3.208,3.208,0,0,1,23.251,6.386Zm-11.873,0A3.207,3.207,0,0,1,9.1,5.45,3.178,3.178,0,0,1,9.1.935a3.232,3.232,0,0,1,4.548,0,3.178,3.178,0,0,1,0,4.515A3.208,3.208,0,0,1,11.378,6.386Z" transform="translate(0 5)" fill="#01be3f"/>
  </g>
</svg>
