<svg id="FreJun_new" xmlns="http://www.w3.org/2000/svg" width="125.441" height="30" viewBox="0 0 125.441 30">
  <g id="FreJun" transform="translate(43)">
    <text id="Fre" transform="translate(0 24)" font-size="23.962" font-family="NHaasGroteskTXPro-Bd, Neue Haas Grotesk Text Pro"><tspan x="0" y="0">Fre</tspan></text>
    <text id="Jun" transform="translate(39.441 24)" fill="#01be3f" font-size="23.962" font-family="NHaasGroteskTXPro-Bd, Neue Haas Grotesk Text Pro"><tspan x="0" y="0">Jun</tspan></text>
  </g>
  <path id="Combined-Shape" d="M17.528,21.5a5.188,5.188,0,0,1-3.679-1.513,5.14,5.14,0,0,1,0-7.306,5.229,5.229,0,0,1,7.358,0,5.14,5.14,0,0,1,0,7.306A5.188,5.188,0,0,1,17.528,21.5Zm14.256-8.666a3.207,3.207,0,0,1-2.273-.936,3.176,3.176,0,0,1,0-4.515,3.231,3.231,0,0,1,4.547,0,3.176,3.176,0,0,1,0,4.515A3.207,3.207,0,0,1,31.784,12.834Zm-28.569,0A3.208,3.208,0,0,1,.941,11.9a3.178,3.178,0,0,1,0-4.515,3.232,3.232,0,0,1,4.548,0,3.178,3.178,0,0,1,0,4.515A3.207,3.207,0,0,1,3.216,12.834ZM23.251,6.386a3.207,3.207,0,0,1-2.273-.936,3.178,3.178,0,0,1,0-4.515,3.232,3.232,0,0,1,4.548,0,3.178,3.178,0,0,1,0,4.515A3.208,3.208,0,0,1,23.251,6.386Zm-11.873,0A3.207,3.207,0,0,1,9.1,5.45,3.178,3.178,0,0,1,9.1.935a3.232,3.232,0,0,1,4.548,0,3.178,3.178,0,0,1,0,4.515A3.208,3.208,0,0,1,11.378,6.386Z" transform="translate(0 5)" fill="#01be3f"/>
</svg>
