<svg xmlns="http://www.w3.org/2000/svg" width="125.441" height="30"><style><![CDATA[.B{font-family:NHaasGroteskTXPro-Bd, Neue Haas Grotesk Text Pro}]]></style><text font-size="23.962" class="B"><tspan x="43" y="24">Fre</tspan></text><text fill="#01be3f" font-size="23.962" class="B"><tspan x="82.441" y="24">Jun</tspan></text><path d="M17.528 26.5a5.19 5.19 0 0 1-3.679-1.513 5.14 5.14 0 0 1 0-7.306 5.23 5.23 0 0 1 7.358 0 5.14 5.14 0 0 1 0 7.306 5.19 5.19 0 0 1-3.679 1.513zm14.256-8.666c-.852.002-1.67-.334-2.273-.936s-.942-1.41-.942-2.258.34-1.66.942-2.258a3.23 3.23 0 0 1 4.547 0c.603.597.942 1.41.942 2.258s-.34 1.66-.942 2.258c-.604.602-1.422.94-2.274.936zm-28.57 0A3.21 3.21 0 0 1 .941 16.9a3.18 3.18 0 0 1 0-4.515c1.26-1.247 3.288-1.247 4.548 0a3.18 3.18 0 0 1 0 4.515c-.604.6-1.42.937-2.273.934zm20.036-6.448c-.852.002-1.67-.334-2.273-.936a3.18 3.18 0 0 1 0-4.515c1.26-1.247 3.288-1.247 4.548 0a3.18 3.18 0 0 1 0 4.515 3.21 3.21 0 0 1-2.275.936zm-11.873 0c-.854.004-1.674-.333-2.278-.936a3.18 3.18 0 0 1 0-4.515c1.26-1.247 3.288-1.247 4.548 0a3.18 3.18 0 0 1 0 4.515 3.21 3.21 0 0 1-2.27.936z" fill="#01be3f"/></svg>