<svg xmlns="http://www.w3.org/2000/svg" xmlns:xlink="http://www.w3.org/1999/xlink" width="699.3" height="220.5"><style><![CDATA[.B{fill:#01be3f}.C{fill:#c5f400}.D{stroke-miterlimit:10}.E{stroke-width:.7}.F{stroke-linecap:round}.G{stroke-width:3.025}.H{stroke:#01be3f}.I{fill:#b8e986}.J{fill:#fab7ad}.K{font-family:SegoeUI, Segoe UI}]]></style><path fill="#f0f0f0" opacity=".3" d="M0 0h699.3v220.5H0z"/><path fill="#fff" d="M8.4 7.7h683.2v205.8H8.4z"/><g fill="none" class="D F G"><g stroke="#000"><use xlink:href="#B"/><use xlink:href="#B" x="567" y="-56.7"/></g><use xlink:href="#B" x="65.8" y="73.5" class="H"/><use xlink:href="#B" x="484.4" y="-65.8" stroke="#d6e602"/></g><g class="B"><rect width="21" height="4.2" rx="1.512" x="448" y="156.8"/><path d="M659.796 104.637c5.245-3.278 12.155-1.684 15.434 3.562s1.684 12.155-3.562 15.434a11.2 11.2 0 0 1-16.849-12.015c.66-2.898 2.453-5.41 4.977-6.98zm10.152 16.432c3.814-2.385 4.973-7.4 2.59-11.224s-7.41-4.974-11.224-2.59-4.974 7.41-2.6 11.224 7.41 4.97 11.225 2.6z"/></g><g opacity=".3"><path d="M226.1 214.2h-39.9a2.1 2.1 0 0 1-2.1-2.1v-75.6a2.1 2.1 0 0 1 2.1-2.1h39.9a2.1 2.1 0 0 1 2.1 2.1v75.6a2.1 2.1 0 0 1-2.1 2.1zm-13.3-21v7.7h7.7v-7.7zm-11.2 0v7.7h7.7v-7.7zm-10.5 0v7.7h7.7v-7.7zm21.7-10.5v7.7h7.7v-7.7zm-11.2 0v7.7h7.7v-7.7zm-10.5 0v7.7h7.7v-7.7zm21.7-10.5v7.7h7.7v-7.7zm-11.2 0v7.7h7.7v-7.7zm-10.5 0v7.7h7.7v-7.7zm21.7-10.5v7.7h7.7v-7.7zm-11.2 0v7.7h7.7v-7.7zm-10.5 0v7.7h7.7v-7.7zm21.7-10.5v7.7h7.7v-7.7zm-11.2 0v7.7h7.7v-7.7zm-10.5 0v7.7h7.7v-7.7zm21.7-10.5v7.7h7.7v-7.7zm-11.2 0v7.7h7.7v-7.7zm-10.5 0v7.7h7.7v-7.7z" fill="#efefef"/><path d="M233.1 214.2h-2.8a2.1 2.1 0 0 1-2.1-2.1V60.9a2.1 2.1 0 0 1 2.1-2.1h39.9a2.1 2.1 0 0 1 2.1 2.1v151.2a2.1 2.1 0 0 1-2.1 2.1h-29.4v-22.4h-7.7v22.4zm0-48.3V189h7.7v-23.1zm0-25.2v23.1h7.7v-23.1zm0-25.9v23.1h7.7v-23.1h-7.7zm0-25.2v23.1h7.7V89.6zm0-25.9v23.1h7.7V63.7z" fill="#d1d1d1"/><path d="M299.6 214.2h-53.2a2.1 2.1 0 0 1-2.1-2.1V47.6a2.1 2.1 0 0 1 2.1-2.1h53.2a2.1 2.1 0 0 1 2.1 2.1v164.5a2.1 2.1 0 0 1-2.1 2.1zM287 195.3v7.7h7.7v-7.7H287zm-9.1 0v7.7h7.7v-7.7h-7.7zm-9.1 0v7.7h7.7v-7.7h-7.7zm-9.1 0v7.7h7.7v-7.7h-7.7zm-9.1 0v7.7h7.7v-7.7h-7.7zM287 182v7.7h7.7V182zm-9.1 0v7.7h7.7V182zm-9.1 0v7.7h7.7V182zm-9.1 0v7.7h7.7V182zm-9.1 0v7.7h7.7V182zm36.4-12.6v7.7h7.7v-7.7zm-9.1 0v7.7h7.7v-7.7zm-9.1 0v7.7h7.7v-7.7zm-9.1 0v7.7h7.7v-7.7zm-9.1 0v7.7h7.7v-7.7zm36.4-13.3v7.7h7.7v-7.7zm-9.1 0v7.7h7.7v-7.7zm-9.1 0v7.7h7.7v-7.7zm-9.1 0v7.7h7.7v-7.7zm-9.1 0v7.7h7.7v-7.7zm36.4-12.6v7.7h7.7v-7.7zm-9.1 0v7.7h7.7v-7.7zm-9.1 0v7.7h7.7v-7.7zm-9.1 0v7.7h7.7v-7.7zm-9.1 0v7.7h7.7v-7.7zm36.4-13.3v7.7h7.7v-7.7zm-9.1 0v7.7h7.7v-7.7zm-9.1 0v7.7h7.7v-7.7zm-9.1 0v7.7h7.7v-7.7zm-9.1 0v7.7h7.7v-7.7zm36.4-12.6v7.7h7.7v-7.7zm-9.1 0v7.7h7.7v-7.7zm-9.1 0v7.7h7.7v-7.7zm-9.1 0v7.7h7.7v-7.7zm-9.1 0v7.7h7.7v-7.7zm36.4-13.3v7.7h7.7v-7.7zm-9.1 0v7.7h7.7v-7.7zm-9.1 0v7.7h7.7v-7.7zm-9.1 0v7.7h7.7v-7.7zm-9.1 0v7.7h7.7v-7.7zM287 91v7.7h7.7V91zm-9.1 0v7.7h7.7V91zm-9.1 0v7.7h7.7V91zm-9.1 0v7.7h7.7V91zm-9.1 0v7.7h7.7V91zM287 77.7v7.7h7.7v-7.7zm-9.1 0v7.7h7.7v-7.7zm-9.1 0v7.7h7.7v-7.7zm-9.1 0v7.7h7.7v-7.7zm-9.1 0v7.7h7.7v-7.7zM287 64.4v7.7h7.7v-7.7zm-9.1 0v7.7h7.7v-7.7zm-9.1 0v7.7h7.7v-7.7zm-9.1 0v7.7h7.7v-7.7zm-9.1 0v7.7h7.7v-7.7zM287 51.1v7.7h7.7v-7.7zm-9.1 0v7.7h7.7v-7.7zm-9.1 0v7.7h7.7v-7.7zm-9.1 0v7.7h7.7v-7.7zm-9.1 0v7.7h7.7v-7.7z" fill="#e4e4e4"/><path d="M350 214.2h-39.9a2.1 2.1 0 0 1-2.1-2.1v-97.3a2.1 2.1 0 0 1 2.1-2.1H350a2.1 2.1 0 0 1 2.1 2.1v97.3a2.1 2.1 0 0 1-2.1 2.1zm-38.5-14.7v4.2h36.4v-4.2zm0-6.3v4.2h36.4v-4.2zm0-6.3v4.2h36.4v-4.2zm0-6.3v4.2h36.4v-4.2zm0-6.3v4.2h36.4v-4.2zm0-6.3v4.2h36.4V168zm0-6.3v4.2h36.4v-4.2zm0-6.3v4.2h36.4v-4.2zm0-6.3v4.2h36.4v-4.2zm0-6.3v4.2h36.4v-4.2zm0-6.3v4.2h36.4v-4.2zm0-6.3v4.2h36.4v-4.2zm0-6.3v4.2h36.4v-4.2zm0-6.3v4.2h36.4v-4.2z" fill="#e5e5e5"/><path d="M383.6 214.2h-29.4a2.1 2.1 0 0 1-2.1-2.1v-73.5a2.1 2.1 0 0 1 2.1-2.1h29.4a2.1 2.1 0 0 1 2.1 2.1v73.5a2.1 2.1 0 0 1-2.1 2.1zm-6.3-27.3v18.9h5.6v-18.9zm-8.4 0v18.9h5.6v-18.9zm-7.7 0v18.9h5.6v-18.9zm-7.7 0v18.9h5.6v-18.9zm23.8-23.1v18.9h5.6v-18.9zm-8.4 0v18.9h5.6v-18.9zm-7.7 0v18.9h5.6v-18.9zm-7.7 0v18.9h5.6v-18.9zm23.8-23.1v18.9h5.6v-18.9zm-8.4 0v18.9h5.6v-18.9zm-7.7 0v18.9h5.6v-18.9zm-7.7 0v18.9h5.6v-18.9z" fill="#efefef"/></g><path d="M268.8 8.4h4.9V210h-4.9zm187.6 0h4.9V210h-4.9z" fill="#f8e71c"/><rect width="79.1" height="46.9" rx="4.2" x="290.5" y="27.3" class="I"/><path d="M296.1 35h37.8v3.5h-37.8zm0 7h37.8v3.5h-37.8zm0 7.7h37.8v3.5h-37.8z" fill="#f9f9f9"/><g class="C"><rect width="62.3" height="42" rx="1.4" x="176.4" y="96.6"/><rect width="46.9" height="26.6" rx="2.8" x="219.8" y="74.2"/></g><g fill="#fff"><rect width="36.4" height="2.1" rx="1.05" x="225.4" y="79.8"/><rect width="36.4" height="2.1" rx="1.05" x="225.4" y="85.4"/><rect width="36.4" height="2.1" rx="1.05" x="225.4" y="91"/><rect width="36.4" height="2.1" rx="1.05" x="225.4" y="82.6"/><rect width="36.4" height="2.1" rx="1.05" x="225.4" y="88.2"/><rect width="23.8" height="2.1" rx="1.05" x="225.4" y="93.8"/></g><path d="M147 145.6h133v3.5H147z" class="C"/><rect width="62.3" height="42" rx="1.4" fill="#f1ffe2" stroke="#e6e6e6" x="175" y="95.2" class="D E"/><path d="M165.657 209.31l-1.157-5.92 7.688-1.088v3.548z" fill="#d1a29c"/><path d="M144.2 176.308l5.2-14.608h27.033s6.4.94 3.254 13.7-6.2 30.267-6.2 30.267H163.8l3.52-30.432zm20.3 31.684l8.294-2.192 2.563 3.556s8.318 0 8.318 2.163-12.444 1.1-12.444 1.1h-6.73z"/><path d="M145.83 117.546l5.63-6.158 1.963-13.28 12.228 1.15v5.787a12.93 12.93 0 0 1-.921 2.783c0 0-.33 6.146-1.4 6.146s-2.3 1.04-3.76-1.015-1.46 2.772-1.46 2.772-4.463 2.458-6.652 2.777-5.63-.96-5.63-.96z" fill="#f5b6af"/><path d="M137.9 166.435l21.128-4.6.572-3.685v-13.086c0-4.862 2.6-12.7 2.6-12.7l9.17 10.642s4.927 3.978 12.607-1.607 9.213-9.323 9.213-9.323-1.048-4.96-5.13-2.48l-10.613 6.4S163.46 115.73 159.6 115.73c-1.62 0-5.368 2.44-9.694 2.44-2.55 0-8.283-2.44-8.283-2.44s-5.353 3.273-5.353 11.956 1.63 38.75 1.63 38.75z" class="B"/><g class="C"><path d="M129.382 175.54s-4.257-10.386-2.527-16.722-2.638-18.615-2.638-24.02 15.264-17.2 28.12-7.684-4.47 23.744 2.793 28.233 3.23 20.192-2.793 20.192z"/><path d="M129.383 175.54l47.81-2.086v2.086l-47.81 1.827z"/></g><path d="M154.487 175.245l-9.194 38.5H142.8l8.54-38.5z" class="B"/><path d="M150.14 175.245l6.394 38.5h2.493l-5.74-38.5zm-15.953 0l-9.194 38.5H122.5l8.54-38.5zm36.613 0l6.394 38.5h2.493l-5.74-38.5z" class="C"/><path d="M179.687 209.26l-1.157-5.92 7.688-1.088v3.548z" fill="#d1a29c"/><path d="M154.584 173.453l5.016-15.306h26.066s9.518.468 6.482 13.848-6.482 32.462-6.482 32.462l-10.423 1.22 3.206-33.68zm23.946 34.417l8.294-2.192 2.563 3.556s8.318 0 8.318 2.163-12.444 1.1-12.444 1.1h-6.73z"/><path d="M191.146 129.083s3.094-3.708 3.094-4.634-.117-5.03.406-3.968a22.11 22.11 0 0 1 1.059 3.043c0 0 3.414-3.837 3.414-4.87s1.762 3.945 1.762 4.87-7.688 7.843-7.688 7.843z" fill="#f5b6af"/><path d="M150.14 111.39s5-3.01 4.5-5.293a21.86 21.86 0 0 1 0-5.955c0 0 1.165 2.486 1.984 2.486s2.4-1.18 2.4-1.833 7.125-.35 7.125.742 1.754.742 1.754 0V94.97c0-1.043-3.054-1.09-3.868-1.94a6.75 6.75 0 0 0-4.257-1.814c-1.6 0-3.342.513-5.136 0s-4.5 3.515-4.5 4.878-1.818 1.706-1.818 2.607 1.232 1.744 1.232 2.835-1.074 3.735-.537 4.56 1.12 5.294 1.12 5.294z"/><path d="M196.013 146.094a27.48 27.48 0 0 0 3.906-3.747 9.75 9.75 0 0 0 .962-3.747h16.47a12.01 12.01 0 0 1 1.137 3.747 12.01 12.01 0 0 1-1.137 3.747z" class="B"/><path d="M206.15 213.745h2.776L194.25 149.1h-6.133zm81.383 0h2.776L275.633 149.1H269.5zm-55.158 0H229.6l14.676-64.645h6.133z" class="C"/><g class="B"><path d="M199.5 113.4h1.4v10.5h-1.4z"/><path d="M200.9 116.2h1.4v7.7h-1.4zm2.1 4.9h1.4v2.8H203z"/><path d="M204.4 117.6h1.4v6.3h-1.4zm3.5-2.1h1.4v8.4h-1.4z"/><path d="M209.3 117.6h1.4v6.3h-1.4zm3.5-4.2h1.4v10.5h-1.4z"/></g><path d="M212.8 123.9h1.4v10.5h-1.4zm3.5 0h1.4v10.5h-1.4z"/><path d="M214.2 123.9h1.4v4.2h-1.4zm-4.9 0h1.4v4.2h-1.4zm-2.8 0h1.4v4.2h-1.4z"/><path d="M207.9 123.9h1.4v4.9h-1.4zm-2.8 0h1.4v4.9h-1.4zm-2.8 0h1.4v4.9h-1.4z"/><path d="M200.9 123.9h1.4v2.1h-1.4zm16.8 0h1.4v4.2h-1.4z"/><g class="B"><path d="M219.8 113.4h1.4v10.5h-1.4zm-5.6 3.5h1.4v7h-1.4z"/><path d="M221.2 116.9h1.4v7h-1.4zm-32.9-.7a7.7 7.7 0 1 1 7.7-7.7 7.71 7.71 0 0 1-7.7 7.7zm0-14a6.3 6.3 0 1 0 6.3 6.3 6.31 6.31 0 0 0-6.3-6.3z"/></g><path d="M188.3 113.4a4.9 4.9 0 0 1 0-9.8 4.9 4.9 0 0 1 4.9 4.9c-.003 2.705-2.195 4.897-4.9 4.9zm0-8.4a3.5 3.5 0 1 0 0 7 3.5 3.5 0 0 0 2.475-5.975A3.5 3.5 0 0 0 188.3 105z"/><path d="M225.243 132.917h9.823L233.88 145.6h-7.738z" class="B"/><path d="M224 132.3h11.9v.7H224z"/><path d="M225.4 130.9h9.8v1.4h-9.8z"/><g class="B"><path d="M276.754 191.05s-1.24-19.88 3.15-24.616 4.377-11.5 4.377-15.293 4.03-12.048 6.027-8.795 4.62 11.7-1.905 17.84 1.905 11.18 1.905 13.267-9.547 4.524-7.787 8.46 0 12.583 0 12.583z"/><use xlink:href="#C"/></g><path d="M265.75 191.05s2.5-5.572 2.5-9.628-4.35-16.72-1.55-23.276.95-13.686 0-14.743 5.318-16.004 11.063-12.504-6.95 12.19-6.007 15.194 3.505 9.256 0 15.606-1.146 11.753.75 11.753 0 17.6 0 17.6z" class="C"/><use xlink:href="#C" x="-8.562" y="0.93" fill="#09f055"/><path d="M260.4 191.05h28l-4.8 27.09h-19.08z"/><g class="B"><path d="M503.61 193.584s-1.4-13.945 3.566-17.267 4.956-8.066 4.956-10.727 4.564-8.45 6.823-6.17 5.23 8.205-2.157 12.513 2.157 7.843 2.157 9.306-10.81 3.173-8.816 5.934 0 8.826 0 8.826z"/><path d="M498.63 193.067s-4.85-13.735-.827-17.528 2.824-8.506 2.16-11.152 2.347-8.853 5.122-6.808 7.154 7.652 1.017 12.66 4.064 7.596 4.43 9.056-9.76 4.212-7.13 6.764 2.2 8.78 2.2 8.78z"/></g><path d="M492.1 193.2s2.72-3.92 2.72-6.775-4.734-11.765-1.688-16.38 1.033-9.63 0-10.374 5.786-11.262 12.037-8.8-7.56 8.577-6.535 10.692 3.814 6.513 0 10.98-1.247 8.27.815 8.27 0 12.383 0 12.383z" class="C"/><path d="M489.09 193.697s-4.9-13.788-.835-17.59 2.85-8.54 2.18-11.2 2.368-8.884 5.17-6.827 7.222 7.68 1.027 12.707 4.1 7.62 4.47 9.082-9.854 4.227-7.19 6.79 2.22 8.813 2.22 8.813z" fill="#09f055"/><path d="M489.462 192.45h28l-4.8 27.09h-19.08z"/><path d="M312.277 92.05s-11.955-.35-11.955 11.55c0 5.74-1.084 37.468 11.955 62.84 4.99 9.707 9.6 16.764 27.115 17.253s25.98-8.362 29.04-22.978-2.538-8.358-18.2-13.36S322.1 102.2 322.1 102.2z" class="B"/><path d="M337.632 183.4h2.8v25.9h-2.8z"/><path d="M312.432 205.8h46.9v3.5h-46.9z"/><path d="M339.793 128.16l1.466-1.787s.894 10.037 1.413 10.037 14.508 1.444 14.508 2.05-9.36 3.27-11.36 2.448c-.972-.4-3.406.53-5.093-3.8-.634-1.6-.934-8.95-.934-8.95z" class="J"/><path d="M327.334 111.844c1.04-.222 2.114-.222 3.154 0a31.33 31.33 0 0 1 11.735 9.256c3.328 4.343-1.54 6.452-2.453 6.452s-1.273 7.495 0 8.483a12.6 12.6 0 0 1 2.453 3.033l-12.942 4.556s-1.543-8.936-2.78-9.636-2.4-8.357-2.4-9.734 1.1-16.717 1.1-16.717z" fill="#fff"/><path d="M330.77 116.656v-5.405h-6.24l3.12-14.386 13-1.1 3.75 2.1-.966 2.934-.706 4.4s-.536 4.338-2.078 6.06c-.93 1.02-2.28 1.55-3.655 1.432v4.9c-1.194.097-2.394.097-3.588 0a10.08 10.08 0 0 1-2.638-.927zm-4.407 1.02s.228 7.044-1.17 7.9-5.9 7.706-5.9 7.706l10.86-9.037 8.737-.714s3.094 2.365-4.428 5.52-20.3 15.24-21.324 14.57-3.23-.008-2.13-9.026 6.262-18.866 6.262-18.866z" class="J"/><path d="M306.85 133s-12.9-4.2 0-24.5c3.95-6.213 2.092-13.134 3.905-16.46 4.108-7.534 8.8-6.318 12.716-5.6 5.64 1.05 3.647-5.6 8.63-4.55s11.5.145 15.077 8.4-.24 17.5-2.08 11.9-2.22.532-5.223-1.4-9.923-4.468-7.775 1.4c2.622 7.164-3.21 7.164-4.25 10.86-.985 3.5.244 6.838-1.27 7.69-3.1 1.75-7.874 3.15-7.874 5.25 0 1.053-1.554 4.81-6.024 6.917-1.474.695-5.833.083-5.833.083z"/><path d="M342.672 136.408l13.524-18.1 12.89 3.174a1.4 1.4 0 0 1 .832 2.133l-9.754 14.7a1.4 1.4 0 0 1-1.383.609z" fill="#d8d8d8"/><path d="M359.67 132.746l5.477.54s-1.533 2.66-2.392 2.66a1.45 1.45 0 0 1-1.554-.473 22.32 22.32 0 0 1-1.531-2.727z" class="J"/><path d="M342.672 136.408l14.172-18.1h-1.006a2.1 2.1 0 0 0-1.667.823l-11.446 14.94a2 2 0 0 0-.053 2.336z" fill="#c6c6c6"/><path d="M387.336 203.203l-2.462-3.72-3.394-3.394-1 7.778z" fill="#fea7b0"/><path d="M329.28 143.624l12.563-4.366s6.917 3.82 20.564 3.847 17.047.766 18.79 1.63 6.02 7.717 6.02 14.233-.685 42.7-.685 42.7h-6.3l-6.2-39.38s5.267-2.64-.6-2.64-13.755.566-13.755.566-5.18-.12-12.825-4.15c-4.2-2.213-9.778-3.99-15.01-8.185-1.112-.895-2.55-4.245-2.55-4.245z" class="I"/><path d="M343.373 194.7l.9-4.372v-4.8l-6.2 4.8z" fill="#fea7b0"/><path d="M343.372 184.7l21.774-30.7 15.075 1.613-4.846 6.957-26.888 28.48s-3.7 1.753-5.114 0-.001-6.35-.001-6.35z" class="I"/><path d="M338.063 190.322l5.3 4.367.535 3.094s5.437 4.523 3.9 5.2-7.328-5.2-7.328-5.2l-5.664-5.324zm42.233 13.508l6.843-.667 2.566 1.8s7.043-.646 6.435.92-8.86 1.505-8.86 1.505l-7.77.24z"/><path fill="#f8e71c" d="M366.1 102.9h23.8v15.4h-23.8z"/><g fill="#8e8e8e"><circle cx="385.7" cy="108.5" r="2.1"/><path d="M368.9 106.4h12.6v1.4h-12.6zm0 2.1h12.6v1.4h-12.6zm0 2.1h12.6v1.4h-12.6zm0 2.1h12.6v1.4h-12.6z"/></g><path d="M408.45 56l-8.46 10.18 9.888 8.02" fill="none" class="D E H"/><g class="B"><circle cx="408.8" cy="74.2" r="2.1"/><circle cx="400.05" cy="66.15" r="1.05"/></g><path fill="#d8d8d8" d="M427.7 27.3h128.8v98H427.7z"/><path fill="#fff" d="M431.2 31.5h123.2v89.6H431.2z"/><circle cx="452.9" cy="51.1" r="9.1" class="B"/><circle cx="492.1" cy="51.1" r="9.1" class="C"/><circle cx="531.3" cy="54.6" r="13.3" class="B"/><path d="M534.8 42l-3.5 11.9 13.3 2.1s-.744-6.508-2.566-9.112S534.8 42 534.8 42z" class="C"/><text fill="#fff" font-size="6.3" class="K"><tspan x="449.4" y="54.6">10%</tspan></text><text font-size="6.3" class="K"><tspan x="488.6" y="54.6">15%</tspan></text><path d="M448.7 107.8h79.1v.7h-79.1z"/><path d="M452.2 68.6v39.9h-.7V68.6z"/><path d="M455 81.2h4.9v26.6H455zm16.8 9.8h4.9v16.8h-4.9zm-11.2-2.8h4.9v19.6h-4.9zm16.8-11.9h4.9v31.5h-4.9z" class="B"/><path d="M499.8 76.3h4.9v31.5h-4.9z" class="C"/><path d="M466.2 93.8h4.9v14h-4.9zM483 98h4.9v9.8H483z" class="B"/><path d="M494.2 91h4.9v16.8h-4.9zm-5.6-7h4.9v23.8h-4.9z" class="C"/><path d="M505.4 84h4.9v23.8h-4.9zm5.6 0h4.9v23.8H511z" class="B"/><path d="M522 109.2s-10.53-5.383-8.108-6.4a6.6 6.6 0 0 1 4.781 0s.3-3.44.894-2.454 4.72 7.086 4.72 7.086zm14.644 15.478s-11.57 2.443-10.336.12a6.6 6.6 0 0 1 3.716-3.009s-1.925-2.87-.85-2.47 8.128 2.536 8.128 2.536z" fill="#f8b7b1"/><path d="M523.883 106.26l-2.666 3.71 21.983 9.25 14.365-26.315-11.848-1.863s-3.22 4.8-3.22 6.644-1.05 12.285-1.05 12.285z" class="B"/><path d="M546.533 86.382s-3.8-.056-3.8-2.828c-.115-2.372-.427-4.73-.933-7.05l2.366-5.32h8.875l.553 3.544 1.1 1.777-1.656 5.208 3.172 6.333-1.5 3.578h-8.167z" fill="#f8b7b1"/><path d="M545.67 91s-3.17 8.4-3.17 11.9v38.182s25.562 4.252 25.562.522S565.3 93.1 565.3 93.1s-10.02-5.95-10.02-4.9c-.284 1.535-1.503 2.725-3.045 2.97-1.503.372-6.566-.17-6.566-.17z" class="C"/><path d="M543.2 141.083l2.3 71.592h7.42l2.1-70.74z" fill="#3d3d3d"/><path d="M542.5 141.083l25.562.522s-1.538 14.265-3.935 20.84 0 50.23 0 50.23H553.25z"/><path d="M546.542 212.675l-1.2 2.363 5.487 1.012v-3.927zm10.448-.023l-1.2 2.363 5.487 1.012V212.1z" fill="#ecbbb7"/><path d="M544.952 214.548l6.422 1.237v3.757l-3.21.43v-.43h-3.21s-9.48 1.065-8.79-1.042 5.653-.608 5.653-.608z"/><path d="M555.03 214.548l7.63 1.237v3.757l-3.21.43v-.43h-3.21s-9.48 1.065-8.79-1.042 5.653-.608 5.653-.608z"/><path d="M536.436 121.1v4.48l31.626-2.24-2.76-30.24s-5.033-3.588-5.033-.924v25.5z" class="B"/><path d="M541.403 76.863s2.7-3.717 4.4-3.717 1.546.92 3.034 1.857c1.13.712 3.88 1.613 4.69.834.248-.238.43 1.244.43 1.023 0-.517-.916 1.123-.916 4.848a7.54 7.54 0 0 0 .916 2.29h.474v-2.126s.335-5.2.85-6.032 3.02-5.26 1.508-6.957-5.087-1.052-7.006-2.148-11.58-3.264-11.58-1.29.722 5.736 1.188 5.736-.156 5.68.5 5.68z"/><circle cx="350.7" cy="47.6" r="8.4" fill="#7ed321"/><path d="M350.7 47.6v-8.4c2.155.097 4.22.9 5.874 2.283 1.452 1.593 2.34 3.62 2.526 5.767z" class="B"/><g fill="none" class="D H"><path d="M374.85 43.75h20.3v11.9h-20.3z" class="E"/><path d="M384.55 29.65h10v5.8h-10zm17.5 3.5h11.4v6.5h-11.4z" stroke-width=".5"/><path d="M375.846 44.1l8.81 7.35 9.39-7.35z" class="E"/><path d="M385 29.4l4.406 3.5 4.694-3.5zm17.5 3.5l5.083 4.2L413 32.9z" stroke-width=".5"/></g><circle cx="408.1" cy="56" r="2.1" class="B"/><defs ><path id="B" d="M45.286 124.362l2.345-7.165 6.764.045 2.425-7.228 7.22-.312"/><path id="C" d="M272.067 190.38s-4.335-19.44-.74-24.806 2.524-12.043 1.93-15.79 2.097-12.53 4.577-9.63 6.393 10.833.91 17.917 3.63 10.745 3.957 12.806-8.722 5.962-6.368 9.573 1.968 12.428 1.968 12.428z"/></defs></svg>