<svg xmlns="http://www.w3.org/2000/svg" width="70.809" height="36.934" viewBox="0 0 70.809 36.934">
  <path id="Path_17" data-name="Path 17" d="M1541.534,543.1a16.616,16.616,0,0,0-1.826,6.441s-.166,7.038,7.105,7.038h1s1.461.464,26.626-7.038h-6.374l-.332-7.9-2.988,7.9h-4.581l7.238-19.19h4.383l-1.992,5.512,4.714-5.512h13.812l-1.2,3.188H1582.4l-1.46,4.05h4.382l-1.394,3.586h-4.316l-1.727,4.714h5.18l-.4,1.394s18.791-4.847,20.783-5.378c0,0-53.556,25.38-62.321,25.38,0,0-8.463.052-8.463-6.854C1532.669,560.426,1531.706,553.985,1541.534,543.1Zm30.976,5.113,6.419-17.353-6.817,7.26Zm-10.491-17.862-7.127,19.19h4.427l7.172-19.19Zm-19.832,19.19h4.427l3.187-8.367-.354,8.367h4.692l7.172-19.19h-4.382l-3.276,8.477.531-8.477h-4.737Z" transform="translate(-1532.643 -530.346)"/>
</svg>
