<svg xmlns="http://www.w3.org/2000/svg" width="70.627" height="46.442" viewBox="0 0 70.627 46.442">
  <g id="Group_4" data-name="Group 4" transform="translate(-1262.324 -700.001)">
    <path id="Path_18" data-name="Path 18" d="M1293.38,746.443h-3.7a2.72,2.72,0,0,0-.332-.065c-.805-.058-1.612-.1-2.416-.168a39.908,39.908,0,0,1-9.9-2.09,25.187,25.187,0,0,1-10.232-6.262,14.878,14.878,0,0,1-3.689-15.512,22.709,22.709,0,0,1,5.862-9.226,38.721,38.721,0,0,1,10.183-7.29,54.46,54.46,0,0,1,22.335-5.775,47.949,47.949,0,0,1,9.053.419,38.144,38.144,0,0,1,9.935,2.72,23.288,23.288,0,0,1,8.906,6.407,14.89,14.89,0,0,1,3.529,8.723,16.305,16.305,0,0,1-1.734,8.218,26.917,26.917,0,0,1-7.117,8.827,45.033,45.033,0,0,1-14.63,8.056,55.311,55.311,0,0,1-14.27,2.873C1294.573,746.339,1293.976,746.395,1293.38,746.443ZM1321.4,705.4l.023-.05c-.108-.061-.213-.125-.323-.181a30.326,30.326,0,0,0-5.368-2.081,45.129,45.129,0,0,0-16.42-1.414,53.526,53.526,0,0,0-13.38,2.887,42.3,42.3,0,0,0-14.1,8.056,24.23,24.23,0,0,0-6.287,8.218,14.5,14.5,0,0,0-1.235,8.36,14.306,14.306,0,0,0,4.146,7.9,22.79,22.79,0,0,0,7.441,4.892,39.364,39.364,0,0,0,15.455,2.95,58.1,58.1,0,0,0,6.1-.339,51.038,51.038,0,0,0,13.944-3.459,39.648,39.648,0,0,0,13.867-8.932,21.977,21.977,0,0,0,4.939-7.406,13.82,13.82,0,0,0-.163-11.1c-.121-.268-.261-.528-.392-.791-.051.05-.058.077-.05.1.047.119.1.237.147.355a11.862,11.862,0,0,1,.76,6.411,16.075,16.075,0,0,1-2.8,6.762,28.926,28.926,0,0,1-8.037,7.64c-.324.216-.656.42-1.055.674l.773-7.342c-.143-.01-.256-.024-.368-.024-1.36,0-2.72.009-4.08-.008-.311,0-.381.107-.408.391-.174,1.8-.371,3.6-.551,5.395-.028.278-.117.455-.424.475a16.155,16.155,0,0,1-1.873.124,4,4,0,0,1-3.88-4.151,5.282,5.282,0,0,1,3.971-5.195,12.742,12.742,0,0,1,5.642-.122c.386.063.77.14,1.173.215l1.16-3.538c-.115-.048-.182-.084-.254-.106a16.778,16.778,0,0,0-9.22-.3,9.548,9.548,0,0,0-5.662,3.722,10.6,10.6,0,0,0-1.755,5.067,6.821,6.821,0,0,0,4.847,7.588,13.819,13.819,0,0,0,4.817.635c.15,0,.3,0,.519,0a1.131,1.131,0,0,1-.134.105,48.257,48.257,0,0,1-17.487,3.772,38.077,38.077,0,0,1-8.719-.742,26.642,26.642,0,0,1-8.822-3.374.5.5,0,0,1-.266-.56q.278-2.5.528-5.01c.026-.265.124-.337.382-.341.987-.017,1.978,0,2.958-.1a6.348,6.348,0,0,0,3.866-1.621,6.1,6.1,0,0,0,1.8-4.593,3.956,3.956,0,0,0-2.341-3.8,6.938,6.938,0,0,0-3.035-.764c-2.334-.043-4.67-.02-7-.033-.242,0-.31.106-.328.315-.034.409-.076.817-.119,1.225q-.447,4.226-.9,8.452c-.082.767-.164,1.534-.256,2.393-.13-.192-.2-.294-.271-.4a11.846,11.846,0,0,1-1.557-8.9,17.582,17.582,0,0,1,3.866-7.645,32.4,32.4,0,0,1,10.757-8.318,46.7,46.7,0,0,1,24.99-4.944,31.375,31.375,0,0,1,8.9,1.981C1320.376,704.977,1320.889,705.195,1321.4,705.4Zm-20.255,15.646a.814.814,0,0,0-.156-.09,15.242,15.242,0,0,0-7.261-.444,6.49,6.49,0,0,0-4.344,2.793,4.506,4.506,0,0,0,.629,5.863,6.667,6.667,0,0,0,2.651,1.347c.758.235,1.529.441,2.263.737a1.141,1.141,0,0,1,.464,1.865,2.18,2.18,0,0,1-1,.655,4.145,4.145,0,0,1-1.59.17c-1.128-.134-2.245-.369-3.363-.583-.255-.049-.384-.022-.5.239-.4.93-.829,1.847-1.246,2.769-.04.088-.069.181-.1.271a.8.8,0,0,0,.127.07c.27.081.539.166.812.237a14.239,14.239,0,0,0,7.07.334c2.682-.659,4.548-2.179,5.069-5.033a3.8,3.8,0,0,0-1.255-3.888,6.751,6.751,0,0,0-2.307-1.2c-.926-.3-1.867-.558-2.772-.912a1.055,1.055,0,0,1-.27-1.9,2.311,2.311,0,0,1,1.091-.514,11.465,11.465,0,0,1,2.332-.044,23.659,23.659,0,0,1,2.368.446Z" transform="translate(0)"/>
    <path id="Path_19" data-name="Path 19" d="M1315.487,778.9c.732.037,1.425.029,2.105.116a1.405,1.405,0,0,1,1.213,1.665,2.075,2.075,0,0,1-2.179,1.907c-.484.027-.972,0-1.529,0Z" transform="translate(-36.559 -54.653)"/>
  </g>
</svg>
