<svg xmlns="http://www.w3.org/2000/svg" width="357.777" height="302.958" viewBox="0 0 357.777 302.958"><defs><style>.a{fill:#e0f6d7;}.b{opacity:0.5;}.c{fill:#dae837;}.d{fill:#2e353a;}.d,.f{stroke:#2e353a;}.d,.o{stroke-miterlimit:10;}.e{fill:#d9e636;}.f,.g,.k{fill:#fff;}.f{stroke-linecap:round;stroke-linejoin:round;stroke-width:0.939px;}.h{fill:#d6ff3c;}.i{fill:#e1e6f4;}.aa,.ab,.ac,.ad,.ae,.af,.ag,.i,.j,.k,.l,.n,.p,.q,.r,.s,.t,.u,.v,.x,.y,.z{fill-rule:evenodd;}.j,.o,.w{fill:#01be3f;}.l,.m{fill:#d5e135;}.n{fill:#c1cbe7;}.o{stroke:#00bb3e;font-size:52.122px;font-family:Roboto-Regular, Roboto;}.p{fill:#000016;}.q{fill:#cd695c;}.r{fill:#f4f4f3;}.s{fill:#191c39;}.t{fill:#262f41;}.u,.x{fill:#e1a983;}.v{fill:#d78e74;}.x{stroke:#20201e;stroke-miterlimit:22.926;stroke-width:0.567px;}.y{fill:#1f3658;}.z{fill:#192c47;}.aa{fill:#9e376e;}.ab{fill:#2c4d80;}.ac{fill:#4573b5;}.ad{fill:#ca4e8c;}.ae{fill:#d88820;}.af{fill:#ecbf2d;}.ag{fill:#0e1325;}</style></defs><g transform="translate(-538 -233)"><g transform="translate(-118 87.549)"><path class="a" d="M1013.777,443.079c0,2.944-80.091,5.33-178.888,5.33S656,446.026,656,443.079s80.091-5.33,178.889-5.33S1013.777,440.135,1013.777,443.079Z"/><g class="b"><path class="c" d="M751.394,267.155c.06.007-.737-3.945-.816-4.189-.914-2.819-4.336-7.729-7.655-7.723a3.929,3.929,0,0,0-3.774,4.462c.24,2.331,2.333,4.317,4.227,5.464C745.6,266.515,751.389,267.155,751.394,267.155Z"/><path class="c" d="M697.828,291.726c2.6-.1,7.78-2.764,7.784-2.767.054-.027-2.791-2.884-2.991-3.044-2.317-1.847-7.881-4.053-10.645-2.218a3.928,3.928,0,0,0-.945,5.473,3.871,3.871,0,0,0,.258.327C692.775,291.312,695.616,291.815,697.828,291.726Z"/></g><rect class="d" width="158.228" height="285.162" rx="6.747" transform="translate(755.249 158.5)"/><path class="e" d="M845.3,175.533H825.6a2.019,2.019,0,0,1-2.02-2.018v0h0a2.02,2.02,0,0,1,2.02-2.02h19.7a2.019,2.019,0,0,1,2.02,2.02h0a2.019,2.019,0,0,1-2.018,2.02Z"/><path class="f" d="M903.477,418.172H765.248v-242.4h32.764l3.686,3.059a7.175,7.175,0,0,0,4.583,1.653h57.807a7.177,7.177,0,0,0,4.736-1.785l3.331-2.927h31.321Z"/><path class="e" d="M820.449,193.641l-1.885-6.337H771.521V411.636H897.63v-218Z"/><rect class="g" width="117.237" height="199.619" transform="translate(775.957 205.048)"/><path class="h" d="M838.778,425.643a3.141,3.141,0,1,0-3.141,3.141h0A3.141,3.141,0,0,0,838.778,425.643Z"/><path class="i" d="M833.761,366.816v-43.1h78.078a4.487,4.487,0,0,1,4.473,4.473v45.2a.788.788,0,0,1-1.273.621l-9.214-7.19Z"/><path class="i" d="M781.89,253.06v53.718h41.863v9.166a.982.982,0,0,0,1.585.773l12.737-9.939H875.91a5.591,5.591,0,0,0,5.575-5.574v-42.57a5.591,5.591,0,0,0-5.575-5.574Z"/><path class="j" d="M798.171,322.538H910.928a4.486,4.486,0,0,1,4.473,4.473v45.2a.787.787,0,0,1-1.272.62l-9.215-7.189H798.171a4.487,4.487,0,0,1-4.474-4.473V327.011A4.487,4.487,0,0,1,798.171,322.538Z"/><path class="k" d="M812.291,356.513a12.424,12.424,0,1,0-12.424-12.423A12.448,12.448,0,0,0,812.291,356.513Z" transform="translate(0 -0.215)"/><g transform="translate(0 -6.167)"><path class="k" d="M830.639,341.618h78.516a.8.8,0,0,1,.8.8h0a.8.8,0,0,1-.8.8H830.639a.8.8,0,0,1-.8-.8h0A.8.8,0,0,1,830.639,341.618Z"/><path class="k" d="M830.639,345.421h78.516a.8.8,0,0,1,.8.8h0a.8.8,0,0,1-.8.8H830.639a.8.8,0,0,1-.8-.8h0A.8.8,0,0,1,830.639,345.421Z"/><path class="k" d="M830.639,349.225h78.516a.8.8,0,0,1,.8.8h0a.8.8,0,0,1-.8.8H830.639a.8.8,0,0,1-.8-.8h0A.8.8,0,0,1,830.639,349.225Z"/><path class="k" d="M830.639,353.028h78.516a.8.8,0,0,1,.8.8h0a.8.8,0,0,1-.8.8H830.639a.805.805,0,0,1-.8-.8h0A.8.8,0,0,1,830.639,353.028Z"/><path class="k" d="M830.639,356.83h31.3a.805.805,0,0,1,.8.8h0a.8.8,0,0,1-.8.8h-31.3a.806.806,0,0,1-.8-.8h0A.806.806,0,0,1,830.639,356.83Z"/><path class="k" d="M865.135,356.83h1.352a.805.805,0,0,1,.8.8h0a.8.8,0,0,1-.8.8h-1.352a.806.806,0,0,1-.8-.8h0A.806.806,0,0,1,865.135,356.83Z"/></g><path class="l" d="M833.175,293.782l8.782,7.722a.982.982,0,0,1-.043,1.512l-14.746,11.506a.982.982,0,0,1-1.585-.774V294.52a.984.984,0,0,1,.981-.982h5.962A.949.949,0,0,1,833.175,293.782Z"/><rect class="m" width="151.674" height="53.717" rx="5.574" transform="translate(731.64 250.865)"/><circle class="g" cx="15.483" cy="15.483" r="15.483" transform="translate(739.329 262.241)"/><g transform="translate(0 -7)"><rect class="g" width="99.852" height="2.001" rx="1.001" transform="translate(776.678 274.643)"/><rect class="g" width="99.852" height="2.002" rx="1.001" transform="translate(776.678 279.383)"/><path class="k" d="M777.678,284.124h97.851a1,1,0,0,1,1,1h0a1,1,0,0,1-1,1H777.678a1,1,0,0,1-1-1h0A1,1,0,0,1,777.678,284.124Z"/><path class="k" d="M777.678,288.863h97.851a1,1,0,0,1,1,1h0a1,1,0,0,1-1,1H777.678a1,1,0,0,1-1-1h0A1,1,0,0,1,777.678,288.863Z"/><path class="k" d="M777.678,293.6h39.015a1,1,0,0,1,1,1h0a1,1,0,0,1-1,1H777.678a1,1,0,0,1-1-1h0A1,1,0,0,1,777.678,293.6Z"/><path class="k" d="M820.669,293.6h1.686a1,1,0,0,1,1,1h0a1,1,0,0,1-1,1h-1.686a1,1,0,0,1-1-1h0A1,1,0,0,1,820.669,293.6Z"/></g><path class="n" d="M760.256,288.618l1.222-1.192a2.632,2.632,0,0,1,.37.291A12.691,12.691,0,0,1,760.256,288.618Z"/><path class="n" d="M760.256,288.618l1.222-1.192a2.692,2.692,0,0,1,.371.29A12.58,12.58,0,0,1,760.256,288.618Z"/><path class="n" d="M749.4,288.619l-1.223-1.193a2.632,2.632,0,0,0-.37.291A12.757,12.757,0,0,0,749.4,288.619Z"/><path class="n" d="M749.4,288.619l-1.223-1.193a2.659,2.659,0,0,0-.37.29A12.638,12.638,0,0,0,749.4,288.619Z"/><path class="n" d="M750.581,286.462l-.1.029h0a12.708,12.708,0,0,0-2.3.935,1.8,1.8,0,0,0-.353.3,12.675,12.675,0,0,0,14,0,1.78,1.78,0,0,0-.354-.3,12.734,12.734,0,0,0-2.3-.935h0l-.1-.029-.007.006a11.709,11.709,0,0,0-1.739-.213l-2.471.356-.031,0-.029,0-2.472-.356a11.7,11.7,0,0,0-1.738.213Z"/><path class="n" d="M752.8,280.816l.06,1.389v3.277a1.189,1.189,0,0,1-.539.773c1.784,1.935,3.219,1.935,5,0a1.183,1.183,0,0,1-.538-.773V282.2l.059-1.389s-1,.179-2.024.43C753.8,280.995,752.8,280.816,752.8,280.816Z"/><path class="n" d="M761.266,273a3.066,3.066,0,0,1,.3,1.2c-.007.574-1.216.811-1.629.811s-11.589.411-11.589.411a.42.42,0,0,1-.347-.4c0-.335,1.916-4.514,1.916-4.514Z"/><path class="n" d="M760.925,276.549a1.779,1.779,0,1,0,1.778,1.779A1.78,1.78,0,0,0,760.925,276.549Z"/><path class="n" d="M748.7,276.549a1.779,1.779,0,1,0,1.779,1.779A1.779,1.779,0,0,0,748.7,276.549Z"/><path class="n" d="M754.786,267.116h0a6.11,6.11,0,0,0-6.093,6.092v5.539a6.11,6.11,0,0,0,6.093,6.093h0a6.11,6.11,0,0,0,6.093-6.093v-5.539A6.11,6.11,0,0,0,754.786,267.116Z"/><path class="n" d="M749.391,273.118v1.911c0,.75-.136.972-.511,1.246,0,0,.23.724-.188.9a.682.682,0,0,0-.328-.565v-4.639a2.567,2.567,0,0,0,1.074.726A2.047,2.047,0,0,0,749.391,273.118Z"/><path class="n" d="M760.138,272.8v1.379c0,.542.1.7.369.9,0,0,.069.46.37.583l.269-3.62a3,3,0,0,1-1.042.451A1.5,1.5,0,0,1,760.138,272.8Z"/><path class="n" d="M748,275.023a4.99,4.99,0,0,1,1.39-1.137h0l.027-.014c.056-.032.113-.063.17-.092a3.571,3.571,0,0,0,1.438-1.418c.508.35,2.589.3,3.373.263.088-.005.178-.008.266-.012l.014,0h.021c3.482-.138,6.852.705,6.868,1.588,3.017-6.342-4.526-12.449-11.235-5.52C746.784,268.847,747.1,272.489,748,275.023Z"/><path class="n" d="M807.923,352.832l-.981-.958a2.347,2.347,0,0,0-.3.233A10.092,10.092,0,0,0,807.923,352.832Z"/><path class="n" d="M807.923,352.832l-.981-.958a2.347,2.347,0,0,0-.3.233A10.092,10.092,0,0,0,807.923,352.832Z"/><path class="n" d="M816.632,352.832l.981-.958a2.262,2.262,0,0,1,.3.233A10.083,10.083,0,0,1,816.632,352.832Z"/><path class="n" d="M816.632,352.832l.981-.958a2.154,2.154,0,0,1,.3.233A10.083,10.083,0,0,1,816.632,352.832Z"/><path class="n" d="M815.686,351.1l.08.024h0a10.078,10.078,0,0,1,1.845.749,1.515,1.515,0,0,1,.283.242,10.17,10.17,0,0,1-11.236,0,1.464,1.464,0,0,1,.284-.243,10.054,10.054,0,0,1,1.846-.749h0l.081-.024.005,0a9.384,9.384,0,0,1,1.4-.171l1.984.285.023,0,.024,0,1.983-.285a9.39,9.39,0,0,1,1.4.171Z"/><path class="n" d="M813.9,346.57l-.047,1.115v2.63a.951.951,0,0,0,.432.62c-1.432,1.553-2.583,1.553-4.015,0a.951.951,0,0,0,.432-.62v-2.63l-.048-1.115s.8.144,1.623.345C813.1,346.714,813.9,346.57,813.9,346.57Z"/><path class="n" d="M807.112,340.3a2.45,2.45,0,0,0-.242.959c.005.46.976.65,1.308.65s9.3.332,9.3.332a.339.339,0,0,0,.278-.32c0-.268-1.537-3.622-1.537-3.622Z"/><path class="n" d="M807.386,343.147a1.427,1.427,0,1,1-1.427,1.427A1.428,1.428,0,0,1,807.386,343.147Z"/><path class="n" d="M817.2,343.147a1.427,1.427,0,1,1-1.428,1.427A1.427,1.427,0,0,1,817.2,343.147Z"/><path class="n" d="M812.312,335.577h0a4.9,4.9,0,0,1,4.889,4.889v4.444a4.9,4.9,0,0,1-4.889,4.889h0a4.9,4.9,0,0,1-4.89-4.889v-4.444A4.9,4.9,0,0,1,812.312,335.577Z"/><path class="n" d="M816.64,340.393v1.534c0,.6.11.78.411,1,0,0-.185.582.15.719a.548.548,0,0,1,.264-.454v-3.722a2.048,2.048,0,0,1-.861.582A1.686,1.686,0,0,1,816.64,340.393Z"/><path class="n" d="M808.018,340.137v1.106c0,.435-.079.563-.3.721,0,0-.055.369-.3.468l-.215-2.9a2.369,2.369,0,0,0,.835.362A1.21,1.21,0,0,0,808.018,340.137Z"/><path class="n" d="M817.754,341.922a4.012,4.012,0,0,0-1.115-.913h0l-.021-.011-.136-.075a2.862,2.862,0,0,1-1.154-1.136,7.635,7.635,0,0,1-2.706.211l-.214-.011h-.028c-2.794-.112-5.5.566-5.511,1.274-2.421-5.089,3.632-9.989,9.015-4.428C818.732,336.967,818.481,339.889,817.754,341.922Z"/><text class="o" transform="translate(790.04 223.814)"><tspan x="0" y="0">REVIEW</tspan></text><path class="p" d="M694.821,245.866s-4.083,2.083.014,2.372,45.551-11.789,48.751-14.938,15.394-36.072,14.626-42.032c0,0-.539-1.306-1.351-1.005a5.5,5.5,0,0,1-3.213-.06c-2.482-.649-1.992,1.411-2.356,2.43-1.394,3.9-10.6,22.632-13.495,27.1-2.627,4.052-17.526,7.849-31.489,5.437v14.419H693.451A38.346,38.346,0,0,1,694.821,245.866Z"/><path class="q" d="M755.777,192.915c4.667.077,8.723-4.668,7.5-10.637s-10.407-.306-10.407-.306Z"/><path class="q" d="M690.387,211.875l.437,3.5s.613,7.474.679,8.283-.247,1.112-1.061,1.846c-.963,2.169,2.975,10.858,5.286,11.024s12.755-1.6,13.442-2.29c.48-.485-5.572-7.839-5.373-9.147a2.79,2.79,0,0,1-1.28-.512c-2.412-1.928-2.621-7.74-1.18-9.919C702.413,213.032,690.387,211.875,690.387,211.875Z"/><path class="r" d="M712.123,237.38c-2.01-1.045-3.022.028-4.913,2.436s-3.875,2.352-4.982,2.938.632,21.325,8.389,23.886c2.869.948,4.492-.413,5.36-2.969C717.534,259.081,717.347,240.1,712.123,237.38Z"/><path class="p" d="M724.2,299.325l1.689,2.47s-1.106,21.6-3.639,49.468-7.389,78.44-7.284,83.381-6.264,2.081-7.056.687,1.99-99.776,1.357-108.77c-.221-3.138-4.176-1.961-5.717,4.29-2.874,11.664-4.156,36.283-5.049,50.3-1.372,21.534-3.876,54.437-3.7,56.18s-5.594,3.484-6.755.7a4.037,4.037,0,0,1-.159-1.9c.079-1.489-1.161-136.841.317-140.514S720.719,290.169,724.2,299.325Z"/><path class="k" d="M685.461,306.075c1.955,3.715,10.213,5.656,16.677,6.223h.005c1.549.136,2.995.193,4.225.178a8.462,8.462,0,0,0,2.228-.308,39.73,39.73,0,0,0,15.063-4.285c1.872-.327,2.853-1.084,3.3-2.075h0c.722-1.613.028-3.843-.549-5.836-1.037-3.582-5.347-10.347-6.09-27.672s.063-47.081-16.745-47.653c0,0,.214.4.555,1.153l-.688.1s2.074,5.092-.848,7.1-6.581-.09-8.277-1.952a.925.925,0,0,0-.792-.344c-1.2-1.382-2.5-2.769-3.926-4.166-3.457.947-8.724,4.374-8.724,4.374-2.666,1.653-5.922,4.482-6.127,7.674-.288,4.532,5.952,19.636,9.807,29.105C691.007,283.545,682.162,299.807,685.461,306.075Z"/><path class="i" d="M685.461,306.075c1.955,3.715,10.213,5.656,16.677,6.223h.005c1.549.136,2.995.193,4.225.178a8.462,8.462,0,0,0,2.228-.308,39.73,39.73,0,0,0,15.063-4.285c1.872-.327,2.853-1.084,3.3-2.075h0c.722-1.613.028-3.843-.549-5.836-1.037-3.582-5.347-10.347-6.09-27.672-.312-7.256-.352-16.691-1.527-25.25a187.461,187.461,0,0,0-11.261-15.217c4.592,24.028,5.2,57.7-.612,65.812-4.059,5.66-15.494,3.42-22.035,1.55C684.565,302.059,684.588,304.417,685.461,306.075Z"/><path class="s" d="M712.758,435.507a4.074,4.074,0,0,1,2.97-.576c1.542.4,10.451,4.6,11.88,5.179s2.932,2.77,1.8,4.028-8.646,1.115-12.631.325a27.1,27.1,0,0,0-8.533-.145c-1.467.108-3.183-3.069-1.767-7.66S707.458,436.333,712.758,435.507Z"/><path class="k" d="M729.651,442.274a1.766,1.766,0,0,1-.239,1.864c-.622.7-3.194.963-6.044.929-6.555-.076-8.679.007-15.967.007-1.2,0-1.1-1.921-1.375-3.989,1.091,1.512,2.978,1.64,6.586,1.356,3.732-.293,7.156.685,11.859,1.125C727.758,443.874,729.126,442.893,729.651,442.274Z"/><path class="s" d="M694.111,436.729s-2.59-2.986-5.755-.611a4.577,4.577,0,0,0-2.374,2.158c-.647,1.51-1.87,2.193-2.086,3.848s.288,2.95,2.554,2.95h3.669c1.618,0,4.028.251,4.855-1.763s0-3.848.288-4.891S694.111,436.729,694.111,436.729Z"/><path class="k" d="M683.864,442.437c-.111,1.5.465,2.637,2.586,2.637h3.669c1.618,0,4.028.251,4.855-1.763a4.978,4.978,0,0,0,.34-1.339c-.009.013-.951,1.3-4.065,1.5C688.119,443.663,684.4,443.7,683.864,442.437Z"/><path class="n" d="M705.423,224.842a3.417,3.417,0,0,0-2.906-.264s3.426,5.4.2,8.328-10.814-2.714-12.28-7.4a3.673,3.673,0,0,0-2.41,1.573s2.928,7.325,10.433,9.065S708.413,230.414,705.423,224.842Z"/><path class="p" d="M688.032,227.076s9.348,15.419,12.754,41.84,3.71,44.276-15.092,51.862c0,0-.873.329-1.669-1.535-3.77-8.833,4.035-43.015-6.352-66.53C671.6,238.96,674.251,231.486,688.032,227.076Z"/><path class="p" d="M705.423,224.842s4.524,8.166,5.856,25.127,5.722,45.886,7.031,51.865,5.8,12.171,8.038,12.76c0,0,3.018.718,3.217-3.928s-8.237-25.952-8.14-42.039S719.09,225.984,705.423,224.842Z"/><path class="t" d="M699.908,263.056s-10.693-32.862-15.448-34.7a18.529,18.529,0,0,1,2.69-2.032C687.624,226.217,694.183,232.883,699.908,263.056Z"/><path class="t" d="M705.409,224.835a130.808,130.808,0,0,1,6.189,29.25c.2,1.93.464,3.884.619,5.822.027.34.116.658.133,1,0,0-.08-16.062-2.025-24.906s-1.512-10.273-1.512-10.273A3.882,3.882,0,0,0,705.409,224.835Z"/><path class="t" d="M721.181,289.13a.825.825,0,0,0-1.629.258c0,.025,1.376,8.829,5.367,11.668a.825.825,0,1,0,.957-1.344C722.455,297.278,721.185,289.152,721.181,289.13Z"/><path class="u" d="M758.147,177.831c-1.285-1.269-3.923-2.6-4.642-3.338-.953-.976-1.778.592-1.008,1.665a1.785,1.785,0,0,0,.884,1.936,1.371,1.371,0,0,1,.09,2.15c.559.38,1.807.638,2.262.11C756.135,179.89,757.5,178.654,758.147,177.831Z"/><path class="u" d="M757.353,177.152c-.347-.264-.727-.526-1.11-.78-1.221-.436-3.505-1.01-4.05-1.145a1.617,1.617,0,0,0,.3.931,1.785,1.785,0,0,0,.884,1.936,1.81,1.81,0,0,1,.166.138h0l.005.005a1.565,1.565,0,0,1,.162.18,5.477,5.477,0,0,1,1.122,2.234,1.121,1.121,0,0,0,.9-.3c.338-.39,1.353-1.323,2.054-2.1A4.344,4.344,0,0,0,757.353,177.152Z"/><path class="q" d="M704.587,201.766a3.293,3.293,0,1,0,3.9,2.543A3.294,3.294,0,0,0,704.587,201.766Z"/><path class="q" d="M683.085,206.3a3.293,3.293,0,1,0,3.9,2.542A3.293,3.293,0,0,0,683.085,206.3Z"/><path class="u" d="M691.375,187.314h0c-6.07,1.277-9.891,7.736-8.492,14.355L685.2,212.6c1.4,6.617,7.51,10.987,13.579,9.709h0c6.07-1.276,9.891-7.736,8.492-14.354l-2.313-10.936C703.555,190.406,697.444,186.036,691.375,187.314Z"/><path class="v" d="M682.607,198.329a13.221,13.221,0,0,0,.275,3.34L685.2,212.6c1.286,6.085,6.557,10.268,12.116,9.91l.962-.108h.006c-6.149.709-9.138-6.922-9.655-9.306s-.073-.341-1.342-6.192,1.837-7.164,4.053-7.644l10.992-2.383a2.2,2.2,0,0,1,2.214.888l.458-.535-.045-.21a12.809,12.809,0,0,0-5.48-8.117c-5.285,2.274-14.065,6.1-14.612,6.63C684.564,195.826,683.641,196.992,682.607,198.329Z"/><path class="p" d="M705.745,193.414l-1.549,2.418s-1.75-3.491-9.486-.62,5.753-9.015,7.693-8.457S706.454,189.732,705.745,193.414Z"/><path class="s" d="M685.046,198.089s8.043-.841,11.491-4.247,6.576-5.33,7.9-4.159-2.189,6.213,1.51,12.08c-1.725-8.7,6.57-10.935-1.065-17.981-3.51-3.239-8.453-4.043-10.15-1.65-5.53,7.793-16.8,1.667-14.592,12.117,0,0-4.741,2.831,2.28,12.265a1.391,1.391,0,0,1,1.733,1.2l.562,3.348C686.242,210.736,685.854,199.819,685.046,198.089Z"/><path class="k" d="M695.788,215.29a2.669,2.669,0,1,0,5.146-1.417l-.005,0a.461.461,0,0,0-.566-.322l-4.249,1.17a.462.462,0,0,0-.322.566Z"/><rect class="w" width="56.439" height="42.864" rx="3.492" transform="translate(725.351 145.451)"/><path class="k" d="M746.514,163.649a7.757,7.757,0,0,1,3.233-3.67,5.344,5.344,0,0,0,2.617-3.491,21.04,21.04,0,0,0,.5-5.461.708.708,0,0,1,.707-.707h2.09a1.575,1.575,0,0,1,.474.077,3.939,3.939,0,0,1,1.973,1.874,7.387,7.387,0,0,1,.92,3.618,8.22,8.22,0,0,1-.386,2.488c-.567,1.816-.633,2.795-.428,3.292.117.281.448.343.814.343h5.239a6.357,6.357,0,0,1,1.645.2,3.69,3.69,0,0,1,1.854,1.094,3.527,3.527,0,0,1,.825,2.417,6.829,6.829,0,0,1-.213,1.612c.353.86,1.384,3.877-.619,5.718.083.918.1,3.152-1.574,4.22a4.7,4.7,0,0,1-4.6,3.549h-9.6c-1.912,0-3.83-1.327-5.031-2.357v.281a2.2,2.2,0,0,1-.647,1.558l-.048.043a2.191,2.191,0,0,1-1.509.6h-4.365a2.207,2.207,0,0,1-2.2-2.205V164.964a2.2,2.2,0,0,1,.646-1.557l.048-.044a2.2,2.2,0,0,1,1.51-.6h4.365a2.2,2.2,0,0,1,1.554.647,2.106,2.106,0,0,1,.211.242Zm.439,12.892c.644.671,2.916,2.87,5.031,2.87h9.6a3.392,3.392,0,0,0,3.3-2.739.7.7,0,0,1,.375-.489c1.409-.7,1.111-2.952,1.06-3.274a.708.708,0,0,1,.272-.719c1.764-1.3.594-4.073.421-4.457a.7.7,0,0,1-.062-.519,5.809,5.809,0,0,0,.224-1.488,2.168,2.168,0,0,0-.472-1.488,2.306,2.306,0,0,0-1.158-.659,5.012,5.012,0,0,0-1.28-.153H759.03a2.015,2.015,0,0,1-2.117-1.216c-.324-.781-.3-2.079.383-4.253a6.938,6.938,0,0,0,.323-2.068,5.926,5.926,0,0,0-.736-2.922,2.588,2.588,0,0,0-1.165-1.222l-.055-.011h-1.385a20.069,20.069,0,0,1-.555,5.135,6.682,6.682,0,0,1-3.307,4.352c-2.729,1.47-3.386,5.208-3.463,5.713v9.607Zm-2.2-12.366h-4.365a.79.79,0,0,0-.532.206l-.026.026a.786.786,0,0,0-.232.557v13.785a.792.792,0,0,0,.79.79h4.365a.791.791,0,0,0,.531-.205l.026-.027a.789.789,0,0,0,.232-.558V164.964a.792.792,0,0,0-.789-.789Z"/><path class="x" d="M684.038,303.537c1.914,1.3,3.52,2.487,3.52,2.487a6.736,6.736,0,0,0,2.24-2.514,15.554,15.554,0,0,0,1.2-5.751c0-1.071-1.663.547-4.27-.372-1.492-.527-2.549-2.238-1.354-1.2C688.094,298.563,684.038,303.537,684.038,303.537Z"/><path class="p" d="M678.085,233.259s1.043-2.31-2.862,2.24c-2.789,3.25-10.282,26.915-11.817,37.1-1.308,8.67,14.242,28.948,22.016,32.387,0,0,.465.18.589-.466.339-1.77,3.03-6.911,2.173-7.449-.892-.559-9.36-18.749-11.263-22.679s7.934-22.9,8.55-25.894S684.956,236.513,678.085,233.259Z"/><path class="t" d="M691.536,295.166a.919.919,0,0,1,1.815.288c-.005.029-1.533,9.841-5.981,13.006a.92.92,0,1,1-1.067-1.5C690.116,304.249,691.531,295.193,691.536,295.166Z"/><path class="u" d="M751.381,191.963c-.383-1.454-4.057-2.832-6.429-3.52s.995-1.914,2.143-1.761a7.142,7.142,0,0,1,2.372.919c2.039-.543,9.9,1.307,7.959,4.438C756.049,194.258,751.381,191.963,751.381,191.963Z"/><path class="v" d="M964.851,247.927s-3.251.837-4.945,5.528-8.34,19.486-9.124,20.147-21.354.449-22.558.687l-12.88-.023s2.6,2.821,4.831,2.946,1.571-.418,2.384-.416,24.992,2.969,27.038,3.214,5.3.009,8.432-3.477,10.624-17.193,11.35-19.359S971.143,247.066,964.851,247.927Z"/><path class="v" d="M967.553,433.813l-5.888,1.2s.227,2.7-.743,4.024,4.528,3.5,4.528,3.5l2.9-3.364.337-2.684Z"/><path class="y" d="M962.168,295.872c-3.1,10.914-1.063,65.14-.086,76.5.524,6.085,2.105,44.724-.59,62.692-.2,1.336-.426,1.835.383,2.134l6.533.221c.975-.015.72-.718.818-2.3.5-7.951,5.152-39.042,5.642-43.575a58.731,58.731,0,0,0-.223-11.049c-.034-.878,6.913-37.372,10.918-53.149s6.017-26.74,2.887-34.354S962.168,295.872,962.168,295.872Z"/><path class="z" d="M965.667,437.321l.795.031c.822-10.6,1.954-25.6,2.524-34.778.673-10.854.64-22.43.62-29.372-.008-2.874-.014-4.951.033-5.821.161-3.012,4.375-75.434,4.387-75.643.017-.3-.148-.542-.367-.551s-.412.224-.429.518c-.012.209-4.222,72.557-4.387,75.647-.049.921-.043,3.013-.034,5.906.019,6.928.052,18.486-.618,29.277C967.623,411.687,966.489,426.714,965.667,437.321Z"/><path class="aa" d="M949.945,447.332H967.7s1.06-.069,1.155-1.5.271-4.049.333-4.967a2.445,2.445,0,0,0-.839-1.7s-2.7,1.734-7-.035a2.855,2.855,0,0,0-1.946.1c-1.32.409-10.65,4.627-10.65,4.627a2.462,2.462,0,0,0-1.156,1.768C947.517,446.77,947.925,447.282,949.945,447.332Z"/><path class="v" d="M977.163,433.813l-5.808,1.2s.407,2.7-.474,4.024,4.763,3.5,4.763,3.5l2.673-3.364.158-2.684Z"/><path class="ab" d="M962.546,295.872c-2.368,10.914,3.3,65.14,5.035,76.5.93,6.085,5.1,44.724,3.6,62.692-.111,1.336-.3,1.835.527,2.134l6.547.221c.975-.015.671-.718.664-2.3-.037-7.951,4.375-42.1,4.562-46.636.2-4.906-3.258-14.5-3.411-15.946-.092-.879,5.025-29.414,7.973-45.191s4.228-26.74.589-34.354S962.546,295.872,962.546,295.872Z"/><path class="ac" d="M975.512,437.321l.8.031c.111-10.6.239-25.6.194-34.778-.053-10.854-.86-22.43-1.344-29.372-.2-2.874-.345-4.951-.358-5.821-.04-3.012-.672-75.434-.674-75.643a.513.513,0,0,0-.4-.551c-.22-.009-.4.224-.393.518,0,.209.634,72.557.675,75.647.013.921.158,3.013.361,5.906.483,6.928,1.289,18.486,1.342,29.277C975.752,411.687,975.623,426.714,975.512,437.321Z"/><path class="ad" d="M960.459,447.332h17.755s1.056-.069,1.056-1.5v-4.967a2.654,2.654,0,0,0-.953-1.7s-2.585,1.734-7.007-.035a2.854,2.854,0,0,0-1.938.1c-1.293.409-10.341,4.627-10.341,4.627a2.254,2.254,0,0,0-1.037,1.768C957.994,446.77,958.436,447.282,960.459,447.332Z"/><path class="ae" d="M880.967,226.427c5.284-3.678,15.691,2.143,23.246,13s9.395,22.638,4.112,26.314l-2.683,1.867-.546-.784q-.182.012-.369.015a25.421,25.421,0,0,0,2.493-6.5c.67-3.8-2.4-13.6-12.7-24.547-8.135-8.644-13.985-7.954-16.083-7.282l-.151-.218Z"/><path class="s" d="M912.638,271.373h0a1.2,1.2,0,0,0-.277,1.551l17.2,24.355c.354.5.939.279,1.551.279h0c.613,0,.632-1.051.279-1.551l-17.2-24.357A1.062,1.062,0,0,0,912.638,271.373Z"/><path class="p" d="M906.048,267.716l3.875,5.567c1.239,1.782,3.48,2.386,4.979,1.343h0c1.5-1.044,1.712-3.355.472-5.136l-3.875-5.567Z"/><path class="ae" d="M877.469,227.541c-6.2,4.311-4.653,17.24,3.446,28.878S900.6,274,906.8,269.686l3.145-2.189-.585-.841c.063-.125.122-.254.179-.383a30.185,30.185,0,0,1-7.935.416c-4.3-.588-13.259-7.154-20.24-21.706-5.515-11.5-2.214-17.417-.584-19.4l-.163-.234Z"/><path class="af" d="M880.613,225.352c-6.194,4.311-4.652,17.241,3.447,28.878s19.687,17.578,25.881,13.267,4.653-17.241-3.446-28.878-19.686-17.578-25.882-13.267Zm2.226,3.2c4.766-3.317,14.2,2,21.069,11.869s8.574,20.564,3.808,23.88-14.2-2-21.069-11.869S878.073,231.867,882.839,228.55Z"/><path class="ad" d="M958.98,232.247a4.259,4.259,0,0,0-1.745,2.882c-.339,2.033-.444-5.021.551,3.474s-7.282,16.692-7.451,20.081,12.239,22.343,13.765,29.97c0,0-6.87,13.394-4.752,13.648,1.645.2,30.129,8.792,30.129-11.205,0-1.236-4.316-5.688-6.624-13.147-1.33-4.3-1.994-8.277-.774-16.629,3.334-22.829-11.174-33.01-11.174-33.01Z"/><path class="aa" d="M956.741,272.378a131.488,131.488,0,0,1,6.33,12.956q.8-1.01,1.66-2.157c5.815-7.806,13.775-26.478,14.539-34.284l-6.428-1.836S962,262.9,956.741,272.378Z"/><path class="u" d="M954.038,230.912c-8,1.258-8.873-13.923-8.788-18.747.112-6.347,5.109-10.451,5.109-10.451,3.748-.374,8.584-.815,10.133.964C966.035,209.041,969.9,228.42,954.038,230.912Z"/><path class="k" d="M948.926,225.289a2.136,2.136,0,0,0,4.251-.42h0a.37.37,0,0,0-.4-.331l-3.509.346a.37.37,0,0,0-.331.4Z"/><path class="u" d="M918.333,277.771c-1.481-2.031-2-2.789-2-2.789s.585-.93,1.067-.62a13.882,13.882,0,0,0,3.617,1.274,4.8,4.8,0,0,1,2.65,1.369c3.137-.2,27.223.741,28.182-.069.991-.84,8.968-18.224,11.1-24.173s6.254-7.016,6.254-7.016c7.97-1.106,6.673,8.961,5.758,11.706s-9.959,18.757-13.925,23.181-5.3,5.665-7.647,5.388-19.738-1.941-27.965-2.974c-.012.021.417-.655-.037.061s-5.2,1.24-6.268,1.55-1.342-1.274-1.342-1.274-1.413-.241-1.55-1.1l-.138-.862s-2-.551-1.86-1.514l.138-.965s-1.447-.9-1.033-1.722a1.906,1.906,0,0,1,1.171-1S913.855,278.046,918.333,277.771Z"/><path class="ag" d="M953.417,206.373c-.662,2.409-3.108,4.844-8.142,5.2-.013.194-.022.389-.025.588-.03,1.744-.014,3.38.031,4.852,0,0-7.943-3.2-10.165-8.965s9.028-13.5,11.589-14.441,4.146,1.748,4.146,1.748,4.477-4.032,10.043-3.59,11.051,8.251,12.543,12.816-2.683,15.443,7.879,23.538,8.67,19.7-2.332,23.592-23.825-7.094-19.877-25.987c0,0,2.359-7.648-.144-10.275S953.872,212.615,953.417,206.373Z"/></g></g></svg>