<?xml version="1.0" standalone="no"?>
<!DOCTYPE svg PUBLIC "-//W3C//DTD SVG 20010904//EN"
 "http://www.w3.org/TR/2001/REC-SVG-20010904/DTD/svg10.dtd">
<svg version="1.0" xmlns="http://www.w3.org/2000/svg"
 width="300.000000pt" height="300.000000pt" viewBox="0 0 300.000000 300.000000"
 preserveAspectRatio="xMidYMid meet">
<metadata>
Created by potrace 1.11, written by Peter Selinger 2001-2013
</metadata>
<g transform="translate(0.000000,300.000000) scale(0.100000,-0.100000)"
fill="#000000" stroke="none">
<path d="M1290 2342 c-110 -55 -69 -222 55 -222 121 0 166 157 63 220 -41 25
-72 25 -118 2z"/>
<path d="M1743 2345 c-18 -8 -42 -29 -53 -47 -68 -109 80 -236 178 -153 67 56
60 150 -14 195 -37 23 -67 25 -111 5z"/>
<path d="M977 2097 c-57 -33 -76 -94 -46 -154 65 -131 257 -55 219 86 -20 74
-104 108 -173 68z"/>
<path d="M2084 2113 c-32 -6 -82 -64 -88 -103 -14 -97 104 -170 187 -115 53
35 68 114 32 169 -24 37 -79 57 -131 49z"/>
<path d="M1494 1915 c-149 -74 -149 -271 -1 -347 91 -46 218 -3 258 87 58 131
-16 264 -156 280 -41 5 -59 2 -101 -20z"/>
<path d="M2 981 l3 -336 73 0 c43 -1 72 3 73 10 1 5 2 66 3 135 l1 124 140 1
140 0 3 62 3 62 -143 3 -143 3 -1 68 c-1 37 2 68 5 68 3 1 78 3 166 4 88 2
163 3 166 4 4 1 5 77 0 117 -1 8 -76 11 -246 11 l-245 0 2 -336z"/>
<path d="M1750 1069 c0 -304 -5 -321 -97 -304 -40 7 -63 47 -57 102 l3 33 -74
0 -73 0 0 -37 c-1 -59 25 -137 55 -168 80 -81 249 -85 334 -8 59 54 65 88 65
378 l-1 250 -77 1 -78 2 0 -249z"/>
<path d="M815 1130 c-45 -10 -69 -25 -85 -54 -19 -36 -28 -32 -26 11 l1 37
-67 1 -68 1 0 -241 0 -241 69 0 69 1 4 147 3 148 31 31 c23 23 42 31 75 34
l44 3 3 60 c3 66 -3 73 -53 62z"/>
<path d="M1084 1127 c-47 -18 -98 -56 -120 -91 -86 -131 -43 -314 90 -383 18
-10 63 -17 107 -19 67 -3 83 0 130 24 47 24 107 87 109 115 0 4 -31 7 -68 7
-55 0 -72 -4 -86 -19 -44 -49 -145 -29 -171 33 -20 48 -19 58 8 56 12 -1 90
-2 174 -1 l152 1 -4 44 c-8 103 -57 186 -131 221 -45 21 -148 28 -190 12z
m113 -93 c24 -7 63 -61 63 -88 0 -14 -14 -16 -100 -16 -55 0 -100 4 -100 9 0
30 25 71 53 85 35 17 50 19 84 10z"/>
<path d="M2765 1127 c-16 -8 -43 -27 -59 -43 l-28 -29 3 35 4 35 -70 0 -71 0
0 -235 c0 -129 4 -237 8 -240 4 -3 36 -5 70 -5 l63 1 1 149 c1 152 7 185 43
212 24 19 76 15 102 -6 25 -20 25 -21 29 -316 l0 -40 68 0 67 0 3 180 c2 170
1 182 -20 224 -13 25 -35 53 -49 63 -33 25 -125 33 -164 15z"/>
<path d="M2004 1118 c-11 -17 -6 -346 5 -380 21 -63 86 -108 156 -108 47 0 85
16 123 53 l33 32 -6 -32 c-3 -18 -2 -34 2 -34 5 -1 36 -2 71 -3 l62 -2 0 241
0 241 -62 -2 c-35 -1 -66 -2 -70 -3 -4 0 -8 -73 -10 -162 l-3 -161 -28 -24
c-34 -29 -76 -31 -108 -5 -23 18 -24 26 -29 188 l-5 168 -63 0 c-35 1 -66 -3
-68 -7z"/>
</g>
</svg>
