<svg xmlns="http://www.w3.org/2000/svg" width="64.059" height="22.227" viewBox="0 0 64.059 22.227">
  <g id="Group_1" data-name="Group 1" transform="translate(-908.187 -593.76)">
    <path id="Path_1" data-name="Path 1" d="M916.834,613.053c3.028,0,5.37-2.341,5.37-5.807V593.76h3.278v21.853h-3.247v-2.029a7.887,7.887,0,0,1-5.775,2.4c-4.683,0-8.273-3.4-8.273-8.554V593.76h3.278v13.486c0,3.528,2.31,5.807,5.369,5.807"/>
    <path id="Path_2" data-name="Path 2" d="M996.951,593.76h3.153v7.961a7.872,7.872,0,0,1,5.651-2.373,8.32,8.32,0,1,1,0,16.639,7.944,7.944,0,0,1-5.682-2.373v2h-3.122Zm8.585,19.449a5.526,5.526,0,1,0-5.494-5.526,5.5,5.5,0,0,0,5.494,5.526" transform="translate(-69.034)"/>
    <path id="Path_3" data-name="Path 3" d="M1087.994,619.041c4.589,0,7.961,3.527,7.961,8.273v1.03H1083a5.339,5.339,0,0,0,5.276,4.527,5.475,5.475,0,0,0,4.589-2.341l2.279,1.686a8.344,8.344,0,0,1-6.868,3.4,8.29,8.29,0,1,1-.281-16.577m-4.932,6.806h9.709a4.955,4.955,0,0,0-4.839-4.059,5.014,5.014,0,0,0-4.87,4.059" transform="translate(-133.48 -19.662)"/>
    <path id="Path_4" data-name="Path 4" d="M1167,622.818c-2.06,0-3.559,1.592-3.559,4.058v9.053h-3.153V620.009h3.122v1.967a4.256,4.256,0,0,1,3.809-2.092h1.093v2.934Z" transform="translate(-196.069 -20.317)"/>
  </g>
</svg>
