<svg xmlns="http://www.w3.org/2000/svg" width="577.728" height="230.5" viewBox="0 0 577.728 230.5">
    <defs>
        <style>
            .prefix__cls-2{fill:#2f2e41}.prefix__cls-3{fill:#d6e602}.prefix__cls-4{fill:none;stroke:#3f3d56;stroke-miterlimit:10}.prefix__cls-6{fill:#01be3f}.prefix__cls-7{fill:#0ec01b}.prefix__cls-8{fill:#fff}.prefix__cls-9{fill:#6c63ff;opacity:.3}
        </style>
    </defs>
    <g id="prefix__undraw_page_not_found_su7k" transform="translate(.206 -87.667)">
        <ellipse id="prefix__Ellipse_13" cx="283.418" cy="18.791" data-name="Ellipse 13" rx="283.418" ry="18.791" transform="translate(7.072 280.586)" style="fill:#f2f2f2"/>
        <path id="prefix__Path_95" d="M515.277 324.894c-46.245 0-79.448 29.6-79.448 98.682 0 78.288 33.2 99.011 79.448 99.011s81.426-22.7 81.426-99.011c-.003-81.576-35.181-98.682-81.426-98.682zm.3 171.707c-32.03 0-48.764-18.75-48.764-72.974 0-47.845 17.419-73.075 49.449-73.075s49.449 16.573 49.449 73.075c.004 52.857-18.1 72.973-50.13 72.973z" class="prefix__cls-2" data-name="Path 95" transform="translate(-235.649 -230.793)"/>
        <path id="prefix__Path_96" d="M261.261 474.7H242.14v-56.19a11.264 11.264 0 0 0-11.276-11.252h-4.48a11.264 11.264 0 0 0-11.276 11.252v56.19h-53.932a6.424 6.424 0 0 1-5.692-9.425l57.081-107.811a11.242 11.242 0 0 0-5.155-15.432l-3.37-1.588a11.287 11.287 0 0 0-14.759 4.87l-69.617 129.96a15.233 15.233 0 0 0-1.806 7.193 15.274 15.274 0 0 0 15.29 15.258h81.96v35.529a13.5 13.5 0 0 0 13.516 13.488 13.5 13.5 0 0 0 13.516-13.488v-35.529h19.12a11.526 11.526 0 0 0 11.54-11.514 11.526 11.526 0 0 0-11.539-11.511z" class="prefix__cls-3" data-name="Path 96" transform="translate(-88.369 -237.476)"/>
        <path id="prefix__Path_97" d="M919.257 474.7h-19.12v-56.19a11.264 11.264 0 0 0-11.276-11.252h-4.48A11.264 11.264 0 0 0 873.1 418.51v56.19h-53.927a6.424 6.424 0 0 1-5.692-9.425l57.081-107.811a11.242 11.242 0 0 0-5.155-15.432l-3.37-1.588a11.287 11.287 0 0 0-14.759 4.87l-69.617 129.96a15.232 15.232 0 0 0-1.806 7.193 15.274 15.274 0 0 0 15.29 15.258H873.1v35.529a13.5 13.5 0 0 0 13.516 13.488 13.5 13.5 0 0 0 13.516-13.488v-35.529h19.12a11.526 11.526 0 0 0 11.548-11.514 11.526 11.526 0 0 0-11.543-11.511z" class="prefix__cls-3" data-name="Path 97" transform="translate(-393.149 -237.476)"/>
        <path id="prefix__Path_98" d="M271.063 462.444h-19.12v-56.187A11.264 11.264 0 0 0 240.667 395h-4.48a11.264 11.264 0 0 0-11.276 11.252v56.187h-53.932a6.424 6.424 0 0 1-5.692-9.425l57.081-107.811a11.242 11.242 0 0 0-5.155-15.432l-3.37-1.588a11.287 11.287 0 0 0-14.759 4.87l-69.617 129.968a15.232 15.232 0 0 0-1.806 7.193 15.274 15.274 0 0 0 15.29 15.258h81.96V521a13.5 13.5 0 0 0 13.516 13.488A13.5 13.5 0 0 0 251.943 521v-35.528h19.12a11.526 11.526 0 0 0 11.537-11.514 11.526 11.526 0 0 0-11.537-11.514z" class="prefix__cls-4" data-name="Path 98" transform="translate(-92.897 -231.816)"/>
        <path id="prefix__Path_99" d="M937.637 462.444h-19.12v-56.187A11.264 11.264 0 0 0 907.241 395h-4.48a11.264 11.264 0 0 0-11.276 11.253v56.187h-53.932a6.424 6.424 0 0 1-5.692-9.425l57.081-107.811a11.242 11.242 0 0 0-5.155-15.432l-3.37-1.588a11.287 11.287 0 0 0-14.759 4.87L796.04 463.021a15.233 15.233 0 0 0-1.806 7.193 15.274 15.274 0 0 0 15.29 15.258h81.96V521A13.5 13.5 0 0 0 905 534.489 13.5 13.5 0 0 0 918.517 521v-35.528h19.12a11.526 11.526 0 0 0 11.538-11.514 11.526 11.526 0 0 0-11.538-11.514z" class="prefix__cls-4" data-name="Path 99" transform="translate(-401.639 -231.816)"/>
        <path id="prefix__Path_100" d="M534.882 313.866c-46.245 0-79.448 29.6-79.448 98.682 0 78.288 33.2 99.011 79.448 99.011s81.426-22.7 81.426-99.011c0-81.577-35.181-98.682-81.426-98.682zm.3 171.707c-32.03 0-48.764-18.75-48.764-72.974 0-47.845 17.419-73.075 49.449-73.075S585.32 356.1 585.32 412.6c0 52.857-18.1 72.974-50.134 72.974z" class="prefix__cls-4" data-name="Path 100" transform="translate(-244.726 -225.699)"/>
        <path id="prefix__Path_116" d="M1063.585 558.785a11.2 11.2 0 1 0 1.491-21.478l.28 5.764-2.727-4.94a11.156 11.156 0 0 0-5.749 6.308 10.984 10.984 0 0 0-.644 3.029 11.2 11.2 0 0 0 7.349 11.317z" data-name="Path 116" transform="translate(-522.65 -329.046)" style="fill:#08bf31"/>
        <path id="prefix__Path_117" d="M1093.184 617.375c-.963-4.9 3.209-9.248 7.329-12.073s8.935-5.6 10.341-10.394c2.021-6.89-4-13.2-8.682-18.64a67.429 67.429 0 0 1-8.891-13.214 18.194 18.194 0 0 1-2.126-6.008c-.369-3.054.612-6.093 1.6-9.006q4.939-14.556 10.562-28.868" class="prefix__cls-4" data-name="Path 117" transform="translate(-538.755 -320.966)"/>
        <path id="prefix__Path_118" d="M1064.443 556.027a11.2 11.2 0 1 0 1.491-21.478l.28 5.764-2.727-4.94a11.157 11.157 0 0 0-5.749 6.308 10.981 10.981 0 0 0-.644 3.029 11.2 11.2 0 0 0 7.349 11.317z" class="prefix__cls-4" data-name="Path 118" transform="translate(-523.046 -327.769)"/>
        <path id="prefix__Path_119" d="M1091.874 509.14a11.185 11.185 0 0 1 8.06-7.1l.922 5.48 1.71-5.755a11.2 11.2 0 1 1-10.692 7.377z" class="prefix__cls-6" data-name="Path 119" transform="translate(-538.814 -312.702)"/>
        <path id="prefix__Path_120" d="M1093.017 505.463a11.185 11.185 0 0 1 8.06-7.1l.922 5.48 1.71-5.755a11.2 11.2 0 1 1-10.692 7.377z" class="prefix__cls-4" data-name="Path 120" transform="translate(-539.342 -311)"/>
        <path id="prefix__Path_121" d="M1101.707 606.836a11.2 11.2 0 0 0 9.911-19.921l-1.313 4.423-.932-5.544-.028-.011a11.2 11.2 0 1 0-7.637 21.054z" class="prefix__cls-7" data-name="Path 121" transform="translate(-540.257 -351.295)"/>
        <path id="prefix__Path_122" d="M1102.7 603.112a11.2 11.2 0 0 0 9.911-19.921l-1.313 4.423-.932-5.544-.028-.011a11.2 11.2 0 0 0-7.637 21.054z" class="prefix__cls-4" data-name="Path 122" transform="translate(-540.714 -349.57)"/>
        <path id="prefix__Path_123" d="M1086.23 648.779a11.193 11.193 0 1 0 2.158-8.769l4.99 7.51-6.818-3.986a11.094 11.094 0 0 0-.33 5.245z" class="prefix__cls-7" data-name="Path 123" transform="translate(-536.438 -374.696)"/>
        <path id="prefix__Path_124" d="M1087.087 646.021a11.193 11.193 0 1 0 2.158-8.769l4.989 7.51-6.817-3.986a11.094 11.094 0 0 0-.33 5.245z" class="prefix__cls-4" data-name="Path 124" transform="translate(-536.834 -373.419)"/>
        <path id="prefix__Path_125" d="M67.9 615.88a7.358 7.358 0 1 0 .98-14.111l.184 3.787-1.792-3.246a7.33 7.33 0 0 0-3.777 4.144 7.216 7.216 0 0 0-.423 1.99 7.356 7.356 0 0 0 4.828 7.436z" class="prefix__cls-6" data-name="Path 125" transform="translate(-63.054 -358.922)"/>
        <path id="prefix__Path_126" d="M87.348 654.375c-.632-3.221 2.108-6.076 4.815-7.932s5.87-3.679 6.794-6.829c1.328-4.527-2.627-8.672-5.7-12.247a44.3 44.3 0 0 1-5.842-8.682 11.95 11.95 0 0 1-1.4-3.948 13.624 13.624 0 0 1 1.051-5.917q3.245-9.564 6.939-18.967" class="prefix__cls-4" data-name="Path 126" transform="translate(-73.635 -353.616)"/>
        <path id="prefix__Path_127" d="M68.464 614.068a7.358 7.358 0 1 0 .98-14.111l.184 3.787-1.792-3.244a7.33 7.33 0 0 0-3.777 4.144 7.217 7.217 0 0 0-.423 1.99 7.356 7.356 0 0 0 4.828 7.434z" class="prefix__cls-4" data-name="Path 127" transform="translate(-63.314 -358.084)"/>
        <path id="prefix__Path_128" d="M86.487 583.263a7.349 7.349 0 0 1 5.3-4.666l.606 3.6 1.123-3.781a7.357 7.357 0 1 1-7.025 4.847z" class="prefix__cls-6" data-name="Path 128" transform="translate(-73.674 -348.185)"/>
        <path id="prefix__Path_129" d="M87.238 580.847a7.349 7.349 0 0 1 5.3-4.666l.606 3.6L94.263 576a7.357 7.357 0 1 1-7.025 4.847z" class="prefix__cls-4" data-name="Path 129" transform="translate(-74.021 -347.067)"/>
        <path id="prefix__Path_130" d="M92.948 647.451a7.357 7.357 0 0 0 6.512-13.089l-.863 2.906-.612-3.643-.019-.007a7.357 7.357 0 1 0-5.018 13.833z" class="prefix__cls-6" data-name="Path 130" transform="translate(-74.622 -373.539)"/>
        <path id="prefix__Path_131" d="M93.6 645a7.357 7.357 0 0 0 6.512-13.089l-.863 2.906-.612-3.643-.019-.007A7.357 7.357 0 0 0 93.6 645z" class="prefix__cls-4" data-name="Path 131" transform="translate(-74.922 -372.406)"/>
        <path id="prefix__Path_132" d="M82.779 675.008a7.354 7.354 0 1 0 1.418-5.762l3.278 4.934L83 671.562a7.289 7.289 0 0 0-.217 3.446z" class="prefix__cls-6" data-name="Path 132" transform="translate(-72.113 -388.965)"/>
        <path id="prefix__Path_133" d="M83.342 673.2a7.354 7.354 0 1 0 1.418-5.762l3.278 4.934-4.479-2.619a7.289 7.289 0 0 0-.217 3.447z" class="prefix__cls-4" data-name="Path 133" transform="translate(-72.373 -388.128)"/>
        <ellipse id="prefix__Ellipse_18" cx="9.147" cy="11.838" class="prefix__cls-2" data-name="Ellipse 18" rx="9.147" ry="11.838" transform="translate(249.266 163.95)"/>
        <ellipse id="prefix__Ellipse_19" cx="9.147" cy="11.838" class="prefix__cls-2" data-name="Ellipse 19" rx="9.147" ry="11.838" transform="translate(298.964 164.218)"/>
        <path id="prefix__Path_134" d="M594.861 534.185c0 5.349-7.469 9.685-16.681 9.685s-16.68-4.337-16.68-9.685c0-4.633 5.6-8.507 13.086-9.454a26.965 26.965 0 0 1 3.594-.231 27.281 27.281 0 0 1 5.989.646c6.253 1.393 10.692 4.918 10.692 9.039z" class="prefix__cls-2" data-name="Path 134" transform="translate(-293.709 -323.227)"/>
        <ellipse id="prefix__Ellipse_20" cx="9.147" cy="11.838" class="prefix__cls-4" data-name="Ellipse 20" rx="9.147" ry="11.838" transform="translate(251.415 161.265)"/>
        <ellipse id="prefix__Ellipse_21" cx="9.147" cy="11.838" class="prefix__cls-4" data-name="Ellipse 21" rx="9.147" ry="11.838" transform="translate(301.113 161.533)"/>
        <ellipse id="prefix__Ellipse_22" cx="16.681" cy="9.685" class="prefix__cls-4" data-name="Ellipse 22" rx="16.681" ry="9.685" transform="translate(269.94 198.588)"/>
        <path id="prefix__Path_135" d="M595.223 525.722a2.656 2.656 0 0 1-.71 1.825 2.334 2.334 0 0 1-1.711.758h-5.382a2.51 2.51 0 0 1-2.42-2.583 2.639 2.639 0 0 1 .441-1.475 25.309 25.309 0 0 1 3.594-.247 25.649 25.649 0 0 1 5.989.689 2.726 2.726 0 0 1 .199 1.033z" class="prefix__cls-8" data-name="Path 135" transform="translate(-304.565 -322.98)"/>
        <circle id="prefix__Ellipse_23" cx="2.69" cy="2.69" r="2.69" class="prefix__cls-8" data-name="Ellipse 23" transform="translate(257.871 167.185)"/>
        <circle id="prefix__Ellipse_24" cx="2.69" cy="2.69" r="2.69" class="prefix__cls-8" data-name="Ellipse 24" transform="translate(307.84 167.185)"/>
        <circle id="prefix__Ellipse_25" cx="2.69" cy="2.69" r="2.69" class="prefix__cls-9" data-name="Ellipse 25" transform="translate(310.526 192.426)"/>
        <circle id="prefix__Ellipse_26" cx="2.69" cy="2.69" r="2.69" class="prefix__cls-9" data-name="Ellipse 26" transform="translate(244.976 192.426)"/>
    </g>
</svg>
